<?xml version="1.0" encoding="utf-8"?>
<!-- Generator: Adobe Illustrator 27.1.1, SVG Export Plug-In . SVG Version: 6.00 Build 0)  -->
<svg version="1.1" id="Layer_1" xmlns="http://www.w3.org/2000/svg" xmlns:xlink="http://www.w3.org/1999/xlink" x="0px" y="0px"
	 viewBox="0 0 800 800" style="enable-background:new 0 0 800 800;" xml:space="preserve">
<style type="text/css">
	.st0{fill:#0264EB;}
	.st1{fill:#FFFFFF;}
	.st2{fill:#FEE600;}
</style>
<g>
	<path d="M750,0H50C22.4,0,0,22.4,0,50v700c0,27.6,22.4,50,50,50h700c27.6,0,50-22.4,50-50V50C800,22.4,777.6,0,750,0z M50,25h700
		c13.8,0,25,11.2,25,25v267.9l-142.6,83.9C618.6,385.4,598.1,375,575,375c-22.5,0-42.6,9.9-56.4,25.6L319.5,278.1
		c3.5-8.7,5.5-18.1,5.5-28.1c0-41.4-33.6-75-75-75s-75,33.6-75,75c0,16.2,5.2,31.1,13.9,43.4L25,457.3V50C25,36.2,36.2,25,50,25z
		 M575,400c27.6,0,50,22.4,50,50s-22.4,50-50,50s-50-22.4-50-50S547.4,400,575,400z M200,250c0-27.6,22.4-50,50-50s50,22.4,50,50
		s-22.4,50-50,50S200,277.6,200,250z M750,775H50c-13.8,0-25-11.2-25-25V492.7l181.6-181.6c12.3,8.7,27.2,13.9,43.4,13.9
		c22.5,0,42.6-9.9,56.4-25.6l199.1,122.5c-3.5,8.7-5.5,18.2-5.5,28.1c0,41.4,33.6,75,75,75s75-33.6,75-75c0-9.4-1.8-18.4-5-26.7
		l130-76.5V750C775,763.8,763.8,775,750,775z"/>
	<circle class="st0" cx="575" cy="450" r="50"/>
	<circle class="st0" cx="250" cy="250" r="50"/>
	<g>
		<path class="st1" d="M750,25H50c-13.8,0-25,11.2-25,25v407.3l163.9-163.9c-8.7-12.3-13.9-27.2-13.9-43.4c0-41.4,33.6-75,75-75
			s75,33.6,75,75c0,9.9-2,19.4-5.5,28.1l199.1,122.5c13.7-15.7,33.9-25.6,56.4-25.6c23.1,0,43.6,10.4,57.4,26.8L775,317.9V50
			C775,36.2,763.8,25,750,25z"/>
	</g>
	<path class="st2" d="M650,450c0,41.4-33.6,75-75,75s-75-33.6-75-75c0-9.9,2-19.4,5.5-28.1L306.4,299.4
		C292.6,315.1,272.5,325,250,325c-16.2,0-31.2-5.2-43.4-13.9L25,492.7V750c0,13.8,11.2,25,25,25h700c13.8,0,25-11.2,25-25V346.8
		l-130,76.5C648.2,431.6,650,440.6,650,450z"/>
</g>
</svg>
