<?xml version="1.0" encoding="utf-8"?>
<!-- Generator: Adobe Illustrator 27.1.1, SVG Export Plug-In . SVG Version: 6.00 Build 0)  -->
<svg version="1.1" id="Camada_1" xmlns="http://www.w3.org/2000/svg" xmlns:xlink="http://www.w3.org/1999/xlink" x="0px" y="0px"
	 viewBox="0 0 800 577.8" style="enable-background:new 0 0 800 577.8;" xml:space="preserve">
<style type="text/css">
	.st0{fill:#75AADB;}
	.st1{fill:#EEEEEE;}
	.st2{fill:#FCBF49;}
	.st3{fill:#843511;}
	.st4{fill:#C16540;}
	.st5{fill:#ED8662;}
</style>
<path class="st0" d="M800,488.9c0,49.1-39.8,88.9-88.9,88.9H88.9C39.8,577.8,0,538,0,488.9v-400C0,39.8,39.8,0,88.9,0h622.2
	C760.2,0,800,39.8,800,88.9V488.9z"/>
<path class="st1" d="M0,177.8h800V400H0V177.8z"/>
<path class="st2" d="M400,177.8l10.8,56.6l31.7-48.2l-11.7,56.4l47.7-32.4L446.2,258l56.5-11.6L454.5,278l56.6,10.8l-56.6,10.8
	l48.2,31.7l-56.5-11.7l32.4,47.7l-47.7-32.4l11.7,56.5l-31.7-48.2L400,400l-10.8-56.6l-31.7,48.2l11.6-56.5l-47.7,32.4l32.4-47.7
	l-56.4,11.7l48.2-31.7l-56.6-10.8l56.6-10.8l-48.2-31.7l56.4,11.6l-32.4-47.7l47.7,32.4l-11.6-56.4l31.7,48.2L400,177.8z"/>
<path class="st3" d="M400,207.3l5.4,28.1l2.6,13.4l7.5-11.4l15.7-23.9l-5.8,28l-2.8,13.4l11.3-7.7l23.7-16.1l-16.1,23.7l-7.7,11.3
	l13.4-2.8l28-5.8l-23.9,15.7l-11.4,7.5l13.4,2.6l28.1,5.4l-28.1,5.4l-13.4,2.6l11.4,7.5l23.9,15.7l-28-5.8l-13.4-2.8l7.7,11.3
	l16.1,23.7L434,330.5l-11.3-7.7l2.8,13.4l5.8,28l-15.7-23.9l-7.5-11.4l-2.6,13.4l-5.4,28.1l-5.4-28.1l-2.6-13.4l-7.5,11.4
	l-15.7,23.9l5.8-28l2.8-13.4l-11.3,7.7l-23.7,16.1l16.1-23.7l7.7-11.3l-13.4,2.8l-28,5.8l23.9-15.7l11.4-7.5l-13.4-2.6l-28.1-5.4
	l28.1-5.4l13.4-2.6l-11.4-7.5l-23.9-15.7l28,5.8l13.4,2.8l-7.7-11.3l-16.1-23.7l23.7,16.1l11.3,7.7l-2.8-13.4l-5.8-28l15.7,23.9
	l7.5,11.4l2.6-13.4L400,207.3 M400,177.8l-10.8,56.6l-31.7-48.2l11.6,56.5l-47.7-32.4l32.4,47.7l-56.4-11.6l48.2,31.7l-56.6,10.8
	l56.6,10.8l-48.2,31.7l56.4-11.7l-32.4,47.7l47.7-32.4l-11.6,56.5l31.7-48.2L400,400l10.8-56.6l31.7,48.2l-11.7-56.5l47.7,32.4
	l-32.4-47.7l56.5,11.7l-48.2-31.7l56.6-10.8L454.5,278l48.2-31.7L446.2,258l32.4-47.7l-47.7,32.4l11.7-56.5l-31.7,48.2L400,177.8z
	 M442.5,186.2h0.1H442.5z M478.6,210.3h0.1H478.6z M502.6,246.4h0.1H502.6z"/>
<circle class="st2" cx="400" cy="288.9" r="44.4"/>
<path class="st3" d="M400,336.1c-26,0-47.2-21.2-47.2-47.2s21.2-47.2,47.2-47.2c26,0,47.2,21.2,47.2,47.2S426,336.1,400,336.1z
	 M400,247.2c-23,0-41.7,18.7-41.7,41.7s18.7,41.7,41.7,41.7c23,0,41.7-18.7,41.7-41.7S423,247.2,400,247.2z"/>
<path class="st4" d="M395.6,283.9c0,3.4-5.8,6.2-13,6.2c-7.2,0-13-2.8-13-6.2s5.8-6.2,13-6.2C389.8,277.6,395.6,280.4,395.6,283.9z
	 M430.1,283.3c0-3.6-5.9-6.5-13.2-6.5c-7.3,0-13.2,2.9-13.2,6.5c0,3.6,5.9,6.5,13.2,6.5C424.2,289.8,430.1,286.9,430.1,283.3z"/>
<path class="st5" d="M388.1,308.3c0-2.8,5.5-5.1,12.2-5.1c6.7,0,12.2,2.3,12.2,5.1c0,2.8-5.5,5.1-12.2,5.1
	C393.5,313.4,388.1,311.1,388.1,308.3z"/>
</svg>
