<svg id="Layer_1" data-name="Layer 1" xmlns="http://www.w3.org/2000/svg" xmlns:xlink="http://www.w3.org/1999/xlink" viewBox="0 0 1500 1000"><defs><style>.cls-1{fill:none;}.cls-2{clip-path:url(#clip-path);}.cls-3{fill:#dc1f26;}.cls-4{fill:#71afde;}.cls-5{fill:#fff;}.cls-6{fill:#f5b31a;}.cls-7{fill:#84361c;}.cls-8{fill:#83371b;}</style><clipPath id="clip-path"><rect class="cls-1" width="1500" height="1000"/></clipPath></defs><title>flag-of-Argentina</title><g class="cls-2"><rect class="cls-3" x="-78.43" y="-100" width="1656.86" height="1200"/><rect class="cls-4" x="-38.71" width="1577.43" height="333.33"/><rect class="cls-4" x="-38.71" y="666.67" width="1577.43" height="333.33"/><rect class="cls-5" x="-38.71" y="333.33" width="1577.43" height="333.33"/><path class="cls-6" d="M743.54,502.68l58.23,126.88s1,2.42,2.62,1.76.61-3.09.61-3.09l-48.54-130.9m-1.39,49.36c-.71,19.3,11.16,29.91,9.61,47.15s7.92,27,10.11,33.67-2.37,10.71-.41,11.66,6.29-4.33,4.88-13.86-8.63-12.36-6.94-33.41-8.61-25.95-6.09-45.14"/><path class="cls-7" d="M774.88,640a1.88,1.88,0,0,1-.81-.18c-1.39-.67-.9-2.11-.38-3.63a12.2,12.2,0,0,0,.42-8.45,38.63,38.63,0,0,0-3-6c-3.52-6.38-8.34-15.11-7.19-27.92.76-8.47-1.78-15.3-4.47-22.53s-5.5-14.8-5.14-24.57l1.43.05c-.35,9.49,2.4,16.88,5.06,24,2.74,7.39,5.34,14.36,4.55,23.16-1.11,12.37,3.59,20.88,7,27.1a40.41,40.41,0,0,1,3.06,6.29,13.68,13.68,0,0,1-.43,9.36c-.36,1.06-.58,1.77-.35,1.88s.58,0,1-.31c1.73-1.27,3.92-5.73,2.87-12.81a28,28,0,0,0-2.81-8.15c-2.47-5.31-5.27-11.32-4.13-25.41.83-10.32-1.26-16.7-3.29-22.87-1.74-5.31-3.4-10.39-3.19-17.54L742.89,503l1.3-.6,21.13,46c0-.57.12-1.16.2-1.76l1.42.19c-.2,1.52-.31,2.95-.36,4.31l35.84,78.1s.79,1.77,1.7,1.4a.66.66,0,0,0,.38-.37,2.93,2.93,0,0,0-.16-1.79L755.78,497.58l1.35-.5L805.67,628a4.23,4.23,0,0,1,.16,2.86,2.1,2.1,0,0,1-1.17,1.15c-1.8.73-3.11-1.09-3.55-2.15l-34.5-75.18c.28,5.34,1.65,9.52,3.08,13.87,2.07,6.31,4.2,12.83,3.35,23.43-1.11,13.72,1.61,19.55,4,24.69A29.43,29.43,0,0,1,780,625.2c1.07,7.22-1,12.41-3.44,14.18A2.85,2.85,0,0,1,774.88,640Z"/><path class="cls-6" d="M743,500l5.25,139.5s0,2.63,1.75,2.63,1.75-2.62,1.75-2.62L757,500m-20.17,45.07c-8,17.56-1.14,31.9-9.16,47.23s-3,28-3.56,35-6.28,9-4.83,10.62,7.46-1.6,9.81-10.94-3.24-14.73,6.38-33.52,2-27.26,11.63-44"/><path class="cls-7" d="M750,642.86c-2,0-2.47-2.2-2.47-3.36l-3.11-82.65c-1.77,5-2.1,9.43-2.45,14-.5,6.62-1,13.47-5.87,22.93-6.27,12.25-6,18.68-5.75,24.35a29.53,29.53,0,0,1-.57,9c-1.78,7.08-5.72,11.07-8.62,11.77a2.32,2.32,0,0,1-2.43-.54c-1-1.15,0-2.29,1-3.5a12.24,12.24,0,0,0,3.61-7.65,39,39,0,0,0-.4-6.7c-.81-7.24-1.93-17.16,4-28.55,4-7.54,4.22-14.82,4.5-22.53s.58-15.78,4.65-24.67l1.3.6c-4,8.63-4.24,16.51-4.52,24.13-.29,7.87-.56,15.31-4.66,23.13-5.76,11-4.68,20.67-3.89,27.73a39,39,0,0,1,.42,7,13.68,13.68,0,0,1-4,8.49c-.76.87-1.21,1.41-1,1.6s.53.21,1,.1c2.08-.51,5.82-3.79,7.56-10.73a28.25,28.25,0,0,0,.53-8.62c-.25-5.85-.54-12.47,5.91-25.06,4.72-9.21,5.23-15.91,5.72-22.39.42-5.57.82-10.89,3.75-17.42l-2-53.28,1.44,0,1.9,50.6c.27-.5.55-1,.85-1.53l1.24.72c-.76,1.32-1.41,2.6-2,3.83L749,639.48s0,1.94,1,1.94,1-1.88,1-1.9L756.27,500l1.44,0-5.24,139.51C752.47,640.67,752,642.86,750,642.86Z"/><path class="cls-6" d="M743.53,497.32,695,628.22s-1,2.43.61,3.09,2.61-1.74,2.61-1.74l58.24-126.89M720.57,536.6c-14.14,13.14-13.25,29-26.53,40.13s-13.49,24.66-16.67,31-9.26,5.9-8.54,8,7.52,1.37,13.26-6.35,2.62-14.85,18.71-28.53,12.26-24.43,27.61-36.23"/><path class="cls-7" d="M696.17,632.15a2.29,2.29,0,0,1-.84-.17,2.08,2.08,0,0,1-1.16-1.15,4.23,4.23,0,0,1,.16-2.89l28.75-77.54c-3.56,4-5.54,7.9-7.61,12-3,5.92-6.1,12-14.2,18.94-10.49,8.92-12.69,15-14.62,20.29a29.59,29.59,0,0,1-4,8.11c-4.36,5.86-9.52,8-12.47,7.59a2.34,2.34,0,0,1-2-1.42c-.52-1.46.85-2.13,2.29-2.84a12.27,12.27,0,0,0,6.28-5.69,38.52,38.52,0,0,0,2.19-6.35c2-7,4.78-16.58,14.65-24.83,6.54-5.45,9.57-12.08,12.78-19.09s6.57-14.36,13.73-21l1,1.06c-6.95,6.46-10.23,13.62-13.4,20.56-3.28,7.16-6.38,13.93-13.16,19.59-9.54,8-12.23,17.31-14.2,24.13A39.41,39.41,0,0,1,678,608a13.67,13.67,0,0,1-6.93,6.33c-1,.49-1.65.83-1.57,1.07s.42.41.91.48c2.12.32,6.82-1.28,11.09-7a28.37,28.37,0,0,0,3.79-7.75c2-5.5,4.26-11.73,15-20.89,7.89-6.71,10.93-12.7,13.86-18.5,2.52-5,4.93-9.74,10.12-14.65l18.54-50,1.35.5-17.61,47.5c.44-.36.9-.73,1.38-1.1l.88,1.14q-1.83,1.41-3.31,2.79l-29.87,80.57a2.94,2.94,0,0,0-.18,1.81.68.68,0,0,0,.39.37c.91.38,1.67-1.34,1.67-1.36L755.8,502.38l1.31.6L698.87,629.87A4.24,4.24,0,0,1,697,632,2,2,0,0,1,696.17,632.15Z"/><path class="cls-6" d="M745.05,495.06,650.11,597.42s-1.86,1.85-.62,3.08,3.09-.61,3.09-.61L755,505m-46.15,17.6c-18.1,6.73-23.36,21.76-39.88,26.93S647,567.1,641.69,571.71s-10.81,1.9-10.94,4.08,6.42,4.14,14.68-.8,8.12-12.71,28.21-19.2,20.67-17.88,39.37-22.9"/><path class="cls-7" d="M650.48,601.65a2.17,2.17,0,0,1-2.13-2.15,4.24,4.24,0,0,1,1.26-2.59l56.25-60.66c-4.82,2.31-8.16,5.18-11.64,8.17-5,4.32-10.24,8.79-20.36,12.06-13.09,4.23-17.44,9-21.27,13.15a29.62,29.62,0,0,1-6.79,6c-6.26,3.74-11.87,3.78-14.42,2.24a2.35,2.35,0,0,1-1.34-2.1c.08-1.55,1.6-1.64,3.21-1.75a12.22,12.22,0,0,0,8-2.84,38.24,38.24,0,0,0,4.43-5c4.55-5.7,10.77-13.51,23.06-17.35,8.12-2.54,13.46-7.5,19.11-12.75s11.57-10.75,20.73-14.16l.5,1.35c-8.89,3.3-14.67,8.67-20.26,13.86-5.77,5.37-11.22,10.44-19.65,13.07-11.87,3.71-17.94,11.32-22.36,16.88a40.87,40.87,0,0,1-4.62,5.21,13.66,13.66,0,0,1-8.82,3.19c-1.12.07-1.85.13-1.87.39s.23.53.65.79c1.84,1.11,6.8,1.43,12.94-2.25a28.27,28.27,0,0,0,6.47-5.71c4-4.31,8.43-9.2,21.89-13.55,9.84-3.17,14.94-7.55,19.86-11.78,4.25-3.65,8.3-7.13,15-9.67l36.25-39.09,1.06,1-34.44,37.14c.54-.17,1.1-.33,1.68-.49l.38,1.39c-1.48.4-2.85.84-4.11,1.31l-58.45,63S649.3,599.3,650,600s2.07-.61,2.08-.62l102.38-94.95,1,1.05L653.07,600.42A4.07,4.07,0,0,1,650.48,601.65Z"/><path class="cls-7" d="M758.82,550c.93,18.53,11.44,26.73,9.38,43.62,4.53-13.34-6.39-23.7-5.78-43.42m-15.65-48.63,39.88,87.15-33.42-89.82"/><path class="cls-7" d="M739,549.54c-6.23,17.46.34,29.07-8,43.89,9.3-10.61,3.17-24.36,11.29-42.34m4.15-50.92,3.5,95.78,3.5-95.78"/><path class="cls-7" d="M720.91,541.57c-12.45,13.76-10.82,27-24.22,37.47,12.65-6.24,12.24-21.28,26.63-34.8m23.31-45.44-33.41,89.82,39.88-87.15"/><path class="cls-7" d="M707.22,527.26c-16.76,8-20.33,20.8-36.72,25.37,14.08-.94,19.46-15,37.92-22m38.93-33.08-65.25,70.2,70.19-65.25"/><path class="cls-6" d="M747.32,493.53,620.43,551.77s-2.41,1-1.75,2.62,3.1.61,3.1.61l130.9-48.54m-49.37-1.39c-19.3-.71-29.9,11.16-47.14,9.62s-27,7.91-33.68,10.11-10.71-2.38-11.66-.42,4.33,6.29,13.87,4.88,12.35-8.63,33.4-6.94,25.95-8.61,45.15-6.09"/><path class="cls-7" d="M620.26,556a2.77,2.77,0,0,1-1.09-.2,2.07,2.07,0,0,1-1.15-1.17c-.74-1.79,1.07-3.11,2.13-3.55l75.17-34.5c-5.32.29-9.5,1.66-13.84,3.08-6.31,2.07-12.83,4.21-23.44,3.35-13.72-1.1-19.55,1.61-24.69,4a29.36,29.36,0,0,1-8.54,2.92c-7.23,1.08-12.43-1-14.19-3.45a2.33,2.33,0,0,1-.43-2.45c.67-1.39,2.11-.9,3.63-.38a12.19,12.19,0,0,0,8.45.42,39.33,39.33,0,0,0,6-2.94c6.38-3.53,15.11-8.35,27.92-7.2,8.48.76,15.31-1.78,22.53-4.47s14.81-5.5,24.58-5.14l-.05,1.43c-9.48-.35-16.88,2.4-24,5.06-7.39,2.75-14.37,5.34-23.17,4.55-12.37-1.12-20.88,3.59-27.09,7a39.94,39.94,0,0,1-6.29,3.06,13.65,13.65,0,0,1-9.37-.43c-1.06-.36-1.76-.58-1.87-.35s0,.58.3,1c1.26,1.73,5.72,3.93,12.82,2.87a28.54,28.54,0,0,0,8.15-2.8c5.3-2.48,11.31-5.28,25.41-4.14,10.31.83,16.7-1.26,22.87-3.28,5.31-1.74,10.38-3.41,17.51-3.2L747,492.88l.6,1.3-46,21.14c.58,0,1.17.12,1.77.2l-.18,1.42c-1.53-.2-3-.31-4.33-.36l-78.1,35.84s-1.76.78-1.38,1.7a.68.68,0,0,0,.37.39,2.91,2.91,0,0,0,1.78-.17l130.93-48.55.5,1.34L622,555.68A5.17,5.17,0,0,1,620.26,556Z"/><path class="cls-6" d="M750,493,610.5,498.25s-2.63,0-2.64,1.75,2.64,1.75,2.64,1.75L750,507m-45.07-20.17c-17.55-8-31.9-1.13-47.23-9.16s-28-3-35-3.56-9-6.28-10.62-4.83,1.6,7.47,10.95,9.81,14.72-3.24,33.51,6.38,27.28,2,44.05,11.63"/><path class="cls-7" d="M750,507.71l-139.5-5.24h0c-1.14,0-3.33-.52-3.33-2.47s2.2-2.46,3.36-2.46l82.66-3.12c-5-1.77-9.43-2.1-14-2.45-6.62-.5-13.47-1-22.94-5.87-12.25-6.27-18.68-6-24.35-5.75a29.49,29.49,0,0,1-9-.57c-7.08-1.78-11.08-5.72-11.78-8.62a2.35,2.35,0,0,1,.54-2.43c1.15-1,2.29,0,3.51,1a12.21,12.21,0,0,0,7.64,3.61,38.21,38.21,0,0,0,6.71-.4c7.23-.81,17.15-1.93,28.54,4,7.54,4,14.82,4.22,22.53,4.5s15.79.58,24.67,4.65l-.6,1.3c-8.62-4-16.5-4.24-24.12-4.51-7.88-.29-15.32-.57-23.14-4.66-11-5.77-20.67-4.68-27.73-3.89a39.8,39.8,0,0,1-7,.41,13.68,13.68,0,0,1-8.48-4c-.87-.76-1.42-1.21-1.61-1s-.21.53-.1,1c.51,2.08,3.79,5.82,10.74,7.57a28.5,28.5,0,0,0,8.61.53c5.85-.26,12.47-.54,25.06,5.9,9.22,4.72,15.92,5.23,22.4,5.72,5.57.42,10.89.82,17.42,3.75l53.27-2,0,1.44-50.59,1.9c.5.27,1,.55,1.53.85l-.72,1.25a42.66,42.66,0,0,0-3.83-2L610.52,499s-1.93,0-1.94,1,1.9,1,1.92,1L750,506.27Z"/><path class="cls-6" d="M752.68,493.53,621.78,445s-2.42-1-3.09.61,1.76,2.61,1.76,2.61l126.87,58.24M713.4,470.57c-13.14-14.14-29-13.25-40.13-26.53s-24.67-13.49-31-16.67-5.89-9.26-8-8.54-1.37,7.52,6.35,13.26,14.84,2.62,28.53,18.71,24.43,12.26,36.24,27.61"/><path class="cls-7" d="M747,507.11,620.15,448.87A4.22,4.22,0,0,1,618,447a2.12,2.12,0,0,1,0-1.64,2.15,2.15,0,0,1,1.16-1.17,4.3,4.3,0,0,1,2.88.17l77.55,28.76c-4-3.57-7.9-5.55-12-7.62-5.93-3-12-6.1-19-14.2-8.92-10.49-15-12.69-20.29-14.62a29.59,29.59,0,0,1-8.11-4c-5.86-4.36-8-9.52-7.59-12.47a2.34,2.34,0,0,1,1.42-2c1.47-.52,2.14.85,2.85,2.3a12.27,12.27,0,0,0,5.68,6.27,38.52,38.52,0,0,0,6.35,2.19c7,2,16.58,4.78,24.83,14.65,5.45,6.54,12.08,9.57,19.09,12.78s14.36,6.57,21,13.73l-1.06,1c-6.46-6.95-13.62-10.23-20.56-13.4-7.16-3.28-13.93-6.38-19.59-13.16-8-9.54-17.31-12.24-24.13-14.2A39.41,39.41,0,0,1,642,428a13.67,13.67,0,0,1-6.32-6.92c-.51-1-.83-1.65-1.08-1.58s-.41.42-.48.91c-.33,2.12,1.28,6.82,7,11.09a28.37,28.37,0,0,0,7.75,3.79c5.5,2,11.73,4.26,20.89,15,6.71,7.89,12.71,10.93,18.51,13.86,5,2.52,9.74,4.93,14.66,10.13l50,18.53-.5,1.35L705,476.6c.36.44.73.9,1.09,1.37l-1.14.88c-.93-1.22-1.86-2.31-2.78-3.3l-80.59-29.88s-1.8-.71-2.18.21a.65.65,0,0,0,0,.53,2.87,2.87,0,0,0,1.38,1.14l126.9,58.25Z"/><path class="cls-6" d="M755,495.05,652.59,400.11s-1.86-1.86-3.09-.62.62,3.09.62,3.09L745.06,505M727.45,458.8c-6.73-18.1-21.76-23.36-26.91-39.88S682.9,397,678.31,391.69s-1.91-10.81-4.1-10.94-4.14,6.42.8,14.68,12.71,8.12,19.2,28.21,17.88,20.67,22.9,39.37"/><path class="cls-7" d="M744.53,505.44,649.59,403.07a5.39,5.39,0,0,1-.89-1.25A2.3,2.3,0,0,1,649,399c1.38-1.38,3.29-.19,4.11.62l60.64,56.24c-2.31-4.81-5.18-8.15-8.16-11.62-4.32-5-8.79-10.24-12.06-20.36-4.23-13.09-9-17.44-13.15-21.27a29.62,29.62,0,0,1-6-6.79c-3.74-6.26-3.78-11.87-2.24-14.42a2.35,2.35,0,0,1,2.1-1.34c1.55.08,1.65,1.6,1.75,3.21a12.3,12.3,0,0,0,2.85,8,39.14,39.14,0,0,0,5,4.44c5.69,4.55,13.5,10.77,17.34,23,2.54,8.12,7.5,13.46,12.75,19.11s10.74,11.57,14.15,20.73l-1.35.5c-3.3-8.89-8.67-14.66-13.86-20.25-5.36-5.77-10.43-11.23-13.06-19.66-3.71-11.86-11.32-17.93-16.87-22.35a41,41,0,0,1-5.22-4.63,13.71,13.71,0,0,1-3.19-8.81c-.08-1.16-.14-1.86-.4-1.88s-.53.23-.79.65c-1.11,1.84-1.43,6.8,2.25,12.94a28.27,28.27,0,0,0,5.71,6.47c4.32,4,9.21,8.43,13.55,21.89,3.18,9.84,7.55,14.94,11.78,19.86,3.65,4.24,7.12,8.29,9.67,15l39.11,36.27-1,1.06-37.15-34.46c.17.55.33,1.12.49,1.7l-1.39.38c-.4-1.49-.84-2.86-1.31-4.13l-63-58.43s-1.39-1.34-2.09-.64c-.13.12-.41.4,0,1.18a4.39,4.39,0,0,0,.64.9l95,102.38Z"/><path class="cls-7" d="M700,508.82c-18.53.93-26.73,11.44-43.62,9.38,13.35,4.53,23.7-6.39,43.42-5.78m48.63-15.65-87.13,39.88,89.82-33.42"/><path class="cls-7" d="M700.46,489c-17.46-6.23-29.07.34-43.89-8,10.61,9.3,24.36,3.17,42.34,11.29m50.92,4.15-95.78,3.5,95.78,3.5"/><path class="cls-7" d="M708.44,470.91c-13.76-12.45-27-10.82-37.48-24.22,6.25,12.65,21.29,12.23,34.79,26.63m45.46,23.31-89.82-33.41,87.15,39.88"/><path class="cls-7" d="M722.74,457.22c-8-16.77-20.8-20.33-25.36-36.72.93,14.07,15,19.46,22,37.92m33.07,38.93-70.2-65.25,65.25,70.2"/><path class="cls-6" d="M756.46,497.32,698.22,370.43s-1-2.41-2.6-1.75-.62,3.1-.62,3.1l48.53,130.9m1.4-49.37c.71-19.3-11.16-29.91-9.61-47.14s-7.91-27-10.11-33.68,2.37-10.71.41-11.66-6.29,4.33-4.88,13.87,8.64,12.35,6.94,33.4,8.6,25.95,6.09,45.15"/><path class="cls-7" d="M742.86,502.93,694.33,372a4.24,4.24,0,0,1-.16-2.86,2.1,2.1,0,0,1,1.17-1.15c1.8-.74,3.11,1.07,3.55,2.14l34.5,75.17c-.29-5.32-1.66-9.5-3.08-13.84-2.07-6.31-4.21-12.84-3.34-23.45,1.1-13.71-1.62-19.54-4-24.68A29.11,29.11,0,0,1,720,374.8c-1.07-7.22,1-12.41,3.44-14.18a2.36,2.36,0,0,1,2.47-.43c1.38.67.89,2.1.37,3.63a12.31,12.31,0,0,0-.42,8.45,38.58,38.58,0,0,0,3,6c3.52,6.38,8.35,15.11,7.2,27.92-.76,8.48,1.77,15.31,4.46,22.54s5.51,14.8,5.15,24.57l-1.44,0c.35-9.49-2.4-16.88-5.05-24-2.75-7.39-5.34-14.37-4.55-23.17,1.11-12.37-3.6-20.88-7-27.1a39.33,39.33,0,0,1-3.05-6.28,13.66,13.66,0,0,1,.42-9.37c.37-1.06.59-1.76.36-1.87s-.59,0-1,.3c-1.73,1.27-3.92,5.73-2.87,12.82a28.21,28.21,0,0,0,2.81,8.16c2.47,5.3,5.27,11.3,4.14,25.4-.84,10.32,1.25,16.7,3.27,22.88,1.75,5.31,3.41,10.38,3.2,17.52L757.12,497l-1.31.6-21.13-46c0,.57-.12,1.16-.19,1.75l-1.43-.18a43.14,43.14,0,0,0,.36-4.31l-35.85-78.12s-.77-1.77-1.68-1.38c-.16.06-.53.21-.47,1a4,4,0,0,0,.25,1.11l48.54,130.92Z"/><path class="cls-6" d="M757,500l-5.24-139.5s0-2.63-1.75-2.63-1.74,2.62-1.74,2.62L743,500m20.19-45.07c8-17.55,1.13-31.9,9.16-47.23s3-27.95,3.54-35,6.29-9,4.84-10.62-7.46,1.6-9.81,11,3.25,14.72-6.37,33.51-2,27.28-11.65,44.05"/><path class="cls-7" d="M743.72,500l-1.44,0,5.26-139.51c0-1.13.51-3.32,2.46-3.32s2.47,2.2,2.47,3.36l3.11,82.66c1.77-5,2.11-9.43,2.45-14,.51-6.62,1-13.47,5.88-22.93,6.27-12.26,6-18.68,5.74-24.34a29.87,29.87,0,0,1,.58-9c1.77-7.08,5.7-11.07,8.6-11.78a2.36,2.36,0,0,1,2.44.53c1,1.16,0,2.3-1,3.51a12.24,12.24,0,0,0-3.62,7.65,38.28,38.28,0,0,0,.41,6.71c.81,7.24,1.93,17.15-4,28.54-3.94,7.54-4.21,14.82-4.49,22.53s-.58,15.79-4.65,24.67l-1.31-.6c4-8.62,4.24-16.5,4.52-24.12.29-7.88.56-15.32,4.66-23.14,5.76-11,4.67-20.67,3.88-27.72a39.91,39.91,0,0,1-.41-7,13.65,13.65,0,0,1,4-8.49c.74-.84,1.22-1.41,1.05-1.6s-.54-.22-1-.1c-2.09.52-5.82,3.8-7.56,10.74a28.5,28.5,0,0,0-.53,8.61c.25,5.85.54,12.47-5.91,25.06-4.71,9.21-5.22,15.91-5.71,22.39-.43,5.58-.83,10.9-3.76,17.43l2,53.27-1.43,0-1.91-50.6c-.26.51-.55,1-.85,1.54l-1.24-.72c.76-1.32,1.42-2.6,2-3.83L751,360.52s0-1.94-1-1.94-1,1.88-1,1.9Z"/><path class="cls-6" d="M756.47,502.68,805,371.78s1-2.42-.61-3.09-2.62,1.76-2.62,1.76L743.55,497.32m35.88-33.92c14.15-13.14,13.26-29,26.54-40.13s13.48-24.67,16.66-31,9.25-5.89,8.54-8-7.51-1.37-13.25,6.35-2.64,14.84-18.73,28.53-12.25,24.43-27.59,36.24"/><path class="cls-7" d="M757.14,502.93l-1.35-.5L773.4,455c-.44.36-.89.73-1.37,1.09l-.87-1.14c1.21-.93,2.3-1.86,3.29-2.78l29.89-80.59s.7-1.8-.22-2.18-1.67,1.35-1.68,1.37L744.2,497.62l-1.3-.59,58.22-126.88A4.24,4.24,0,0,1,803,368a2.12,2.12,0,0,1,1.64,0c1.79.75,1.43,3,1,4l-28.76,77.56c3.57-4,5.55-7.91,7.62-12,3-5.93,6.1-12.05,14.2-18.95,10.48-8.92,12.69-15,14.63-20.29a29.5,29.5,0,0,1,4-8.12c4.35-5.85,9.51-8,12.46-7.58a2.36,2.36,0,0,1,2.05,1.42c.5,1.47-.86,2.14-2.3,2.85a12.15,12.15,0,0,0-6.27,5.68,38.52,38.52,0,0,0-2.19,6.35c-2,7-4.78,16.58-14.66,24.83-6.53,5.45-9.56,12.08-12.78,19.09s-6.57,14.36-13.73,21l-1-1.05c6.94-6.46,10.23-13.62,13.4-20.56,3.28-7.16,6.38-13.93,13.16-19.59,9.54-8,12.23-17.31,14.2-24.13A40.39,40.39,0,0,1,822,392a13.62,13.62,0,0,1,6.92-6.32c1-.51,1.67-.84,1.58-1.09s-.41-.4-.9-.47c-2.12-.33-6.83,1.27-11.1,7a28.34,28.34,0,0,0-3.78,7.75c-2,5.5-4.28,11.73-15.05,20.89-7.88,6.71-10.92,12.71-13.85,18.51-2.52,5-4.93,9.75-10.13,14.66Z"/><path class="cls-6" d="M755,505l94.94-102.37s1.86-1.86.62-3.09-3.09.62-3.09.62L745.06,495.06m46.14-17.61c18.1-6.73,23.36-21.76,39.88-26.91S853,432.9,858.31,428.31s10.81-1.91,10.94-4.1-6.42-4.14-14.68.8-8.1,12.71-28.21,19.2-20.67,17.88-39.37,22.9"/><path class="cls-7" d="M755.48,505.45l-1.06-1,34.46-37.15c-.55.17-1.12.33-1.7.49l-.38-1.39c1.49-.4,2.86-.84,4.13-1.31l58.43-63s1.34-1.39.64-2.09c-.12-.13-.4-.41-1.18,0a4.39,4.39,0,0,0-.9.64L745.55,495.58l-1-1.05,102.35-94.94a5.39,5.39,0,0,1,1.25-.89,2.25,2.25,0,0,1,3.12,3.13,5,5,0,0,1-.91,1.27l-56.23,60.64c4.81-2.31,8.15-5.18,11.62-8.16,5-4.32,10.24-8.79,20.36-12.06,13.1-4.23,17.45-9,21.28-13.15a29.56,29.56,0,0,1,6.78-6c6.26-3.74,11.87-3.78,14.42-2.24a2.35,2.35,0,0,1,1.34,2.1c-.08,1.55-1.6,1.65-3.21,1.75a12.3,12.3,0,0,0-8,2.85,39.66,39.66,0,0,0-4.44,5c-4.55,5.7-10.77,13.51-23.05,17.35-8.12,2.54-13.46,7.5-19.11,12.75s-11.57,10.74-20.73,14.15l-.5-1.35c8.89-3.3,14.66-8.67,20.25-13.86,5.78-5.36,11.23-10.43,19.66-13.06,11.86-3.71,17.93-11.32,22.35-16.87a41,41,0,0,1,4.63-5.22,13.71,13.71,0,0,1,8.81-3.19c1.16-.08,1.86-.14,1.88-.4s-.23-.53-.65-.79c-1.84-1.11-6.8-1.43-12.94,2.25a28,28,0,0,0-6.46,5.71c-4,4.32-8.43,9.21-21.9,13.55-9.84,3.18-14.94,7.55-19.86,11.78-4.25,3.65-8.29,7.12-15,9.67Z"/><path class="cls-7" d="M741.18,450c-.93-18.53-11.44-26.73-9.37-43.62-4.54,13.36,6.39,23.7,5.77,43.42m15.65,48.63-39.88-87.13,33.42,89.82"/><path class="cls-7" d="M761,450.46c6.22-17.46-.34-29.07,8-43.89-9.28,10.61-3.16,24.36-11.28,42.34m-4.15,50.92-3.49-95.78-3.51,95.78"/><path class="cls-7" d="M779.09,458.44c12.45-13.77,10.82-27,24.22-37.48-12.65,6.24-12.23,21.28-26.63,34.8M753.37,501.2l33.41-89.82L746.9,498.53"/><path class="cls-7" d="M792.78,472.73c16.77-8,20.33-20.79,36.72-25.35-14.07.93-19.46,15-37.92,22M752.65,502.4l65.25-70.19-70.2,65.25"/><path class="cls-6" d="M752.68,506.47l126.88-58.24s2.42-1,1.76-2.61-3.09-.62-3.09-.62l-130.9,48.53m49.36,1.4c19.3.71,29.91-11.16,47.15-9.61s27-7.91,33.68-10.11,10.7,2.37,11.65.41-4.33-6.29-13.86-4.88-12.36,8.64-33.41,6.94-25.95,8.6-45.14,6.09"/><path class="cls-7" d="M753,507.12l-.6-1.31,46-21.13c-.57-.05-1.15-.12-1.75-.19l.19-1.43c1.52.2,2.95.32,4.31.37l78.1-35.86s1.77-.77,1.4-1.68a.65.65,0,0,0-.37-.39,2.93,2.93,0,0,0-1.79.17L747.58,494.21l-.5-1.35L878,444.33a4.23,4.23,0,0,1,2.86-.16,2.15,2.15,0,0,1,1.15,1.18c.74,1.79-1.09,3.1-2.15,3.54l-75.18,34.5c5.33-.28,9.51-1.65,13.86-3.08,6.31-2.07,12.83-4.21,23.44-3.34,13.71,1.1,19.54-1.62,24.68-4A29.21,29.21,0,0,1,875.2,470c7.21-1.06,12.4,1,14.18,3.43a2.39,2.39,0,0,1,.44,2.47c-.67,1.39-2.11.9-3.63.38a12.31,12.31,0,0,0-8.45-.42,39.05,39.05,0,0,0-6,2.95c-6.38,3.52-15.12,8.35-27.93,7.2-8.47-.77-15.3,1.78-22.53,4.46s-14.8,5.53-24.57,5.15l.05-1.44c9.49.36,16.88-2.39,24-5,7.39-2.75,14.36-5.34,23.16-4.55,12.37,1.11,20.88-3.6,27.1-7a39.38,39.38,0,0,1,6.29-3.05,13.62,13.62,0,0,1,9.36.43c1.07.36,1.77.57,1.88.35s0-.59-.31-1c-1.27-1.73-5.74-3.92-12.81-2.87a28.1,28.1,0,0,0-8.16,2.81c-5.31,2.47-11.31,5.28-25.4,4.14-10.33-.84-16.71,1.25-22.88,3.28-5.31,1.74-10.38,3.41-17.53,3.19Z"/><path class="cls-6" d="M750,507l139.49-5.25s2.64,0,2.64-1.74-2.62-1.75-2.62-1.75L750,493m45.07,20.19c17.56,8,31.9,1.13,47.23,9.16s28,3,35,3.54,9,6.29,10.62,4.85-1.6-7.47-10.94-9.81-14.73,3.24-33.52-6.38-27.26-2-44-11.65"/><path class="cls-7" d="M887.36,531.7a4.5,4.5,0,0,1-2.48-1.47,12.24,12.24,0,0,0-7.65-3.62,38.33,38.33,0,0,0-6.71.41c-7.24.81-17.15,1.93-28.54-4-7.54-3.94-14.82-4.21-22.53-4.49s-15.78-.58-24.67-4.65l.6-1.31c8.63,4,16.51,4.24,24.13,4.52,7.87.29,15.31.56,23.13,4.66,11,5.76,20.67,4.67,27.72,3.88a39.91,39.91,0,0,1,7-.41,13.65,13.65,0,0,1,8.49,4c.84.74,1.41,1.21,1.6,1.05s.22-.54.1-1c-.52-2.08-3.8-5.81-10.73-7.56a28.57,28.57,0,0,0-8.62-.53c-5.84.25-12.47.54-25.06-5.9-9.21-4.72-15.9-5.23-22.38-5.72-5.58-.43-10.9-.83-17.43-3.76l-53.28,2,0-1.43,50.61-1.9c-.51-.27-1-.56-1.54-.86l.72-1.24c1.33.76,2.6,1.42,3.83,2L889.48,501s1.94,0,1.94-1-1.89-1-1.9-1L750,493.72l0-1.44,139.51,5.26h0c1.12,0,3.31.52,3.31,2.47s-2.2,2.46-3.36,2.46l-82.65,3.11c5,1.77,9.43,2.11,14,2.46,6.62.5,13.46,1,22.92,5.87,12.26,6.27,18.68,6,24.35,5.75a29.55,29.55,0,0,1,9,.57c7.07,1.78,11.06,5.7,11.77,8.6a2.35,2.35,0,0,1-.53,2.44A1.56,1.56,0,0,1,887.36,531.7Z"/><path class="cls-6" d="M747.32,506.47,878.22,555s2.43,1,3.09-.61-1.74-2.62-1.74-2.62L752.68,493.54m33.92,35.89c13.15,14.15,29,13.26,40.13,26.54s24.68,13.48,31,16.66,5.88,9.25,7.95,8.54,1.37-7.51-6.35-13.25-14.84-2.64-28.53-18.73-24.43-12.25-36.23-27.59"/><path class="cls-7" d="M865.3,582c-1.08,0-1.65-1.18-2.26-2.42a12.16,12.16,0,0,0-5.67-6.27,39.55,39.55,0,0,0-6.35-2.18c-7-2-16.59-4.79-24.84-14.66-5.45-6.53-12.08-9.56-19.09-12.78s-14.36-6.57-21-13.73l1-1c6.46,6.95,13.62,10.24,20.56,13.41,7.16,3.28,13.93,6.38,19.59,13.16,8,9.54,17.32,12.23,24.14,14.2A40.39,40.39,0,0,1,858,572a13.59,13.59,0,0,1,6.31,6.92c.51,1,.83,1.67,1.09,1.58s.4-.41.47-.9c.33-2.12-1.28-6.83-7-11.1a28.34,28.34,0,0,0-7.75-3.78c-5.5-2-11.73-4.27-20.89-15.05-6.71-7.88-12.7-10.92-18.5-13.85-5-2.52-9.75-4.93-14.66-10.13l-50-18.54.5-1.35,47.49,17.62c-.36-.44-.72-.9-1.09-1.38l1.14-.87c.93,1.21,1.86,2.3,2.78,3.3l80.58,29.88s1.8.69,2.18-.22-1.34-1.67-1.36-1.68L752.38,494.19l.6-1.31,126.89,58.24A4.23,4.23,0,0,1,882,553a2.1,2.1,0,0,1,0,1.63,2.29,2.29,0,0,1-2.51,1.35,4.94,4.94,0,0,1-1.52-.35L800.4,526.92c4,3.56,7.89,5.54,12,7.61,5.92,3,12,6.1,18.94,14.2,8.92,10.49,15,12.69,20.29,14.63a29.5,29.5,0,0,1,8.12,4c5.85,4.35,8,9.51,7.58,12.46a2.36,2.36,0,0,1-1.42,2.05A2,2,0,0,1,865.3,582Z"/><path class="cls-6" d="M745.06,505l102.36,94.94s1.85,1.86,3.08.62-.61-3.09-.61-3.09L755,495.05m17.6,46.15c6.73,18.1,21.76,23.36,26.93,39.88S817.1,603,821.71,608.31s1.89,10.81,4.08,10.94,4.14-6.42-.8-14.68-12.71-8.12-19.2-28.21-17.88-20.67-22.9-39.37"/><path class="cls-7" d="M825.85,620h-.1c-1.55-.08-1.65-1.6-1.75-3.21a12.22,12.22,0,0,0-2.84-8,38.24,38.24,0,0,0-5-4.43c-5.7-4.55-13.51-10.77-17.35-23.06-2.54-8.12-7.5-13.45-12.75-19.11s-10.75-11.57-14.16-20.73l1.35-.5c3.3,8.89,8.67,14.67,13.86,20.26,5.37,5.77,10.43,11.22,13.07,19.65,3.71,11.87,11.32,17.94,16.88,22.36a40.87,40.87,0,0,1,5.21,4.62,13.66,13.66,0,0,1,3.19,8.82c.07,1.12.13,1.85.39,1.87s.53-.23.79-.65c1.11-1.84,1.43-6.8-2.25-12.94a28.27,28.27,0,0,0-5.71-6.47c-4.32-4-9.2-8.43-13.55-21.89-3.18-9.84-7.55-14.94-11.78-19.86-3.65-4.25-7.13-8.3-9.67-15l-39.09-36.25,1-1.06,37.14,34.44c-.17-.54-.33-1.1-.49-1.68l1.39-.38c.4,1.48.84,2.84,1.31,4.11l63,58.45s1.39,1.34,2.09.64-.6-2.06-.62-2.08l-95-102.38,1.05-1,94.94,102.37c.79.8,2,2.71.59,4.09a2.11,2.11,0,0,1-1.51.63h0a4.24,4.24,0,0,1-2.59-1.26l-60.66-56.25c2.31,4.82,5.18,8.16,8.17,11.64,4.32,5,8.79,10.24,12.06,20.36,4.23,13.09,9,17.44,13.15,21.27a29.62,29.62,0,0,1,6,6.79c3.74,6.26,3.78,11.87,2.24,14.42A2.41,2.41,0,0,1,825.85,620Z"/><path class="cls-7" d="M800,491.18c18.53-.93,26.73-11.44,43.62-9.37-13.34-4.54-23.7,6.4-43.42,5.77m-48.63,15.65,87.15-39.88-89.82,33.42"/><path class="cls-7" d="M799.54,511c17.48,6.25,29.07-.32,43.89,8-10.61-9.28-24.36-3.15-42.34-11.28m-50.92-4.14,95.78-3.5-95.78-3.51"/><path class="cls-7" d="M791.57,529.09c13.76,12.45,27,10.82,37.47,24.22-6.24-12.65-21.28-12.24-34.8-26.63M748.8,503.37l89.82,33.41L751.47,496.9"/><path class="cls-7" d="M777.26,542.78c8,16.77,20.8,20.33,25.37,36.72-.94-14.07-15-19.46-22-37.92M747.6,502.65l70.19,65.25-65.25-70.2"/><path class="cls-6" d="M750,443.15A56.86,56.86,0,1,1,693.15,500,56.86,56.86,0,0,1,750,443.15"/><path class="cls-7" d="M750,557.82A57.82,57.82,0,1,1,807.83,500,57.88,57.88,0,0,1,750,557.82Zm0-113.71A55.89,55.89,0,1,0,805.89,500,55.95,55.95,0,0,0,750,444.11Z"/><path class="cls-8" d="M769.38,487.84A11.25,11.25,0,0,0,759.6,493c4.37,4,14,4.37,20.59-.43a14.94,14.94,0,0,0-10.81-4.75m-.06.9c3.77-.07,7.3,1.66,7.8,3.38-4.38,4.82-11.36,4.41-15.74.9a9.24,9.24,0,0,1,7.94-4.28"/><path class="cls-7" d="M770.12,485.14c-5.69,0-7,1.31-9.62,3.5s-3.93,1.75-4.37,2.2,0,1.74.87,1.29a24.13,24.13,0,0,0,5.25-3.49c2.63-2.2,5.24-2.19,7.87-2.19,7.86,0,12.25,6.56,13.12,6.12S778.86,485.14,770.12,485.14Z"/><path class="cls-7" d="M785.86,487.76c-10.06-8.75-22.74-10.06-29.73-3.49a17.12,17.12,0,0,0-3.28,7.3c-.87,5,.69,10.36,4.59,15.88a3.27,3.27,0,0,0-1.75.86c-3.48-6.63-4.71-13.46-3.57-19.93a28.28,28.28,0,0,1,1.37-5C763.12,475.52,776.23,474.65,785.86,487.76Z"/><path class="cls-7" d="M769.24,488.19a3.94,3.94,0,1,1-3.93,3.93,3.93,3.93,0,0,1,3.93-3.93"/><path class="cls-7" d="M780.62,494.76c-7.44,5.69-14.86,5.24-19.24,2.62s-4.37-3.49-3.5-3.49,1.75.87,5.24,2.62S771.87,498.26,780.62,494.76Z"/><path class="cls-7" d="M741.31,507.86a3.93,3.93,0,0,0,.77,7.8,3.83,3.83,0,0,0,3.18-1.66,8.26,8.26,0,0,0,4.75,1.27,4.32,4.32,0,0,0,.51,0,8.18,8.18,0,0,0,4.73-1.27,3.85,3.85,0,0,0,3.19,1.66,3.94,3.94,0,0,0,.78-7.8,2.64,2.64,0,1,1-3.52,2.62,6,6,0,0,1-10.87,0,2.66,2.66,0,0,1-2.63,2.5,2.64,2.64,0,0,1-.89-5.12"/><path class="cls-7" d="M745.58,519.51c-4.38,0-6.11,4-10,6.59,2.19-.88,3.91-2.6,7-4.36s5.66.39,7.42.39H750c1.74,0,4.35-2.14,7.41-.39s4.84,3.48,7,4.36c-3.94-2.64-5.73-6.59-10.11-6.59a11.83,11.83,0,0,0-4.34,1.33h-.07a12,12,0,0,0-4.35-1.33"/><path class="cls-7" d="M744.1,524.69a29.58,29.58,0,0,0-7.29,1.41c7.88-1.75,9.61.9,13.11.9H750c3.5,0,5.23-2.65,13.11-.9-8.75-2.64-10.48-.9-13.11-.9h-.07c-1.64,0-2.93-.64-5.82-.51"/><path class="cls-7" d="M737.21,526a16.2,16.2,0,0,0-1.66.06c9.19.88,4.77,6.14,14.39,6.14H750c9.62,0,5.27-5.26,14.46-6.14-9.63-.87-6.58,4.8-14.46,4.8h-.06c-7.39,0-5.12-5-12.73-4.86"/><path class="cls-7" d="M757.88,540.24a7.88,7.88,0,0,0-15.75,0,8.09,8.09,0,0,1,15.75,0"/><path class="cls-7" d="M714.65,487.76c10.07-8.75,22.75-10.06,29.75-3.49a17.07,17.07,0,0,1,3.26,7.3c.87,5-.68,10.36-4.58,15.88a3.14,3.14,0,0,1,1.74.86c3.49-6.63,4.71-13.46,3.57-19.93a28.28,28.28,0,0,0-1.37-5C737.4,475.52,724.28,474.65,714.65,487.76Z"/><path class="cls-7" d="M730.4,485.14c5.68,0,7,1.31,9.62,3.5s3.93,1.75,4.37,2.2,0,1.74-.87,1.29a23.65,23.65,0,0,1-5.25-3.49c-2.63-2.2-5.25-2.19-7.87-2.19-7.88,0-12.25,6.56-13.12,6.12s4.37-7.43,13.12-7.43"/><path class="cls-8" d="M730.12,487.84a11.25,11.25,0,0,0-9.78,5.18c4.37,4,14,4.37,20.59-.43a14.92,14.92,0,0,0-10.81-4.75m-.06.9c3.78-.07,7.31,1.66,7.8,3.38-4.37,4.82-11.36,4.41-15.73.9a9.21,9.21,0,0,1,7.93-4.28"/><path class="cls-7" d="M730.64,488.19a3.94,3.94,0,1,1-3.93,3.93,3.93,3.93,0,0,1,3.93-3.93"/><path class="cls-7" d="M719.9,494.76c7.43,5.69,14.86,5.24,19.24,2.62s4.37-3.49,3.5-3.49-1.75.87-5.25,2.62S728.65,498.26,719.9,494.76Z"/></g></svg>