<?xml version="1.0" encoding="utf-8"?>
<!-- Generator: Adobe Illustrator 27.1.1, SVG Export Plug-In . SVG Version: 6.00 Build 0)  -->
<svg version="1.1" id="Camada_1" xmlns="http://www.w3.org/2000/svg" xmlns:xlink="http://www.w3.org/1999/xlink" x="0px" y="0px"
	 viewBox="0 0 800 577.8" style="enable-background:new 0 0 800 577.8;" xml:space="preserve">
<style type="text/css">
	.st0{fill:#007934;}
	.st1{fill:#FFE000;}
	.st2{fill:#D52B1E;}
	.st3{fill:#FFFFFF;}
	.st4{fill:#A05A2D;}
	.st5{fill:#E8A30F;}
	.st6{fill:#E7E7E7;}
	.st7{fill:#00A6DE;}
	.st8{fill:#B37D0A;}
	.st9{fill:#32B266;}
</style>
<path class="st0" d="M800,488.9c0,49.1-39.8,88.9-88.9,88.9H88.9C39.8,577.8,0,538,0,488.9v-400C0,39.8,39.8,0,88.9,0h622.2
	C760.2,0,800,39.8,800,88.9V488.9z"/>
<path class="st1" d="M0,177.8h800V400H0V177.8z"/>
<path class="st2" d="M711.1,0H88.9C39.8,0,0,39.8,0,88.9v88.9h800V88.9C800,39.8,760.2,0,711.1,0z"/>
<path class="st3" d="M286.5,251.9c0.9,1.4,8.5,12.2,8.5,12.2h10.9l-4.4-6.1L286.5,251.9z M302.8,241c0.9,1.4,8.5,12.2,8.5,12.2h10.9
	l-4.4-6.1L302.8,241L302.8,241z M318,227.4c0.4,1.6,4.1,14.3,4.1,14.3l10.3,3.5l-2.2-7.2L318,227.4z"/>
<path class="st4" d="M310.1,366.6c-0.9,0.5-1.9,0.1-2.4-0.8c0,0,0,0,0,0c-0.5-0.9-0.1-1.9,0.7-2.4c0,0,0,0,0,0l54.8-28
	c0.9-0.5,1.9-0.1,2.4,0.7c0,0,0,0,0,0c0.5,0.9,0.1,2-0.8,2.4L310.1,366.6L310.1,366.6z M321,376.8c-0.8,0.5-2,0.3-2.5-0.5
	c-0.5-0.8-0.3-2,0.5-2.5l51.3-33.9c0.8-0.6,1.9-0.3,2.5,0.5c0.6,0.8,0.3,1.9-0.5,2.5L321,376.8z"/>
<path class="st4" d="M332.2,386.2c-0.7,0.7-1.8,0.8-2.6,0.2c-0.8-0.7-0.8-1.8-0.2-2.6c0,0,0,0,0,0l40.7-46.2
	c0.7-0.7,1.8-0.8,2.6-0.2c0.7,0.6,0.8,1.8,0.2,2.5c0,0,0,0,0,0L332.2,386.2L332.2,386.2z"/>
<path class="st4" d="M385.5,349.2l-12.7,26.2l-2.3-2.3l-4.9,6.8l-13.4-7.3l16.6-32.5L385.5,349.2z"/>
<path class="st2" d="M391,389.4l9-43l-0.9-37.6l-65.1-62.2l-4.5,14.3l-9-7.2l-2.7,14.9c0,0-11.3-8.1-11.8-6.8
	c-0.4,1.4-3.2,34.4-4.1,53c-0.9,18.5-1.6,46.1,18.6,49.8c35.3,6.3,61.5-19.9,61.5-19.9s8.6,8.2,9,9.5s-3.2,17.2-4.5,23.5
	C385.1,384,391,389.4,391,389.4z"/>
<path class="st1" d="M345.7,258.8l-3.6,10.3l-5.9-3.2c0,0-15,75.6,9.5,81.5c24.5,5.9,27.2-4.1,27.2-4.1l-11.8-15.8l-8.8,4.1
	c0,0-4.3-11.7-4.3-27.6c0-14.2,2.3-28.1,2.3-28.1l4.5,3.2l0.9-10.4L345.7,258.8L345.7,258.8z"/>
<path class="st0" d="M370.6,281.3l-14.9-12.7l-0.9,10.4l-5.8-4.1c0,0-3.2,10.9-3.2,24.9c0,14,1.8,27.6,1.8,27.6s10.4,3.6,15.8,0
	C368.8,323.8,370.6,281.3,370.6,281.3L370.6,281.3z"/>
<path class="st5" d="M365.6,323.8c-11.8,5-35.8,14.1-29.5,25.4c6.4,11.3,24.9,6.8,36.7-5.9C384.6,330.6,365.6,323.8,365.6,323.8z"/>
<path class="st3" d="M513.4,251.9c-0.9,1.4-8.5,12.2-8.5,12.2h-10.9l4.4-6.1L513.4,251.9L513.4,251.9z M497.2,241
	c-0.9,1.4-8.4,12.2-8.4,12.2h-10.9l4.4-6.1L497.2,241L497.2,241z M482,227.4l-4.1,14.3l-10.3,3.5l2.2-7.2L482,227.4L482,227.4z"/>
<path class="st4" d="M489.9,366.6c0.9,0.5,1.9,0.1,2.4-0.8c0,0,0,0,0,0c0.5-0.9,0.1-1.9-0.7-2.4c0,0,0,0,0,0l-54.8-28
	c-0.9-0.5-2-0.1-2.4,0.8c-0.5,0.9-0.1,1.9,0.7,2.4c0,0,0,0,0.1,0L489.9,366.6L489.9,366.6z M479,376.8c0.8,0.5,2,0.3,2.5-0.5
	c0.6-0.8,0.3-1.9-0.5-2.5c0,0,0,0,0,0l-51.3-33.9c-0.8-0.6-1.9-0.3-2.5,0.5c0,0,0,0,0,0c-0.6,0.8-0.3,1.9,0.5,2.5c0,0,0,0,0,0
	L479,376.8L479,376.8z"/>
<path class="st4" d="M467.9,386.2c0.7,0.7,1.8,0.8,2.5,0.2c0.8-0.7,0.8-1.8,0.2-2.6l-40.7-46.2c-0.6-0.8-1.8-0.8-2.5-0.2
	c-0.7,0.6-0.8,1.8-0.2,2.5c0,0,0,0,0,0L467.9,386.2L467.9,386.2z"/>
<path class="st4" d="M414.5,349.2l12.7,26.2l2.3-2.3l4.9,6.8l13.4-7.3l-16.6-32.5L414.5,349.2z"/>
<path class="st2" d="M409,389.4l-9-43l0.9-37.6l65.1-62.2l4.6,14.3l9-7.2l2.7,14.9c0,0,11.3-8.1,11.7-6.8c0.5,1.4,3.2,34.4,4.1,53
	c0.9,18.5,1.7,46.1-18.5,49.8c-35.3,6.3-61.6-19.9-61.6-19.9s-8.6,8.2-9,9.5s3.2,17.2,4.5,23.5C414.9,384,409,389.4,409,389.4z"/>
<path class="st1" d="M454.3,258.8l3.6,10.3l5.9-3.2c0,0,15,75.6-9.5,81.5c-24.5,5.9-27.2-4.1-27.2-4.1l11.8-15.8l8.8,4.1
	c0,0,4.3-11.7,4.3-27.6c0-14.2-2.3-28.1-2.3-28.1l-4.5,3.2l-0.9-10.4L454.3,258.8L454.3,258.8z"/>
<path class="st0" d="M429.4,281.3l14.9-12.7l0.9,10.4l5.8-4.1c0,0,3.2,10.9,3.2,24.9s-1.8,27.6-1.8,27.6s-10.4,3.6-15.8,0
	C431.2,323.8,429.4,281.3,429.4,281.3L429.4,281.3z"/>
<path class="st5" d="M434.4,323.8c11.8,5,35.8,14.1,29.4,25.4c-6.3,11.3-24.9,6.8-36.6-5.9C415.4,330.6,434.4,323.8,434.4,323.8z"/>
<path class="st2" d="M362.9,240.6c3.8,4.5,3.6,10.9-0.4,14.3c-4,3.4-10.3,2.5-14.1-2c-3.8-4.5-3.6-10.9,0.4-14.3
	C352.8,235.2,359.1,236.1,362.9,240.6L362.9,240.6z"/>
<path class="st6" d="M438.9,240.6c-3.8,4.5-3.6,10.9,0.4,14.3c4,3.4,10.3,2.5,14.1-2c3.8-4.5,3.6-10.9-0.4-14.3
	C449,235.2,442.7,236.1,438.9,240.6L438.9,240.6z"/>
<path class="st0" d="M424.4,188.5c-3.2,2.3,5.9,16.7,4.1,32.6c-1.8,15.8-28.5,28.5-28.5,28.5s-26.7-12.7-28.5-28.5
	c-1.8-15.8,7.2-30.3,4.1-32.6c-3.2-2.3-19.9,12.2-20.8,27.6c-0.9,15.4,14.7,38.6,24.9,43c10.2,4.4,20.4,6.8,20.4,6.8
	s10.1-2.4,20.4-6.8c10.2-4.4,25.8-27.6,24.9-43C444.4,200.8,427.6,186.3,424.4,188.5z"/>
<path class="st3" d="M400,249.2c0,0,2.7-9.5,20.4-14.9c17.6-5.4,34.4-9.5,40.7-10c6.4-0.5-25.1-12.7-32.6-13.6
	c-7.5-0.9-16.7,0.9-18.1,6.4c-1.4,5.4-3.6,3.6-10.4,4.5c-6.8,0.9-11.3-5.4-14.5-10c-3.2-4.5-15.2-2.3-21-1.8
	c-5.9,0.4-28.3,14.5-28.3,14.5s38.9,6.3,47.1,10.4c8.1,4.1,0.4,18.6-1.8,22.6C379.2,261.4,394.9,256.1,400,249.2L400,249.2z"/>
<path d="M400,249.2c0,0,2.7-9.5,20.4-14.9c17.6-5.4,34.4-9.5,40.7-10c6.4-0.5-23.1-9.5-30.6-10.4c-7.5-0.9-13.3-0.9-14.7,4.5
	c-1.4,5.4-9,2.3-15.8,3.2c-6.8,0.9-14.5-1.4-17.6-5.9c-3.2-4.5-8.6-2.7-14.5-2.3c-5.9,0.4-31.7,10.9-31.7,10.9s38.9,6.3,47.1,10.4
	c8.1,4.1,0.4,18.6-1.8,22.6C379.2,261.4,394.9,256.1,400,249.2L400,249.2z"/>
<path class="st7" d="M351.6,303.5c0-29.2,21.7-52.9,48.4-52.9c26.8,0,48.4,23.7,48.4,52.9c0,29.2-21.7,53-48.4,53
	C373.3,356.4,351.6,332.7,351.6,303.5z"/>
<path class="st5" d="M364.5,303.5c0-23,15.9-41.6,35.5-41.6c19.6,0,35.5,18.6,35.5,41.6c0,23-15.9,41.6-35.5,41.6
	C380.4,345.1,364.5,326.5,364.5,303.5L364.5,303.5z"/>
<path class="st2" d="M384.6,285.4c0-8.5,6.9-15.4,15.4-15.4c8.5,0,15.4,6.9,15.4,15.4s-6.9,15.4-15.4,15.4
	C391.5,300.8,384.6,293.9,384.6,285.4z"/>
<path class="st0" d="M400,345.1c18.9,0,34.3-17.2,35.5-39c-11.6-4.3-30.7-20.7-35.5-20.7c-5,0-11.3,5.4-19.4,12.7
	c-4.2,3.7-10.7,6.7-16,8.8C366,328.2,381.3,345.1,400,345.1z"/>
<path class="st5" d="M404.5,225.2c0,2.3-4.7,4.1-10.4,4.1c-5.8,0-10.4-1.8-10.4-4.1c0-2.2,4.7-4.1,10.4-4.1
	C399.9,221.1,404.5,223,404.5,225.2z"/>
<path class="st3" d="M381.9,323.8h10.9l3.2-9l4.1,5l-4.5,13.1h-10L381.9,323.8z"/>
<path class="st8" d="M409.5,331.5c0,4.2-2.1,7.7-4.7,7.7s-4.8-3.4-4.8-7.7c0-4.2,2.1-7.7,4.8-7.7S409.5,327.3,409.5,331.5z
	 M416.3,339.2c0,0.5-0.4,0.9-0.9,0.9c0,0,0,0,0,0c-0.5,0-0.9-0.4-0.9-0.9c0,0,0,0,0,0v-23.5c0-0.5,0.4-0.9,0.9-0.9
	c0.5,0,0.9,0.4,0.9,0.9V339.2z"/>
<path class="st9" d="M423.1,313.4c0,4-3.5,7.2-7.9,7.2c-4.4,0-7.9-3.2-7.9-7.2s3.6-7.2,7.9-7.2C419.5,306.2,423.1,309.4,423.1,313.4
	z"/>
</svg>
