<?xml version="1.0" encoding="utf-8"?>
<!-- Generator: Adobe Illustrator 27.1.1, SVG Export Plug-In . SVG Version: 6.00 Build 0)  -->
<svg version="1.1" id="Layer_1" xmlns="http://www.w3.org/2000/svg" xmlns:xlink="http://www.w3.org/1999/xlink" x="0px" y="0px"
	 viewBox="0 0 1500 1000" style="enable-background:new 0 0 1500 1000;" xml:space="preserve">
<style type="text/css">
	.st0{clip-path:url(#SVGID_00000072992629546744555820000001892765861532323515_);}
	.st1{fill:#DC1F26;}
	.st2{fill:#009B3A;}
	.st3{fill:#FEDF00;}
	.st4{fill:#002776;}
	.st5{clip-path:url(#SVGID_00000016044175826025385090000002657930770390869951_);}
	.st6{fill:#FFFFFF;}
</style>
<g>
	<defs>
		<rect id="SVGID_1_" width="1500" height="1000"/>
	</defs>
	<clipPath id="SVGID_00000012466124945605333900000011231403877905222540_">
		<use xlink:href="#SVGID_1_"  style="overflow:visible;"/>
	</clipPath>
	<g style="clip-path:url(#SVGID_00000012466124945605333900000011231403877905222540_);">
		<rect x="-78.4" y="-100" class="st1" width="1656.9" height="1200"/>
		<rect x="-165.7" y="-111.1" class="st2" width="1831.5" height="1222.2"/>
		<path id="_47" class="st3" d="M156.6,500L750,879.7L1343.4,500L750,120.3L156.6,500z"/>
		<ellipse id="_46" class="st4" cx="750" cy="500" rx="250.2" ry="250.7"/>
		<g id="_45">
			<g>
				<defs>
					<ellipse id="SVGID_00000121280276180691264620000003882151370008829624_" cx="750" cy="500" rx="250.2" ry="250.7"/>
				</defs>
				<clipPath id="SVGID_00000089575322543594793080000018031693587556999839_">
					<use xlink:href="#SVGID_00000121280276180691264620000003882151370008829624_"  style="overflow:visible;"/>
				</clipPath>
				<g style="clip-path:url(#SVGID_00000089575322543594793080000018031693587556999839_);">
					<path class="st6" d="M-0.7,1001.5c0-336.3,272.1-608.9,607.7-608.9s607.7,272.6,607.7,608.9H1179
						c0-316.5-256.1-573.1-571.9-573.1S35.1,685,35.1,1001.5H-0.7z"/>
				</g>
			</g>
		</g>
		<path id="_44" class="st2" d="M616.5,422.4l21.4,0.8l0.1-4.4l-17.4-0.6l0.2-6.1l13.6,0.5l0.1-4.1l-13.6-0.5l0.2-4.8l16.3,0.6
			l0.1-4.3l-20.4-0.7L616.5,422.4z"/>
		<path id="_43" class="st2" d="M646.7,423.7l4.1,0.4l1.4-16.3l3.3,16.7l3.7,0.3l6.2-15.9l-1.4,16.3l4.1,0.4l2.1-23.8l-5.9-0.5
			l-6.1,15.9l-3.3-16.8l-5.9-0.5L646.7,423.7z"/>
		<path id="_42" class="st2" d="M696.1,429.2l17.6,3l0.7-4l-13.6-2.3l0.9-5.4l11.1,1.9l0.7-4l-11.1-1.9l0.6-3.7l13.2,2.3l0.7-4
			l-17.2-3L696.1,429.2z"/>
		<polygon id="_41" class="st2" points="843.8,460.1 852,463.8 850.7,466.9 842.4,463.3 		"/>
		<polygon id="_40" class="st2" points="848.9,462.4 852,463.8 847.3,474.7 844.2,473.3 		"/>
		<path id="_39" class="st2" d="M917,503.9c-1.2,2,0,4.3,2.9,6.1c2.9,1.8,4.9,1.8,5.7,0.5c2.6-4.1-12.5-10.1-7.8-17.2
			c4-6.1,10.9-1.4,13.4,0.3c2.6,1.6,6.7,5.9,3.5,10.8l-4.4-2.8c1.4-2.2-0.1-4.2-2.4-5.7s-4-2.1-5.4,0c-2.2,3.3,12.6,9.6,8,16.8
			c-3.3,5.3-9.1,3-13,0.5c-3.3-2.1-8.2-7.1-5-12.1L917,503.9z"/>
		<path id="_38" class="st2" d="M882.3,492.2l18.7,10.6l2.2-3.9l-15.1-8.5l3-5.3l11.8,6.7l2-3.6l-11.9-6.7l2.4-4.2l14.2,8.1l2.2-3.9
			L894,471.4L882.3,492.2z"/>
		<path id="_37" class="st2" d="M942.6,520.8c-1.4,1.9-0.2,4.2,2.6,6.2c2.8,2,4.7,2,5.6,0.8c2.8-4-11.9-10.7-6.9-17.6
			c4.3-5.9,10.9-0.8,13.4,1c2.5,1.8,6.4,6.3,2.9,11l-4.2-3c1.5-2.1,0.1-4.2-2.1-5.8c-2.2-1.6-3.9-2.3-5.4-0.3
			c-2.4,3.2,12,10.3,7.1,17.1c-3.7,5.1-9.3,2.4-13-0.2c-3.2-2.3-7.9-7.5-4.4-12.4L942.6,520.8z"/>
		<path id="_36" class="st2" d="M545.8,413.6c-0.8-6.5-6.2-11.3-12.1-10.5c-5.9,0.7-10,6.6-9.2,13.2c0.8,6.5,6.2,11.3,12.1,10.5
			C542.5,426,546.6,420.1,545.8,413.6z M535.1,407.6c8.1,0,8.1,14.6,0,14.6C527,422.1,527,407.6,535.1,407.6z"/>
		<path id="_35" class="st2" d="M984.9,544.5c3-5.8,1.2-12.8-4-15.5c-5.3-2.7-12-0.2-15,5.7c-3,5.9-1.2,12.8,4,15.5
			C975.1,552.9,981.8,550.3,984.9,544.5z M979.4,533.5c6.7,4.6-1.5,16.6-8.2,12c-6.7-4.6,1.5-16.5,8.2-11.9V533.5z"/>
		<path id="_34" class="st2" d="M605.6,403c-2.6-4.2-7.9-4.4-7.9-4.4l-11.9,0.2l0.4,23.9c0,0,9.5,0,12-0.2c2.9-0.4,5.6-1.9,7.4-4.2
			c1.4-2.2,2.1-4.8,1.9-7.4C607.7,408.1,607.1,405.4,605.6,403z M595.9,418.1h-5.3c0,0-0.2-12.1-0.3-15c4.9-0.1,5.1-0.1,7-0.1
			c3.5,0.1,5,2.7,5.8,4.4c0.2,1.4,0.3,2.9,0.3,4.3c-0.1,1.8-0.9,3.4-2.2,4.6C599.7,417.6,597.8,418.2,595.9,418.1L595.9,418.1z"/>
		<path id="_33" class="st2" d="M573.1,413.4c1.5-1.4,2.6-3.1,3.1-5.1c0.6-4.1-2.3-7.9-6.3-8.5l-0.6-0.1c-2.4,0.1-14.7,1-14.7,1
			l1.3,23.8l4.4-0.3l-0.6-8.9l7.7-0.5l1.8-0.1c0,0,2.4,3.9,2.6,6.3c0.1,0.9,0.1,1.7,0.1,2.6h4.3c0.1-2.3-0.3-4.6-1.1-6.8
			C574.7,415.6,573.9,414.4,573.1,413.4z M570.4,409.7c-0.9,0.8-3.5,0.8-3.5,0.8l-7.3,0.5c0,0-0.3-4.2-0.4-6.1c1.1,0,7-0.5,7.1-0.5
			c0.8,0,1.7-0.1,2.5-0.2c0.7,0.1,1.4,0.4,1.9,0.9c0.6,0.5,1,1.3,1,2.1C571.5,408.2,571.1,409,570.4,409.7L570.4,409.7z"/>
		<path id="_32" class="st2" d="M824.8,449.7c0.9-6.5-3.1-12.5-9-13.3s-11.3,3.8-12.2,10.4c-0.9,6.5,3.1,12.5,9,13.3
			C818.4,460.9,823.9,456.2,824.8,449.7z M816,441.2c7.8,2.1,4.1,16.1-3.7,14.1C804.5,453.2,808.2,439.1,816,441.2z"/>
		<path id="_31" class="st2" d="M790.5,440.4c1.9-0.8,3.5-2.1,4.6-3.8c1.9-3.7,0.4-8.2-3.3-10.1c0,0,0,0,0,0l-0.5-0.2
			c-2.3-0.7-14.1-3.9-14.1-3.9l-6.5,23l4.3,1.1l2.3-8.5l7.4,2l1.8,0.5c0,0,1,4.4,0.4,6.8c-0.2,0.9-0.4,1.7-0.7,2.5l4.1,1.4
			c0.8-2.2,1.2-4.5,1.2-6.8C791.4,443,791.1,441.7,790.5,440.4z M789.2,436.1c-1.1,0.4-3.7-0.4-3.7-0.4l-7.1-2l1.6-5.9
			c1.1,0.4,6.8,1.8,6.8,1.9c1.1,0.4,2.4,0.7,2.4,0.7c0.6,0.3,1.2,0.8,1.5,1.5c0.4,0.7,0.5,1.5,0.2,2.3
			C790.8,434.9,790.1,435.7,789.2,436.1z"/>
		<path id="_30" class="st2" d="M877.1,475.6c1.9-0.6,3.6-1.8,4.9-3.4c2.2-3.5,1.1-8.1-2.4-10.3l-0.5-0.3
			c-2.3-0.9-13.7-5.1-13.7-5.1l-8.4,22.3l4.2,1.5l3-8.3l7.2,2.6l1.7,0.6c0,0,0.6,4.5-0.2,6.8c-0.3,0.8-0.6,1.6-0.9,2.4l3.9,1.8
			c1-2.1,1.6-4.3,1.7-6.7C877.6,478.3,877.5,476.9,877.1,475.6z M876.2,471.1c-1.2,0.1-2.5-0.2-3.6-0.7l-6.9-2.6
			c0,0,1.4-3.9,2.1-5.8c1,0.5,6.6,2.4,6.7,2.4c1.1,0.5,2.4,0.9,2.4,0.9c0.6,0.4,1.1,1,1.4,1.6c0.4,0.7,0.4,1.5,0,2.3
			C877.8,470.2,877.1,470.8,876.2,471.1z"/>
		<path id="_29" class="st2" d="M761.2,432.5c1.9-0.8,3.4-2.2,4.5-3.9c1.8-3.7,0.2-8.2-3.5-10c-0.2-0.1-0.3-0.2-0.5-0.2
			c-2.4-0.7-14.2-3.6-14.2-3.6l-6,23.1l4.3,1.1l2.1-8.6l7.5,1.8l1.8,0.4 M759.8,428.1c-1.1,0.5-3.7-0.3-3.7-0.3L749,426l1.5-6
			c1.1,0.3,6.8,1.7,6.9,1.7c1.1,0.3,2.4,0.6,2.4,0.6c0.7,0.3,1.2,0.8,1.6,1.4c0.5,0.7,0.6,1.5,0.3,2.2
			C761.3,427,760.7,427.7,759.8,428.1L759.8,428.1z"/>
		<path id="_28" class="st2" d="M849.9,462.6c-0.6-0.3-1.3-0.5-1.9-0.7c-1.9,3.5-6,6-9.7,3.5c-6.7-4.6,1.5-16.6,8.2-12
			c1.5,1,2.4,2.5,2.4,4.3c1,0.4,2.1,0.6,3.1,1.1l1.2,0.6c0.5-4.3-1.7-8.5-5.5-10.6c-5.3-2.7-12-0.2-15,5.7c-3,5.9-1.2,12.8,4,15.5
			c5.3,2.7,12,0.2,15-5.7c0.1-0.2,0.2-0.5,0.3-0.7L849.9,462.6z"/>
		<polygon id="_27" class="st6" points="837,419 831.7,422.8 833.7,429 828.4,425.2 823.1,429 825.2,422.8 819.9,419 826.4,419 
			828.4,412.7 830.5,419 		"/>
		<polygon id="_26" class="st6" points="535.5,451.6 541.8,456.2 539.4,463.7 545.7,459.1 552,463.7 549.6,456.2 555.9,451.6 
			548.1,451.6 545.7,444.2 543.3,451.6 		"/>
		<polygon id="_25" class="st6" points="811.5,485.2 815.8,488.3 814.2,493.5 818.5,490.3 822.9,493.5 821.2,488.3 825.6,485.2 
			820.2,485.2 818.5,480 816.9,485.2 		"/>
		<polygon id="_24" class="st6" points="587.9,544 590.5,545.9 589.5,549 592.2,547.1 594.8,549 593.8,545.9 596.5,544 593.2,544 
			592.2,540.9 591.1,544 		"/>
		<polyline id="_23" class="st6" points="567.8,549.6 565.4,557.1 557.7,557.1 564,561.6 561.6,569.1 567.9,564.5 574.2,569.1 
			571.8,561.6 578.1,557.1 570.3,557.1 567.9,549.6 		"/>
		<polygon id="_22" class="st6" points="528.7,580.1 534,584 532,590.1 537.2,586.3 542.5,590.1 540.5,584 545.7,580.1 539.2,580.1 
			537.2,573.9 535.2,580.1 		"/>
		<polygon id="_21" class="st6" points="646.5,507.3 651.6,511 649.7,517.1 654.8,513.4 660,517.1 658,511 663.2,507.3 656.8,507.3 
			654.8,501.2 652.9,507.3 		"/>
		<polygon id="_20" class="st6" points="612.8,582.2 617.6,585.6 615.8,591.2 620.5,587.8 625.3,591.2 623.5,585.6 628.2,582.2 
			622.3,582.2 620.5,576.6 618.7,582.2 		"/>
		<polygon id="_19" class="st6" points="605.8,608.4 610.1,611.6 608.5,616.7 612.8,613.6 617.2,616.7 615.5,611.6 619.9,608.4 
			614.5,608.4 612.8,603.3 611.2,608.4 		"/>
		<polygon id="_18" class="st6" points="639.6,628.4 645.9,633 643.5,640.4 649.8,635.8 656.1,640.4 653.7,633 660,628.4 
			652.2,628.4 649.8,621 647.4,628.4 		"/>
		<polygon id="_17" class="st6" points="741.4,538.4 746.7,542.2 744.7,548.5 750,544.6 755.3,548.5 753.3,542.2 758.6,538.4 
			752,538.4 750,532.1 748,538.4 		"/>
		<polygon id="_16" class="st6" points="717.6,561 722,564.1 720.3,569.3 724.7,566.1 729.1,569.3 727.4,564.1 731.8,561 726.4,561 
			724.7,555.8 723,561 		"/>
		<polygon id="_15" class="st6" points="732.9,578.3 735.6,580.2 734.6,583.3 737.2,581.4 739.9,583.3 738.9,580.2 741.5,578.3 
			738.2,578.3 737.2,575.1 736.2,578.3 		"/>
		<polygon id="_14" class="st6" points="770.4,560.3 775.7,564.2 773.6,570.4 778.9,566.5 784.2,570.4 782.2,564.2 787.5,560.3 
			780.9,560.3 778.9,554.1 776.9,560.3 		"/>
		<polygon id="_13" class="st6" points="739.8,610.4 746.1,615 743.7,622.4 750,617.8 756.3,622.4 753.9,615 760.2,610.4 
			752.4,610.4 750,603 747.6,610.4 		"/>
		<polygon id="_12" class="st6" points="746.6,695.1 748.6,696.5 747.8,698.9 749.8,697.5 751.9,698.9 751.1,696.5 753.1,695.1 
			750.6,695.1 749.8,692.7 749.1,695.1 		"/>
		<polygon id="_11" class="st6" points="798,638.4 802.4,641.6 800.7,646.8 805.1,643.6 809.5,646.8 807.8,641.6 812.1,638.4 
			806.8,638.4 805.1,633.3 803.4,638.4 		"/>
		<polygon id="_10" class="st6" points="816.2,666 821.5,669.8 819.5,676.1 824.8,672.2 830.1,676.1 828.1,669.8 833.4,666 
			826.8,666 824.8,659.7 822.8,666 		"/>
		<polygon id="_9" class="st6" points="849.1,647.3 853.5,644.1 848.1,644.1 846.5,639 844.8,644.1 839.4,644.1 843.8,647.3 
			842.1,652.5 846.5,649.3 850.8,652.5 		"/>
		<polygon id="_8" class="st6" points="867.2,635.8 871.6,639 869.9,644.1 874.3,641 878.6,644.1 877,639 881.3,635.8 875.9,635.8 
			874.3,630.7 872.6,635.8 		"/>
		<polygon id="_7" class="st6" points="866.3,659.5 871.6,663.4 869.6,669.6 874.9,665.8 880.2,669.6 878.2,663.4 883.5,659.5 
			876.9,659.5 874.9,653.3 872.9,659.5 		"/>
		<polygon id="_6" class="st6" points="868.5,685.7 872.8,688.9 871.2,694 875.5,690.9 879.9,694 878.2,688.9 882.6,685.7 
			877.2,685.7 875.5,680.6 873.9,685.7 		"/>
		<polygon id="_5" class="st6" points="893.4,640.3 897.7,643.5 896.1,648.6 900.4,645.4 904.8,648.6 903.1,643.5 907.5,640.3 
			902.1,640.3 900.4,635.2 898.8,640.3 		"/>
		<polyline id="_4" class="st6" points="911.9,627.3 917.2,631.2 915.2,637.4 920.5,633.6 925.7,637.4 923.7,631.2 929,627.3 
			922.5,627.3 920.5,621.1 918.5,627.3 912,627.3 		"/>
		<polygon id="_3" class="st6" points="926.9,607.8 932.2,611.6 930.2,617.8 935.5,614 940.8,617.8 938.8,611.6 944.1,607.8 
			937.5,607.8 935.5,601.5 933.5,607.8 		"/>
		<polygon id="_2" class="st6" points="915.1,584.5 921.4,589.1 919,596.5 925.3,591.9 931.6,596.5 929.2,589.1 935.5,584.5 
			927.7,584.5 925.3,577.1 922.9,584.5 		"/>
		<polygon id="_1" class="st6" points="953.3,588.3 957.6,591.5 956,596.6 960.3,593.4 964.7,596.6 963,591.5 967.4,588.3 
			962,588.3 960.3,583.1 958.7,588.3 		"/>
	</g>
</g>
</svg>
