<?xml version="1.0" encoding="utf-8"?>
<!-- Generator: Adobe Illustrator 27.1.1, SVG Export Plug-In . SVG Version: 6.00 Build 0)  -->
<svg version="1.1" id="Camada_1" xmlns="http://www.w3.org/2000/svg" xmlns:xlink="http://www.w3.org/1999/xlink" x="0px" y="0px"
	 viewBox="0 0 800 577.8" style="enable-background:new 0 0 800 577.8;" xml:space="preserve">
<style type="text/css">
	.st0{fill:#009B3A;}
	.st1{fill:#FEDF01;}
	.st2{fill:#002776;}
	.st3{fill:#CBE9D4;}
	.st4{fill:#88C9F9;}
	.st5{fill:#55ACEE;}
	.st6{fill:#3B88C3;}
</style>
<path class="st0" d="M800,488.9c0,49.1-39.8,88.9-88.9,88.9H88.9C39.8,577.8,0,538,0,488.9v-400C0,39.8,39.8,0,88.9,0h622.2
	C760.2,0,800,39.8,800,88.9V488.9z"/>
<path class="st1" d="M727.3,288.9L400,536.1L72.7,288.9L400,41.7L727.3,288.9z"/>
<circle class="st2" cx="399.5" cy="287.2" r="143.5"/>
<path class="st3" d="M272.8,219.7c-7.5,14-12.5,29.2-14.9,45c88.8-6.4,209.3,42,261,102.1c8.9-13.4,15.6-28.4,19.6-44.5
	C474.7,259.8,362.6,219.4,272.8,219.7L272.8,219.7z"/>
<path class="st4" d="M266.7,294.1h22.2v22.2h-22.2V294.1z M288.9,338.5h22.2v22.2h-22.2V338.5z"/>
<path class="st5" d="M333.3,294.1h22.2v22.2h-22.2V294.1z M377.8,316.3H400v22.2h-22.2V316.3z M466.7,360.7h22.2V383h-22.2V360.7z
	 M400,383h22.2v22.2H400V383z M466.7,249.6h22.2v22.2h-22.2V249.6z"/>
<path class="st6" d="M422.2,338.5h22.2v22.2h-22.2V338.5z"/>
</svg>
