<?xml version="1.0" encoding="utf-8"?>
<!-- Generator: Adobe Illustrator 27.1.1, SVG Export Plug-In . SVG Version: 6.00 Build 0)  -->
<svg version="1.1" id="Camada_1" xmlns="http://www.w3.org/2000/svg" xmlns:xlink="http://www.w3.org/1999/xlink" x="0px" y="0px"
	 viewBox="0 0 800 577.8" style="enable-background:new 0 0 800 577.8;" xml:space="preserve">
<style type="text/css">
	.st0{fill:#D52B1E;}
	.st1{fill:#EEEEEE;}
</style>
<path class="st0" d="M88.9,0C39.8,0,0,39.8,0,88.9v400c0,49.1,39.8,88.9,88.9,88.9h133.3V0H88.9z M711.1,0H577.8v577.8h133.3
	c49.1,0,88.9-39.8,88.9-88.9v-400C800,39.8,760.2,0,711.1,0z"/>
<path class="st1" d="M222.2,0h355.6v577.8H222.2V0z"/>
<path class="st0" d="M413.7,380.3c26.6,3.1,50.5,5.9,77.1,8.9l-6.8-22.3c-1-3.9,0.4-8.1,3.5-10.6l77.3-63l-16-7.5
	c-7-2.5-5.1-6.5-2.6-16l11.8-43l-44.9,9.5c-4.4,0.7-7.3-2.1-8-4.8l-5.8-20.2l-35.5,39.9c-5,6.4-15.3,6.4-12.1-8.4L467,162
	l-20.4,10.6c-5.7,3.2-11.4,3.7-14.6-2L403.9,118v1.3V118l-28.1,52.6c-3.2,5.7-8.9,5.2-14.6,2L340.8,162l15.2,80.8
	c3.2,14.8-7,14.8-12.1,8.4l-35.5-39.8l-5.8,20.2c-0.7,2.7-3.6,5.4-8,4.8l-44.9-9.5l11.8,43c2.5,9.6,4.5,13.5-2.6,16l-16,7.5l77.3,63
	c3.1,2.4,4.6,6.7,3.5,10.6l-6.8,22.3l77.1-8.9c2.4,0,3.9,1.3,3.9,4l-4.8,82.3h21.2l-4.7-82.3C409.8,381.6,411.3,380.3,413.7,380.3
	L413.7,380.3z"/>
</svg>
