<?xml version="1.0" encoding="utf-8"?>
<!-- Generator: Adobe Illustrator 27.1.1, SVG Export Plug-In . SVG Version: 6.00 Build 0)  -->
<svg version="1.1" id="Camada_1" xmlns="http://www.w3.org/2000/svg" xmlns:xlink="http://www.w3.org/1999/xlink" x="0px" y="0px"
	 viewBox="0 0 800 577.8" style="enable-background:new 0 0 800 577.8;" xml:space="preserve">
<style type="text/css">
	.st0{fill:#D52B1E;}
	.st1{fill:#FFFFFF;}
</style>
<path class="st0" d="M711.1-0.5H577.8V0H222.2v-0.5H88.9C39.8-0.5,0,39.3,0,88.4v400c0,49.1,39.8,88.9,88.9,88.9h101.7
	c3.1,0.3,6.2,0.5,9.4,0.5h400c3.2,0,6.3-0.2,9.4-0.5h101.7c49.1,0,88.9-39.8,88.9-88.9v-400C800,39.3,760.2-0.5,711.1-0.5z"/>
<path class="st1" d="M555.6,245.8H444.4V134.7h-88.9v111.1H244.4v87.5h111.1v112.5h88.9V333.3h111.1V245.8z"/>
</svg>
