<?xml version="1.0" encoding="utf-8"?>
<!-- Generator: Adobe Illustrator 27.1.1, SVG Export Plug-In . SVG Version: 6.00 Build 0)  -->
<svg version="1.1" id="Camada_1" xmlns="http://www.w3.org/2000/svg" xmlns:xlink="http://www.w3.org/1999/xlink" x="0px" y="0px"
	 viewBox="0 0 800 577.8" style="enable-background:new 0 0 800 577.8;" xml:space="preserve">
<style type="text/css">
	.st0{fill:#1F429B;}
	.st1{fill:#EEEEEE;}
	.st2{fill:#D42D27;}
	.st3{fill:#FFFFFF;}
</style>
<path class="st0" d="M288.9,0h-200C39.8,0,0,39.8,0,88.9v200h288.9V0z M185.3,206.5l-41.8-30.4l-41.8,30.4l16-49.2l-41.8-30.4h51.7
	l16-49.2l16,49.2h51.7l-41.8,30.4L185.3,206.5z"/>
<path class="st1" d="M711.1,0H288.9v288.9H800v-200C800,39.8,760.2,0,711.1,0z"/>
<path class="st2" d="M0,288.9v200c0,49.1,39.8,88.9,88.9,88.9h622.2c49.1,0,88.9-39.8,88.9-88.9v-200H0z"/>
<path class="st3" d="M159.4,126.9l-16-49.2l-16,49.2H75.8l41.8,30.4l-16,49.2l41.8-30.4l41.8,30.4l-16-49.2l41.8-30.4H159.4z"/>
</svg>
