<?xml version="1.0" encoding="utf-8"?>
<!-- Generator: Adobe Illustrator 27.1.1, SVG Export Plug-In . SVG Version: 6.00 Build 0)  -->
<svg version="1.1" id="Camada_1" xmlns="http://www.w3.org/2000/svg" xmlns:xlink="http://www.w3.org/1999/xlink" x="0px" y="0px"
	 viewBox="0 0 1500 1000" style="enable-background:new 0 0 1500 1000;" xml:space="preserve">
<style type="text/css">
	.st0{fill:#FFFFFF;}
	.st1{fill:#0032A0;}
	.st2{fill:#DA291C;}
</style>
<g>
	<path class="st0" d="M0,0h1500v1000H0V0z"/>
	<path class="st1" d="M0,0h500v750H0V0z"/>
	<path class="st2" d="M0,500h1500v500H0V500z"/>
</g>
<polygon class="st0" points="398.2,209.5 385.8,209.5 278.4,209.8 245.4,107.5 241.6,95.7 237.8,107.5 204.8,209.8 97.3,209.5 
	84.9,209.5 95,216.7 182.1,279.7 148.6,381.9 144.7,393.6 154.8,386.3 241.6,323.1 328.3,386.3 338.4,393.6 334.5,381.9 
	301.1,279.7 388.1,216.7 "/>
</svg>
