<?xml version="1.0" encoding="utf-8"?>
<!-- Generator: Adobe Illustrator 27.1.1, SVG Export Plug-In . SVG Version: 6.00 Build 0)  -->
<svg version="1.1" id="Camada_1" xmlns="http://www.w3.org/2000/svg" xmlns:xlink="http://www.w3.org/1999/xlink" x="0px" y="0px"
	 viewBox="0 0 800 577.8" style="enable-background:new 0 0 800 577.8;" xml:space="preserve">
<style type="text/css">
	.st0{fill:#DE2910;}
	.st1{fill:#FFDE02;}
</style>
<path class="st0" d="M800,488.9c0,49.1-39.8,88.9-88.9,88.9H88.9C39.8,577.8,0,538,0,488.9v-400C0,39.8,39.8,0,88.9,0h622.2
	C760.2,0,800,39.8,800,88.9V488.9z"/>
<path class="st1" d="M247.5,88.4l16.4,7.9l13.1-12.6l-2.5,18l16,8.6l-17.9,3.2l-3.2,17.9l-8.6-16l-18,2.5l12.6-13.1L247.5,88.4z
	 M351.1,153.7l-7.9,16.3l12.6,13.1l-18-2.5l-8.6,16l-3.2-17.9l-17.9-3.2l16-8.6l-2.5-18l13.1,12.6L351.1,153.7z M329.9,237.7l6,17.2
	l18.2,0.4l-14.5,11l5.3,17.4l-14.9-10.4L315,283.6l5.2-17.4l-14.5-11l18.2-0.4L329.9,237.7z M247.5,310.6l16.4,7.9l13.1-12.6
	l-2.5,18l16,8.6l-17.9,3.2l-3.2,17.9l-8.6-16l-18,2.5l12.6-13.1L247.5,310.6z M155.6,132.2l20.6,59.4l62.8,1.3l-50.1,38l18.2,60.1
	l-51.6-35.9L104,291l18.2-60.1l-50.1-38l62.8-1.3L155.6,132.2z"/>
</svg>
