<?xml version="1.0" encoding="utf-8"?>
<!-- Generator: Adobe Illustrator 27.1.1, SVG Export Plug-In . SVG Version: 6.00 Build 0)  -->
<svg version="1.1" id="Camada_1" xmlns="http://www.w3.org/2000/svg" xmlns:xlink="http://www.w3.org/1999/xlink" x="0px" y="0px"
	 viewBox="0 0 800 577.8" style="enable-background:new 0 0 800 577.8;" xml:space="preserve">
<style type="text/css">
	.st0{fill:#002A8F;}
	.st1{fill:#EEEEEE;}
	.st2{fill:#CF142B;}
	.st3{fill:#FFFFFF;}
</style>
<path class="st0" d="M711.1,0H88.9C39.8,0,0,39.8,0,88.9v400c0,49.1,39.8,88.9,88.9,88.9h622.2c49.1,0,88.9-39.8,88.9-88.9v-400
	C800,39.8,760.2,0,711.1,0z"/>
<path class="st1" d="M307.7,222.2H800V111.1H153.8L307.7,222.2z M153.8,466.7H800V355.6H307.7L153.8,466.7z"/>
<path class="st2" d="M307.7,222.2L153.8,111.1L30.7,22.2C11.3,38.9,0.1,63.2,0,88.9v400c0,26.7,12,50.4,30.7,66.7l123.1-88.9
	l153.8-111.1l92.3-66.7L307.7,222.2L307.7,222.2z"/>
<path class="st3" d="M166.6,302.3l44.6-32.3H156L139,217.5L121.8,270H66.7l44.6,32.3l-17.1,52.4l44.8-32.4l44.8,32.4L166.6,302.3z"
	/>
</svg>
