<?xml version="1.0" encoding="utf-8"?>
<!-- Generator: Adobe Illustrator 27.1.1, SVG Export Plug-In . SVG Version: 6.00 Build 0)  -->
<svg version="1.1" id="Camada_1" xmlns="http://www.w3.org/2000/svg" xmlns:xlink="http://www.w3.org/1999/xlink" x="0px" y="0px"
	 viewBox="0 0 800 577.8" style="enable-background:new 0 0 800 577.8;" xml:space="preserve">
<style type="text/css">
	.st0{fill:#ED1C23;}
	.st1{fill:#034EA2;}
	.st2{fill:#FFDD00;}
	.st3{fill:#6DBE46;}
	.st4{fill:#A6D388;}
	.st5{fill:#662113;}
	.st6{fill:#8ED2E7;}
	.st7{fill:#FFCC4D;}
	.st8{fill:#CCD6DD;}
	.st9{fill:#FFFFFF;}
	.st10{fill:#C1694F;}
</style>
<path class="st0" d="M800,488.9c0,49.1-39.8,88.9-88.9,88.9H88.9C39.8,577.8,0,538,0,488.9v-400C0,39.8,39.8,0,88.9,0h622.2
	C760.2,0,800,39.8,800,88.9V488.9z"/>
<path class="st1" d="M0,266.7h800v155.6H0V266.7z"/>
<path class="st2" d="M800,266.7V88.9C800,39.8,760.2,0,711.1,0H88.9C39.8,0,0,39.8,0,88.9v177.8H800z"/>
<path class="st2" d="M511.1,311.1c0,24.5-19.9,44.4-44.4,44.4H333.3c-24.5,0-44.4-19.9-44.4-44.4v-66.7c0-24.5,19.9-44.4,44.4-44.4
	h133.3c24.5,0,44.4,19.9,44.4,44.4V311.1z"/>
<path class="st1" d="M488.9,288.9c0,24.5-19.9,66.7-44.4,66.7h-88.9c-24.5,0-44.4-42.1-44.4-66.7v-22.2c0-24.5,19.9-44.4,44.4-44.4
	h88.9c24.5,0,44.4,19.9,44.4,44.4V288.9z"/>
<path class="st0" d="M466.7,288.9c0,24.5-19.9,66.7-44.4,66.7h-44.4c-24.5,0-44.4-42.1-44.4-66.7v-22.2c0-24.5,19.9-44.4,44.4-44.4
	h44.4c24.5,0,44.4,19.9,44.4,44.4V288.9z"/>
<path class="st3" d="M443.8,203c-3,10.8-21.4,19.2-43.8,19.2c-22.5,0-40.9-8.4-43.8-19.2c-26.8,3.8-22.8,11-22.8,19.2
	c0,12.3,17.6,22.2,66.7,22.2s66.7-10,66.7-22.2C466.7,214,470.6,206.8,443.8,203z"/>
<path class="st4" d="M422.2,311.1c0,12.3-9.9,22.2-22.2,22.2c-12.3,0-22.2-9.9-22.2-22.2v-66.7c0-12.3,9.9-22.2,22.2-22.2
	c12.3,0,22.2,9.9,22.2,22.2V311.1z"/>
<path class="st5" d="M477.8,155.6c9.8,0,19.1,1.2,27.7,3c-13.8-23.9-61-47.5-105.5-3c-44.4-44.4-91.6-20.9-105.5,3
	c9.1-2,18.4-3,27.7-3c43,0,77.8,19.9,77.8,44.4C400,175.5,434.8,155.6,477.8,155.6z"/>
<ellipse class="st6" cx="400" cy="277.8" rx="44.4" ry="77.8"/>
<path class="st3" d="M388.9,266.7c-11.9,0-23,2.9-33.1,7.7c0,1.2-0.2,2.3-0.2,3.4c0,43,19.9,77.8,44.4,77.8
	c22.3,0,40.6-28.8,43.8-66.2C429.2,274.8,409.5,266.7,388.9,266.7z"/>
<ellipse class="st7" cx="400" cy="377.8" rx="66.7" ry="22.2"/>
<path class="st1" d="M444.4,400c0,18.4-19.9,22.2-44.4,22.2c-24.5,0-44.4-3.8-44.4-22.2c0-18.4,19.9-44.4,44.4-44.4
	C424.5,355.6,444.4,381.6,444.4,400z"/>
<path class="st0" d="M377.8,400c0-18.4,10-44.4,22.2-44.4c12.3,0,22.2,26,22.2,44.4c0,18.4-10,22.2-22.2,22.2
	C387.7,422.2,377.8,418.4,377.8,400z"/>
<path class="st8" d="M377.8,133.3c0-12.3,10,0,22.2,0c12.3,0,22.2-12.3,22.2,0c0,12.3-9.9,22.2-22.2,22.2
	C387.7,155.6,377.8,145.6,377.8,133.3z"/>
<ellipse class="st9" cx="400" cy="277.8" rx="22.2" ry="11.1"/>
<ellipse class="st10" cx="288.9" cy="233.3" rx="22.2" ry="11.1"/>
<ellipse class="st10" cx="311.1" cy="188.9" rx="22.2" ry="11.1"/>
<ellipse class="st10" cx="511.1" cy="233.3" rx="22.2" ry="11.1"/>
<ellipse class="st10" cx="488.9" cy="188.9" rx="22.2" ry="11.1"/>
</svg>
