<?xml version="1.0" encoding="utf-8"?>
<!-- Generator: Adobe Illustrator 27.1.1, SVG Export Plug-In . SVG Version: 6.00 Build 0)  -->
<svg version="1.1" id="Camada_1" xmlns="http://www.w3.org/2000/svg" xmlns:xlink="http://www.w3.org/1999/xlink" x="0px" y="0px"
	 viewBox="0 0 800 577.8" style="enable-background:new 0 0 800 577.8;" xml:space="preserve">
<style type="text/css">
	.st0{fill:#C60A1D;}
	.st1{fill:#FFC400;}
	.st2{fill:#EA596E;}
	.st3{fill:#F4A2B2;}
	.st4{fill:#DD2E44;}
	.st5{fill:#FFAC33;}
	.st6{fill:#99AAB5;}
	.st7{fill:#66757F;}
</style>
<path class="st0" d="M800,488.9c0,49.1-39.8,88.9-88.9,88.9H88.9C39.8,577.8,0,538,0,488.9v-400C0,39.8,39.8,0,88.9,0h622.2
	C760.2,0,800,39.8,800,88.9V488.9z"/>
<path class="st1" d="M0,155.6h800v266.7H0V155.6z"/>
<path class="st2" d="M200,266.7v66.7c0,36.8,29.8,66.7,66.7,66.7s66.7-29.8,66.7-66.7v-66.7H200z"/>
<path class="st3" d="M266.7,244.4h66.7v66.7h-66.7V244.4z"/>
<path class="st4" d="M200,244.4h66.7v66.7H200V244.4z"/>
<ellipse class="st2" cx="266.7" cy="211.1" rx="66.7" ry="33.3"/>
<ellipse class="st5" cx="266.7" cy="194.4" rx="66.7" ry="16.7"/>
<path class="st6" d="M155.6,244.4h22.2V400h-22.2V244.4z M355.6,244.4h22.2V400h-22.2V244.4z"/>
<path class="st7" d="M133.3,377.8H200V400h-66.7V377.8z M333.3,377.8H400V400h-66.7V377.8z M155.6,222.2h22.2v22.2h-22.2V222.2z
	 M355.6,222.2h22.2v22.2h-22.2V222.2z"/>
</svg>
