<?xml version="1.0" encoding="utf-8"?>
<!-- Generator: Adobe Illustrator 27.1.1, SVG Export Plug-In . SVG Version: 6.00 Build 0)  -->
<svg version="1.1" id="Camada_1" xmlns="http://www.w3.org/2000/svg" xmlns:xlink="http://www.w3.org/1999/xlink" x="0px" y="0px"
	 viewBox="0 0 800 577.8" style="enable-background:new 0 0 800 577.8;" xml:space="preserve">
<style type="text/css">
	.st0{fill:#003399;}
	.st1{fill:#FFCC00;}
</style>
<path class="st0" d="M711.1,0H88.9C39.8,0,0,39.8,0,88.9v400c0,49.1,39.8,88.9,88.9,88.9h622.2c49.1,0,88.9-39.8,88.9-88.9v-400
	C800,39.8,760.2,0,711.1,0z"/>
<path class="st1" d="M412,104.6l18.9-13.7h-23.3l-7.2-22.2l-7.2,22.2h-23.3l18.9,13.7l-7.2,22.2l18.9-13.7l18.9,13.7L412,104.6z
	 M412,489.7l18.9-13.7h-23.3l-7.2-22.2l-7.2,22.2h-23.3l18.9,13.7l-7.2,22.2l18.9-13.7l18.9,13.7L412,489.7z M219.4,297.1l18.9-13.7
	h-23.3l-7.2-22.2l-7.2,22.2h-23.3l18.9,13.7l-7.2,22.2l18.9-13.7l18.9,13.7L219.4,297.1z M244,201.9l18.9-13.7h-23.3l-7.2-22.2
	l-7.2,22.2h-23.3l18.9,13.7l-7.2,22.2l18.9-13.7l18.9,13.7L244,201.9z M244,393.4l18.9-13.7h-23.3l-7.2-22.2l-7.2,22.2h-23.3
	l18.9,13.7l-7.2,22.2l18.9-13.7l18.9,13.7L244,393.4z M315.7,130.4l18.9-13.7h-23.3L304,94.5l-7.2,22.2h-23.3l18.9,13.7l-7.2,22.2
	l18.9-13.7l18.9,13.7L315.7,130.4z M315.7,465.2l18.9-13.7h-23.3l-7.2-22.2l-7.2,22.2h-23.3l18.9,13.7l-7.2,22.2l18.9-13.7
	l18.9,13.7L315.7,465.2z M580.6,297.1l-18.9-13.7h23.3l7.2-22.2l7.2,22.2h23.3l-18.9,13.7l7.2,22.2l-18.9-13.7l-18.9,13.7
	L580.6,297.1z M556,201.9l-18.9-13.7h23.3l7.2-22.2l7.2,22.2h23.3l-18.9,13.7l7.2,22.2l-18.9-13.7l-18.9,13.7L556,201.9z M556,393.4
	l-18.9-13.7h23.3l7.2-22.2l7.2,22.2h23.3l-18.9,13.7l7.2,22.2l-18.9-13.7l-18.9,13.7L556,393.4z M484.3,130.4l-18.9-13.7h23.3
	l7.2-22.2l7.2,22.2h23.3l-18.9,13.7l7.2,22.2L496,138.8l-18.9,13.7L484.3,130.4z M484.3,465.2l-18.9-13.7h23.3l7.2-22.2l7.2,22.2
	h23.3l-18.9,13.7l7.2,22.2L496,473.7l-18.9,13.7L484.3,465.2z"/>
</svg>
