<?xml version="1.0" encoding="utf-8"?>
<!-- Generator: Adobe Illustrator 27.1.1, SVG Export Plug-In . SVG Version: 6.00 Build 0)  -->
<svg version="1.1" id="Camada_1" xmlns="http://www.w3.org/2000/svg" xmlns:xlink="http://www.w3.org/1999/xlink" x="0px" y="0px"
	 viewBox="0 0 800 577.8" style="enable-background:new 0 0 800 577.8;" xml:space="preserve">
<style type="text/css">
	.st0{fill:#0D5EB0;}
	.st1{fill:#EEEEEE;}
</style>
<path class="st0" d="M88.9,577.8h622.2c15,0,29.8-3.8,43-11.1H45.9C59,574,73.8,577.8,88.9,577.8z"/>
<path class="st1" d="M188.9,322.2H0v55.6h800v-55.6H311.1H188.9z M0,488.9c0,3.8,0.3,7.5,0.8,11.1h798.5c0.4-3.6,0.8-7.3,0.8-11.1
	v-44.4H0V488.9z M311.1,200H800v55.6H311.1V200z M311.1,77.8v55.6H800V88.9c0-3.8-0.3-7.5-0.8-11.1H311.1z"/>
<path class="st0" d="M311.1,133.3H800V200H311.1V133.3z M0,377.8h800v66.7H0V377.8z M45.9,566.7h708.2
	c24.8-13.8,41.6-38.5,45.1-66.7H0.8C4.3,528.2,21.1,552.9,45.9,566.7z M0,200h122.2v122.2H0V200z M311.1,255.6V200H188.9v122.2H800
	v-66.7H311.1z M754.1,11.1C741,3.8,726.2,0,711.1,0H88.9C44.1,0,6.4,33.4,0.8,77.8C0.3,81.4,0,85.1,0,88.9v44.4h122.2V11.1h66.7
	v122.2h122.2V77.8h488.1C795.7,49.6,778.9,24.9,754.1,11.1L754.1,11.1z"/>
<path class="st1" d="M188.9,133.3V0h-66.7v133.3H0V200h122.2v122.2h66.7V200h122.2v-66.7H188.9z"/>
</svg>
