<?xml version="1.0" encoding="utf-8"?>
<!-- Generator: Adobe Illustrator 27.1.1, SVG Export Plug-In . SVG Version: 6.00 Build 0)  -->
<svg version="1.1" id="Camada_1" xmlns:v="https://vecta.io/nano"
	 xmlns="http://www.w3.org/2000/svg" xmlns:xlink="http://www.w3.org/1999/xlink" x="0px" y="0px" viewBox="0 0 1500 1000"
	 style="enable-background:new 0 0 1500 1000;" xml:space="preserve">
<style type="text/css">
	.st0{fill:#4997D0;}
	.st1{fill:#FFFFFF;}
	.st2{fill:none;stroke:#24420E;stroke-width:0.437;}
	.st3{fill:#406325;stroke:#24420E;stroke-width:0.164;}
	.st4{fill:#67923D;stroke:#24420E;stroke-width:0.164;}
	.st5{fill:#BA1F3E;stroke:#511124;stroke-width:0.186;}
	.st6{fill:#BA1F3E;stroke:#511124;stroke-width:0.218;}
	.st7{fill:#8C959D;stroke:#485654;stroke-width:0.109;}
	.st8{fill:#8C959D;}
	.st9{fill:#485654;}
	.st10{fill:#6C301E;stroke:#351710;stroke-width:0.218;stroke-linejoin:round;}
	.st11{fill:#B2B6BA;stroke:#485654;stroke-width:0.218;}
	.st12{fill:none;stroke:#485654;stroke-width:0.164;}
	.st13{fill:#FAB81C;stroke:#6C301E;stroke-width:0.218;}
	.st14{fill:#FAB81C;stroke:#6C301E;stroke-width:0.109;}
	.st15{fill:#FAB81C;}
	.st16{fill:#6C301E;}
	.st17{fill:url(#SVGID_1_);stroke:#999270;stroke-width:0.164;}
	.st18{fill:url(#SVGID_00000137122614241615473120000004471633535086953105_);stroke:#999270;stroke-width:0.164;}
	.st19{fill:url(#SVGID_00000015316109676310132290000017076621983549042570_);stroke:#999270;stroke-width:0.164;}
	.st20{fill:url(#SVGID_00000162348115916307069410000009954140641390590336_);stroke:#999270;stroke-width:0.164;}
	.st21{fill:#F9F0AA;stroke:#999270;stroke-width:0.164;}
	.st22{fill:url(#SVGID_00000001642919460154320710000003313432512573452460_);stroke:#999270;stroke-width:0.164;}
	.st23{fill:url(#SVGID_00000137840637387130673240000001116705387102632122_);stroke:#999270;stroke-width:0.164;}
	.st24{fill:url(#SVGID_00000022550752711496940690000013162676652697431425_);stroke:#999270;stroke-width:0.164;}
	.st25{fill:url(#SVGID_00000003795932840944068440000017605851022723545265_);stroke:#999270;stroke-width:0.164;}
	.st26{fill:url(#SVGID_00000176027695346863466070000001961916976697108613_);stroke:#999270;stroke-width:0.164;}
	.st27{fill:#B07E09;}
	.st28{fill:url(#SVGID_00000067217740694386954900000005622820370805635007_);stroke:#4C0505;stroke-width:0.218;}
	.st29{fill:#448127;stroke:#34541F;stroke-width:0.218;}
	.st30{fill:#EAC102;stroke:#A08307;stroke-width:0.218;}
	.st31{fill:#A08307;}
	.st32{stroke:#000000;stroke-width:9.800000e-02;}
	.st33{fill:url(#SVGID_00000055697519179659106860000009440562889517485485_);}
	.st34{fill:#34541F;}
	.st35{fill:#448127;}
</style>
<g>
	<path class="st0" d="M0,0h1500v1000H0V0z"/>
	<path class="st1" d="M500,0h500v1000H500V0z"/>
	<g transform="matrix(1.014161 0 0 1.033004 -6.796414 -9.894493)">
		<g>
			<path class="st2" d="M702.7,614.7c4.2-0.6,6.6-1.8,9.4-2.8 M715.6,605.6c2.1,2.2,3.8,4.6,4.7,7.2 M707.6,604.9
				c2.2,2.1,3.7,4.2,4.9,6.5 M635,397.9c-1.6,2.5-4.8,4.3-7.5,5.4 M627,403c0.1-2.1-0.4-4.7,0.1-6.9 M624,404l1.1,3.2 M628.2,408.6
				l-3.2,0.5 M618.9,407.7c0,3.9,0.4,8.7,0.8,12.2 M616.9,418.5c0.7,1.2,1.5,2.3,2.4,2.9 M612.1,431.5c0.8,1.5,1.5,3.3,2,6.2
				 M620,430.5c-0.6,0.3-1.9,1.5-3,2.4 M619.4,439.7c-1.5,1.4-3.4,2.4-5.4,3.3 M608.1,506.2c1.8,3,3.8,5.6,6.2,7.3 M615.2,516.1
				c-2-0.3-3.4-0.9-4.6-1.5 M617.5,527.8l2.6,1.5 M619.4,534.7c2,1.3,3.9,3.6,5.9,6 M623.1,545.2c2.2,0.5,3.9,1,5.1,1.7
				 M626.5,550.6l3.3,0.1 M631.7,542.3l-0.8,6.6 M632.5,551.5l0.7-2.6 M640.5,558.3l-0.2,5.1 M701.5,606.9l-1.8,2.5 M695.9,603.3
				l-1.1-2.9"/>
			<path class="st3" d="M755.8,626.3c-1.2-2-3.3-3.2-5.1-4.2c-12.1-6.3-24.1-9.1-37.7-11.3c-3.1-0.5-6.3-3.5-9.5-5
				c-7.8-3.7-16.4-5.1-23.9-8.9c-0.5-0.2-2.4-1.4-3.3-2.4c-3-3.5-8.4-4.5-11.8-7.8c-13-12.3-26.8-23.6-34-39.9
				c-8.7-19.8-19.5-40.3-18.1-62.9c1-14.3-1.2-28.7,2.3-42.3c5.2-20.1,11.9-40.1,24.1-56.7l-2,1.3c-12.3,16.7-18.9,36.6-24.1,56.7
				c-3.5,13.6-1.4,28-2.3,42.3c-1.5,22.6,9.4,43,18.1,62.9c7.2,16.2,21.1,27.5,34,39.9c3.4,3.2,8.8,4.2,11.8,7.8
				c0.9,1,2.9,2.2,3.3,2.4c7.5,3.8,16.2,5.2,23.9,8.8c3.2,1.6,6.4,4.4,9.5,5c13.6,2.2,25.6,5.1,37.7,11.3c1.9,1,3.9,2.2,5.1,4.2
				L755.8,626.3"/>
			<g>
				<path class="st4" d="M631.1,543c-4.4-9.8-2.1-33.8-0.3-36.8C641.2,526.6,637.7,543.3,631.1,543z M702.8,613.9
					c-11.1,0.6-32.2,14.5-34.2,17.8C692.2,631.9,706.2,620.3,702.8,613.9z M714.4,607.2c-10.7-8.5-22.2-37-21.9-41.4
					C716.1,582.8,722.1,603.8,714.4,607.2z"/>
				<path class="st4" d="M706.6,607.3c-10.9-6.6-24.7-31.4-24.9-35.6C705.4,584.6,713.2,603.2,706.6,607.3z M682.2,596.7
					c1.5-12.2-8.9-37.9-11.9-40.6C665.8,581.9,675.1,599.2,682.2,596.7z M639.6,558.8c-3.6-8.8-1-30.2,0.7-32.8
					C648.9,544.3,645.4,559.1,639.6,558.8z M618.2,438.8c5.6-10.4,28.7-24.6,32.8-24.9C640.4,436.6,622.8,444.8,618.2,438.8z"/>
				<path class="st4" d="M619.3,430.1c3.4-11.4,23.2-30.1,27.1-31.3C640.6,423.3,625,435,619.3,430.1z M662.7,585
					c-7.8-9.6-12.5-37.3-11.4-41.2C668.9,563.4,670.1,583.2,662.7,585z M617.9,528c-10.8,1.7-33.4-7.2-35.8-9.9
					C604.8,513.2,620.1,521.4,617.9,528z M614.5,512.9c1.3-8.7,13.5-24.7,16.2-26C628.9,505.5,619,515.9,614.5,512.9z M694.7,604.4
					c-13.2,0.7-38.5,17.4-40.8,21.3C682,625.9,698.7,612,694.7,604.4z"/>
			</g>
			<g>
				<path class="st3" d="M631.2,542.8c6.6,0.3,10-16.2-0.4-36.5C632.7,525.5,632.7,541.1,631.2,542.8z M648.7,574
					c-7-8.5-30.3-17.7-33.9-17.4C628.7,575.5,645.9,580.2,648.7,574z M610.6,491.2c-1.8-12.6-19.3-35.5-23-37.5
					C589.9,480.6,604,495.5,610.6,491.2z M623.7,544.8c-7.8-5.8-29.6-8.4-32.7-7.4C606.8,550.4,622.5,550.7,623.7,544.8z M609,506
					c-4.5-8.9-23.1-21.1-26.4-21.4C591.3,504,605.4,511.1,609,506z M613.3,431.7c1.4-11.8-8.6-36.6-11.5-39.3
					C597.4,417.3,606.4,434.1,613.3,431.7z M620.3,408.4c4.2-10.2,1.2-35-0.8-38.2C609.5,391.4,613.5,408.8,620.3,408.4L620.3,408.4
					z M628.1,396.5c4.9-7.5,6.5-27.6,5.4-30.4C622.3,381.2,622.7,395.7,628.1,396.5z M637.4,386.9c6.9-5.4,14.4-24.2,14.2-27.2
					C636.4,370.5,632.5,384.4,637.4,386.9L637.4,386.9z M612.4,454.4c0.2,1.4-1.5-12.8-15.7-28.6
					C597.3,448.9,606.4,457.7,612.4,454.4z M663.2,588.4c-9.6-7.1-36.5-10.5-40.3-9.3C642.6,595.3,661.8,595.6,663.2,588.4z
					 M682.1,596.6c-7.1,2.5-16.3-14.7-11.8-40.4C674.7,578,680,595.3,682.1,596.6z M702.9,614c3.3,6.4-10.5,17.9-34,17.7
					C687.5,624.1,702,616.3,702.9,614z M714.4,607c7.6-3.5,1.7-24.3-21.9-41.2C706,586.5,715.1,604.3,714.4,607z M706.5,607.2
					c6.7-4.2-1.1-22.6-24.8-35.4C696.4,589.3,706.8,604.5,706.5,607.2z M639.6,558.7c5.8,0.3,9.3-14.5,0.7-32.7
					C641.5,543.2,641,557.3,639.6,558.7z M618.1,438.8c4.6,6.1,22-2,32.6-24.9C634.8,428.5,620.7,439.1,618.1,438.8z M619.4,430.1
					c5.8,4.9,21.2-6.7,27-31.2C633.8,416.4,622,429.7,619.4,430.1z M662.8,584.9c7.4-1.8,6.2-21.5-11.3-41
					C659.3,564.8,664,582.5,662.8,584.9z M617.7,527.9c2.2-6.6-13-14.6-35.6-9.8C601.2,521.6,616.5,526,617.7,527.9z M614.6,512.9
					c4.5,2.9,14.3-7.3,16.1-26C623.4,501.3,616.4,512.4,614.6,512.9z M694.6,604.6c4,7.6-12.4,21.4-40.7,21.1
					C676.3,616.6,693.6,607.3,694.6,604.6z"/>
				<path class="st3" d="M620.2,534.7c-4.2-9.8-23.1-24.2-26.5-24.8C601.4,531.3,616,539.9,620.2,534.7z"/>
			</g>
			<g>
				<path class="st4" d="M609.4,452.9c6.4-7.3,27.3-14.3,30.6-13.9C627.4,455.3,612,458.6,609.4,452.9z M648.6,574.1
					c-2.8,6.1-19.8,1.4-33.8-17.4C631.7,567.3,646.4,574.7,648.6,574.1z M610.4,491.2c-6.6,4.3-20.5-10.5-22.9-37.3
					C597.9,474.5,607.9,490.4,610.4,491.2z M623.6,544.9c-1.2,5.8-16.7,5.6-32.6-7.4C607.8,542.8,621.8,545.8,623.6,544.9z
					 M608.8,505.9c-3.6,5.1-17.6-2-26.3-21.3C595.4,497,606.8,506,608.8,505.9z M613.2,431.6c-6.9,2.4-15.9-14.2-11.4-39.1
					C605.9,413.6,611,430.3,613.2,431.6z M620.1,408.4c-6.7,0.4-10.7-16.9-0.7-38C618.1,390.4,618.6,406.7,620.1,408.4z M628,396.4
					c-5.4-0.8-5.8-15.1,5.5-30.3C629.2,381.7,627,394.8,628,396.4z M637.4,386.9c-4.9-2.6-1.1-16.3,14.1-27.1
					C642.8,373.3,636.9,385.1,637.4,386.9z"/>
				<path class="st4" d="M612.2,454.4c-5.9,3.3-15-5.5-15.6-28.6C604.6,444,610.1,453.6,612.2,454.4z M663.1,588.5
					c-1.4,7.2-20.5,6.9-40.1-9.2C643.6,585.9,660.9,589.7,663.1,588.5z M650.4,573.6c-6.3-6.8-11.2-27.1-10.5-30.1
					C653.9,557.2,655.8,572,650.4,573.6z M624,534.6c-5.6-9-6.1-32.7-4.6-35.9C632.3,517.2,630.8,534,624,534.6z M619.9,534.7
					c-4.3,5.2-18.6-3.4-26.4-24.7C606.2,524.2,617.7,534.7,619.9,534.7z"/>
			</g>
			<g>
				<path class="st3" d="M609.3,453c2.5,5.7,17.9,2.4,30.5-13.9C621.1,449.7,613.7,454.3,609.3,453z M623.9,534.3
					c6.8-0.6,8.3-17.2-4.6-35.7C623.5,517.2,625.2,532.5,623.9,534.3z M650.4,573.6c5.4-1.7,3.5-16.3-10.5-30
					C646.8,558.8,651.2,571.8,650.4,573.6z"/>
				<path class="st3" d="M612.2,480.8c3.2-13.1-2.7-35.3-6.7-39.9C598.1,464.9,605.1,482.4,612.2,480.8z"/>
			</g>
			<g>
				<g>
					<path class="st4" d="M611.7,483.9c-9.2,2.1-13.5-18.8-6.4-42.3C607,462.7,609.8,482.4,611.7,483.9z"/>
					<path class="st4" d="M609.9,483.8c-0.9-11.8,10.8-36.1,13.9-38.6C626.9,469.9,616.8,486.3,609.9,483.8z"/>
				</g>
				<path class="st3" d="M610,483.6c6.9,2.6,17-13.7,13.8-38.4C618.4,466,612.2,482.4,610,483.6z"/>
				<path class="st4" d="M612.1,498.7c0-11.9,13.2-34.7,16.5-36.9C629.9,487.1,618.7,502.2,612.1,498.7z"/>
				<path class="st3" d="M612.2,498.9c6.6,3.5,17.7-11.5,16.4-36.8C621.7,482.3,614.4,498,612.2,498.9z"/>
			</g>
			<g>
				<g>
					<ellipse class="st5" cx="616.3" cy="417.5" rx="1.7" ry="1.8"/>
					<ellipse class="st5" cx="629.4" cy="407.8" rx="1.7" ry="1.8"/>
					<ellipse class="st5" cx="623.7" cy="402.5" rx="1.7" ry="1.8"/>
				</g>
				<g>
					<ellipse class="st6" cx="609.5" cy="514.1" rx="2" ry="2.1"/>
					<ellipse class="st6" cx="613.5" cy="489.1" rx="2" ry="2.1"/>
					<ellipse class="st6" cx="634.1" cy="547.5" rx="2" ry="2.1"/>
					<ellipse class="st6" cx="625" cy="550.5" rx="2" ry="2.1"/>
					<ellipse class="st6" cx="694.2" cy="599.3" rx="2" ry="2.1"/>
					<ellipse class="st6" cx="698.8" cy="610.3" rx="2" ry="2.1"/>
				</g>
			</g>
			<g>
				<path class="st2" d="M873,429.5c1,1,1.8,1.3,3.6,3 M866.3,402.9c-0.1-2.1-1-5.6-1.4-7.8 M870.2,399.8c0.1,3-0.3,6-1.7,8.6
					 M862.1,407.5c2.7,2.5,5.5,4.8,8.2,6.1"/>
				<path class="st2" d="M876.2,415.5c0.2,3.1-0.2,6.2-1.1,9.3 M875.7,427.2l2.1-3.5 M874.8,442.7c2.2,0.5,4.4,3,5.5,5.4 M881,446.1
					l2.6-3.4 M886.3,490.7c-1.2,2-2.5,3.8-3.8,5.4 M876.2,496.1c1.2,2.3,2.4,4.6,4.1,6.3 M884.1,511.5c-2,2.8-4.3,4.9-6.9,6.3
					 M877.4,524.9c-1.7,1.2-3.8,4.6-5.8,7.4 M884.8,500.7l-3.3,1.4 M879.3,490.3l2,1.7 M866.8,550.5c-1.3-0.2-2.3,0-3.3,0.1
					 M860.3,547.6l1,2.6 M849.2,558.2c-0.4,2.9-0.1,5.8,0.3,8.7 M856.3,552.8l1.6,3.5 M863.9,556l-3.9,0.6 M811.7,596.1l-1.4,2.7
					 M828.9,592.7c-2.3,0.3-4.3-0.1-6.4-0.3 M813.9,601.7c-1.5-0.6-3-1.1-4.6-1.5 M786.3,604.3c-1.4,1.2-3.1,3.8-4.8,6.4
					 M780.7,603.6c-3.8,2-5,5.8-6.9,9.1 M778.1,617.2c-2.4-0.7-5.3-1.9-8.3-3.2 M796,612.9c-3.6-1.9-7.4-1.7-11.1-2.3 M801.6,610.1
					c-5.7-1.1-11-1-16.1-0.2 M797.7,605.8l-2.2-0.9 M786.9,613.5l-3.6-2 M873.8,534.6c-2,1.3-3.9,3.6-5.9,6 M870.8,416.2l-3.4-1.1"
					/>
			</g>
			<g>
				<path class="st3" d="M737.5,626.2c1.2-2,3.3-3.2,5.1-4.2c12.1-6.3,24.1-9.1,37.7-11.3c3.1-0.5,6.3-3.5,9.5-5
					c7.8-3.7,16.4-5.1,23.9-8.9c0.5-0.2,2.4-1.4,3.3-2.4c3-3.5,8.4-4.5,11.8-7.8c13-12.3,26.9-23.6,34-39.9
					c8.7-19.8,19.5-40.3,18.1-62.9c-1-14.3,1.2-28.7-2.3-42.3c-5.2-20.1-11.9-40.1-24.1-56.7l2,1.3c12.3,16.7,18.9,36.6,24.1,56.7
					c3.5,13.6,1.4,28,2.3,42.3c1.5,22.6-9.4,43-18.1,62.9c-7.2,16.2-21.1,27.5-34,39.9c-3.4,3.2-8.8,4.2-11.8,7.8
					c-0.9,1-2.9,2.2-3.3,2.4c-7.5,3.8-16.2,5.2-23.9,8.8c-3.2,1.6-6.4,4.4-9.5,5c-13.6,2.2-25.6,5.1-37.7,11.3
					c-1.9,1-3.9,2.2-5.1,4.1L737.5,626.2"/>
				<path class="st3" d="M861.3,547.7c4.3-11.6,0-38.8-2.3-42.1C848.6,529.6,853.8,548.5,861.3,547.7z M850.2,558.7
					c3.6-8.8,1-30.2-0.7-32.8C840.8,544.1,844.4,559,850.2,558.7z M876.5,442.8c-5.1-9.5-26.4-22.5-30.1-22.8
					C856.1,440.9,872.2,448.4,876.5,442.8z M874,430.3c-2.8-9.5-19.4-25.1-22.6-26.1C856.2,424.6,869.2,434.4,874,430.3z
					 M881.4,453.7c-5.5-6.3-23.7-12.4-26.6-12C865.7,455.8,879.1,458.6,881.4,453.7z M877,526.1c9.6,1.5,29.6-6.4,31.8-8.8
					C888.6,512.9,875.1,520.1,877,526.1z M876.8,517.2c-0.1-8.8-10-26.3-12.4-28C863.5,508,871.9,519.6,876.8,517.2z M877.4,495.9
					c0-11.9-13.2-34.7-16.5-36.9C859.6,484.2,870.8,499.3,877.4,495.9z M794.8,613.5c7,8.6,30.7,17.4,34.5,17
					C815.5,611.4,797.9,607,794.8,613.5z"/>
			</g>
			<g>
				<path class="st4" d="M861.2,547.4c-7.5,0.9-12.6-17.9-2.2-41.9C858.2,527.7,859.4,545.6,861.2,547.4z M777.8,615.6
					c11.1,0.6,32.2,14.5,34.2,17.8C788.4,633.6,774.4,622,777.8,615.6z"/>
				<path class="st4" d="M777.8,603.2c3.3-12.4,23.4-33.1,27.4-34.6C799.5,595.4,783.7,608.5,777.8,603.2L777.8,603.2z M811,596.6
					c-1.5-12.2,8.9-37.9,11.9-40.6C827.5,581.7,818.2,599.1,811,596.6z M844.5,573.9c7-8.5,30.3-17.7,33.9-17.4
					C864.6,575.4,847.4,580.1,844.5,573.9z M884.8,490.7c1.4-9.9,15.2-27.9,18.1-29.5C901.1,482.3,890,494,884.8,490.7z
					 M866.6,550.1c9.1-6.7,34.5-9.7,38.1-8.6C886.2,556.7,867.9,556.9,866.6,550.1z M882.6,511.8c4.7-9.3,24.3-22.1,27.7-22.5
					C901.3,509.7,886.5,517.1,882.6,511.8z M880.3,440.6c-0.2-11.9,12.5-35.5,15.6-37.9C897.7,428,886.9,443.7,880.3,440.6
					L880.3,440.6z M869.5,400.1c-3.6-8.3-1.7-28.8-0.1-31.4C878,385.9,875.1,400.3,869.5,400.1z M862.9,396.7
					c-8.2-7.3-16.6-30.9-16.3-34.5C865,376.7,869.1,394,862.9,396.7z M881,450.7c-0.5,1.3,4.6-12,22.2-23.9
					C897,449.1,886,455.3,881,450.7z M827.8,591.2c10.9-8.1,41.5-11.9,45.7-10.5C851.2,599,829.3,599.4,827.8,591.2z M850.2,558.6
					c-5.8,0.3-9.3-14.5-0.7-32.7C848.3,543.1,848.8,557.1,850.2,558.6z M876.5,442.9c-4.2,5.6-20.2-1.9-29.9-22.8
					C861.2,433.4,874.2,443.1,876.5,442.9z M873.8,430.3c-4.8,4.1-17.6-5.6-22.5-26C861.9,418.9,871.7,430,873.8,430.3z
					 M881.5,453.8c-2.2,4.9-15.5,2.1-26.4-12C871.3,450.9,877.7,454.9,881.5,453.8z M877.3,526c-2-5.9,11.5-13,31.6-8.7
					C891.9,520.3,878.3,524.3,877.3,526z M876.6,517.2c-4.9,2.3-13.2-9.2-12.3-27.9C869.6,504.5,875,516.4,876.6,517.2z
					 M877.3,496.1c-6.6,3.5-17.7-11.5-16.4-36.8C867.8,479.4,875.1,495.1,877.3,496.1z M795,613.4c3.2-6.5,20.5-2.2,34.3,17
					C812.1,619.9,797.3,612.7,795,613.4z"/>
			</g>
			<g>
				<path class="st3" d="M811.2,596.5c7.1,2.5,16.3-14.7,11.8-40.4C818.5,577.8,813.3,595.2,811.2,596.5z"/>
				<path class="st3" d="M827.2,588.3c6.8-10.4,8.7-38.4,7.2-42.1C818.8,567.4,819.7,587.3,827.2,588.3z M777.7,615.7
					c-3.3,6.4,10.5,17.9,34,17.7C793.1,625.7,778.6,618,777.7,615.7z M777.9,603.1c5.9,5.2,21.6-7.7,27.2-34.5
					C792.5,588,780.6,602.7,777.9,603.1L777.9,603.1z M844.7,574c2.8,6.1,19.8,1.4,33.8-17.4C861.5,567.2,846.9,574.5,844.7,574z
					 M884.9,490.6c5.2,3.4,16.1-8.3,18.1-29.4C894.8,477.5,886.9,490,884.9,490.6z M866.7,550.2c1.4,6.8,19.5,6.5,38-8.6
					C885.1,547.8,868.7,551.3,866.7,550.2z M882.8,511.7c3.8,5.3,18.5-2.1,27.6-22.4C897,502.3,885,511.8,882.8,511.7z M880.5,440.5
					c6.6,3.1,17.3-12.4,15.5-37.6C889.6,423.4,882.7,439.4,880.5,440.5z M869.6,400.1c5.5,0.1,8.5-14.1-0.2-31.2
					C870.9,385.2,870.8,398.7,869.6,400.1z M863,396.6c6.2-2.7,2.1-19.9-16.3-34.3C856.8,379.5,863.7,394.4,863,396.6z M881.1,450.8
					c5,4.6,15.8-1.7,22.1-24C891.1,442.6,883.4,450.5,881.1,450.8z M827.9,591.2c1.6,8.2,23.3,7.8,45.5-10.4
					C850,588.4,830.4,592.7,827.9,591.2z M838.6,579.2c5.1-7.7,6.7-28.6,5.6-31.4C832.5,563.5,833,578.4,838.6,579.2z M869.3,534.5
					c5.6-9,6.1-32.7,4.6-35.9C860.9,517,862.5,533.9,869.3,534.5z"/>
			</g>
			<path class="st4" d="M827.2,588.2c-7.5-1-8.3-20.8,7.1-42C828.6,567.9,825.7,586,827.2,588.2z M882.1,481.4
				c-1.5-12.1,6.2-31.5,10.4-35.2C896.5,468.7,888.3,483.7,882.1,481.4z M838.6,579.1c-5.6-0.8-6.1-15.6,5.5-31.3
				C839.8,563.9,837.5,577.4,838.6,579.1z M875.1,416.2c-3.4-9.2,0-31.3,1.9-34C885.3,401.3,881.1,416.7,875.1,416.2z M784.3,603.9
				c3.9-12.6,25.3-32.9,29.4-34.2C807,596.9,790.2,609.6,784.3,603.9z M869.5,539c4.2-9.8,23.1-24.2,26.5-24.8
				C888.3,535.5,873.8,544.1,869.5,539z M869.4,534.2c-6.8-0.6-8.3-17.2,4.6-35.7C869.8,517,868,532.4,869.4,534.2z"/>
			<g>
				<path class="st3" d="M882.2,484.3c8.1,2.9,14.2-15.5,10.3-37.4C888.7,465.8,884.1,483.2,882.2,484.3z"/>
				<path class="st3" d="M883.4,483.7c0.9-11.8-10.8-36.1-13.9-38.6C866.3,469.8,876.4,486.2,883.4,483.7z M875.2,416.1
					c6,0.5,10.1-14.7,1.9-33.9C877.6,400.1,876.6,414.7,875.2,416.1z M784.5,603.8c5.9,5.7,22.5-6.9,29.2-34.1
					C799.9,589,787.2,603.5,784.5,603.8L784.5,603.8z M869.9,539c4.3,5.2,18.6-3.4,26.4-24.7C883.5,528.5,872.1,539,869.9,539z"/>
			</g>
			<path class="st4" d="M883.2,483.5c-6.9,2.6-17-13.7-13.8-38.4C874.9,465.9,881,482.3,883.2,483.5z"/>
			<g>
				<ellipse class="st6" cx="878.5" cy="423.1" rx="1.7" ry="1.8"/>
				<ellipse class="st6" cx="884.4" cy="441.8" rx="1.7" ry="1.8"/>
				<ellipse class="st6" cx="886.5" cy="500.3" rx="2" ry="2.1"/>
				<ellipse class="st6" cx="878.5" cy="489.4" rx="2" ry="2.1"/>
				<ellipse class="st6" cx="855.5" cy="551.7" rx="2" ry="2.1"/>
				<ellipse class="st6" cx="865.3" cy="556" rx="2" ry="2.1"/>
				<ellipse class="st6" cx="799" cy="606.5" rx="2" ry="2.1"/>
				<ellipse class="st6" cx="788.1" cy="614.4" rx="2" ry="2.1"/>
				<ellipse class="st6" cx="866.6" cy="414.3" rx="1.7" ry="1.7"/>
			</g>
		</g>
		<g id="N">
			<path class="st7" d="M674.7,550.3c-0.2,1.7,1.3,3.7,3.3,3.2c0.6-0.1,1-0.9,0.2-0.8c-0.7,0.2-1.4-0.1-1.9-0.6
				c-0.9-0.9-1-2.1-0.6-3L674.7,550.3L674.7,550.3L674.7,550.3z"/>
			<g>
				<path class="st8" d="M679.4,553.5c-1.6,1.8-4,2.6-5.4,1.3c-0.9-0.9-1.2-1.9-0.7-3l-1.8,1.9c0.1,0.1,1.1,2,2.7,2.7
					c1.9,0.9,4.6-0.4,6.3-2.4c1.2-1.4,2.4-3.8,1.5-5.6c-0.6-1.1-1.9-2.2-3.1-2.7l-1.6,1.7c0.8-0.4,1.8-0.2,2.6,0.5
					C682,549.6,680.8,551.9,679.4,553.5L679.4,553.5L679.4,553.5z"/>
				<path class="st9" d="M679.4,553.5c-0.5,0.6-1.1,1.1-1.8,1.5s-1.5,0.6-2.3,0.5c-0.4-0.1-0.8-0.2-1.1-0.5
					c-0.3-0.3-0.6-0.6-0.8-0.9c-0.2-0.3-0.4-0.7-0.4-1.2c0-0.4,0.1-0.8,0.2-1.2l0.2,0.1l-1.7,1.9l0-0.2c0.4,0.7,1,1.5,1.6,2
					c0.3,0.3,0.7,0.5,1.1,0.7c0.4,0.2,0.8,0.2,1.2,0.2c0.9,0,1.7-0.3,2.5-0.7c0.8-0.4,1.4-1,2-1.6c0.6-0.7,1.1-1.4,1.5-2.2
					c0.4-0.8,0.6-1.6,0.6-2.5c0-0.4-0.1-0.8-0.3-1.2c-0.2-0.4-0.5-0.7-0.8-1c-0.6-0.6-1.3-1.1-2.1-1.5l0.1,0l-1.6,1.7l-0.1-0.2
					c0.4-0.2,0.8-0.2,1.2-0.2c0.4,0,0.8,0.2,1.1,0.4c0.7,0.4,1.2,1,1.4,1.8c0.2,0.8,0,1.6-0.3,2.3
					C680.4,552.3,679.9,553,679.4,553.5L679.4,553.5L679.4,553.5z M679.4,553.5c0.5-0.6,0.9-1.2,1.2-1.9c0.3-0.7,0.5-1.5,0.3-2.2
					c-0.2-0.7-0.8-1.3-1.4-1.7c-0.6-0.4-1.4-0.5-2.1-0.2l-0.1-0.2l1.6-1.7l0.1-0.1l0.1,0c0.9,0.3,1.6,0.9,2.3,1.5
					c0.3,0.3,0.6,0.7,0.8,1.1c0.2,0.4,0.4,0.9,0.4,1.3c0.1,0.9-0.2,1.8-0.6,2.7c-0.4,0.8-0.9,1.6-1.5,2.3c-0.6,0.7-1.3,1.2-2.1,1.7
					c-0.8,0.4-1.7,0.7-2.6,0.8c-0.5,0-0.9-0.1-1.4-0.2c-0.4-0.2-0.8-0.4-1.2-0.7c-0.7-0.6-1.2-1.3-1.7-2.1l0-0.1l0.1-0.1l1.8-1.9
					l0.2,0.1c-0.2,0.3-0.2,0.7-0.2,1.1c0,0.4,0.1,0.7,0.3,1.1s0.5,0.6,0.7,0.9s0.6,0.4,1,0.5c0.8,0.1,1.6-0.1,2.2-0.4
					S678.9,554.1,679.4,553.5L679.4,553.5z"/>
			</g>
			<path class="st10" d="M801.3,414.3l-62.7,61.7c-4.8,4.7-59.3,56.8-64.2,61.5l-7.1,8.4c-3.3,3.6-6.9,8.3-11.2,12.5
				c-0.8,1-1.8,0.6-2.7,1.2c-2.8,1.6-5.8,4.5-7.9,6.8l-19.1,21.1c-1.2,1.3-1.6,2.2-0.7,2.9l10.3,13.8c1.9,1.9,4.1,2.9,5,1.3
				c4.9-8.5,17.1-21.5,21.7-31.8c2.8-6.1,6.2-17.3,8.7-20c3-3.4,11.2-12.1,18.4-19.9l1.5-1.6l1.5-1.6l110.2-114.9
				C801.7,414.7,802.5,415.5,801.3,414.3L801.3,414.3z"/>
			<path class="st7" d="M671.1,537.5c-1.9,0.1-3.2-1.1-4.4-2.2c1.8,0.5,3.7,1.2,5.4,0.5L671.1,537.5L671.1,537.5z"/>
			<path class="st11" d="M866.6,368.8l-49.7,41c-0.5,0.6-1,0.4-1.5,0L811,406c0-0.1,0-0.1,0-0.2c0-0.3,0-0.5-0.1-0.7l2.2-2.3
				c0.3-0.3,0.2-0.5-0.2-0.9L812,401c-0.4-0.3-0.7-0.1-1,0.3l-2.2,2.3c-1.1,0-2.1,1-2.1,2.1l-85.8,84.2l-35.3,33.7
				c-1.3,1.6-6.7,4.5-10.3,6.9c-1.3,0.8-2.4,1.6-2.8,2.4l-2.9,8.5c-0.9,1.9-3.8,6.3-3.9,6.6l6,5.8c2.8-3.2,10.5-11.1,17.4-18.5
				c0.6-0.6,0.6-0.7,1.3-1.5c-0.7-0.9-1.4-1.8-2.2-2.6c-0.6-0.6-1.3-1.2-1.9-1.7c-0.4-0.3-0.7-0.6-1-0.9s0.4-0.7,0.7-1l122.3-119.7
				c0.2,0.1,0.4,0.1,0.6,0.1c0.3,0,0.7-0.1,1-0.2l4.4,5c1,1,1.9,1,2.7,0.6L866.6,368.8L866.6,368.8z"/>
			<path class="st9" d="M669.6,541.1c0.3,0.1,0.6,0.1,0.9,0c0.3,0,0.6-0.1,0.9-0.3l0,0l1.1-3.7l1.2-3.7l0,0
				c-0.3-0.3-0.7-0.7-1.1-0.8c0.5,0.1,0.9,0.4,1.2,0.7l0,0l0,0l-1.1,3.7l-1.2,3.7l0,0l0,0c-0.3,0.1-0.6,0.2-0.9,0.2
				C670.2,541.2,669.9,541.2,669.6,541.1L669.6,541.1z"/>
			<g>
				<ellipse class="st12" cx="680.9" cy="537.6" rx="1" ry="1"/>
				<ellipse class="st12" cx="675" cy="543.4" rx="1" ry="1"/>
			</g>
			<path class="st9" d="M685.2,528.6c-0.5-0.4-1-0.8-1.4-1.2l-1.3-1.3c0.5,0.4,1,0.8,1.4,1.2L685.2,528.6z"/>
			<path class="st7" d="M780.9,429.6l5.4,5.3l1-0.9l-5.4-5.3L780.9,429.6z"/>
		</g>
		<g transform="matrix(-.998771 -.049571 -.049571 .998771 973.59129 23.686411)">
			<g id="N_00000156589907981424758900000018168676322158354306_">
				<path class="st7" d="M813.7,553c0.1,1.7-1.5,3.6-3.5,3.1c-0.6-0.2-0.9-1-0.2-0.8c0.7,0.2,1.4,0,1.9-0.5c1-0.8,1.1-2.1,0.8-3
					L813.7,553L813.7,553L813.7,553z"/>
				<g>
					<path class="st8" d="M808.9,556c1.5,1.9,3.9,2.8,5.3,1.6c0.9-0.8,1.3-1.8,0.9-2.9l1.7,2c-0.1,0.1-1.2,2-2.8,2.6
						c-2,0.8-4.6-0.7-6.1-2.8c-1.1-1.5-2.2-3.9-1.2-5.7c0.6-1.1,2-2.1,3.2-2.5l1.5,1.8c-0.8-0.4-1.8-0.3-2.7,0.4
						C806.5,552,807.6,554.3,808.9,556L808.9,556L808.9,556z"/>
					<path class="st9" d="M808.9,556c0.5,0.6,1.1,1.2,1.7,1.6s1.5,0.7,2.3,0.6c0.4,0,0.8-0.2,1.1-0.4c0.3-0.2,0.6-0.5,0.8-0.9
						c0.2-0.3,0.4-0.7,0.4-1.1c0.1-0.4,0-0.8-0.2-1.2l-0.2,0.1l1.6,2l0-0.2c-0.5,0.7-1,1.4-1.7,1.9c-0.3,0.3-0.7,0.5-1.1,0.6
						s-0.8,0.2-1.3,0.1c-0.9-0.1-1.7-0.4-2.4-0.9c-0.7-0.5-1.4-1-1.9-1.7c-0.6-0.7-1-1.4-1.4-2.2c-0.3-0.8-0.6-1.7-0.5-2.5
						c0.1-0.4,0.2-0.8,0.4-1.2s0.5-0.7,0.8-1c0.6-0.6,1.4-1.1,2.2-1.3l-0.1,0l1.5,1.8l0.1-0.2c-0.4-0.2-0.8-0.3-1.2-0.2
						c-0.4,0-0.8,0.1-1.1,0.3c-0.7,0.4-1.3,1-1.5,1.7c-0.2,0.8-0.1,1.6,0.2,2.3C808,554.8,808.4,555.4,808.9,556L808.9,556
						L808.9,556z M808.9,556c-0.5-0.6-0.9-1.3-1.1-2c-0.3-0.7-0.4-1.5-0.2-2.2c0.2-0.7,0.8-1.3,1.5-1.6c0.7-0.3,1.5-0.4,2.1-0.1
						l0.1-0.2l-1.5-1.8l-0.1-0.1l-0.1,0c-0.9,0.3-1.7,0.8-2.3,1.4c-0.3,0.3-0.6,0.6-0.9,1c-0.2,0.4-0.4,0.9-0.5,1.3
						c-0.1,0.9,0.1,1.8,0.5,2.7c0.4,0.8,0.8,1.6,1.4,2.3c0.6,0.7,1.3,1.3,2,1.8c0.8,0.5,1.6,0.8,2.6,0.9c0.5,0,0.9,0,1.4-0.2
						c0.4-0.2,0.8-0.4,1.2-0.7c0.7-0.6,1.3-1.3,1.8-2l0-0.1l-0.1-0.1l-1.7-2l-0.2,0.1c0.1,0.4,0.2,0.7,0.2,1.1c0,0.4-0.2,0.7-0.4,1
						s-0.5,0.6-0.8,0.8c-0.3,0.2-0.7,0.4-1,0.4c-0.8,0.1-1.5-0.2-2.2-0.5S809.4,556.6,808.9,556L808.9,556z"/>
				</g>
				<path class="st10" d="M694.1,410.9l59.6,64.8c4.5,5,56.4,59.7,61.1,64.6l6.7,8.7c3.1,3.8,6.5,8.7,10.6,13.1
					c0.7,1,1.8,0.7,2.6,1.3c2.7,1.8,5.5,4.8,7.5,7.2l18,22c1.2,1.4,1.4,2.2,0.6,3l-11,13.3c-2,1.8-4.3,2.7-5,1
					c-4.5-8.7-16-22.3-20.1-32.8c-2.4-6.3-5.4-17.6-7.7-20.4c-2.9-3.5-10.6-12.6-17.4-20.7l-1.4-1.6l-1.4-1.7L692.4,412.5
					C693.7,411.3,692.9,412,694.1,410.9L694.1,410.9z"/>
				<path class="st7" d="M818.1,540.5c1.9,0.2,3.2-0.9,4.6-2c-1.9,0.4-3.7,1.1-5.4,0.3L818.1,540.5L818.1,540.5z"/>
				<path class="st11" d="M631.1,362.2l47.6,43.4c0.4,0.6,1,0.5,1.4,0.1l4.7-3.5c0-0.1,0-0.1,0-0.2c0-0.3,0.1-0.5,0.2-0.7l-2.1-2.4
					c-0.3-0.4-0.2-0.5,0.2-0.8l1-0.9c0.4-0.3,0.7,0,1,0.3l2.1,2.4c1.1,0.1,2,1.1,2,2.2l81.6,88.3l33.6,35.4c1.2,1.7,6.5,4.9,10,7.4
					c1.2,0.9,2.3,1.7,2.7,2.5l2.5,8.6c0.8,1.9,3.5,6.4,3.6,6.7l-6.3,5.5c-2.7-3.3-9.9-11.6-16.4-19.4c-0.5-0.6-0.6-0.7-1.2-1.6
					c0.7-0.9,1.5-1.7,2.3-2.5c0.6-0.6,1.3-1.1,2-1.6c0.4-0.3,0.8-0.6,1-0.8c0.3-0.2-0.3-0.7-0.6-1L687.5,404.2
					c-0.2,0-0.4,0.1-0.6,0.1c-0.3,0-0.7-0.1-1-0.3l-4.6,4.8c-1.1,1-1.9,0.9-2.7,0.5L631.1,362.2L631.1,362.2z"/>
				<path class="st9" d="M819.3,544.1c-0.3,0-0.6,0-0.9,0c-0.3,0-0.6-0.1-0.9-0.3l0,0l-0.9-3.8l-1-3.7l0,0c0.3-0.3,0.7-0.6,1.2-0.7
					c-0.5,0.1-0.9,0.3-1.2,0.7l0,0l0,0l0.9,3.8l1,3.8l0,0l0,0c0.3,0.2,0.6,0.2,0.9,0.3C818.7,544.2,819,544.1,819.3,544.1
					L819.3,544.1z"/>
				<g>
					<ellipse class="st12" cx="808.2" cy="540" rx="1" ry="1"/>
					<ellipse class="st12" cx="813.8" cy="546.1" rx="1" ry="1"/>
				</g>
				<path class="st9" d="M804.3,530.8c0.5-0.4,1-0.7,1.5-1.1l1.4-1.3c-0.5,0.4-1,0.7-1.5,1.1L804.3,530.8z"/>
				<path class="st7" d="M713.7,427.3l-5.7,5.1l-1-1l5.7-5L713.7,427.3z"/>
			</g>
		</g>
		<g>
			<path class="st4" d="M674.2,595.7c-12.3-5.2-42-1-45.7,1.5C654,609.7,674.7,604.3,674.2,595.7z M813.3,600.9
				c12.3-5.2,42-1,45.7,1.5C833.5,614.9,812.8,609.5,813.3,600.9z"/>
			<path class="st3" d="M674,595.9c0.5,8.6-20,13.9-45.4,1.4C652.4,598.8,672,597.9,674,595.9z M813.5,601.1
				c-0.5,8.6,20,13.9,45.4,1.4C835.1,603.9,815.5,603.1,813.5,601.1z"/>
		</g>
		<g id="O">
			<path class="st11" d="M790.7,587.3c-32.4-47.1-81.2-85.3-118.9-106.2c5.6-0.3,17.9,6.1,22.9,9.3c37.4,24.1,69.2,55.9,102.6,93.5
				c-2,1.9-3.3,3.1-5.4,4.8L790.7,587.3L790.7,587.3z"/>
			<path class="st8" d="M794,587l-2.3,2.2c-36-46.3-86.1-90.5-119.8-108c47,21.6,86.5,65.3,121.9,105.7L794,587L794,587z"/>
			<path class="st9" d="M794,587l-2.3,2.2l0,0l0,0c-8.3-10.7-17.1-20.9-26.4-30.8s-18.8-19.5-28.7-28.7c-9.9-9.2-20.2-18-31-26.2
				c-5.4-4.1-10.8-8.1-16.5-11.8c-5.6-3.7-11.4-7.3-17.4-10.4l0.2-0.3c12.3,5.7,24,12.8,35,20.8s21.4,16.7,31.3,26
				s19.4,19,28.6,28.9C776.1,566.6,785.1,576.8,794,587L794,587z M794,587l-27.2-30.2c-9.2-9.9-18.7-19.6-28.7-28.8
				c-9.9-9.2-20.3-18-31.3-25.9c-11-7.9-22.6-15-34.9-20.7l0.1-0.3c6,3.1,11.8,6.7,17.4,10.4c5.6,3.8,11.1,7.7,16.5,11.9
				c10.7,8.2,21,17.1,30.9,26.2c9.9,9.2,19.5,18.8,28.7,28.7c9.2,9.9,18,20.2,26.2,30.9h0L794,587L794,587z"/>
			<g>
				<g>
					<path class="st13" d="M804.8,579.7c-3.1,0.8-5.8,2-8.2,3.5c-0.4,2.2-3,4.6-5.6,5.2l-0.9-1.2c-0.1-0.1-0.2-0.1-0.3-0.1l-0.9,0.5
						c-1-0.2-2.1,0.3-2.6,1.5c-0.6,1.5,0.6,3.5,1.9,4.8c1.4,1.1,2.2,1.7,3.8,1.4c1.7-0.4,2.6-1.9,3-2.4c5.8,7,10.2,10.8,17.5,16.6
						c3.3,0,5-2,3.9-4.4c-0.4-0.8-1.3-1.3-2.1-1c0.1-0.2,0-0.5,0-0.7c3.8-3.5,5.5-8,1.4-15.4C812.4,581.8,808.6,579.6,804.8,579.7
						L804.8,579.7L804.8,579.7z M814.6,586.7c0.7,1.2,1.1,2.2,1.6,3.2c2.3,4.7,0.3,10.3-3.6,12c-0.2,0-0.1,0-0.3,0
						c0.6-1.1-1.3-3.4-2.3-2.6c0.5-1.2-1-3.2-2.3-2.6c0.6-1.1-0.8-3-2.2-2.4c0.7-1.2-0.5-2.9-1.9-2.6c0.4-1.3-0.7-2.7-2.1-2.5
						c0.1-1.1-0.2-1.8-0.8-2.3c1.7-1.3,3.7-3.4,5.4-4.3C810.2,581,812.8,584.5,814.6,586.7L814.6,586.7L814.6,586.7L814.6,586.7
						L814.6,586.7z"/>
					<g>
						<path class="st14" d="M816.4,591.7c-0.8-0.4-1.2-1.2-0.9-1.7c0.3-0.5,1.1-0.7,1.9-0.3c0.8,0.4,1.3,1.2,1,1.7
							C818.1,591.9,817.2,592.1,816.4,591.7L816.4,591.7z"/>
						<path class="st14" d="M815.9,590.1c-0.8-0.4-1.2-1.2-0.9-1.7c0.3-0.5,1.1-0.7,1.9-0.3c0.8,0.4,1.3,1.2,1,1.7
							C817.6,590.3,816.7,590.5,815.9,590.1L815.9,590.1L815.9,590.1z"/>
						<path class="st14" d="M814.9,588.3c-0.8-0.4-1.2-1.2-0.9-1.7c0.3-0.5,1.1-0.7,1.9-0.3c0.8,0.4,1.3,1.2,1,1.7
							C816.6,588.6,815.7,588.7,814.9,588.3L814.9,588.3z"/>
						<path class="st14" d="M813.7,586.7c-0.8-0.4-1.2-1.2-0.9-1.7c0.3-0.5,1.1-0.7,1.9-0.3c0.8,0.4,1.3,1.2,1,1.7
							C815.4,587,814.5,587.1,813.7,586.7L813.7,586.7z"/>
						<path class="st14" d="M812.1,585.2c-0.8-0.4-1.2-1.2-0.9-1.7c0-0.1,0-0.2,0.1-0.2c0.3,0.2,1,0.3,0.9-0.2
							c-0.1-0.2-0.2-0.4-0.1-0.2c0.2,0,0.7,0.2,1,0.3c0.8,0.4,1.3,1.2,1,1.7C813.8,585.4,812.9,585.6,812.1,585.2L812.1,585.2
							L812.1,585.2z"/>
					</g>
				</g>
				<path class="st15" d="M795.1,593c1.1-2.8,3.2-5.3,5.5-5.9 M795.4,593.4c2,0.4,5.2-1.9,5.9-4 M797.3,595.6
					c2.6,0.6,5.1-1.9,6.1-3.8 M799.6,598.1c3.1,0.1,4.9-2.1,5.8-3.7 M802,600.5c2.6,0,5-2.1,5.7-3.8 M804.3,602.7
					c2.8-0.1,4.8-1.4,5.7-3.2 M806.8,604.9c2.6,0.1,4.7-1.4,5.4-2.9 M809.6,607.2c2.6,0.2,4.2-1.5,4.9-3"/>
			</g>
			<g>
				<path class="st16" d="M795.1,593c0.2-0.7,0.5-1.3,0.9-1.9c0.3-0.6,0.7-1.2,1.2-1.7c0.5-0.5,1-1,1.5-1.4c0.6-0.4,1.2-0.7,1.9-0.9
					c-0.7,0.2-1.3,0.6-1.8,1c-0.5,0.4-1,0.9-1.5,1.4C796.4,590.5,795.7,591.7,795.1,593L795.1,593z"/>
				<path class="st16" d="M795.4,593.4c0.6,0.1,1.3-0.1,1.8-0.3c0.6-0.2,1.1-0.6,1.6-0.9c0.5-0.4,1-0.8,1.4-1.3
					c0.4-0.5,0.8-1,1.1-1.6c-0.2,0.6-0.5,1.2-1,1.6c-0.4,0.5-0.9,0.9-1.4,1.3c-0.5,0.4-1.1,0.7-1.7,0.9
					C796.7,593.4,796.1,593.5,795.4,593.4L795.4,593.4z M797.3,595.6c0.6,0.1,1.3,0.1,1.9-0.1c0.6-0.2,1.2-0.5,1.7-0.9
					c0.5-0.4,1-0.8,1.4-1.3c0.4-0.5,0.8-1,1.2-1.5c-0.3,0.6-0.6,1.1-1.1,1.6c-0.4,0.5-0.9,0.9-1.4,1.3c-0.5,0.4-1.1,0.7-1.7,0.8
					C798.6,595.8,797.9,595.8,797.3,595.6L797.3,595.6z M799.6,598.1c0.6,0,1.2-0.1,1.8-0.3s1.1-0.4,1.6-0.8c0.5-0.3,1-0.7,1.4-1.2
					c0.4-0.5,0.8-0.9,1.1-1.5c-0.5,1.1-1.3,2.1-2.3,2.8c-0.5,0.3-1.1,0.6-1.7,0.8C800.9,598.1,800.3,598.2,799.6,598.1L799.6,598.1z
					 M802,600.5c1.2-0.1,2.3-0.5,3.3-1.2c0.5-0.3,0.9-0.7,1.3-1.2c0.4-0.4,0.8-0.9,1-1.4c-0.2,0.6-0.6,1.1-1,1.5
					c-0.4,0.5-0.9,0.9-1.3,1.2c-0.5,0.3-1,0.6-1.6,0.8S802.6,600.5,802,600.5L802,600.5z M804.3,602.7c0.6-0.1,1.1-0.2,1.7-0.3
					c0.5-0.1,1.1-0.3,1.6-0.6c0.5-0.3,1-0.6,1.4-1c0.4-0.4,0.8-0.9,1-1.4c-0.2,0.5-0.5,1-0.9,1.5c-0.4,0.4-0.9,0.8-1.4,1
					C806.6,602.5,805.4,602.7,804.3,602.7L804.3,602.7z M806.8,604.9c0.5,0,1.1-0.1,1.6-0.2c0.5-0.1,1-0.3,1.5-0.6
					c0.5-0.2,0.9-0.6,1.3-0.9s0.7-0.8,1-1.2c-0.2,0.5-0.5,1-0.9,1.3c-0.4,0.4-0.8,0.7-1.3,1c-0.5,0.2-1,0.4-1.5,0.5
					S807.4,605,806.8,604.9L806.8,604.9z M809.6,607.2c0.5,0,1-0.1,1.5-0.2c0.5-0.1,0.9-0.3,1.4-0.6c0.4-0.3,0.8-0.6,1.2-1
					c0.3-0.4,0.6-0.8,0.9-1.2c-0.4,1-1.1,1.8-1.9,2.3c-0.4,0.3-0.9,0.5-1.4,0.6C810.6,607.2,810.1,607.2,809.6,607.2L809.6,607.2z"
					/>
			</g>
		</g>
		<g transform="matrix(-.998232 -.059442 -.059442 .998232 979.09134 28.304721)">
			<g id="O_00000087384437231416093890000014493261296240394426_">
				<path class="st11" d="M699.5,583.4c35.1-45.1,86.2-80.3,125-99c-5.5-0.6-18.2,5-23.4,7.9c-38.8,21.8-72.4,51.7-108,87.2
					c1.8,2.1,3.1,3.3,5.1,5.1L699.5,583.4L699.5,583.4z"/>
				<path class="st8" d="M696.3,582.8l2.1,2.3c38.6-44.1,91.3-85.3,126-100.7c-48.2,18.8-90.3,60-128,98.3L696.3,582.8L696.3,582.8z
					"/>
				<path class="st9" d="M696.3,582.8l2.1,2.3l0,0l0,0c8.9-10.1,18.4-19.9,28.1-29.2c9.8-9.3,19.9-18.3,30.4-26.9
					c10.5-8.6,21.3-16.7,32.5-24.3c5.6-3.8,11.3-7.4,17.1-10.8s11.8-6.6,18-9.3l-0.1-0.3c-12.6,5-24.7,11.4-36.1,18.6
					c-11.4,7.3-22.3,15.4-32.8,24.1c-10.5,8.6-20.5,17.8-30.3,27.1S705.8,573.1,696.3,582.8L696.3,582.8z M696.3,582.8l29-28.6
					c9.8-9.4,19.9-18.5,30.3-27.1c10.5-8.6,21.3-16.8,32.8-24c11.4-7.3,23.5-13.6,36.1-18.6l-0.1-0.3c-6.2,2.8-12.2,6-18,9.4
					c-5.8,3.4-11.5,7.1-17.1,10.9c-11.2,7.6-22,15.8-32.4,24.4c-10.5,8.6-20.6,17.6-30.3,26.9c-9.7,9.4-19.1,19.1-28,29.3l0,0
					L696.3,582.8L696.3,582.8z"/>
				<g>
					<g>
						<path class="st13" d="M685.9,574.8c3,1,5.7,2.3,8,4c0.2,2.2,2.8,4.8,5.3,5.5l1-1.1c0.1-0.1,0.2-0.1,0.3,0l0.9,0.6
							c1-0.1,2.1,0.4,2.5,1.7c0.5,1.5-0.8,3.5-2.2,4.7c-1.5,1.1-2.3,1.5-3.9,1.2c-1.7-0.5-2.5-2-2.9-2.6
							c-6.2,6.7-10.8,10.2-18.5,15.6c-3.3-0.2-4.9-2.3-3.7-4.6c0.4-0.8,1.4-1.2,2.1-0.9c0-0.2,0-0.5,0-0.7c-3.6-3.8-5-8.3-0.5-15.5
							C678.2,576.5,682.2,574.6,685.9,574.8L685.9,574.8L685.9,574.8z M675.8,581.3c-0.8,1.1-1.2,2.1-1.8,3.1
							c-2.6,4.5-0.9,10.3,2.9,12.2c0.2,0,0.1,0,0.3,0.1c-0.6-1.1,1.5-3.3,2.4-2.4c-0.4-1.2,1.2-3.1,2.4-2.5c-0.6-1.1,1-2.9,2.4-2.2
							c-0.6-1.2,0.7-2.9,2.1-2.5c-0.4-1.3,0.8-2.7,2.3-2.4c-0.1-1.1,0.3-1.7,0.9-2.2c-1.7-1.4-3.5-3.6-5.1-4.6
							C680.5,575.8,677.6,579.2,675.8,581.3L675.8,581.3L675.8,581.3L675.8,581.3L675.8,581.3z"/>
						<g>
							<path class="st14" d="M673.7,586.2c0.8-0.3,1.2-1.1,1-1.7c-0.2-0.6-1.1-0.7-1.9-0.4c-0.8,0.3-1.3,1.1-1.1,1.6
								C672,586.3,672.8,586.5,673.7,586.2L673.7,586.2z"/>
							<path class="st14" d="M674.2,584.6c0.8-0.3,1.2-1.1,1-1.7c-0.2-0.6-1.1-0.7-1.9-0.4c-0.8,0.3-1.3,1.1-1.1,1.6
								C672.5,584.7,673.4,585,674.2,584.6L674.2,584.6L674.2,584.6z"/>
							<path class="st14" d="M675.3,582.9c0.8-0.3,1.2-1.1,1-1.7c-0.2-0.6-1.1-0.7-1.9-0.4c-0.8,0.3-1.3,1.1-1.1,1.6
								C673.6,583,674.5,583.2,675.3,582.9L675.3,582.9z"/>
							<path class="st14" d="M676.6,581.4c0.8-0.3,1.2-1.1,1-1.7s-1.1-0.7-1.9-0.4s-1.3,1.1-1.1,1.6S675.8,581.7,676.6,581.4
								L676.6,581.4z"/>
							<path class="st14" d="M678.3,579.9c0.8-0.3,1.2-1.1,1-1.7c0-0.1,0-0.2-0.1-0.2c-0.3,0.1-1,0.2-0.9-0.3
								c0.1-0.2,0.2-0.3,0.1-0.2c-0.2,0-0.7,0.2-1,0.3c-0.8,0.3-1.3,1.1-1.1,1.6C676.6,580.1,677.5,580.3,678.3,579.9L678.3,579.9
								L678.3,579.9z"/>
						</g>
					</g>
					<path class="st15" d="M694.8,588.7c-0.9-2.8-2.9-5.5-5.1-6.3 M694.5,589.1c-2,0.3-5-2.2-5.7-4.4 M692.5,591.2
						c-2.6,0.4-5-2.2-5.9-4.1 M690,593.6c-3.1-0.1-4.8-2.4-5.6-4.1 M687.5,595.8c-2.6-0.1-4.8-2.4-5.5-4.1 M685.1,597.9
						c-2.8-0.3-4.7-1.7-5.5-3.6 M682.4,599.9c-2.6,0-4.6-1.7-5.2-3.2 M679.5,602c-2.6,0-4.1-1.7-4.7-3.3"/>
				</g>
				<g>
					<path class="st16" d="M694.8,588.7c-0.2-0.7-0.4-1.3-0.7-2c-0.3-0.6-0.7-1.2-1.1-1.8c-0.4-0.6-0.9-1.1-1.5-1.5
						c-0.5-0.4-1.2-0.8-1.8-1c0.6,0.3,1.2,0.6,1.8,1.1c0.5,0.5,1,1,1.4,1.5C693.7,586.2,694.3,587.4,694.8,588.7L694.8,588.7z"/>
					<path class="st16" d="M694.5,589.1c-0.6,0.1-1.3-0.1-1.8-0.4c-0.6-0.3-1.1-0.6-1.6-1c-0.5-0.4-0.9-0.8-1.3-1.3
						c-0.4-0.5-0.7-1-1-1.6c0.2,0.6,0.5,1.2,0.9,1.7c0.4,0.5,0.8,1,1.3,1.4c0.5,0.4,1,0.8,1.6,1S693.8,589.2,694.5,589.1
						L694.5,589.1z M692.5,591.2c-0.6,0.1-1.3,0-1.9-0.2c-0.6-0.2-1.1-0.6-1.6-1c-0.5-0.4-0.9-0.8-1.3-1.3c-0.4-0.5-0.8-1-1.1-1.6
						c0.2,0.6,0.6,1.2,1,1.7c0.4,0.5,0.8,1,1.3,1.4c0.5,0.4,1.1,0.7,1.7,0.9C691.2,591.3,691.8,591.4,692.5,591.2L692.5,591.2z
						 M690,593.6c-0.6-0.1-1.2-0.2-1.8-0.4c-0.6-0.2-1.1-0.5-1.6-0.9c-0.5-0.4-0.9-0.8-1.3-1.3c-0.4-0.5-0.7-1-1-1.5
						c0.5,1.1,1.2,2.2,2.2,2.9c0.5,0.4,1,0.7,1.6,0.9C688.8,593.5,689.4,593.6,690,593.6L690,593.6z M687.5,595.8
						c-1.2-0.1-2.3-0.7-3.2-1.4c-0.5-0.4-0.9-0.8-1.3-1.2c-0.4-0.5-0.7-1-1-1.5c0.2,0.6,0.5,1.1,0.9,1.6c0.4,0.5,0.8,0.9,1.3,1.3
						c0.5,0.4,1,0.7,1.6,0.9C686.3,595.7,686.9,595.8,687.5,595.8L687.5,595.8z M685.1,597.9c-0.6-0.1-1.1-0.2-1.7-0.4
						c-0.5-0.2-1.1-0.4-1.5-0.7c-0.5-0.3-0.9-0.6-1.3-1.1c-0.4-0.4-0.7-0.9-0.9-1.4c0.2,0.5,0.5,1.1,0.8,1.5
						c0.4,0.4,0.8,0.8,1.3,1.1C682.8,597.5,683.9,597.8,685.1,597.9L685.1,597.9z M682.4,599.9c-0.5,0-1.1-0.1-1.6-0.3
						c-0.5-0.2-1-0.4-1.5-0.6c-0.5-0.3-0.9-0.6-1.2-1s-0.7-0.8-0.9-1.3c0.2,0.5,0.5,1,0.8,1.4c0.4,0.4,0.8,0.8,1.3,1
						c0.5,0.3,1,0.5,1.5,0.6S681.9,600,682.4,599.9L682.4,599.9z M679.5,602c-0.5,0-1-0.1-1.5-0.3c-0.5-0.2-0.9-0.4-1.3-0.7
						c-0.4-0.3-0.8-0.6-1.1-1c-0.3-0.4-0.6-0.8-0.8-1.3c0.3,1,0.9,1.8,1.8,2.4c0.4,0.3,0.9,0.5,1.4,0.7
						C678.5,602,679,602.1,679.5,602L679.5,602z"/>
				</g>
			</g>
		</g>
		<g>
			<path class="st3" d="M635.7,399.9c11.3-3.7,29.3-24.1,30.4-28C641.7,378.4,630.5,394.3,635.7,399.9L635.7,399.9z M863.4,407.2
				c-2.7-11-20.7-29.7-24.3-31.1C843.4,399.8,857.7,411.7,863.4,407.2z"/>
			<path class="st4" d="M635.7,399.9c-5.2-5.6,5.9-21.4,30.2-27.8C648.8,385.2,635.9,397.3,635.7,399.9L635.7,399.9z M863.4,407.2
				c-5.7,4.5-19.9-7.3-24.2-30.9C850.4,393.6,861,406.8,863.4,407.2z"/>
		</g>
		<g>
			<g>
				
					<radialGradient id="SVGID_1_" cx="693.2498" cy="485.5957" r="25.8344" gradientTransform="matrix(1.0142 0 0 -1.033 -7.7459 1008.1564)" gradientUnits="userSpaceOnUse">
					<stop  offset="0.216" style="stop-color:#F9F0AA"/>
					<stop  offset="1" style="stop-color:#B07E09"/>
				</radialGradient>
				<path class="st17" d="M702.8,521.9c0,0-9.6,1-12.3-12.2c-2.9-14.2,8.3-15.7,8.3-15.7s12.7-1.2,20.5-1.4l3.5,28.1L702.8,521.9
					L702.8,521.9z"/>
				
					<radialGradient id="SVGID_00000099652861861662025290000014914282624596322960_" cx="699.6283" cy="478.4473" r="17.0484" gradientTransform="matrix(1.0142 0 0 -1.033 -7.7459 1008.1564)" gradientUnits="userSpaceOnUse">
					<stop  offset="0.216" style="stop-color:#F9F0AA"/>
					<stop  offset="1" style="stop-color:#B07E09"/>
				</radialGradient>
				<path style="fill:url(#SVGID_00000099652861861662025290000014914282624596322960_);stroke:#999270;stroke-width:0.164;" d="
					M704.1,517.6c0,0-6.2,1.2-7.5-8.7c-0.9-7,3.4-8,3.4-8l14.4,2.4l0.1,12.9L704.1,517.6L704.1,517.6z"/>
				
					<radialGradient id="SVGID_00000101097486332732793880000009301892881955933569_" cx="703.5601" cy="485.03" r="15.2812" gradientTransform="matrix(1.0142 0 0 -1.033 -7.7459 1008.1564)" gradientUnits="userSpaceOnUse">
					<stop  offset="0.216" style="stop-color:#F9F0AA"/>
					<stop  offset="1" style="stop-color:#B07E09"/>
				</radialGradient>
				<path style="fill:url(#SVGID_00000101097486332732793880000009301892881955933569_);stroke:#999270;stroke-width:0.164;" d="
					M700,501l14-1.3l2,8.9l-11.1,0.7C704.9,509.3,704.2,501.2,700,501L700,501z"/>
				
					<radialGradient id="SVGID_00000005987618195774547090000011502503935960603781_" cx="710.1542" cy="487.429" r="27.1156" gradientTransform="matrix(1.0142 0 0 -1.033 -7.7459 1008.1564)" gradientUnits="userSpaceOnUse">
					<stop  offset="0.216" style="stop-color:#F9F0AA"/>
					<stop  offset="1" style="stop-color:#B07E09"/>
				</radialGradient>
				<path style="fill:url(#SVGID_00000005987618195774547090000011502503935960603781_);stroke:#999270;stroke-width:0.164;" d="
					M698,494.2c0,0,11.8-2.9,13.3,10.1c0.4,3.4-1.5,11.2-7.3,13.3l21.7-2.3l-2-23.4l-7.3,0.6C716.5,492.5,701,493,698,494.2
					L698,494.2z"/>
				<path class="st21" d="M702.8,521.9c0.1,0,81.1-5.5,89.4-5.1c24.6-13.5-0.1-66.5-20.8-96.1c2.4-6.7-46.7-21.7-68.8-20.4l-8.1,0.6
					c-12,1.3-12.1,16.7-7.2,26.4c4.8,9.4,47.4,86.1,17.4,94.2L702.8,521.9L702.8,521.9z"/>
				
					<linearGradient id="SVGID_00000098943634889806318910000014455160262739337648_" gradientUnits="userSpaceOnUse" x1="734.0524" y1="559.8599" x2="731.6321" y2="602.3724" gradientTransform="matrix(1.0142 0 0 -1.033 -7.7459 1008.1564)">
					<stop  offset="0.216" style="stop-color:#B07E09;stop-opacity:0"/>
					<stop  offset="1" style="stop-color:#B07E09"/>
				</linearGradient>
				<path style="fill:url(#SVGID_00000098943634889806318910000014455160262739337648_);stroke:#999270;stroke-width:0.164;" d="
					M789.7,452c-5.3-10.9-11.4-21.4-18.3-31.3c2.4-6.7-46.7-21.7-68.8-20.4l-8.1,0.6c-12,1.3-12.1,16.7-7.2,26.4
					c1.5,3,6.7,12.6,12.3,24.6"/>
				
					<linearGradient id="SVGID_00000072275839650744088720000009557829538634410907_" gradientUnits="userSpaceOnUse" x1="748.2594" y1="503.1609" x2="751.9609" y2="456.4" gradientTransform="matrix(1.0142 0 0 -1.033 -7.7459 1008.1564)">
					<stop  offset="0.216" style="stop-color:#B07E09;stop-opacity:0"/>
					<stop  offset="1" style="stop-color:#B07E09"/>
				</linearGradient>
				<path style="fill:url(#SVGID_00000072275839650744088720000009557829538634410907_);stroke:#999270;stroke-width:0.164;" d="
					M707.2,470.1c8.7,22.9,13.5,47.1-2.6,51.4l-1.8,0.4c0.1,0,81.1-5.5,89.4-5.1c13.3-7.3,12.2-26.3,5-46.8"/>
				
					<radialGradient id="SVGID_00000074411524826183033580000014685700880221937059_" cx="691.0282" cy="570.158" r="20.3406" gradientTransform="matrix(1.0142 0 0 -1.033 -7.7459 1008.1564)" gradientUnits="userSpaceOnUse">
					<stop  offset="0.216" style="stop-color:#F9F0AA"/>
					<stop  offset="1" style="stop-color:#B07E09"/>
				</radialGradient>
				<path style="fill:url(#SVGID_00000074411524826183033580000014685700880221937059_);stroke:#999270;stroke-width:0.164;" d="
					M695.3,405.3c-5.8,0-7.3,5.6-7.2,9.1c0.2,9.2,7.2,9.7,7.2,9.7l9.3-0.5l4.5-19L695.3,405.3z"/>
				
					<linearGradient id="SVGID_00000088106519441247614480000002323904026395411336_" gradientUnits="userSpaceOnUse" x1="699.6023" y1="574.4536" x2="705.5789" y2="588.4332" gradientTransform="matrix(1.0142 0 0 -1.033 -7.7459 1008.1564)">
					<stop  offset="0.216" style="stop-color:#F9F0AA"/>
					<stop  offset="1" style="stop-color:#B07E09"/>
				</linearGradient>
				<path style="fill:url(#SVGID_00000088106519441247614480000002323904026395411336_);stroke:#999270;stroke-width:0.164;" d="
					M695.3,405.4l13.8-0.8l1.4,14.2l-12,0.5C698.5,419.3,702.4,408,695.3,405.4L695.3,405.4z"/>
				
					<linearGradient id="SVGID_00000163032681521048506500000009001284388079618449_" gradientUnits="userSpaceOnUse" x1="733.1535" y1="593.0226" x2="737.2394" y2="541.1491" gradientTransform="matrix(1.0142 0 0 -1.033 -7.7459 1008.1564)">
					<stop  offset="0.216" style="stop-color:#F9F0AA"/>
					<stop  offset="1" style="stop-color:#B07E09"/>
				</linearGradient>
				<path style="fill:url(#SVGID_00000163032681521048506500000009001284388079618449_);stroke:#999270;stroke-width:0.164;" d="
					M771.4,420.6c10.4-1.7,10.3-15.7,3.2-21.4c-24.2-0.9-56.1-0.2-79.1,1.5c2.6-0.1,9.9,0.6,10.7,10.2c0.4,4.5-1.8,8.6-4.8,10.9
					c-2.9,2.3-6.1,2.3-6.1,2.3c0.4,0.1,3.4,0,5.6-0.1c1.2-0.1,4-0.4,4.8-0.5c32.8-4.3,65.6-2.8,65.6-2.8L771.4,420.6L771.4,420.6z"
					/>
			</g>
			<g>
				<path class="st27" d="M712.6,442.7c-0.2-0.5-0.5-1.2-1.1-1.3c-0.4,0-1-0.1-0.9-0.6c0.4-0.2,0.8-0.1,1.2-0.1
					c0.9,0,1.7-0.2,2.6-0.2c0.5,0.1,0.4,0.8-0.2,0.7c-0.6,0.1-0.3,0.9-0.1,1.3l2.1,4.9c0.2,0.5,0.6,0.9,1.1,0.9
					c0.6,0.1,1.2,0.1,1.7-0.2c0.5-0.3,0.4-1,0.3-1.5c-0.2-0.6,0.8-0.4,0.8,0.1l0.7,2c0,0.3-0.4,0.2-0.7,0.3l-4.7,0.3
					c-0.5,0-1.2,0.4-1.5-0.2c-0.2-0.6,0.8-0.3,0.9-0.7c0-0.5-0.3-1-0.5-1.4L712.6,442.7L712.6,442.7z M720.1,442.2
					c-0.2-0.5-0.5-1.1-1.1-1.2c-0.4,0-1,0-1-0.6c0.2-0.3,0.7-0.1,1-0.1c0.9,0,1.8-0.1,2.8-0.2c0.5,0,0.6,0.8,0,0.7
					c-0.6,0-0.6,0.6-0.4,1l2.2,5.3c0.2,0.4,0.4,0.9,0.8,0.9c0.4,0.1,1,0,1.1,0.5c-0.1,0.4-0.7,0.2-1,0.3c-0.8-0.1-1.6,0-2.4,0.2
					c-0.4,0.1-0.9,0-0.9-0.4c0.1-0.4,0.9-0.1,1-0.6c-0.1-0.5-0.3-1-0.5-1.4L720.1,442.2L720.1,442.2z M727.1,443.3
					c0.1,0.4,0.6,0.1,0.9,0.1c0.4,0,0.8-0.3,0.8-0.8c-0.1-0.7-0.4-1.4-1-1.8c-0.5-0.4-1.2-0.3-1.8-0.3c0,0.2,0.2,0.5,0.2,0.7
					L727.1,443.3L727.1,443.3z M728.1,445.8c0.3,0.5,0.4,1.2,0.9,1.6c0.4,0.3,0.9,0.1,1.3,0.1c0.5,0,0.7-0.5,0.6-0.9
					c-0.2-1-0.9-2-1.9-2.2c-0.5-0.1-1-0.1-1.4,0c0,0.2,0.1,0.5,0.2,0.7L728.1,445.8L728.1,445.8z M725,442.1
					c-0.2-0.5-0.5-1.2-1.1-1.4c-0.4-0.1-1,0-1.1-0.5c0.1-0.5,0.9-0.1,1.3-0.2c1.3,0,2.7-0.4,4.1,0c1.1,0.3,2.2,1.3,2.3,2.5
					c0,0.6-0.4,1.1-0.9,1.3c-0.1-0.2,0.6,0.1,0.8,0.1c0.9,0.3,1.7,0.9,2.2,1.8c0.3,0.6,0.6,1.5,0.1,2.1c-0.6,0.6-1.5,0.6-2.2,0.7
					c-1.2,0-2.4,0-3.5,0.3c-0.4,0.1-0.7-0.8-0.1-0.7c0.6,0,0.6-0.6,0.4-1L725,442.1L725,442.1z M736.6,439.1
					c0.5-0.1,0.6,0.5,0.7,0.8c0.2,0.4,0.4,0.8,0.5,1.3c-0.4,0.4-0.8-0.2-1-0.6c-0.2-0.4-0.6-0.7-1.1-0.7c-0.6,0-1.3,0-1.9,0.1
					c-0.2,0.2,0.1,0.6,0.2,0.9l0.9,2.1c0.4,0,1,0,1.3-0.3c0.1-0.4-0.4-1.2,0.3-1c0.5,0.3,0.4,0.9,0.6,1.4c0.2,0.6,0.6,1.1,0.8,1.7
					c-0.4,0.5-0.8-0.2-1-0.6c-0.3-0.5-1-0.5-1.5-0.5c-0.4-0.1-0.1,0.3-0.1,0.4c0.3,0.8,0.6,1.6,1,2.3c0.3,0.5,1,0.5,1.6,0.4
					c0.5,0,1.1,0,1.4-0.5c0.3-0.4-0.4-1.2,0.2-1.3c0.5,0,0.5,0.6,0.7,0.9c0.1,0.4,0.3,0.9,0.4,1.3c0,0.3-0.4,0.2-0.7,0.3l-4.8,0.3
					c-0.5,0-1.3,0.4-1.4-0.3c0-0.4,1-0.2,0.9-0.9c-0.1-0.5-0.4-1-0.6-1.6l-1.8-4.2c-0.2-0.5-0.6-1-1.1-1c-0.4,0.1-0.9-0.2-0.7-0.6
					c0.5-0.1,1.1,0,1.7-0.1L736.6,439.1L736.6,439.1z M740.2,441.2c-0.2-0.5-0.5-1.2-1.1-1.5c-0.4-0.1-1.1,0-1.1-0.6
					c0.4-0.3,1,0,1.5-0.1c1.3,0,2.5-0.4,3.8,0c1.3,0.4,2.4,1.5,2.5,2.9c0,0.6-0.5,1.2-1.1,1.3c-0.5,0,0.4,0.2,0.5,0.3
					c1,0.5,1.7,1.4,2.2,2.3c0.1,0.4,0.8,1.1,0.9,0.4c0-0.8,1-0.1,0.8,0.4c0,0.6-0.5,0.9-1.1,0.9c-0.7,0.1-1.4-0.4-1.8-1
					c-0.7-0.9-1.1-1.9-2-2.6c-0.4-0.3-0.9-0.4-1.3-0.2c-0.1,0.2,0.1,0.4,0.2,0.7c0.3,0.6,0.5,1.3,0.9,1.9c0.3,0.5,0.9,0.6,1.5,0.6
					c0.6,0.1,0.4,0.9-0.2,0.7c-0.9,0-1.8-0.1-2.7,0.1c-0.4,0.2-1.4,0-1-0.6c0.4,0,1.1-0.3,0.8-0.8l-1.6-4.1L740.2,441.2L740.2,441.2
					z M742.4,442.6c0.2,0.5,0.9,0.2,1.3,0.2c0.6-0.1,0.5-0.8,0.4-1.2c-0.3-0.7-0.6-1.6-1.4-1.9c-0.4-0.1-1.3-0.3-1.4,0.2l1,2.5
					L742.4,442.6L742.4,442.6z M753.6,445.2c0.2,0.4,0.3,1,0.8,1c0.4,0.1,1,0,1.1,0.5c-0.1,0.4-0.7,0.2-1,0.2
					c-0.8-0.1-1.7,0-2.5,0.1c-0.4,0.1-0.9,0-0.8-0.5c0.2-0.3,1-0.1,1-0.6c-0.1-0.6-0.4-1.2-0.6-1.8l-1.8-4.5
					c-0.1-0.5-0.7-0.5-1.1-0.4c-0.4,0-1.1,0.1-1.1,0.6c-0.1,0.4,0.3,1-0.1,1.1c-0.5,0.1-0.6-0.4-0.7-0.8c-0.2-0.5-0.4-1-0.6-1.4
					c0.1-0.3,0.5-0.3,0.8-0.3l6.5-0.3c0.5-0.1,0.8,0.3,0.8,0.7c0.2,0.5,0.4,1,0.6,1.5c-0.2,0.5-0.8,0.1-0.9-0.3
					c-0.3-0.5-0.8-1.1-1.5-1.1c-0.4,0-1-0.1-1.3,0.2c0,0.4,0.2,0.7,0.3,1.1L753.6,445.2L753.6,445.2z M759.5,443.8
					c-0.3,0-0.2,0.4-0.2,0.6c0,0.4,0,0.9,0,1.3c0.2,0.5,0.8,0.4,1.2,0.5c0.4,0.2,0.3,0.8-0.2,0.6c-0.7,0-1.3-0.1-2,0.1
					c-0.4,0.2-1.1-0.2-0.8-0.6c0.3-0.1,0.7-0.2,0.8-0.5c0.1-0.6,0.1-1.3,0.1-2l0-5.8c0.2-0.4,0.8-0.1,0.9,0.3l5.6,7.1
					c0.3,0.4,0.7,0.6,1.2,0.7c0.4,0,0.6,0.8,0,0.7c-0.8,0-1.6-0.1-2.4,0c-0.4,0-0.8,0.2-1.1,0c-0.4-0.3-0.1-0.7,0.3-0.6
					c0.5-0.2,0-0.7-0.2-1l-0.9-1.2c-0.3-0.1-0.6,0-0.9,0L759.5,443.8L759.5,443.8z M761.3,443c0.3,0-0.1-0.2-0.1-0.4l-2-2.6
					c0.1,0,0,0.3,0.1,0.4l0,2.6L761.3,443L761.3,443z M766.1,440.1c-0.2-0.6-0.5-1.4-1.3-1.5c-0.4,0.1-1.1-0.3-0.7-0.7l2.6,0
					c1.1-0.1,2.2-0.1,3.2,0.3c2.3,0.8,4.2,2.8,4.6,5.2c0.2,0.9-0.1,2-1,2.6c-1.1,0.7-2.6,0.6-3.9,0.5c-0.7,0-1.5,0.1-2.2,0.1
					c-0.5-0.1-0.5-0.8,0-0.7c0.6,0,0.6-0.7,0.4-1L766.1,440.1L766.1,440.1z M769.2,444c0.2,0.5,0.4,1.2,0.9,1.5
					c0.5,0.2,1,0.2,1.5,0.1c0.7-0.1,1.1-0.8,1.1-1.4c0-1.2-0.4-2.3-1-3.3c-0.6-1.1-1.7-1.9-2.9-2.1c-0.5-0.1-1-0.2-1.5-0.1
					c-0.1,0.2,0.1,0.4,0.1,0.6L769.2,444L769.2,444z M736.2,463.4c0.2,0.5,0.7,0.9,1.3,1c0.4,0.1,1.1,0,1.1,0.6
					c-0.2,0.4-0.8,0.1-1.2,0.2c-0.8,0-1.6,0-2.4,0.1c-0.4,0-0.9,0.2-1.3,0.1c-0.4-0.2-0.3-0.7,0.2-0.7c0.4-0.1,0.9-0.2,1-0.7
					c0-0.4-0.3-0.8-0.4-1.2l-1.8-4.3c-0.1-0.5-0.7-0.5-1.1-0.4c-0.4,0.1-1,0.2-1.1-0.3c0-0.5,0.8-0.4,1.1-0.6l1.5-0.6
					c0.3-0.1,0.5,0.2,0.6,0.5L736.2,463.4L736.2,463.4z M737.3,456.4c1.1,0,2.1,0.1,3.2,0c0.5,0,0.1-0.8,0.6-0.7
					c0.6,0,0.5,0.7,0.5,1.2c0.1,0.4-0.3,0.9-0.7,0.9c-0.1,0-0.1,0-0.2,0c-0.8,0-1.7-0.1-2.5,0c0.2,0.6,0.5,1.3,0.7,1.9
					c0-0.2,0.7-0.2,1-0.3c1.7-0.1,3.4,0.9,4.1,2.4c0.3,0.7,0.5,1.7,0,2.4c-0.6,0.7-1.6,0.9-2.5,0.9c-0.8,0-1.7-0.2-2.1-0.9
					c-0.3-0.3-0.2-1.1,0.3-1c0.5,0,1,0.4,1,0.9c0.3,0.3,0.8,0.2,1.2,0.2c0.5,0,0.9-0.4,0.9-0.9c0-0.8-0.3-1.5-0.7-2.1
					c-0.5-0.7-1.2-1.1-2-1.1c-0.5-0.1-0.9,0.2-1.3,0.2c-0.4-0.1-0.5-0.6-0.7-0.9l-1-2.8C737,456.5,737.2,456.4,737.3,456.4
					L737.3,456.4z M748,458c-0.2-0.6-0.6-1.4-1.3-1.5c-0.4,0.1-1.1-0.3-0.7-0.7l2.6-0.1c1.1-0.1,2.2-0.1,3.3,0.3
					c2.3,0.8,4.2,2.8,4.6,5.3c0.1,0.9-0.2,1.9-1,2.4c-1.1,0.7-2.5,0.6-3.8,0.6c-0.7,0-1.4,0.1-2.1,0.2c-0.5-0.1-0.6-0.8,0-0.7
					c0.6,0,0.5-0.7,0.3-1.1L748,458L748,458z M751.2,461.8c0.2,0.5,0.4,1.2,0.9,1.5c0.5,0.2,1,0.2,1.5,0.1c0.7-0.1,1.1-0.8,1.1-1.5
					c0-1.2-0.5-2.3-1.1-3.3c-0.6-1.1-1.7-1.9-2.9-2.1c-0.5-0.1-1-0.1-1.5,0c-0.1,0.2,0.1,0.4,0.2,0.6L751.2,461.8L751.2,461.8z
					 M761.3,455.2c0.5-0.1,0.6,0.5,0.7,0.8c0.2,0.4,0.4,0.9,0.5,1.3c-0.3,0.5-0.8-0.1-0.9-0.4c-0.2-0.4-0.6-0.8-1.1-0.8
					c-0.6,0-1.3,0-1.9,0.1c-0.4,0.2,0,0.6,0.1,0.9l0.8,2.1c0.4,0,0.9,0,1.2-0.2c0.3-0.3-0.4-1.2,0.3-1.1c0.5,0.2,0.4,0.9,0.6,1.3
					c0.2,0.6,0.6,1.2,0.8,1.8c-0.3,0.5-0.8-0.1-0.9-0.5c-0.2-0.5-0.8-0.6-1.3-0.5c-0.3-0.1-0.6,0-0.4,0.3c0.3,0.8,0.6,1.6,1,2.4
					c0.3,0.5,1,0.5,1.6,0.5c0.5,0,1.2,0,1.5-0.5c0.3-0.4-0.3-1,0.1-1.3c0.5-0.1,0.7,0.4,0.7,0.8c0.1,0.5,0.3,0.9,0.5,1.4
					c0,0.3-0.4,0.2-0.7,0.2l-4.8,0.2c-0.4,0-1.1,0.3-1.4-0.2c-0.3-0.6,0.8-0.3,0.8-0.8c0-0.5-0.2-0.9-0.4-1.3l-1.8-4.5
					c-0.2-0.5-0.6-1-1.2-1.1c-0.4,0.1-0.9-0.2-0.7-0.6c0.6-0.1,1.1,0,1.7-0.1L761.3,455.2L761.3,455.2z M718.7,477.5
					c0.2,0.8,1,1.1,1.7,1.3c1.2,0.4,2.5,0.8,3.4,1.8c0.5,0.6,0.8,1.3,0.8,2.1c-0.1,0.8-0.7,1.4-1.4,1.5c-0.9,0.3-1.9,0.2-2.7-0.2
					c-0.4-0.2-0.3,0.7-0.8,0.4c-0.4-0.3-0.3-0.9-0.5-1.3c-0.2-0.5-0.4-1-0.6-1.5c0-0.5,0.8-0.2,0.8,0.2c0.5,0.9,1.4,1.8,2.6,1.8
					c0.6,0,1.3-0.3,1.3-0.9c0-0.8-0.7-1.5-1.4-1.8c-1-0.5-2.1-0.7-3.1-1.3c-0.9-0.5-1.5-1.5-1.5-2.5c0-0.7,0.6-1.2,1.2-1.4
					c0.8-0.3,1.6-0.3,2.4-0.1c0.4,0.2,0.5-0.4,0.9-0.1c0.2,0.3,0.1,0.7,0.3,1c0.1,0.4,0.4,0.8,0.5,1.3c-0.2,0.4-0.7,0-0.8-0.3
					c-0.3-0.6-0.8-1.2-1.5-1.3c-0.5,0-1.2,0-1.6,0.5C718.5,476.9,718.6,477.2,718.7,477.5L718.7,477.5z M729.1,474.9
					c0.5-0.1,0.5,0.5,0.7,0.8c0.1,0.4,0.3,0.8,0.5,1.2c-0.2,0.4-0.8,0-0.8-0.3c-0.2-0.4-0.5-0.9-1.1-0.9c-0.6,0-1.3,0-1.9,0.1
					c-0.4,0.2,0,0.6,0,0.9l0.7,2.1c0.4,0,0.9,0,1.2-0.3c0.3-0.3-0.3-0.9,0.2-1.1c0.6-0.1,0.5,0.7,0.7,1.1c0.2,0.7,0.5,1.3,0.7,2
					c-0.2,0.5-0.8,0-0.9-0.4c-0.2-0.5-0.8-0.6-1.2-0.6c-0.3,0-0.7,0-0.4,0.3l0.9,2.4c0.2,0.4,0.7,0.5,1.1,0.5c0.6,0,1.3,0,1.8-0.4
					c0.4-0.4,0.1-0.9,0.1-1.3c0.4-0.3,0.8,0.1,0.8,0.5c0.1,0.5,0.2,1.1,0.4,1.6c-0.1,0.3-0.5,0.2-0.7,0.3l-4.8,0.4
					c-0.4,0-1.1,0.4-1.3-0.1c-0.2-0.6,0.7-0.3,0.8-0.8c0.1-0.5-0.2-0.9-0.3-1.3l-1.6-4.6c-0.2-0.5-0.5-1-1.1-1
					c-0.4,0.1-0.9-0.2-0.7-0.6c0.5-0.1,1.1,0,1.7-0.1L729.1,474.9L729.1,474.9z M735.6,481.4c0.1,0.5,0.4,1,1,1.1
					c0.4,0.1,1-0.1,1.1,0.4c0,0.5-0.8,0.2-1.1,0.3c-0.8,0-1.6,0-2.4,0.2c-0.3,0-0.9,0.2-0.9-0.3c-0.1-0.5,0.7-0.2,0.9-0.6
					c0.1-0.4-0.1-0.8-0.2-1.2l-1.6-4.7c-0.2-0.5-0.4-1.1-1-1.1c-0.4,0-1,0-0.9-0.6c0.3-0.3,0.8-0.1,1.1-0.1c1.1,0,2.3-0.3,3.4-0.2
					c1.2,0,2.3,0.8,2.7,1.9c0.3,0.6,0.3,1.4-0.1,2c-0.6,0.7-1.6,0.9-2.5,1c-0.3,0-0.1,0.3,0,0.5L735.6,481.4L735.6,481.4z
					 M734.7,478.7c0.3,0,0.7,0,1.1-0.1c0.5-0.1,0.7-0.6,0.6-1.1c-0.1-0.7-0.4-1.4-0.9-1.8c-0.5-0.4-1.2-0.4-1.7-0.3
					c-0.2,0.2,0,0.5,0.1,0.7L734.7,478.7L734.7,478.7z M744.4,480.9c0.1,0.4,0.3,1,0.8,1c0.4,0.1,1-0.1,1.1,0.5
					c-0.1,0.4-0.7,0.2-1,0.2c-0.8-0.1-1.7,0-2.5,0.2c-0.4,0.1-0.9,0-0.8-0.5c0.2-0.3,1-0.1,1-0.6c-0.1-0.6-0.3-1.2-0.5-1.8l-1.5-4.5
					c-0.1-0.5-0.7-0.5-1.1-0.4s-1,0.1-1.1,0.5c-0.1,0.4,0.1,0.8,0,1.2c-0.4,0.3-0.7-0.1-0.7-0.5c-0.1-0.5-0.3-1.1-0.5-1.6
					c0-0.4,0.5-0.3,0.7-0.4l6.5-0.4c0.5-0.1,0.8,0.3,0.8,0.7c0.1,0.5,0.4,1,0.5,1.5c-0.1,0.4-0.8,0.2-0.8-0.2
					c-0.3-0.6-0.7-1.1-1.4-1.2c-0.4,0-1-0.1-1.3,0.2c-0.1,0.3,0.1,0.6,0.2,0.9L744.4,480.9L744.4,480.9z M747.6,475.8
					c-0.2-0.5-0.3-1.1-0.9-1.2c-0.4-0.1-1,0-1-0.6c0.2-0.3,0.7-0.1,1-0.2c0.9,0,1.9-0.1,2.8-0.2c0.4-0.2,0.7,0.7,0.2,0.7
					c-0.4,0-0.9,0.3-0.7,0.7c0.2,0.8,0.5,1.6,0.8,2.5l1.1,3.4c0.1,0.4,0.4,0.7,0.8,0.7c0.4,0,1,0.1,0.9,0.6
					c-0.3,0.2-0.7,0.1-1.1,0.1c-0.8-0.1-1.7,0.1-2.5,0.2c-0.4,0.2-0.8-0.2-0.6-0.6c0.3-0.2,1-0.1,1-0.6c-0.1-0.6-0.4-1.3-0.6-1.9
					L747.6,475.8L747.6,475.8z M756.6,473.3c0.5-0.1,0.5,0.5,0.6,0.8c0.1,0.4,0.3,0.8,0.4,1.3c-0.2,0.4-0.8,0-0.8-0.3
					c-0.2-0.4-0.5-0.9-1-0.9c-0.6,0-1.3,0-1.9,0.1c-0.4,0.1,0,0.6,0,0.9l0.7,2.1c0.4,0,0.9,0,1.3-0.3c0.3-0.3-0.3-0.9,0.2-1.1
					c0.6-0.1,0.5,0.7,0.7,1.1c0.1,0.7,0.5,1.3,0.7,2c-0.2,0.5-0.8,0.1-0.8-0.3c-0.1-0.5-0.7-0.7-1.2-0.7c-0.2,0-0.8-0.1-0.6,0.3
					l0.8,2.4c0.2,0.4,0.7,0.6,1.1,0.5c0.6,0,1.3,0.1,1.8-0.4c0.4-0.4,0.1-0.9,0.2-1.3c0.4-0.3,0.8,0.1,0.8,0.5
					c0.1,0.5,0.2,1.1,0.4,1.6c-0.1,0.3-0.4,0.2-0.7,0.2l-4.8,0.3c-0.4,0-1,0.3-1.3-0.1c-0.3-0.6,0.6-0.4,0.8-0.8
					c0.2-0.4-0.1-0.9-0.2-1.3l-1.5-4.7c-0.2-0.5-0.5-1.1-1.1-1.1c-0.4,0.1-0.9-0.2-0.7-0.6c0.5-0.1,1.1,0,1.6-0.1L756.6,473.3
					L756.6,473.3z M759.8,474.8c-0.1-0.6-0.5-1.1-1.1-1c-0.6,0.2-0.8-0.9-0.1-0.7c0.8,0,1.6-0.1,2.4,0.1c0.4,0.4,0.7,0.9,1,1.3
					l3.4,4.5c-0.2,0.1-0.1-0.3-0.1-0.5l0.6-5.5c0.4-0.4,1.1-0.2,1.7-0.3c0.4-0.1,1.4-0.2,1.2,0.5c-0.5,0.1-1.2,0.3-0.8,1l1.7,5.6
					c0.1,0.7,0.8,0.9,1.3,0.8c0.5,0,0.5,0.9-0.1,0.7c-0.9,0-1.9-0.1-2.8,0.1c-0.4,0.1-1.3,0.1-1-0.6c0.5-0.1,1.2-0.2,0.9-0.9l-1.5-5
					c0.1,0.1,0,0.4,0,0.6l-0.5,4.6c-0.1,0.4,0.1,0.9-0.1,1.2c-0.4,0.2-0.6-0.2-0.8-0.4l-4.5-5.8c0.2-0.1,0.1,0.3,0.2,0.5l1.4,4.5
					c0.2,0.6,0.8,0.8,1.3,0.8c0.6,0.3,0.2,0.9-0.4,0.6c-0.8-0.1-1.6,0-2.3,0.1c-0.5,0-0.5-0.8,0-0.7c0.7,0,0.5-0.8,0.3-1.3
					L759.8,474.8L759.8,474.8L759.8,474.8z M773.4,476.1c0.1,0.4,0.6,0.1,0.8,0.2c0.4,0,1-0.3,1-0.8c0-0.7-0.2-1.4-0.8-1.9
					c-0.5-0.4-1.2-0.4-1.8-0.3c-0.1,0.2,0.1,0.5,0.1,0.7L773.4,476.1L773.4,476.1z M774.2,478.6c0.2,0.5,0.3,1.2,0.7,1.6
					c0.4,0.3,0.9,0.2,1.3,0.1c0.4,0,0.8-0.4,0.7-0.8c0-0.9-0.5-2-1.4-2.3c-0.5-0.2-1.1-0.2-1.7-0.1c-0.2,0.2,0.1,0.5,0.1,0.7
					L774.2,478.6L774.2,478.6z M771.4,474.8c-0.2-0.5-0.4-1.2-0.9-1.5c-0.4-0.1-1,0-1-0.5c0.1-0.5,0.9-0.1,1.2-0.2
					c1.4,0,2.8-0.4,4.2,0.1c1.1,0.3,2,1.3,2,2.4c0,0.6-0.5,1.1-1.1,1.4c0-0.2,0.6,0.1,0.8,0.1c0.8,0.3,1.6,0.9,1.9,1.7
					c0.3,0.6,0.4,1.5-0.1,2.1c-0.6,0.6-1.5,0.7-2.3,0.7c-1.2,0-2.5,0-3.7,0.2c-0.4,0.1-0.6-0.8-0.1-0.7c0.6,0,0.7-0.6,0.5-1
					L771.4,474.8L771.4,474.8z M779.2,474.6c-0.2-0.5-0.3-1.2-0.9-1.5c-0.4-0.1-1.1,0-1-0.6c0.3-0.4,1-0.1,1.5-0.2
					c1.1,0,2.1-0.2,3.2-0.1c1.2,0.1,2.4,1,2.7,2.3c0.2,0.7,0.1,1.5-0.6,1.9c-0.1,0.2-0.8,0.3-0.7,0.3c0.9,0.4,1.7,1.1,2.2,2
					c0.2,0.4,0.4,0.9,0.7,1.2c0.4,0.3,0.5-0.3,0.5-0.5c0.5-0.3,0.8,0.5,0.6,0.9c-0.2,0.7-1.1,0.8-1.7,0.6c-0.5-0.1-0.9-0.5-1.2-1
					c-0.5-0.8-0.9-1.8-1.6-2.5c-0.3-0.3-0.9-0.5-1.3-0.3c-0.1,0.2,0.1,0.5,0.1,0.7c0.2,0.6,0.3,1.2,0.6,1.8c0.2,0.5,0.8,0.6,1.4,0.6
					c0.5,0,0.5,0.9-0.1,0.7c-1,0-1.9-0.1-2.9,0.1c-0.3,0-0.8,0.2-1.1-0.2c-0.3-0.7,0.7-0.4,0.9-0.7c0.1-0.4-0.1-0.9-0.2-1.3
					L779.2,474.6L779.2,474.6z M781.3,476c0.2,0.5,0.9,0.2,1.3,0.2c0.5,0,0.7-0.5,0.6-0.9c-0.1-0.7-0.3-1.5-0.9-2
					c-0.5-0.4-1.1-0.3-1.7-0.3c-0.2,0.2,0,0.5,0,0.8L781.3,476L781.3,476z M792,472c0.5-0.1,0.5,0.5,0.6,0.8
					c0.1,0.4,0.3,0.9,0.4,1.3c-0.2,0.4-0.8,0-0.8-0.3c-0.2-0.4-0.5-0.9-1-0.9c-0.7-0.1-1.3,0-2,0c-0.4,0.1,0,0.6,0,0.9l0.6,2.1
					c0.4,0,0.8,0,1.2-0.2c0.4-0.2-0.2-0.9,0.3-1.1c0.6-0.1,0.6,0.6,0.7,1c0.1,0.7,0.5,1.4,0.6,2.1c-0.2,0.4-0.8,0-0.8-0.4
					c-0.1-0.5-0.6-0.7-1-0.7c-0.2,0-0.9-0.2-0.7,0.2l0.8,2.4c0.2,0.5,0.7,0.6,1.1,0.6c0.6,0,1.3,0.1,1.8-0.3
					c0.4-0.3,0.1-0.9,0.2-1.3c0.4-0.3,0.8,0.1,0.8,0.6c0.1,0.5,0.2,1.1,0.3,1.6c-0.1,0.3-0.5,0.2-0.7,0.2l-4.9,0.1
					c-0.4,0-0.9,0.2-1.3-0.1c-0.4-0.6,0.5-0.5,0.7-0.7c0.3-0.3,0.1-0.8,0-1.2l-1.4-4.8c-0.2-0.5-0.4-1.1-1-1.1c-0.4,0-1-0.1-0.8-0.6
					c0.5-0.2,1,0,1.5-0.1L792,472L792,472z M740.8,492.6c-0.1-0.6-0.3-1.3-1-1.5c-0.4,0-1-0.1-0.8-0.6c0.5-0.2,1.1,0,1.6-0.1
					c1.3-0.1,2.6-0.4,3.9,0c1.9,0.4,3.5,1.9,4,3.7c0.4,1.1,0.4,2.5-0.4,3.5c-0.8,1-2.2,1.3-3.5,1.3c-1,0-1.9,0-2.9,0.2
					c-0.4,0.2-1-0.1-0.7-0.6c0.4-0.1,1-0.2,0.9-0.8l-0.6-2.4L740.8,492.6L740.8,492.6z M743.3,496.4c0.2,0.5,0.2,1.1,0.6,1.5
					c0.4,0.3,1,0.2,1.4,0.1c0.7-0.1,1.3-0.7,1.4-1.5c0.2-1.2-0.1-2.4-0.6-3.5c-0.4-0.9-1.2-1.7-2.3-1.9c-0.6-0.1-1.2-0.2-1.8-0.1
					c-0.1,0.2,0,0.4,0.1,0.6L743.3,496.4L743.3,496.4z M754.4,489.4c0.5-0.1,0.5,0.5,0.6,0.8c0.1,0.4,0.2,0.8,0.3,1.3
					c-0.2,0.4-0.8,0.1-0.8-0.3c-0.2-0.4-0.4-0.9-0.9-0.9c-0.7,0-1.3,0-2,0.1c-0.4,0.1-0.1,0.6-0.1,0.9l0.5,2.1c0.4,0,0.9,0,1.3-0.3
					c0.3-0.3-0.2-1,0.3-1.1c0.6-0.1,0.5,0.7,0.6,1.1c0.1,0.7,0.4,1.3,0.5,2c-0.2,0.4-0.8,0.1-0.8-0.3c-0.1-0.5-0.6-0.7-1.1-0.7
					c-0.2,0-0.8-0.1-0.6,0.3c0.2,0.8,0.3,1.6,0.6,2.4c0.2,0.5,0.7,0.5,1.1,0.5c0.6,0,1.4,0,1.9-0.5c0.4-0.4,0-0.9,0.3-1.3
					c0.5-0.3,0.8,0.2,0.7,0.6c0.1,0.5,0.1,1,0.3,1.5c-0.1,0.3-0.5,0.2-0.7,0.3l-4.8,0.3c-0.4,0-0.9,0.2-1.2,0
					c-0.4-0.4,0.1-0.6,0.5-0.7c0.5-0.1,0.4-0.7,0.3-1.1l-1.2-5.1c-0.1-0.5-0.4-1.1-0.9-1.1c-0.4,0-0.9-0.1-0.7-0.6
					c0.5-0.2,1,0,1.5-0.1L754.4,489.4L754.4,489.4z M764.5,495.8c0.1,0.5,0.4,0.9,0.9,1c0.4,0.2,0.9-0.1,1.1,0.4
					c0.1,0.5-0.6,0.4-0.9,0.4c-0.9,0-1.8,0-2.7,0.1c-0.4,0-0.9,0.2-1.3,0.1c-0.4-0.2-0.2-0.8,0.2-0.7c0.4-0.1,1-0.2,1.1-0.7
					c0.1-0.4-0.1-0.8-0.2-1.2l-1-4.3c0-0.5-0.6-0.5-1-0.5c-0.4,0-0.9,0.3-1-0.3c-0.1-0.5,0.7-0.4,1-0.6l1.7-0.6
					c0.3-0.1,0.5,0.2,0.5,0.5L764.5,495.8L764.5,495.8z"/>
				<path class="st27" d="M770.3,490.7c-0.1-0.6-0.4-1.2-1.1-1.3c-0.5-0.1-1,0-1.2,0.5c-0.2,0.6,0.1,1.3,0.6,1.6
					c0.4,0.3,0.9,0.5,1.4,0.7c0.1-0.2,0.4-0.5,0.4-0.9C770.3,491.1,770.3,490.9,770.3,490.7L770.3,490.7z M771.6,495.2
					c-0.2-0.8-0.9-1.2-1.6-1.5c-0.3-0.1-0.7-0.4-0.9-0.3c-0.5,0.4-0.7,1.1-0.5,1.7c0.2,0.8,0.7,1.5,1.6,1.6c0.5,0.1,1.2-0.2,1.3-0.7
					C771.6,495.7,771.6,495.4,771.6,495.2L771.6,495.2z M773,494.9c0.2,0.7-0.1,1.6-0.7,2c-0.9,0.6-2.1,0.7-3.1,0.4
					c-0.9-0.3-1.7-1-1.9-2c-0.2-0.8,0.1-1.6,0.8-2c0.2-0.2,0.8-0.2,0.3-0.3c-0.8-0.4-1.5-1-1.7-1.9c-0.2-0.8,0.2-1.6,0.9-2
					c1.3-0.7,3.3-0.3,4,1.1c0.3,0.6,0.4,1.3,0,1.9c-0.2,0.3-0.5,0.6-0.9,0.7c0.8,0.2,1.5,0.6,1.9,1.2
					C772.7,494.2,772.9,494.5,773,494.9L773,494.9z M778.1,495.7c0.4,0,0.8-0.2,0.8-0.6c0.1-0.3-0.1-1,0.4-0.9
					c0.5,0,0.4,0.6,0.5,0.9c0,0.6,0,1.4-0.5,1.8c-0.4,0.2-0.9,0.1-1.3,0.1c-0.9,0-1.8-0.2-2.6-0.1c-0.4,0-0.8,0.4-1.1,0.2
					c-0.3-0.3-0.1-0.8,0-1.2c0.3-1,1-1.7,1.7-2.4c0.5-0.5,1.1-1,1.2-1.8c0.1-0.6-0.1-1.3-0.5-1.9c-0.4-0.7-1.5-1-2.2-0.5
					c-0.4,0.2-0.6,0.8-0.4,1.2c0.3,0.3,0.9,0,1.1,0.6c0.2,0.4,0,0.9-0.5,0.9c-0.7,0.1-1.3-0.4-1.5-1.1c-0.3-0.8,0-1.8,0.8-2.2
					c0.8-0.5,1.8-0.5,2.6-0.3c0.9,0.2,1.6,0.9,1.9,1.8c0.2,0.7,0.2,1.5-0.1,2.1c-0.6,1.1-1.8,1.7-2.6,2.6c-0.2,0.2-0.4,0.6-0.3,0.9
					c0.1-0.3,0.6-0.2,0.9-0.3C777,495.6,777.5,495.7,778.1,495.7L778.1,495.7z M784.2,495.1c0.1,0.5,0.4,0.9,0.9,1
					c0.4,0.2,0.9,0,1.1,0.4c0.2,0.5-0.5,0.4-0.8,0.4c-0.9,0-1.8-0.1-2.8,0c-0.4,0-0.9,0.1-1.3,0.1c-0.4-0.2-0.2-0.8,0.2-0.7
					c0.4-0.1,1-0.2,1.1-0.7c0.1-0.4-0.1-0.8-0.2-1.2l-0.9-4.3c0-0.4-0.5-0.5-0.9-0.5c-0.4,0-0.9,0.3-1.1-0.1
					c-0.3-0.5,0.5-0.5,0.9-0.7l1.9-0.6c0.3-0.1,0.5,0.2,0.5,0.5L784.2,495.1L784.2,495.1z"/>
			</g>
		</g>
		<g>
			
				<radialGradient id="SVGID_00000177481287231201839630000007115630714946077343_" cx="740.1482" cy="626.2701" r="0.5391" gradientTransform="matrix(1.0142 0 0 -1.033 -7.7459 1008.1564)" gradientUnits="userSpaceOnUse">
				<stop  offset="0.259" style="stop-color:#A50A0A"/>
				<stop  offset="1" style="stop-color:#4C0505"/>
			</radialGradient>
			<path style="fill:url(#SVGID_00000177481287231201839630000007115630714946077343_);stroke:#4C0505;stroke-width:0.218;" d="
				M739.7,367.7l-5.9,7c-1.9,8.2,2.8,14.4,12,19.7c7.4,4.6,21.2,5.8,25.5,2L749.8,376L739.7,367.7L739.7,367.7z"/>
			<path class="st29" d="M783.1,578.4l-3.2-3.8c-13.4,17.7-30.1,33.5-51,44.6C752.5,612.6,767.9,595.4,783.1,578.4z M758.9,634.2
				c8.3-16.8,18.3-33.7,28.4-50.5l-3.4-4.1C772.6,598.6,759.1,621.3,758.9,634.2L758.9,634.2z M824.2,455.3
				c-1.5-6.6-3.5-13.8-6.7-20.4c-4.2-8.5-10.3-16.9-18.5-26.3c-14.7-15.9-29.3-31.2-49.9-42.6l0.1-0.2l0.1,0.1h0.3l-0.3-0.3h0.7
				l-0.4-0.4h0.7l-0.5-0.6h0.7l-0.5-0.5h0.8l-0.4-0.6l0.6,0l-0.6-0.6l0.9-0.2l-0.7-0.4l0.8-0.1l-0.6-0.4l0.9-0.3l-0.8-0.5l1-0.4
				l-1-0.7l1-0.4l-1.1-0.5l1-0.5l-1.1-0.2l0.8-0.9l-1.1,0.1l0.5-0.9l-1,0.1c0,0,0-0.1-0.1-0.1l0.6-0.7l-1.1,0.2l0.5-1l-1,0.5
				l0.3-1.1l-1,0.7l0.1-1.1l-0.9,0.8l0.1-1.1l-0.8,0.8l0.1-1.1l-0.8,1l-0.1-1.1l-0.6,0.9l-0.3-1.1l-0.5,1.1l-0.3-1.1l-0.5,1.1
				l-0.2-1.1l-0.4,1.1l-0.3-1.1l-0.3,1.1l-0.2-0.9l-0.4,1.1l-0.3-1.1l-0.4,1.2l-0.5-1.1l-0.2,1.3l-0.5-1.1l-0.1,1.2l-0.6-0.9l0,1.2
				l-0.6-0.9l0.1,1.1l-0.7-0.6l0.3,1.2l-0.8-0.5l0.3,1l-0.7-0.4l0.2,1l-0.6-0.2l0.3,0.7c0,0,0,0.1,0,0.1l-0.5-0.1l0.3,0.6h0
				c-0.6,1.6-0.6,3.6-0.5,5.5c0,0.4,0.9,0.7,1.1,0.9c0.4,0.7,0.4,1,0.4,1c-2.5,4-4.7,7.1-5,11.8c2-2.5,4.1-5.6,7-5.6
				c-1.4,2.4-2.1,9.6-0.5,10.7l1.2-2.1c0,1.7,0.3,2.8,0.6,3.6c0.5-1,1-2,1.5-2.7c0.1,2.4,0.4,4.2,1.1,5.2c0.7-1.2,1.6-1.9,2.5-2.5
				c-0.3,1.3-0.8,2.6-0.6,4.2c1-1.7,2-2.7,3-3.9c-0.6,2.5-0.1,4.3,0.7,7.1c0.6-3.2,0.9-3.6,2.4-5c0.2,3-0.4,5.7,0.2,7.3
				c1.4-2.6,2.3-2.2,3.1-3.9c-0.2,2.5-0.7,5.1,0,7.3c0.5-2.2,1.9-3.4,3-4.2c0.1,3.4,0.9,2.9-1.3,5.8c0.9,0.4,4-0.6,5.6-1.3
				c-0.8,1.8-0.6,3.3-1.4,4.6c1.7-0.8,3.1-2.2,4.5-3.6c-0.7,2.1-2.4,4.2-1.5,6.3c0.4-2,2-3.6,3.5-3.9c-0.2,1.1-0.4,3.4-2,4.5
				c3.8,0.4,5.3-2.2,7.2-4.2c-0.2,2.1-0.2,3.8,2.4,6.8c-0.5-3.8,0.4-3,2.1-5.3c0.8,3.4,1.8,6.9,5.3,9.4c-1.5-3.5-1.7-5.4-0.9-7.6
				c0.5,2.3,2.6,5.1,3.2,7.3c0.3-2.4,0.7-4.8,1.5-6.3c1,2.7,1.9,5.6,2.1,8.7c0.8-1.6,1.4-3.2,1.8-4.8c30.8,32.2,37.7,73.2,3.9,116.5
				c12.1-8.2,15.3-21.2,22-32.3c-6.6,14.5-9.5,30.8-21.1,42.8c11.2-9.7,13.6-18.6,20.4-27.9c-7.2,19.5-17.2,40.9-31,60.5l7.4,8.1
				l6.4-10.7C812.4,542.3,836.3,507.9,824.2,455.3L824.2,455.3z"/>
		</g>
		<path class="st30" d="M735.5,361.3c-1.6,0.4-2.2,1-3.3,2.3c1.4,0.3,2.6,0.4,3.9,0.4c0.4,0,0.5-0.5,0.4-0.9l-0.2-1.5
			c0-0.3-0.9-0.3-1.4-0.1L735.5,361.3L735.5,361.3z"/>
		<path class="st31" d="M732.2,363.5c0.5-0.2,1.1-0.3,1.6-0.5l1.7-0.3c-0.5,0.2-1.1,0.3-1.6,0.5L732.2,363.5z"/>
		<ellipse class="st32" cx="742.6" cy="361.5" rx="1.2" ry="1.3"/>
		
			<radialGradient id="SVGID_00000085939494177190428790000002367286649188414336_" cx="755.7874" cy="631.7804" r="0.5389" gradientTransform="matrix(0.9909 0 0 -1.0572 -6.0312 1029.1539)" gradientUnits="userSpaceOnUse">
			<stop  offset="0" style="stop-color:#FFFFFF"/>
			<stop  offset="1" style="stop-color:#FFFFFF;stop-opacity:0"/>
		</radialGradient>
		
			<ellipse style="fill:url(#SVGID_00000085939494177190428790000002367286649188414336_);" cx="742.9" cy="361.2" rx="0.5" ry="0.6"/>
		<path class="st34" d="M759,633.8l2.4-6.9l2.8-6.8l6.5-13.2l7.3-12.7l3.8-6.3l3.9-6.2l-3.8,6.3l-3.8,6.3l-7.2,12.8l-6.5,13.1
			l-2.9,6.7L759,633.8L759,633.8z M729.6,619l7.6-3.7l7.3-4.2c4.8-3,9.4-6.3,13.6-10c4.3-3.7,8.3-7.6,12.1-11.8
			c1.9-2.1,3.7-4.2,5.6-6.4c1.8-2.2,3.6-4.4,5.3-6.6c-1.7,2.3-3.4,4.5-5.2,6.7c-1.8,2.2-3.6,4.4-5.5,6.5c-3.8,4.2-7.8,8.2-12.1,11.9
			c-4.3,3.7-8.9,7-13.7,10c-2.4,1.5-4.9,2.9-7.4,4.2C734.8,616.7,732.2,617.9,729.6,619L729.6,619z M787.8,573.1l3.4-5.1l3.3-5.3
			l6.2-10.7l5.9-10.9l5.7-11l-2.7,5.6l-2.8,5.5l-5.8,11l-6.3,10.7L787.8,573.1L787.8,573.1z M797,533.9c2.7-3.2,5.1-6.5,7.3-10
			c2.2-3.5,4.2-7.1,6-10.9c3.5-7.5,6-15.5,7.8-23.5l0.6-3c0.2-1,0.3-2,0.5-3.1c0.3-2.1,0.5-4.1,0.6-6.2c0.3-4.1,0.3-8.3,0-12.4
			c-0.3-4.1-1-8.2-1.9-12.3c-0.9-4-2.2-8-3.8-11.8c1.6,3.8,2.9,7.8,3.9,11.8c1,4,1.7,8.1,2,12.3c0.3,4.1,0.4,8.3,0.1,12.4
			c-0.1,2.1-0.3,4.1-0.6,6.2c-0.1,1-0.3,2.1-0.4,3.1l-0.6,3c-1.8,8.1-4.4,16.1-7.9,23.6c-1.8,3.8-3.8,7.4-6,10.9
			C802.2,527.4,799.7,530.8,797,533.9L797,533.9z M794.5,525c2.9-2.8,5.4-5.8,7.7-9.1c2.2-3.3,4.2-6.8,5.9-10.3l4.7-11l2.1-5.6
			l0.5-1.4l0.5-1.4l0.9-2.9l0,0c0.8-3.9,1.2-8,1.3-12c0-4-0.3-8.1-0.9-12c-0.6-4-1.6-7.9-2.7-11.8c-1.1-3.9-2.5-7.7-4-11.4l4.1,11.4
			c1.2,3.9,2.1,7.8,2.8,11.8c0.6,4,1,8,1,12.1c0,4-0.4,8.1-1.2,12l0,0l0,0l-0.9,2.8l-0.5,1.4l-0.5,1.4l-2.2,5.6l-4.8,11
			c-1.8,3.6-3.7,7.1-6,10.3C800,519.2,797.4,522.3,794.5,525L794.5,525z M785.4,570.5l5.6-7.8l2.8-3.9l2.7-4
			c1.7-2.7,3.1-5.6,4.5-8.5l4.2-8.6c2.8-5.8,5.5-11.6,7.8-17.5c2.3-6,4.1-12.1,5.4-18.4c1.3-6.3,2.2-12.6,2.9-19
			c0.7-6.4,0.7-12.8,0.1-19.1c-0.7-6.4-2.1-12.6-4.3-18.7c-2.1-6-4.9-11.8-8-17.4c3.1,5.6,6,11.3,8.1,17.4c2.2,6,3.6,12.3,4.3,18.7
			c0.7,6.4,0.6,12.8,0,19.2c-0.7,6.4-1.6,12.7-2.9,19c-1.3,6.3-3.1,12.4-5.5,18.4s-5,11.8-7.8,17.5l-4.3,8.6
			c-1.4,2.9-2.9,5.7-4.6,8.5c-0.8,1.4-1.8,2.6-2.7,3.9l-2.8,3.9L785.4,570.5L785.4,570.5z M789.7,575.3l10.9-18.1
			c3.5-6.1,7-12.2,10.1-18.5c3.1-6.3,5.8-12.8,7.8-19.6c1-3.4,1.9-6.8,2.6-10.2c0.4-1.7,0.7-3.4,0.9-5.2l0.7-5.2
			c0.9-7,1.4-14,1.4-21s-0.6-14.1-1.9-21c-1.3-6.9-3.3-13.7-6.2-20.1c-2.8-6.4-6.5-12.5-10.9-18c4.4,5.5,8.1,11.5,11,18
			c2.9,6.4,5,13.2,6.3,20.1c1.3,6.9,1.9,14,1.9,21s-0.5,14.1-1.4,21.1l-0.8,5.2c-0.3,1.7-0.6,3.5-0.9,5.2c-0.7,3.4-1.6,6.9-2.6,10.2
			c-2,6.7-4.8,13.3-7.9,19.6s-6.6,12.4-10.2,18.5C797.1,563.3,793.4,569.3,789.7,575.3L789.7,575.3z M746.2,369.8
			c0.7,0,1.5,0.1,2.2,0.2c0.7,0.1,1.5,0.3,2.2,0.5c1.4,0.4,2.8,0.9,4.2,1.5c2.7,1.2,5.3,2.8,7.7,4.5c2.4,1.8,4.6,3.8,6.6,5.9l3,3.3
			l2.7,3.5l-2.9-3.4l-3-3.2c-2.1-2.1-4.3-4.1-6.7-5.8c-2.4-1.8-4.9-3.3-7.6-4.6c-1.3-0.6-2.7-1.1-4.1-1.6
			C749.2,370.2,747.7,369.9,746.2,369.8L746.2,369.8z"/>
		<g>
			<path class="st35" d="M771.8,386.7c0,0,4.8,2.8,7.4,6.9c0,0-7.4-1.4-12.6-7.3"/>
			<path class="st34" d="M771.8,386.7c0.7,0.4,1.5,0.9,2.2,1.4l2,1.6c0.6,0.6,1.2,1.2,1.8,1.8c0.6,0.6,1.1,1.3,1.6,2.1l0.2,0.3
				l-0.4-0.1c-1.2-0.3-2.4-0.7-3.6-1.1c-1.2-0.5-2.3-1-3.3-1.6c-2.1-1.2-4.1-2.8-5.7-4.7c1.7,1.8,3.7,3.3,5.8,4.5
				c1.1,0.6,2.2,1.1,3.3,1.6c1.1,0.5,2.3,0.8,3.5,1.1l-0.2,0.3c-0.5-0.7-1-1.4-1.5-2c-0.6-0.6-1.1-1.2-1.8-1.8l-1.9-1.7L771.8,386.7
				L771.8,386.7z"/>
			<path class="st35" d="M761.2,385.3l12.9,7.8c0,0-2.5-5.4-7.9-7.8"/>
			<path class="st34" d="M761.2,385.3l6.5,3.9l3.2,1.9l1.6,0.9l1.6,0.9l-0.2,0.2c-0.4-0.8-0.9-1.6-1.4-2.4c-0.5-0.8-1.1-1.5-1.8-2.2
				c-0.6-0.7-1.4-1.3-2.1-1.9c-0.8-0.6-1.6-1-2.4-1.4c0.9,0.3,1.7,0.8,2.5,1.3c0.8,0.5,1.5,1.1,2.2,1.8c0.7,0.7,1.3,1.4,1.9,2.1
				c0.6,0.8,1.1,1.6,1.5,2.4l0.2,0.4l-0.4-0.2c-1.2-0.5-2.2-1.2-3.3-1.8l-3.2-2L761.2,385.3L761.2,385.3z"/>
			<path class="st35" d="M765.7,381.7c0,0,5.9,2.5,7.2,6.8c0,0-10.6-4.4-12.4-6.8"/>
			<path class="st34" d="M765.7,381.7c0.8,0.3,1.5,0.7,2.3,1.1c0.7,0.4,1.4,0.9,2.1,1.5c0.7,0.6,1.3,1.2,1.8,1.9
				c0.5,0.7,1,1.5,1.2,2.3l0.1,0.3l-0.3-0.1l-3.3-1.5l-3.2-1.6l-3.1-1.7l-1.5-1c-0.5-0.4-1-0.7-1.3-1.2c0.4,0.4,0.9,0.8,1.4,1.1
				l1.5,0.9l3.1,1.6l6.5,2.9l-0.2,0.2c-0.2-0.8-0.6-1.5-1.1-2.2c-0.5-0.7-1.1-1.3-1.7-1.9c-0.6-0.6-1.3-1.1-2-1.5
				C767.2,382.5,766.5,382.1,765.7,381.7L765.7,381.7z"/>
			<path class="st35" d="M756.8,386.2c0,0,10.4,7.4,13.5,7.4c0,0-3-5.1-8.4-7.4"/>
			<path class="st34" d="M756.8,386.2l3.2,2.1l3.3,2l3.4,1.9l1.7,0.8c0.6,0.2,1.2,0.5,1.8,0.5l-0.1,0.2c-0.5-0.8-1.1-1.5-1.7-2.3
				c-0.6-0.7-1.3-1.4-1.9-2c-0.7-0.6-1.4-1.2-2.2-1.8c-0.8-0.5-1.6-1-2.5-1.4c1.8,0.7,3.4,1.8,4.8,3c0.7,0.6,1.4,1.3,2,2
				c0.6,0.7,1.2,1.5,1.7,2.3l0.2,0.3l-0.3,0c-0.7,0-1.3-0.2-1.9-0.5c-0.6-0.2-1.2-0.5-1.8-0.8l-3.4-1.9l-3.2-2.1L756.8,386.2
				L756.8,386.2z"/>
			<path class="st35" d="M756.8,388.5c0,0,5.4,4.6,8.5,4.6c0,0-3-5.1-8.4-7.4"/>
			<path class="st34" d="M756.8,388.5l2,1.4l2.1,1.3c0.7,0.4,1.4,0.8,2.2,1.1c0.4,0.2,0.7,0.3,1.1,0.4c0.4,0.1,0.8,0.2,1.2,0.2
				l-0.1,0.2c-0.5-0.8-1.1-1.6-1.7-2.3c-0.6-0.7-1.3-1.4-2-2c-0.7-0.6-1.4-1.2-2.2-1.8c-0.8-0.5-1.6-1-2.5-1.4
				c1.8,0.7,3.4,1.8,4.8,3c0.7,0.6,1.4,1.3,2,2c0.6,0.7,1.2,1.5,1.7,2.3l0.2,0.2h-0.3c-0.9,0-1.7-0.3-2.4-0.6s-1.5-0.7-2.2-1.2
				l-2-1.4L756.8,388.5L756.8,388.5z"/>
			<path class="st35" d="M754.1,378.3c0,0,11.3,8,12.6,12.3c0,0-10.2-4.7-12.1-7"/>
			<path class="st34" d="M754.1,378.3l3.6,2.6l3.4,2.8c1.1,1,2.2,2,3.2,3.1c0.5,0.5,1,1.1,1.4,1.7c0.4,0.6,0.8,1.3,1.1,2l0.1,0.4
				l-0.3-0.2l-3.2-1.5l-3.1-1.6l-3-1.8l-1.4-1c-0.5-0.4-0.9-0.7-1.3-1.2c0.4,0.4,0.9,0.8,1.3,1.1l1.5,0.9l3.1,1.7l6.3,3.1l-0.2,0.2
				c-0.2-0.7-0.6-1.3-1-1.9c-0.4-0.6-0.9-1.2-1.4-1.7c-1-1.1-2.1-2.1-3.2-3.1l-3.4-2.9L754.1,378.3L754.1,378.3z"/>
		</g>
		<g>
			<path class="st3" d="M691.6,603.5c-7.6,5.7-29,8.5-31.9,7.5C675.2,598.1,690.4,597.8,691.6,603.5L691.6,603.5z M800.6,610.4
				c8.2,7.5,33,12.6,36.7,11.7C820.8,605.3,802.7,603.6,800.6,610.4z"/>
			<path class="st4" d="M691.5,603.5c-1.1-5.7-16.3-5.4-31.8,7.5C676,605.5,689.7,602.5,691.5,603.5z M800.7,610.3
				c2.1-6.9,20-5.2,36.5,11.7C818.7,614.2,803,609.4,800.7,610.3z"/>
		</g>
	</g>
</g>
</svg>
