<?xml version="1.0" encoding="utf-8"?>
<!-- Generator: Adobe Illustrator 27.1.1, SVG Export Plug-In . SVG Version: 6.00 Build 0)  -->
<svg version="1.1" id="Camada_1" xmlns="http://www.w3.org/2000/svg" xmlns:xlink="http://www.w3.org/1999/xlink" x="0px" y="0px"
	 viewBox="0 0 800 577.8" style="enable-background:new 0 0 800 577.8;" xml:space="preserve">
<style type="text/css">
	.st0{fill:#4997D0;}
	.st1{fill:#EEEEEE;}
	.st2{fill:#437E24;}
	.st3{fill:#B1B6BA;}
	.st4{fill:#6C301E;}
	.st5{fill:#FAB81B;}
	.st6{fill:#F9F0AA;}
	.st7{fill:#E2CF81;}
</style>
<path class="st0" d="M711.1,0H533.3v577.8h177.8c49.1,0,88.9-39.8,88.9-88.9v-400C800,39.8,760.2,0,711.1,0z M88.9,0
	C39.8,0,0,39.8,0,88.9v400c0,49.1,39.8,88.9,88.9,88.9h177.8V0H88.9z"/>
<path class="st1" d="M266.7,0h266.7v577.8H266.7V0z"/>
<path class="st2" d="M503.5,305.2c2.5-5.4,2.2-8.8-0.8-5.8c-2.6,2.7-6.3,3.6-10.9,6.9l0.4-1.3c4.1-7.7,12.9-4,18.1-16.2
	c0.9-2.3,5.6-4.7-0.8-4.3c-4.5,0.3-10.2,3-14.4,8.7c3.2-8.6,10.8-4.2,13.9-24.9c0.6-3.8,1-11.6-1.5-5.2c-1,2.5-3.5,5.1-6,8.1
	c0.8-3.6,0.7-7.3-0.3-10.8c1.7-2.4,2.9-5.1,3.4-7.9c0.7-5-0.5-9.5-2.4-4.2c-0.7,1.7-1.8,3.3-3.3,4.4c-0.5-1.8-1-2.4-2.3,0
	c-1.4,2.5-2.2,5.7-2.7,9.2l0,0.2c-0.3-1.9-0.8-3.7-1.2-5.5c1-6.9,11.7-6.7,8-29.1c-0.9-5.4-1.3-7-3.2-0.3c-1.8,6.2-7.3,6.8-7.6,19.2
	l-0.5-1.4c-1.2-12,7-22,0.8-32.3c-3.3-5.5-5-6-4.7-1.5c0.4,5.2-2.7,10.7-2.1,18.2l-0.2-0.5c-1.3-9.3,2-12.1-1.7-18.1
	c-2-3.1-4.9-7.1-4.1-2c0.2,1,0.2,2.2,0.4,3.5c-1.2-5.2-5.7-8.5-11.5-10.3c-5.4-1.8-3.8,0.8-1.8,2.9c2.8,3,2.1,6.8,5.6,11.4
	c-3.8-1.8-7.1-2-9.3-4.8c-4.3-5.4-2.1,1.5-1,4.6c1.5,5,5.1,9.1,9.7,11.4c-0.4,0.4-0.2,2,0.9,5.2c1.4,4,3.2,7,5.1,9.4
	c-1.4-0.8-2.7-1.9-3.7-3.3c-4.6-6.7-6.3-7.5-5.5,0.5c0.8,7,3.7,10.7,7.3,13.1c0.1,2,0.8,3.8,2,5.4c1.8,2.8,4.5,5,7.7,6.1
	c1.2,2.8,1.9,5.5,2.5,8.2c-0.2-0.1-0.3-0.3-0.4-0.4c-6.8-4.8-5.1-2-4.6,2.2c2.6,19.8,11.9,13,10,25.8c-0.3,1.2-0.5,2.3-0.8,3.4
	c0.3-7.4-3.1-11.5-5.9-14.8c-3.9-4.5-5.2-3.2-3.3,5.1c0.4,1.9,0.9,4.3,1.3,6.9l-0.1-0.3c-3.9-7.8-5-5.6-4.6,0.4
	c0.4,5.7-4.4,8-1.3,18.9c0.9,3.2,1.4,9.4-1.7,14.1l-0.5,0.7c6.8-12.6-1.4-16.4-0.7-20.2c0.9-4.3-0.2-5.1-2.6,0.3
	c-2.2,4.4-2.6,9.5-1.4,14.2c-0.5,0.3-0.9,0.4-1.6,0.9c-1.9,1.3-3.8,2.7-5.5,4.3c0.2-1.2,0.5-2.4,0.6-3.6c0.6-5.7-1-8.4-3.4-2.3
	c-3,7.5-8.5,7.4-12,18.7c-2.7,9.1-4.8,11-9,12.8l-0.6,0.3c6.4-5,10-11.7,10.9-19.4c1-8.6-1.1-7.4-4-2.2c-2.8,5-8.1,4.3-11.4,15.2
	c-1.4,5-5.1,9.1-10,10.9c8.8-6.2,12.6-16.6,11.6-22.7c-0.5-3.1-1.9-5-3.3,0.1c-1.6,6.2-6.2,4.7-9.9,16.5c-1.9,6-3.5,7.2-11.4,10.8
	l1.2-0.2c-4.1,1.6-8.1,3.6-11.9,5.8c-3.7-2.1-7.5-4-11.5-5.5l0.6,0.1c-7.8-3.5-9.4-4.7-11.3-10.7c-3.6-11.7-8.2-10.2-9.8-16.3
	c-1.3-5-2.8-3.2-3.2-0.2c-1,6.1,2.8,16.2,11.4,22.4c-4.8-1.8-8.4-5.8-9.8-10.7c-3.3-10.8-8.5-10-11.3-15c-2.9-5.2-5-6.4-4,2.1
	c0.9,7.7,4.4,14.3,10.7,19.2l-1.3-0.6c-3.7-1.7-5.6-3.8-8.2-12.3c-3.4-11.2-8.8-11-11.8-18.4c-2.4-6-3.9-3.3-3.4,2.3
	c0.1,1.2,0.4,2.4,0.6,3.5c-1.7-1.6-3.5-3-5.4-4.3c-0.7-0.4-1-0.6-1.6-0.9c1.3-4.7,0.8-9.7-1.4-14.1c-2.4-5.2-3.5-4.5-2.6-0.3
	c0.8,3.8-7.4,7.6-0.5,20.2l-0.5-0.7c-3.2-4.7-2.7-10.9-1.8-14.1c3.1-10.8-1.6-13-1.2-18.7c0.4-5.9-0.8-8.1-4.6-0.4l-0.1,0.3
	c0.4-2.5,0.8-4.9,1.3-6.8c1.9-8.2,0.5-9.4-3.2-5c-2.8,3.2-6.2,7.3-5.8,14.6c-0.3-1.1-0.6-2.3-0.8-3.5c-1.9-12.6,7.4-5.9,9.9-25.5
	c0.5-4.2,2.2-6.9-4.5-2.1c-0.2,0.1-0.3,0.3-0.4,0.4c0.6-2.7,1.3-5.3,2.6-8.2c3.1-1.2,5.8-3.3,7.6-6.1c1.1-1.6,1.8-3.4,1.9-5.4
	c3.5-2.4,6.4-6.1,7.2-13c0.9-7.9-0.9-7.2-5.4-0.5c-1,1.3-2.2,2.4-3.6,3.2c1.8-2.4,3.6-5.3,5-9.2c1.1-3.2,1.3-4.8,0.9-5.2
	c4.6-2.3,8.1-6.3,9.6-11.2c1-3.1,3.2-9.8-1-4.5c-2.2,2.7-5.4,2.9-9.2,4.7c3.5-4.5,2.8-8.2,5.6-11.3c2-2.1,3.6-4.6-1.7-2.9
	c-5.7,1.8-10.2,5-11.4,10.2c0.1-1.2,0.2-2.4,0.4-3.4c0.8-5-2.2-1-4,2c-3.7,6-0.5,8.7-1.7,17.8l-0.2,0.6c0.6-7.5-2.5-12.9-2.1-18
	c0.4-4.4-1.4-3.9-4.6,1.5c-6.1,10.1,1.9,20,0.8,31.8l-0.4,1.4c-0.3-12.2-5.8-12.7-7.5-18.9c-1.9-6.7-2.3-5.1-3.2,0.3
	c-3.6,22.1,6.9,21.9,7.9,28.8c-0.4,1.8-0.8,3.6-1.2,5.5l-0.1-0.3c-0.2-1.2-0.5-2.2-0.8-3.3l-0.1-0.2c-0.5-1.9-0.9-3.9-1.8-5.5
	c-1.4-2.4-1.8-1.8-2.3,0c-1.4-1.2-2.5-2.7-3.2-4.4c-1.9-5.3-3.1-0.8-2.4,4.2c0.4,2.9,1.8,5.4,3.4,7.8c-1,3.5-1.1,7.2-0.3,10.7
	c-2.6-3-5-5.5-6-8c-2.5-6.3-2.1,1.4-1.5,5.2c3.1,20.5,10.6,16.1,13.7,24.6c-4.1-5.8-9.7-8.4-14.2-8.7c-6.3-0.4-1.7,2-0.8,4.3
	c5.1,12.2,13.8,8.5,17.8,16.1l0.4,1.3c-4.6-3.3-8.2-4.2-10.8-6.8c-2.9-3-3.2,0.4-0.7,5.7c-2.7,0.3-5.6,0.5-7.4-0.1
	c-2.3-0.8-2.3,2.6,4,5.3c2.9,1.2,7.4,3.1,11.8,5.2c3.2,2.4,6.4,4.1,9.2,6.6c-8.6-6.2-15.2-3.2-20-6c-6-3.5-2.8,2-1.1,3.6
	c17,17,19.6,4.2,29,13.2c-1.5-0.7-3.2-1.2-4.8-1.4c-7.5-0.9-10.2-2-6.3,2.8c4.7,5.7,8.5,8.4,11.9,10c-2.2,0-4.4,0.1-6.4,0.5
	c-4.8,1-3.2,1.9,0.1,2.9c4,1.2,6.5,4,11,5.8h0c-7.3,2.3-8.5,3.1-3,5.8c9.4,4.7,16,4.9,21.3,4c-2.4,0.7-4.7,1.9-6.8,3.4
	c-4,3-2.9,4.1,0.5,3.5c6.5-1,10.5,0.9,15.8,0.9c-3.2,2.4-6,5.1-10.8,6.5c-3.3,1-4.3,2.8,1,3.3c20.4,1.7,25.6-11,35.3-10.9
	c5,1.5,9.6,3.4,14.1,6.3c-1.3,1-2.8,2.1-3.5,3c0.2,2.3,5.5,1.2,6,2.4c0.7-0.7,1.4-1.2,2.1-1.8c0.7,0.6,1.4,1.1,2.1,1.8
	c0.5-1.3,4.9-0.9,5.1-3.1c-0.6-0.8-1.8-1.5-2.7-2.3c4.5-3,9.3-4.9,14.4-6.5c9.8-0.1,15.1,12.8,35.7,11c5.4-0.5,4.3-2.3,1-3.3
	c-4.9-1.4-7.7-4.2-11-6.6c5.4,0,9.5-1.9,16-0.9c3.5,0.5,4.6-0.6,0.5-3.6c-2.1-1.5-4.4-2.7-6.8-3.4c5.3,0.9,12,0.8,21.6-4
	c5.6-2.8,4.3-3.6-3-5.9h0c4.5-1.8,7-4.7,11.1-5.9c3.3-1,5-1.9,0.1-2.9c-2.1-0.4-4.3-0.6-6.4-0.5c3.4-1.5,7.3-4.3,12.1-10.1
	c3.9-4.8,1.2-3.7-6.4-2.8c-1.7,0.2-3.4,0.7-5,1.4c9.6-9.2,12.2,3.9,29.5-13.4c1.6-1.6,5-7.2-1.1-3.6c-4.9,2.9-11.6-0.2-20.4,6.3
	c2.9-2.7,6.2-4.4,9.6-6.9c4.4-2.2,8.9-4,11.8-5.2c6.4-2.7,6.4-6.1,4-5.3C509.2,305.8,506.3,305.6,503.5,305.2L503.5,305.2z
	 M349.3,357.5l2.3,1.5c-2.8-1.2-5.6-2.3-8.6-3.2c2.3,0.1,4.5,0.8,6.4,2L349.3,357.5L349.3,357.5z M376.6,364.7l-1.2-0.4l0.8,0.1
	L376.6,364.7L376.6,364.7z M329.6,332.7c0.2,0.3,0.2,0.5,0.5,0.8c1.9,3,2.2,6,4.1,9.7c-0.9-0.8-1.7-1.6-2.6-2.4
	C329.5,338.6,328.8,335.6,329.6,332.7L329.6,332.7z M325.9,232.9c-2.5,3.3-6.6,3.8-10.4,7c2.2-3.8,5.1-7.4,8.7-8.4
	c1.4-0.4,2.8-0.9,4.1-1.4C327.6,230.8,326.8,231.6,325.9,232.9L325.9,232.9z M322.1,333.8l0.4,0.4l-0.3-0.2L322.1,333.8z M347.4,364
	c3.8-0.8,7-1.8,10.1-1.6l1.3,0.7C354.9,362.8,351.1,363.1,347.4,364L347.4,364z M479.3,225.1C479.3,225.1,479.3,225.1,479.3,225.1
	C479.3,225.1,479.3,225.1,479.3,225.1z M473.7,231.2c-0.7-1-1.5-1.9-2.4-2.8c1.3,0.6,2.7,1,4.1,1.4c3.6,1,6.6,4.6,8.8,8.4
	C480.3,235.1,476.2,234.5,473.7,231.2z M456.4,355.5c-2.9,0.9-5.8,1.9-8.6,3.2l2.2-1.4l-0.1,0.1C451.8,356.3,454,355.6,456.4,355.5z
	 M469.5,333l0.5-0.9c0.8,2.9,0,6-2,8.2c-0.9,0.8-1.8,1.7-2.7,2.4C467.2,339.1,467.5,336,469.5,333z M422.7,364.3l0.9-0.2l-1.4,0.4
	C422.4,364.5,422.6,364.4,422.7,364.3L422.7,364.3z M440.4,362.8l1.4-0.7c3.2-0.2,6.5,0.9,10.6,1.7
	C448.5,362.9,444.5,362.6,440.4,362.8z M477.1,333.6l0.3-0.4l-0.1,0.2C477.3,333.5,477.2,333.6,477.1,333.6z"/>
<path class="st3" d="M368.8,298.3c0,0-17,15.2-19,17.3c-2.1,2.1-4.2,11.1-4.2,11.1l5.5,3.4l24.6-25.3L368.8,298.3L368.8,298.3z"/>
<path class="st4" d="M345.2,326.3l5.2,4.1c0,0-4.5,4.5-5.2,9c-0.7,4.5-12.8,18.3-15.2,21.8c-2.4,3.5-5.6,2.8-6.9,0
	c-1.4-2.8-4.5-4.8-4.8-6.9c-0.4-2.1,7.6-9.4,11.4-13.5c3.8-4.2,7.9-5.9,10-8.3C341.8,330.1,345.2,326.3,345.2,326.3L345.2,326.3z
	 M369.8,302.1l-10.5,11.8l2.8,2.8l10.1-11.4L369.8,302.1z"/>
<path class="st3" d="M321.3,199.6l33.6,35l8.3-4.2l-2.6-3.8l-5.7,1.3L321.3,199.6z"/>
<path class="st5" d="M363.2,345l4.2,7l3.8-3.5c0,0,3.1,5.6,0,6.6c-3.1,1.1-5.4,0-5.4,0l-10.5,8.6c0,0-4.2-2.5-7.6,0
	c0,0,0.7-5.1,2.8-5.1c2.1,0,9.6-10,9.6-10s-4-1.1-3.2-3.5C357.7,342.6,363.2,345,363.2,345z"/>
<path class="st3" d="M363.2,347.8c0,0,61.6-61.3,87.3-63.6c0,0-19.4,11.8-31.5,21.5c-12.1,9.7-51.6,46.3-51.6,46.3L363.2,347.8
	L363.2,347.8z"/>
<path class="st3" d="M433.2,298.3c0,0,17,15.2,19,17.3c2.1,2.1,4.2,11.1,4.2,11.1l-5.5,3.4l-24.6-25.3L433.2,298.3L433.2,298.3z"/>
<path class="st4" d="M456.7,326.3l-5.2,4.1c0,0,4.5,4.5,5.2,9c0.7,4.5,12.8,18.3,15.2,21.8c2.4,3.5,5.6,2.8,6.9,0
	c1.4-2.8,4.5-4.8,4.8-6.9c0.4-2.1-7.6-9.4-11.4-13.5c-3.8-4.2-7.9-5.9-10-8.3C460.2,330.1,456.7,326.3,456.7,326.3L456.7,326.3z
	 M432.1,302.1l10.5,11.8l-2.8,2.8l-10.1-11.4L432.1,302.1z"/>
<path class="st3" d="M417.4,250.3l-3.9,11.1L447,228l-5.1-0.9L417.4,250.3z"/>
<path class="st3" d="M480.6,199.6l-33.6,35l-8.3-4.2l8.3-2.4L480.6,199.6z"/>
<path class="st5" d="M438.7,345l-4.1,7l-3.8-3.5c0,0-3.1,5.6,0,6.6c3,1.1,5.4,0,5.4,0l10.5,8.6c0,0,4.2-2.5,7.6,0
	c0,0-0.7-5.1-2.8-5.1s-9.6-10-9.6-10s4-1.1,3.2-3.5C444.2,342.6,438.7,345,438.7,345L438.7,345z"/>
<path class="st3" d="M438.7,347.8c0,0-61.6-61.3-87.2-63.6c0,0,19.4,11.8,31.5,21.5c12.1,9.7,51.6,46.3,51.6,46.3L438.7,347.8
	L438.7,347.8z"/>
<path class="st6" d="M363.7,225.9c10.1-0.6,39.1,0.4,49.9,0c10.7-0.3,8.3,5.2,9,8.3c0.7,3.1-5.8,6.6-5.8,6.6s6.9,4.2,15.9,28.4
	c9,24.2,6.9,35.3-5.2,36c-12.1,0.7-43.3,2.8-53.7,2.8c-10.4,0-12.1-3.8-12.1-9.4c0-5.5,8.3-13.9,16.6-9.1c0,0,0-3.7-4.8-17.5
	s-15.2-28.7-16.3-35.3C356.1,230,358.5,226.2,363.7,225.9L363.7,225.9z"/>
<path class="st2" d="M394.2,202c-4.2-3.8,1.6-8,5.8-7.6c4.2,0.4,6.3,2.8,1.8,7.6c0,0,12.1,6.6,21.8,15.6c9.7,9,29.6,33.3,31.5,59.6
	c2.4,33.9-16.3,51.6-23.2,63.7c-6.9,12.1-22.5,42.6-22.5,42.6s-0.4-15.6,20.1-44c0,0-15.9,28.4-40.5,33.6c0,0,30.8-21.7,39.4-39
	c8.6-17.3,21.3-43.3,19.2-61.3c-2.1-18-5.3-33.3-29.2-45.1c0,0-15.1-0.8-21.8-6.2C385.9,212.7,394.2,202,394.2,202L394.2,202z"/>
<path class="st7" d="M416.7,240.8c0,1,4.5,6.7,3.9,6.7h-52.9c-0.6,0-3.6-3.7-3.6-4.7l-4-4.7c3.2,1.2,7,0,7.6,0h52.9
	C421.2,238,416.7,239.7,416.7,240.8z M378.3,302.1c0,1-2.2,4.5-1.6,4.5h52.9c0.6,0,5.4-3.7,5.4-4.7l2.1-4.7c-3.2,1.2-7,0-7.6,0
	h-52.9C376.1,297.1,378.3,301,378.3,302.1L378.3,302.1z"/>
</svg>
