<?xml version="1.0" encoding="utf-8"?>
<!-- Generator: Adobe Illustrator 27.1.1, SVG Export Plug-In . SVG Version: 6.00 Build 0)  -->
<svg version="1.1" id="Camada_1" xmlns="http://www.w3.org/2000/svg" xmlns:xlink="http://www.w3.org/1999/xlink" x="0px" y="0px"
	 viewBox="0 0 800 577.8" style="enable-background:new 0 0 800 577.8;" xml:space="preserve">
<style type="text/css">
	.st0{fill:#EEEEEE;}
	.st1{fill:#0156A3;}
	.st2{fill:#2657A7;}
</style>
<path class="st0" d="M0,200h800v177.8H0V200z"/>
<path class="st1" d="M711.1,0H88.9C39.8,0,0,39.8,0,88.9V200h800V88.9C800,39.8,760.2,0,711.1,0z M0,488.9
	c0,49.1,39.8,88.9,88.9,88.9h622.2c49.1,0,88.9-39.8,88.9-88.9V377.8H0V488.9z"/>
<path class="st2" d="M406.7,282.9l-6.2-19.1l-6.2,19.1h-20.1l16.3,11.8l-6.2,19.1l16.3-11.8l16.3,11.8l-6.2-19.1l16.3-11.8H406.7z
	 M539.7,344.8l-6.2,19.1l16.3-11.8l16.3,11.8l-6.2-19.1l16.3-11.8H556l-6.2-19.1l-6.2,19.1h-20.1L539.7,344.8z M556,233l-6.2-19.1
	l-6.2,19.1h-20.1l16.3,11.8l-6.2,19.1l16.3-11.8l16.3,11.8l-6.2-19.1l16.3-11.8H556z M238.9,344.8l-6.2,19.1l16.3-11.8l16.3,11.8
	l-6.2-19.1l16.3-11.8h-20.1l-6.2-19.1l-6.2,19.1h-20.1L238.9,344.8z M255.2,233l-6.2-19.1l-6.2,19.1h-20.1l16.3,11.8l-6.2,19.1
	l16.3-11.8l16.3,11.8l-6.2-19.1l16.3-11.8H255.2z"/>
</svg>
