<?xml version="1.0" encoding="utf-8"?>
<!-- Generator: Adobe Illustrator 27.1.1, SVG Export Plug-In . SVG Version: 6.00 Build 0)  -->
<svg version="1.1" id="Layer_1" xmlns="http://www.w3.org/2000/svg" xmlns:xlink="http://www.w3.org/1999/xlink" x="0px" y="0px"
	 viewBox="0 0 1500 1000" style="enable-background:new 0 0 1500 1000;" xml:space="preserve">
<style type="text/css">
	.st0{clip-path:url(#SVGID_00000135682679621539736310000003300170818886159782_);}
	.st1{fill:#2B72B8;}
	.st2{fill:#FFFFFF;}
</style>
<g>
	<g>
		<defs>
			<rect id="SVGID_1_" x="0" y="0" width="1500" height="1000"/>
		</defs>
		<clipPath id="SVGID_00000062165404077180445560000013356900062415055755_">
			<use xlink:href="#SVGID_1_"  style="overflow:visible;"/>
		</clipPath>
		<g style="clip-path:url(#SVGID_00000062165404077180445560000013356900062415055755_);">
			<rect x="-209.1" y="-127.4" class="st1" width="1918.2" height="1254.8"/>
			<rect x="-209.1" y="337.9" class="st2" width="1918.2" height="324.2"/>
			<polygon class="st1" points="770.6,517.8 804,493.5 762.7,493.5 750,454.3 737.2,493.5 696,493.5 729.3,517.8 716.6,556.9 
				750,532.7 783.4,556.9 			"/>
			<polygon class="st1" points="1054.6,427 1088,402.8 1046.7,402.8 1034,363.6 1021.2,402.8 979.9,402.8 1013.3,427 1000.6,466.2 
				1034,441.9 1067.4,466.2 			"/>
			<polygon class="st1" points="1054.6,597.1 1088,572.9 1046.7,572.9 1034,533.7 1021.2,572.9 979.9,572.9 1013.3,597.1 
				1000.6,636.3 1034,612.1 1067.4,636.3 			"/>
			<polygon class="st1" points="486.6,427 520,402.8 478.8,402.8 466,363.6 453.2,402.8 412,402.8 445.4,427 432.6,466.2 466,441.9 
				499.4,466.2 			"/>
			<polygon class="st1" points="486.6,597.1 520,572.9 478.8,572.9 466,533.7 453.2,572.9 412,572.9 445.4,597.1 432.6,636.3 
				466,612.1 499.4,636.3 			"/>
		</g>
	</g>
</g>
</svg>
