<?xml version="1.0" encoding="utf-8"?>
<!-- Generator: Adobe Illustrator 27.1.1, SVG Export Plug-In . SVG Version: 6.00 Build 0)  -->
<svg version="1.1" id="Camada_1" xmlns="http://www.w3.org/2000/svg" xmlns:xlink="http://www.w3.org/1999/xlink" x="0px" y="0px"
	 viewBox="0 0 800 577.8" style="enable-background:new 0 0 800 577.8;" xml:space="preserve">
<style type="text/css">
	.st0{fill:#006847;}
	.st1{fill:#CE1126;}
	.st2{fill:#EEEEEE;}
	.st3{fill:#A6D388;}
	.st4{fill:#5C913B;}
	.st5{fill:#55ACEE;}
	.st6{fill:#FFCC4D;}
	.st7{fill:#C1694F;}
</style>
<path class="st0" d="M88.9,0C39.8,0,0,39.8,0,88.9v400c0,49.1,39.8,88.9,88.9,88.9h155.6V0H88.9z"/>
<path class="st1" d="M711.1,0H555.6v577.8h155.6c49.1,0,88.9-39.8,88.9-88.9v-400C800,39.8,760.2,0,711.1,0z"/>
<path class="st2" d="M244.4,0h311.1v577.8H244.4V0z"/>
<path class="st3" d="M511.1,288.9c0,61.4-49.7,111.1-111.1,111.1s-111.1-49.7-111.1-111.1h-22.2c0,73.6,59.7,133.3,133.3,133.3
	s133.3-59.7,133.3-133.3H511.1z"/>
<path class="st4" d="M301,339.3c-2.8-5.5-9.4-7.6-14.9-4.9c0,0-0.1,0-0.1,0c-5.5,2.8-7.7,9.5-4.9,14.9c0,0,0,0,0,0
	c2,3.9,4.2,7.8,6.6,11.5v0l0.1,0.1v0l0.2,0.2v0l0.1,0.1l0,0l0.1,0.1v0l0.1,0.1v0l0.1,0.1l0,0l0.1,0.1l0,0l0.1,0.1l0,0.1l0,0.1l0,0.1
	l0.1,0.1l0,0l0,0.1l0.1,0.1l0,0l0.1,0.1l0,0l0.2,0.2v0l0.1,0.2v0c1.2,1.7,2.3,3.4,3.6,5c3.6,4.9,10.6,5.9,15.5,2.3c0,0,0,0,0,0
	c4.9-3.6,6-10.6,2.3-15.5c0,0,0,0,0,0C307,350.1,303.8,344.8,301,339.3L301,339.3z M289.9,304.2c-0.8-6.1-1.2-12.3-1-18.5
	c0.2-6.1-4.6-11.2-10.8-11.4l-0.8,0c-5.8,0.3-10.5,5-10.6,10.8c-0.1,2.3-0.1,4.6,0,6.9v2l0,0.1v0.6l0,0.1l0,0v0.1l0,0v0.6l0,0.1v0.2
	l0,0.4l0,0.2v0.2c0.2,3.6,0.6,7.1,1,10.6c0.9,6,6.4,10.3,12.5,9.4C286.4,316,290.7,310.3,289.9,304.2
	C289.9,304.2,289.9,304.2,289.9,304.2L289.9,304.2z M407.6,399.7l-0.1,0l-2.8,0.2c-5.3,0.2-10.5,0.1-15.8-0.5
	c-6.1-0.6-11.6,3.8-12.2,9.9s3.8,11.6,9.9,12.2l2.8,0.2l0.1,0l0,0l0.1,0h0l0.1,0h0.1l0.1,0h0l0.1,0l0.1,0h0.1l0.1,0l0.1,0h0.3l0.1,0
	h0.3c3.4,0.2,6.8,0.3,10.2,0.3h0.9l0.2,0l0.1,0h0.3l0.1,0h0.4l0.1,0h0l0.1,0l0,0l0.1,0h0l0.1,0h0.2l0.1,0h0.1l0,0l0.1,0h0.2l0.1,0
	h0.4l0.1,0h0.1l0.1,0l0.1,0h0.1l0.1,0h0.1c0.9,0,1.9-0.1,2.8-0.2c6-0.5,10.5-5.7,10.1-11.7C418.7,404.2,413.6,399.5,407.6,399.7
	C407.6,399.7,407.6,399.7,407.6,399.7L407.6,399.7z M353.4,389.8c-5.6-2.6-11-5.7-16.1-9.1c-2-1.4-4.3-2-6.7-1.9
	c-6.1,0.3-10.9,5.4-10.6,11.6c0.1,3.5,1.9,6.7,4.8,8.7l0,0l0.1,0.1l0.1,0.1l0.1,0.1l0.1,0.1c5.9,4,12.2,7.6,18.7,10.6
	c5.5,2.6,12.1,0.2,14.7-5.3c0,0,0,0,0-0.1C361.3,399,359,392.4,353.4,389.8C353.4,389.8,353.4,389.8,353.4,389.8L353.4,389.8z
	 M465.1,380.9c-2,0.1-3.9,0.7-5.5,1.8c-5.2,3.3-10.7,6.2-16.3,8.6c-5.7,2.3-8.5,8.7-6.2,14.4c1.8,4.4,6.2,7.2,10.9,7
	c1.3-0.1,2.6-0.3,3.8-0.8l3-1.3h0l0.1-0.1l0,0l0.1,0h0.1l0.1,0l0,0l0.1,0l0,0l0.1,0l0.1,0l0.1,0l0.1,0l0,0l0.1,0l0,0
	c0.1,0,0.1-0.1,0.1-0.1l0,0l0.1-0.1h0l0.1-0.1l0.1-0.1l0,0l0.1-0.1l0,0l0.1-0.1l0,0l0.2,0l0.2-0.1l0,0l0.1-0.1h0l0.1-0.1l0.2,0
	l0.1-0.1h0l0.2-0.1l0,0l0.3-0.1l0.2-0.1l0.3-0.2l0.2-0.1l0.1-0.1h0l0.3-0.2v0l0.1,0h0l0.5-0.3l0.2,0l0.3-0.2l0.2-0.1h0
	c0,0,0.1,0,0.2,0c0-0.1,0.1-0.1,0.1-0.1l0.2-0.1l0.1-0.1v0l0.3-0.1h0l0.2-0.1l0,0l0.1-0.1h0l0.2-0.1l0.1-0.1h0l0.1-0.1v0l0.2-0.1
	l0,0l0.1-0.1v0l0.1,0l0,0l0.1-0.1l0.1,0l0.1-0.1l0,0l0.1-0.1l0,0l0.1,0c0,0,0,0,0,0l0.1-0.1l0,0l0.1-0.1l0,0l0.1-0.1l0,0
	c0,0,0,0,0.1-0.1l0.1,0l0.1,0l0.1,0l0.1,0l0.1,0l0.1,0l0.1-0.1l0.1,0l0.1,0l0,0l0.1,0l0.1-0.1l0,0l0.1,0l0.1-0.1l0.1,0
	c0,0,0.1,0,0.1,0l0,0l0.1,0l0.1,0l0.1,0l0.1,0l0.1-0.1l0,0c0,0,0.1,0,0.2-0.1c0,0,0,0,0,0l0.1,0l0.2-0.1l0,0l0.2-0.1v0l0.3-0.1
	l0.2-0.1c0.1-0.1,0.3-0.2,0.4-0.2h0c1.4-0.8,2.8-1.7,4.2-2.6c5.2-3.3,6.7-10.2,3.4-15.3C472.9,382.7,469.1,380.8,465.1,380.9
	L465.1,380.9z M522.3,278.3l-0.5,0c-5.9,0.2-10.6,5.1-10.6,11.1c0,6.2-0.6,12.4-1.6,18.4c-1,6.1,3,11.8,9.1,12.8
	c6.1,1,11.8-3,12.8-9.1v-0.1l0,0l0,0l0,0l0,0v0l0,0v-0.1l0,0v-0.2c0,0,0-0.1,0-0.1v-0.1c0.5-2.9,0.9-5.8,1.2-8.7l0,0l0-0.1v0l0-0.1
	v-0.2l0-0.1v0l0-0.1v0l0-0.1v-0.1l0,0l0-0.1V301c0,0,0,0,0-0.1v-0.4l0-0.1v0c0.3-3.7,0.5-7.3,0.5-11
	C533.3,283.3,528.4,278.3,522.3,278.3L522.3,278.3z M512.4,338.2c-5.4-3-12.1-1-15.1,4.3c0,0,0,0,0,0c-3,5.4-6.4,10.6-10.3,15.4
	c-3.8,4.8-3,11.8,1.9,15.6c4.8,3.8,11.7,3,15.5-1.8c2.6-3.2,5-6.6,7.3-10.1c0-0.2,0.2-0.3,0.2-0.4l0,0l0.1-0.1v0l0.1-0.2
	c0,0,0.1-0.1,0.1-0.1l0,0l0.1-0.1v0c0,0,0.1-0.1,0.1-0.2l0,0l0.1-0.1v0c0,0,0-0.1,0.1-0.1l0,0l0.1-0.1l0,0l0-0.1l0.1,0l0-0.1h0
	l0-0.1l0,0l0.1-0.1l0,0c0,0,0-0.1,0.1-0.1l0-0.1l0.1-0.1c0,0,0,0,0-0.1V359l0.1,0l0.1-0.1l0,0l0.1-0.1l0,0l0-0.1l0-0.1
	c0,0,0,0,0-0.1c0,0,0,0,0-0.1l0.1-0.1l0-0.1l0-0.1l0-0.1c0,0,0,0,0-0.1c0,0,0,0,0-0.1l0-0.1l0.1-0.1l0.1-0.1v-0.1l0-0.1l0.1-0.1
	l0.1-0.1v-0.1l0.1-0.1v-0.1c0,0,0.1,0,0.1-0.1l0,0l0-0.1l0.1-0.1l0-0.1v0l0.1-0.1c0,0,0,0,0-0.1l0-0.1l0.1-0.1l0-0.1l0-0.1
	c0,0,0-0.1,0-0.1c0,0,0,0,0,0l0-0.1l0,0l0-0.1l0,0l0-0.1l0,0l0-0.1l0,0l0-0.1c0,0,0,0,0,0l0.1-0.1l0,0l0.1-0.1v0l0.1-0.1l0,0l0-0.1
	v0l0.1-0.1l0.1-0.1v0l0.1-0.2l0,0l0.6-1C519.7,347.8,517.7,341.1,512.4,338.2L512.4,338.2z"/>
<ellipse class="st5" cx="400" cy="355.6" rx="66.7" ry="22.2"/>
<ellipse class="st6" cx="411.1" cy="355.6" rx="33.3" ry="22.2"/>
<path class="st4" d="M424.8,361.6c-6.2-0.1-11.1-5.1-11.1-11.3c0-1.8,0.5-3.6,1.3-5.2c3.6-6.5,7.3-12.5,11.2-17.7
	c-3.2,0.1-6.4,0.2-9.6,0.2c-6.1,0-11.7-5-11.7-11.1c0-6.1,4.3-11.1,10.5-11.1l1.8,0c6.6,0,13.3-0.4,19.4-1c3.4-0.3,6.8,0.9,9.1,3.5
	c0.3-0.2,0.6-0.5,1-0.7c2.2-1.5,4.3-2.6,6.2-3.6c1.4-1.1,3-1.8,4.7-2.1l0.8-0.2c4.2-1.4,7.1-1.5,8.3-1.5c6.1,0,11.1,4.9,11.1,11
	c0,1.1-0.2,2.3-0.5,3.4c-1.8,5.9-5.9,7.2-13,8.7c-1.9,0.7-3.6,1.7-5.3,2.8c-4.1,2.7-9.5,2.4-13.3-0.8c3.1,4,3.1,9.6,0,13.6
	c-3.8,4.8-7.5,10.6-11,17.1C432.6,359.4,428.9,361.7,424.8,361.6L424.8,361.6z M393.3,326.3c-0.5,0-1,0-1.5-0.1
	c-7.9-1-15.8-2.7-23.5-4.9c-5.9-1.7-9.2-7.9-7.5-13.8c0,0,0,0,0,0l0.1-0.4l-0.3,0.5c-3,5.4-9.8,7.3-15.1,4.3c0,0,0,0,0,0
	c-7.4-4.1-14.2-9.2-20.2-15.1c-4.3-4.4-4.1-11.4,0.3-15.7c4.3-4.2,11.1-4.2,15.4,0c4.4,4.4,9.5,8.2,15.3,11.4
	c4.7,2.6,6.8,8.2,5.1,13.3c2.4-4.8,7.9-7.2,13.1-5.7c6.1,1.8,12.9,3.2,20,4.2c6.1,0.8,10.4,6.3,9.6,12.4
	C403.5,322.2,398.8,326.3,393.3,326.3L393.3,326.3z M338.8,274.4c-9.5,0-21.7-3.7-29.1-12.4c-11.4-13.4-18.1-30.6-17-43.8
	c0.3-3.5-3.2-6.4-6.6-7.3c-1.9-0.5-5.3-0.8-6.9,2.6c-1.3,2.8-4.6,4-7.4,2.7c-2.8-1.3-4-4.6-2.7-7.4c3.5-7.5,11.2-10.9,19.8-8.7
	c8,2.1,15.6,9.2,14.8,18.9c-0.8,10.3,5,24.6,14.4,35.8c5,5.9,13.6,8.2,19.4,8.5c4.8,0.2,7.2-0.8,7.7-1.3c-1.2-3-17.7-11.6-24.7-15.3
	c-6-3.1-7.8-7.4-8.2-10.5c-1.5-10.1,8.9-20.4,18.9-30.2c3.5-3.5,6.9-6.8,8.7-9.2c2.1-2.7,1.7-4.6,1.3-5.7c-1.5-4.2-8.2-8.3-16.2-10
	c-7.4-1.6-12.4-5.2-14.8-10.6c-3.2-7.1-1.5-16.5,5.2-28.6c1.5-2.7,4.9-3.6,7.6-2.2s3.6,4.9,2.2,7.6c-6.3,11.4-5.7,16.5-4.8,18.6
	c0.9,2,3.3,3.5,7.1,4.3c9.4,2.1,20.7,7.7,24.2,17c2,5.4,1,11.1-2.8,16.2c-2.3,3.1-6,6.7-9.8,10.5c-5.7,5.6-16.4,16.2-15.7,20.7
	c0.1,0.9,1.4,1.8,2.4,2.3c16.7,8.8,27.8,15.1,30,22.8c0.8,2.7,0.5,5.6-0.9,8c-2.2,3.8-6.6,6.1-13,6.6
	C340.9,274.3,339.8,274.4,338.8,274.4L338.8,274.4z"/>
<ellipse class="st6" cx="433.3" cy="288.9" rx="11.1" ry="22.2"/>
<path class="st6" d="M384.3,270.8c0,6.4-7.7,11.6-17.1,11.6c-9.4,0-17.1-5.2-17.1-11.6c0-6.4,7.7-11.6,17.1-11.6
	C376.6,259.3,384.3,264.4,384.3,270.8z M357.9,168c1.1,4.7-5,10.2-13.8,12.3c-8.7,2.1-16.7-0.1-17.8-4.8c-1.1-4.7,5-10.2,13.7-12.3
	C348.8,161.2,356.8,163.3,357.9,168L357.9,168z"/>
<path class="st7" d="M500.7,287.9c2,1.6,5.4-16.2,4.9-21.7c0-0.4-0.6-12.1,1.8-20.5c1.5-2.8,1.6-24.1-0.7-29.6
	c1.9-0.2,4.1-0.8,4.4-3c-8.6,3.2-10.6-18.2-18.9-30.4c-8-12.3-18-19.4-28.4-26.9c0.9-2.2,2.1-4.2,3.6-6c-12.8,6.4-32.7-16.8-62.1-15
	c-6.6,0.6-9.7,1-11.4,5.1c-5.5,0.4-11.1,1.7-11.1,8.9c0,1.7,1.6,4.9,5.1,4.9c4.8,1.4,8.7,0.3,12,7l0.9,6.9c0,0-4.3-5.5-6.6-6.4
	l1.4-3c-2.2-1.3-6.2-0.2-6.2-0.2s-8.6-4-15.4-2.9l-1.3-5.6c-1.2,3.4-3.9,3.2-4.3,6.5c-0.8-2.3-1.8-5.2-2.5-7.5
	c-2.4,3.3-1.7,6.8-2.6,10.3c-0.9,0.8-2.8,0.8-3.3-1.4c-0.2-2.7-0.6-3-0.6-6.2c-1.7,3-3.8,4.5-4.5,9.8l-1.8-5.8
	c0.1,6.8-5.8,10.9-11.4,15.7c-1.6,2.9,0.2,2.9,0.4,4.4l2.9,1.5l5.3-0.4c0.9,1.1,0.2,1.2,2.4,1.9c6.1,1.7,13.8-5.6,19.8,5.9
	c-2.8,2.3-5.5,7.7-4.6,8.7c1.1,0-2.2,1.6,2.3,0.1c-4.7,4.5-7.8,10.5-7.8,10.9c-0.5,1.3,1.9-0.2,1.4,2.2l1.1-0.1
	c-10.6,11.5-0.4,23.9-1.5,30.5c1.8,2.9,2-0.1,4.2-0.4c1.9,8.2,7.2,13.1,10.5,19.6l-6.9,0.1c0.2,3.1,2.9,6,5.1,8.7l-4.6,1.5
	c-3,1.5-5.6,3.6-7.8,6.1c-1.5,3.7,7.4,4.6,11.7,5.3l-0.2,4.5c6.7,0.6,14.5-1.4,14.5-1.7l1.7-1.3l3.8,2.1c1.3,0,3.2-5.1,2.3-9
	c2.4,2.9,4.8,7.6,7.2,10.5l2.3-0.3c2.1,3.3,5,6.6,7,9.9l2.3,0.9c1.4-0.5,2.5-0.6,3.2-3.3l1.1,1.9l3.7-2.5l2.6-0.5l1.9,3.2
	c1.1-0.4,2.2-2.9,2.3-5.5c1.2,2.3,1.5,2.1,2.3,2.7l1.7-3.6l9.2,8.6l7,0.4c2.5,1.7,9.3,2.8,10.5,0c5.6,2.4,12.2-0.3,11.9-3
	c5.2,2,13.1,0.7,13.1,0.3c1-0.1,3.4-2.5,1.1-4.3c-17-11.9-42.3-31.5-52.1-36.2c0-3.5-2.6-16.2-5.5-19.6l2.3-3.9
	c6.6,6.2,9,5.6,12.6,6.6c3.8,3,5.1,7.6,8.9,11.7l3.4,0.6c-2.8-7.2-6.9-13.8-12.3-19.4c3.6,1.8,9.7,6.7,13.7,10.2
	c2.7,4.5,3.4,8,5.9,13.6c1.8,1.1,3.6,5.3,3.4,1.8c-0.4-6.5-5-16.7-5-17.4c7.2,5.7,7.2,14.7,9.4,20.1c1.8,2.8,2.8,6.4,3.6,5.6
	l-2.1-16.8l-1.2-6.2c5.4,3.1,7.3,14.9,9.8,29c0,2.2,0.9,4.7,0.8,6.2c1.2,1.4,2.5,5.4,2.4,3c0,0,0-23-1.6-28.2
	c-0.4-2.8,0.7-7.4,0.7-7.4c2,9.5,4,19.9,6,29.4v7l2.9,3c0.6-5.8,1.2-11.5,1.8-17.2l-2.2-20.6v-5.9c0-2.1,1.9-1.7,3.1,0.7
	c0.3,5,0.3,9,0.5,14c0.9,5.7,1.5,9.9,1.9,17.2C499.2,274,499.5,288.1,500.7,287.9L500.7,287.9z"/>
</svg>
