<svg id="Layer_1" data-name="Layer 1" xmlns="http://www.w3.org/2000/svg" xmlns:xlink="http://www.w3.org/1999/xlink" viewBox="0 0 1500 1000"><defs><style>.cls-1{fill:none;}.cls-2{fill:#0067c6;}.cls-3{fill:#fff;}.cls-4{fill:#c8a400;}.cls-5{clip-path:url(#clip-path);}.cls-10,.cls-11,.cls-12,.cls-13,.cls-14,.cls-15,.cls-16,.cls-17,.cls-18,.cls-19,.cls-20,.cls-21,.cls-22,.cls-23,.cls-24,.cls-25,.cls-26,.cls-27,.cls-28,.cls-29,.cls-30,.cls-31,.cls-32,.cls-33,.cls-34,.cls-35,.cls-36,.cls-37,.cls-38,.cls-6,.cls-7,.cls-8,.cls-9{fill:#17c0eb;stroke:#17c0eb;opacity:0.62;isolation:isolate;}.cls-6{stroke-width:0.13px;}.cls-7{stroke-width:0.13px;}.cls-8{stroke-width:0.13px;}.cls-9{stroke-width:0.13px;}.cls-10{stroke-width:0.13px;}.cls-11{stroke-width:0.13px;}.cls-12{stroke-width:0.13px;}.cls-13{stroke-width:0.13px;}.cls-14{stroke-width:0.13px;}.cls-15{stroke-width:0.13px;}.cls-16{stroke-width:0.13px;}.cls-17{stroke-width:0.13px;}.cls-18,.cls-19{stroke-width:0.13px;}.cls-20{stroke-width:0.13px;}.cls-21{stroke-width:0.13px;}.cls-22{stroke-width:0.13px;}.cls-23{stroke-width:0.13px;}.cls-24{stroke-width:0.13px;}.cls-25{stroke-width:0.13px;}.cls-26{stroke-width:0.13px;}.cls-27{stroke-width:0.13px;}.cls-28{stroke-width:0.13px;}.cls-29{stroke-width:0.13px;}.cls-30{stroke-width:0.13px;}.cls-31{stroke-width:0.13px;}.cls-32{stroke-width:0.13px;}.cls-33{stroke-width:0.13px;}.cls-34{stroke-width:0.13px;}.cls-35{stroke-width:0.13px;}.cls-36{stroke-width:0.13px;}.cls-37{stroke-width:0.13px;}.cls-38{stroke-width:0.13px;}.cls-39{fill:red;}.cls-40{fill:#f60;}.cls-41{fill:#ff0;}.cls-42{fill:lime;}.cls-43{fill:#0cf;}.cls-44{fill:blue;}.cls-45{fill:purple;}.cls-46{fill:#510000;}.cls-47{fill:url(#linear-gradient);}.cls-48{fill:#ff2a2a;}.cls-49{fill:url(#linear-gradient-2);}.cls-50{fill:#910000;}.cls-51{fill:#ff3a3a;}.cls-52{fill:url(#linear-gradient-3);}.cls-53{fill:url(#linear-gradient-4);}.cls-54{fill:url(#linear-gradient-5);}.cls-55{fill:url(#linear-gradient-6);}.cls-56{fill:url(#linear-gradient-7);}.cls-57{fill:url(#linear-gradient-8);}.cls-58{fill:url(#linear-gradient-9);}.cls-59{fill:url(#linear-gradient-10);}.cls-60{fill:url(#linear-gradient-11);}.cls-61{fill:url(#linear-gradient-12);}.cls-62{fill:url(#linear-gradient-13);}.cls-63{fill:#97c924;}.cls-64{fill:#ede71f;}.cls-65{fill:#c6cb24;}.cls-66{fill:#9ecb34;}.cls-67{fill:url(#linear-gradient-14);}.cls-68{fill:url(#linear-gradient-15);}.cls-69{fill:url(#linear-gradient-16);}.cls-70{fill:#93bc30;}.cls-71{fill:#ccd11e;}.cls-72{fill:url(#linear-gradient-17);}.cls-73{fill:url(#linear-gradient-18);}.cls-74{fill:url(#linear-gradient-19);}.cls-75{fill:url(#linear-gradient-20);}.cls-76{fill:url(#linear-gradient-21);}.cls-77{fill:url(#linear-gradient-22);}.cls-78{fill:url(#linear-gradient-23);}.cls-79{fill:url(#linear-gradient-24);}.cls-80{fill:url(#linear-gradient-25);}.cls-81{fill:url(#linear-gradient-26);}.cls-82{fill:url(#linear-gradient-27);}</style><clipPath id="clip-path"><polygon class="cls-1" points="750 371.57 638.88 564.03 861.12 564.03 750 371.57"/></clipPath><linearGradient id="linear-gradient" x1="749.06" y1="10918.78" x2="752.35" y2="10928.61" gradientTransform="matrix(1, 0, 0, -1, 0, 11400.11)" gradientUnits="userSpaceOnUse"><stop offset="0" stop-color="#510000"/><stop offset="0.3" stop-color="#8a0000"/><stop offset="1" stop-color="#a00"/></linearGradient><linearGradient id="linear-gradient-2" x1="748.9" y1="10916.53" x2="751.48" y2="10923.37" gradientTransform="matrix(1, 0, 0, -1, 0, 11400.11)" gradientUnits="userSpaceOnUse"><stop offset="0" stop-color="#ff2a2a"/><stop offset="1" stop-color="red"/></linearGradient><linearGradient id="linear-gradient-3" x1="653.2" y1="10861.69" x2="984.46" y2="10861.69" gradientTransform="matrix(1, 0, 0, -1, 0, 11400.11)" gradientUnits="userSpaceOnUse"><stop offset="0" stop-color="#025"/><stop offset="0.5" stop-color="#04a"/><stop offset="1" stop-color="#025"/></linearGradient><linearGradient id="linear-gradient-4" x1="653.2" y1="10862.52" x2="984.46" y2="10862.52" gradientTransform="matrix(1, 0, 0, -1, 0, 11399)" xlink:href="#linear-gradient-3"/><linearGradient id="linear-gradient-5" x1="653.2" y1="10863.35" x2="984.46" y2="10863.35" gradientTransform="matrix(1, 0, 0, -1, 0, 11397.88)" xlink:href="#linear-gradient-3"/><linearGradient id="linear-gradient-6" x1="653.2" y1="10864.18" x2="984.46" y2="10864.18" gradientTransform="matrix(1, 0, 0, -1, 0, 11396.77)" xlink:href="#linear-gradient-3"/><linearGradient id="linear-gradient-7" x1="653.2" y1="10865.01" x2="984.46" y2="10865.01" gradientTransform="matrix(1, 0, 0, -1, 0, 11395.65)" xlink:href="#linear-gradient-3"/><linearGradient id="linear-gradient-8" x1="653.2" y1="10865.84" x2="984.46" y2="10865.84" gradientTransform="matrix(1, 0, 0, -1, 0, 11394.54)" xlink:href="#linear-gradient-3"/><linearGradient id="linear-gradient-9" x1="653.2" y1="10866.67" x2="984.46" y2="10866.67" gradientTransform="matrix(1, 0, 0, -1, 0, 11393.42)" xlink:href="#linear-gradient-3"/><linearGradient id="linear-gradient-10" x1="653.2" y1="10867.5" x2="984.46" y2="10867.5" gradientTransform="matrix(1, 0, 0, -1, 0, 11392.31)" xlink:href="#linear-gradient-3"/><linearGradient id="linear-gradient-11" x1="653.2" y1="10868.33" x2="984.46" y2="10868.33" gradientTransform="matrix(1, 0, 0, -1, 0, 11391.19)" xlink:href="#linear-gradient-3"/><linearGradient id="linear-gradient-12" x1="653.2" y1="10882.63" x2="984.46" y2="10882.63" xlink:href="#linear-gradient-3"/><linearGradient id="linear-gradient-13" x1="799.67" y1="10879.69" x2="799.67" y2="10869.33" gradientTransform="matrix(1, 0, 0, -1, 0, 11400.11)" gradientUnits="userSpaceOnUse"><stop offset="0" stop-color="#f5f549"/><stop offset="1" stop-color="#97c924"/></linearGradient><linearGradient id="linear-gradient-14" x1="788.25" y1="10879.69" x2="788.25" y2="10869.33" gradientTransform="matrix(1, 0, 0, -1, -15.34, 11400.11)" xlink:href="#linear-gradient-13"/><linearGradient id="linear-gradient-15" x1="749.96" y1="10879.69" x2="749.96" y2="10869.33" xlink:href="#linear-gradient-13"/><linearGradient id="linear-gradient-16" x1="716.37" y1="10879.69" x2="716.37" y2="10869.33" xlink:href="#linear-gradient-13"/><linearGradient id="linear-gradient-17" x1="704.89" y1="10879.69" x2="704.89" y2="10869.33" gradientTransform="matrix(1, 0, 0, -1, -15.43, 11400.11)" xlink:href="#linear-gradient-13"/><linearGradient id="linear-gradient-18" x1="4912.15" y1="6985.55" x2="4913.89" y2="6985.55" gradientTransform="matrix(116.2, 0, 0, -5.85, -570129.73, 41404.32)" xlink:href="#linear-gradient-3"/><linearGradient id="linear-gradient-19" x1="4915.52" y1="9440.32" x2="4917.26" y2="9440.32" gradientTransform="matrix(126.73, 0, 0, -1.52, -622284.31, 14929.85)" xlink:href="#linear-gradient-3"/><linearGradient id="linear-gradient-20" x1="4915.52" y1="9440.95" x2="4917.26" y2="9440.95" gradientTransform="matrix(126.73, 0, 0, -1.52, -622284.31, 14928.56)" xlink:href="#linear-gradient-3"/><linearGradient id="linear-gradient-21" x1="4915.52" y1="9441.58" x2="4917.26" y2="9441.58" gradientTransform="matrix(126.73, 0, 0, -1.52, -622284.31, 14927.27)" xlink:href="#linear-gradient-3"/><linearGradient id="linear-gradient-22" x1="4915.52" y1="9442.22" x2="4917.26" y2="9442.22" gradientTransform="matrix(126.73, 0, 0, -1.52, -622284.31, 14925.98)" xlink:href="#linear-gradient-3"/><linearGradient id="linear-gradient-23" x1="4915.52" y1="9442.85" x2="4917.26" y2="9442.85" gradientTransform="matrix(126.73, 0, 0, -1.52, -622284.31, 14924.69)" xlink:href="#linear-gradient-3"/><linearGradient id="linear-gradient-24" x1="4915.52" y1="9443.48" x2="4917.26" y2="9443.48" gradientTransform="matrix(126.73, 0, 0, -1.52, -622284.31, 14923.41)" xlink:href="#linear-gradient-3"/><linearGradient id="linear-gradient-25" x1="4915.52" y1="9444.1" x2="4917.26" y2="9444.1" gradientTransform="matrix(126.73, 0, 0, -1.52, -622284.31, 14922.12)" xlink:href="#linear-gradient-3"/><linearGradient id="linear-gradient-26" x1="4915.52" y1="9444.74" x2="4917.26" y2="9444.74" gradientTransform="matrix(126.73, 0, 0, -1.52, -622284.31, 14920.83)" xlink:href="#linear-gradient-3"/><linearGradient id="linear-gradient-27" x1="4915.52" y1="9445.36" x2="4917.26" y2="9445.36" gradientTransform="matrix(126.73, 0, 0, -1.52, -622284.31, 14919.54)" xlink:href="#linear-gradient-3"/></defs><path class="cls-2" d="M0,0H1500V1000H0Z"/><path class="cls-3" d="M0,333.33H1500V666.67H0Z"/><path class="cls-4" d="M593,498.83l17.4,1.16.18-2.54-6.85-.46c.17-2.79.41-5.59.53-8.39,2.42-1.75,4.85-3.5,7.26-5.26l.21-3.22-7.65,5.55a5.14,5.14,0,0,0-3.08-4.3,5,5,0,0,0-4.92.46c-1.75,1.29-2.07,3.59-2.3,5.6-.3,3.79-.51,7.6-.78,11.4Zm2.65-2.38c.21-2.85.34-5.72.61-8.57.22-1.41.47-3,1.71-3.93A2.22,2.22,0,0,1,601.2,485c.91,2.17.5,4.57.39,6.85l-.33,5-5.6-.38Zm-.39-24.35,17,4,3.86-16.54-2.41-.56L610.42,473l-5.17-1.2,3-12.68-2.4-.56-3,12.68-4.57-1.07,3.16-13.54-2.43-.57-3.74,16Zm6.12-22.81L617.87,455l.84-2.41-6.48-2.25c.84-2.49,1.77-5,2.55-7.47.55-2.06,1-4.46-.22-6.37a4.94,4.94,0,0,0-8.74.84,57.09,57.09,0,0,0-2.85,7.4l-1.58,4.53Zm3.19-1.59c.88-2.47,1.67-5,2.63-7.42.59-1.31,1.32-2.86,2.82-3.27a2.21,2.21,0,0,1,2.64,1.93c.3,2.33-.72,4.53-1.43,6.69l-1.36,3.91Zm5.91-19.51c3.11,1.8,6.19,3.65,9.31,5.42,1.77.95,4,1.49,5.84.43,2.51-1.39,4.09-4,5.32-6.47,1-2.11,1.68-4.73.44-6.89s-3.76-3.14-5.83-4.43l-6-3.53-1.28,2.19c3,1.74,5.93,3.45,8.87,5.21a4.36,4.36,0,0,1,2.33,4.13,12.94,12.94,0,0,1-2.62,5.52,4.45,4.45,0,0,1-4.31,2.07c-1.79-.35-3.25-1.52-4.83-2.37L611.77,426l-1.28,2.19Zm12.57-20.53,13.85,10.6c2.15-2.81,4.29-5.62,6.46-8.42,1.24-1.78,2.38-4.1,1.54-6.28a5.35,5.35,0,0,0-4.48-3.18,4.45,4.45,0,0,0-2.46.83c.49-1.86-1-3.61-2.75-4.1-2.06-.74-4.15.59-5.51,2.05-1.61,1.75-3,3.72-4.42,5.58l-2.23,2.92Zm3.51-.52c1.62-2.08,3.16-4.23,4.86-6.24.79-.88,2.05-1.88,3.28-1.23a2.1,2.1,0,0,1,.86,2.91,32.2,32.2,0,0,1-3.41,4.89l-1.9,2.49-3.69-2.82Zm5.65,4.32c1.68-2.15,3.26-4.39,5-6.46.9-.95,2-2.15,3.48-1.87a2.28,2.28,0,0,1,1.7,2.85c-.69,2.28-2.4,4-3.78,5.92l-2.16,2.83-4.28-3.27Zm6.54-22.31,12,12.68L661,392.14l-1.7-1.8-8.21,7.75-.2.2-.16-.16-10.12-10.72Zm15.36-13.43,10.63,13.83,2.08-1.6L656.2,374.12Zm15.62-10.61a14.75,14.75,0,0,0-4.18,3.79,8.38,8.38,0,0,0-1.72,4.58,7.81,7.81,0,0,0,1.27,4.63,9.12,9.12,0,0,0,3.45,3.22,7.77,7.77,0,0,0,4.67.86,14.1,14.1,0,0,0,5.7-2.25,11.75,11.75,0,0,0,4.36-4.41,7.49,7.49,0,0,0,.73-5.14l-2.41.95c.63,3.48-1.62,5.16-4.14,6.76-3.94,2.39-7.78,2.22-10.13-1.38-2.44-4.06.23-7.42,3.58-9.6,2.38-1.48,4.72-2.49,7-1.07l1.88-1.69a7,7,0,0,0-4.45-1.22,11.85,11.85,0,0,0-5.57,2Zm20.62-10.29-1.83,19.55,2.72-1.1.55-6.06h0l8.82-3.56,4.6,4,2.72-1.09-14.88-12.81-2.71,1.09Zm2.38,2,5.8,5-6.49,2.62.69-7.65ZM728.59,344l1.09,17.41c3.15-.21,6.3-.36,9.44-.62,2.48-.29,5.13-.93,6.82-2.9,2.18-2.42,2.49-6,1.54-9.05a7.71,7.71,0,0,0-5.89-5.17c-2.66-.51-5.37-.1-8.05,0l-4.95.31Zm2.69,2.31c2.5-.13,5-.37,7.51-.39a6.34,6.34,0,0,1,4,1.23,6,6,0,0,1,2.55,5.45,5.87,5.87,0,0,1-4.27,5.26,28.75,28.75,0,0,1-4.13.6l-4.88.31-.78-12.45ZM752.9,343l-1,17.41,17,1,.14-2.47-14.42-.83.3-5.3,13,.74.14-2.46-13-.74.27-4.69,13.88.79.14-2.48L752.9,343Zm45.55,7.26-6.31,16.27,2.24.87,5-12.9.26-.67.28.75,6,17.3,2.94,1.14,6.3-16.26-2.25-.88-5,12.89-.26.66-.27-.74-6-17.29Zm23.43,10.07L814,375.88l-2.33-1.19,7.93-15.54ZM835,368.05a14.64,14.64,0,0,0-5.2-2.22,8.38,8.38,0,0,0-4.87.34,7.88,7.88,0,0,0-3.68,3.1,9,9,0,0,0-1.49,4.47,7.85,7.85,0,0,0,1.17,4.6,14.17,14.17,0,0,0,4.43,4.25,11.67,11.67,0,0,0,5.82,2.12,7.51,7.51,0,0,0,5-1.48l-1.86-1.8c-2.91,2-5.37.68-7.87-.94-3.82-2.58-5.27-6.14-3-9.78,2.67-3.91,6.83-2.89,10.21-.75,2.34,1.54,4.24,3.25,3.88,5.87l2.32,1a7,7,0,0,0-.75-4.55,11.86,11.86,0,0,0-4.11-4.24Zm16.61,12.53-18.24,7.27,2.22,1.92,5.64-2.27h0l7.18,6.24-1.45,5.9,2.21,1.92,4.64-19.07-2.21-1.92Zm-.7,3-1.83,7.45-5.29-4.59,7.12-2.86Zm13.87,9.09-13.46,11.1,1.62,2,5.3-4.36c1.79,2.15,3.54,4.34,5.37,6.46-.56,2.94-1.12,5.87-1.67,8.81l2.06,2.5,1.75-9.3a5.09,5.09,0,0,0,5.51.88,4.87,4.87,0,0,0,3-3.94c.18-2.41-1.53-4.35-2.9-6.14Zm-.29,3.55c1.88,2.32,3.86,4.58,5.66,7,.83,1.23,1.86,3,.91,4.41-.78,1.23-2.5,1.12-3.56.33-2.13-1.44-3.54-3.65-5.21-5.56l-2.14-2.59,4.34-3.56Zm20.7,24.21-19.61.9,1.46,2.54,6.08-.3h0l4.75,8.25L874.6,437l1.46,2.54L886.69,423l-1.46-2.54Zm-1.66,2.64-4.16,6.44-3.5-6.07,7.66-.37Zm12.85,20.45c-1.09-3-2.81-6-5.72-7.47a8.22,8.22,0,0,0-9.85,2c-2,2.38-2.1,5.73-1.57,8.64a18.56,18.56,0,0,0,4.47,9l-1.3.47.84,2.32,8.17-2.94-3.18-8.82-1.89.68,2.34,6.5L886,455a15.27,15.27,0,0,1-4.51-8.29c-.53-2.31-.55-5.09,1.21-6.9a6.27,6.27,0,0,1,8-1,12.64,12.64,0,0,1,4.41,7.38c.47,1.85.39,4-1,5.49-.39.29.23.7.33,1.05l.67,1.11A6.15,6.15,0,0,0,897.4,449a15.09,15.09,0,0,0-1-5.44Zm5,13.62-9.76,1.9a8.86,8.86,0,0,0-4.07,1.69,5.44,5.44,0,0,0-1.76,3.26,14,14,0,0,0,.17,5.25.11.11,0,0,1,0,.05,13.89,13.89,0,0,0,1.81,4.93,5.46,5.46,0,0,0,2.86,2.37,9,9,0,0,0,4.41,0l9.75-1.9-.48-2.49-9.52,1.85c-4.28.83-5.72-1.41-6.45-5.26v-.05c-.76-3.84-.27-6.47,4-7.3l9.52-1.85-.48-2.49Zm5.35,29.69-18-7.72.21,2.92,5.6,2.38h0l.69,9.49L890,497.1l.21,2.92L907,489.78l-.21-2.92Zm-2.64,1.66-6.55,4-.51-7,7.06,3ZM606.53,532l-2.53.67,2.8,10.63,2.53-.67Zm287,0,2.53.67-2.8,10.63-2.52-.67Zm-260,44.75L614,579l1.64,2.43,6-.71h0l5.31,7.9-3,5.32,1.64,2.43,9.47-17.19ZM632,579.48l-3.72,6.71-3.9-5.81Zm8.93,7.91L628.54,599l1.66,1.77,10.48-9.8-5.5,15.13,1.9,2,15-4.56-10.29,9.62,1.66,1.78,12.43-11.63-2.52-2.69-15.27,4.56,5.72-14.78Zm18.11,18.47L648.59,619.8,662.15,630l1.49-2-11.54-8.69,3.2-4.24,10.39,7.83,1.49-2-10.4-7.83,2.83-3.75,11.1,8.36,1.5-2-13.13-9.89Zm17.07,12.49-8.22,15.4c.75.4,1.5.79,2.25,1.2l3.23-6.06c2.48,1.31,4.93,2.67,7.43,3.93q.9,4.39,1.81,8.79l2.85,1.52-1.91-9.27a5.07,5.07,0,0,0,5.43-1.29,4.87,4.87,0,0,0,1.31-4.6c-.61-2.27-2.85-3.46-4.74-4.57-3.14-1.69-6.3-3.36-9.44-5Zm1.07,3.4c2.63,1.43,5.32,2.76,7.9,4.29,1.19.81,2.71,1.91,2.56,3.53a2.38,2.38,0,0,1-3,1.89c-2.55-.42-4.7-1.94-7-3.07l-3.17-1.69,2.64-5Zm18.63,6.91-6.59,16.15,2.42,1,6.59-16.15Zm15.73,5.43a14.57,14.57,0,0,0-5.59-.79,8.38,8.38,0,0,0-4.62,1.59,7.89,7.89,0,0,0-2.75,4,9,9,0,0,0-.27,4.71,7.74,7.74,0,0,0,2.32,4.13,14,14,0,0,0,5.37,3,11.73,11.73,0,0,0,6.18.54,7.52,7.52,0,0,0,4.42-2.72l-2.27-1.25c-2.28,2.71-5,2-7.84,1.13-4.36-1.5-6.68-4.56-5.42-8.67,1.57-4.47,5.85-4.56,9.67-3.38,2.66.89,4.94,2,5.27,4.67l2.5.37a6.93,6.93,0,0,0-1.9-4.2,11.85,11.85,0,0,0-5.07-3ZM729.12,638l-11.41,16,2.9.41,3.52-5h0l9.42,1.37,2,5.75,2.9.42L732,638.44Zm1,2.93,2.49,7.25-6.93-1,4.44-6.25ZM770,638.14a14.73,14.73,0,0,0-5.27,2.05,8.45,8.45,0,0,0-3.25,3.65,7.84,7.84,0,0,0-.46,4.78,9,9,0,0,0,2.06,4.24,7.85,7.85,0,0,0,4,2.48,14.23,14.23,0,0,0,6.13-.06,11.78,11.78,0,0,0,5.65-2.55,7.47,7.47,0,0,0,2.52-4.54h-2.59c-.66,3.49-3.35,4.24-6.28,4.84-4.54.82-8.06-.72-9-4.92-.83-4.67,2.86-6.84,6.77-7.68,2.76-.53,5.31-.64,6.88,1.49l2.37-.89a6.88,6.88,0,0,0-3.72-2.74,11.92,11.92,0,0,0-5.9-.16Zm11.65-2.06,5,16.72L802.89,648l-.7-2.38-13.85,4.11-1.51-5.09,12.48-3.7-.7-2.36-12.48,3.7-1.33-4.5,13.32-4-.71-2.39Zm18.87-5.93L807.85,646l2.18-1-6.1-13.21c5.64,2.56,11.26,5.2,16.89,7.79.37.33.75.11,1.13-.09l2.19-1-7.32-15.83-2.19,1,6.1,13.19c-5.8-2.63-11.56-5.33-17.35-8l-2.85,1.32Zm19.15-9,1.37,2.08,6.23-4.1.24-.16.11.18,8.11,12.31,2.12-1.39-8.11-12.32-.12-.17.24-.16,6.27-4.12-1.37-2.08Zm17.55-12L849.06,622l1.87-1.73-4.65-5c2.05-1.91,4.14-3.77,6.16-5.72,3,.4,5.92.8,8.89,1.18l2.37-2.19-9.37-1.24a5.06,5.06,0,0,0,.57-5.55,4.86,4.86,0,0,0-4.1-2.78c-2.41,0-4.26,1.77-6,3.24l-7.6,7Zm3.56.1c2.22-2,4.36-4.11,6.66-6,1.18-.9,2.86-2,4.35-1.16a2.47,2.47,0,0,1,.52,3.54c-1.32,2.21-3.45,3.74-5.27,5.51l-2.46,2.27Zm16.74-20.41,7.8,18,1.86-2.26L864.75,599h0l6-7.36,6,1.28,1.86-2.27-19.21-4.08-1.85,2.27Zm3.05.61,7.5,1.61-4.43,5.42-3.07-7Zm4.54-10.49,14.64,9.49,7.68-11.85-2.08-1.34-6.14,9.47-.16.24-.18-.12-12.38-8Z"/><g class="cls-5"><path class="cls-3" d="M750,371.63l-54.91,95.13-26.9,46.58H831.81l-25.67-44.46L750,371.63Z"/><g id="d"><g id="c"><path class="cls-6" d="M750,371.63l-4.11,7.12,4.11,95.9,4.11-95.9Z"/><path class="cls-3" d="M750,460.71h-.23l.23,5.43.24-5.43Z"/></g><g id="c-2" data-name="c"><path class="cls-7" d="M848,442.81l-8-1.71L750,474.65l92.48-25.73Z"/><path class="cls-3" d="M763.26,470.34l-.08-.22-5.09,1.9,5.24-1.45Z"/></g><g id="c-3" data-name="c"><path class="cls-8" d="M810.56,558l-.86-8.17L750,474.65l53,80Z"/><path class="cls-3" d="M758.2,485.93l.18-.14L755,481.53l3,4.53Z"/></g><g id="c-4" data-name="c"><path class="cls-8" d="M689.45,558l7.51-3.34,53-80-59.69,75.17Z"/><path class="cls-3" d="M741.81,485.93l.19.13,3-4.53-3.38,4.26Z"/></g><g id="c-5" data-name="c"><path class="cls-7" d="M652,442.81l5.51,6.11L750,474.65,660.07,441.1Z"/><path class="cls-3" d="M736.74,470.34l-.06.23,5.23,1.45-5.09-1.9Z"/></g></g><g id="d-2" data-name="d"><g id="c-6" data-name="c"><path class="cls-9" d="M764.34,372.63l-5.06,6.48L750,474.65l17.42-94.39Z"/><path class="cls-3" d="M751.94,460.84l-.23,0-.52,5.4,1-5.34Z"/></g><g id="c-7" data-name="c"><path class="cls-10" d="M851.46,456.76,843.73,454,750,474.65l95.16-12.6Z"/><path class="cls-3" d="M763.73,472.23l0-.23-5.31,1.17,5.39-.71Z"/></g><g id="c-8" data-name="c"><path class="cls-11" d="M798.37,565.61l.28-8.22L750,474.65l41.39,86.6Z"/><path class="cls-3" d="M756.55,487l.2-.12L754,482.16l2.34,4.9Z"/></g><g id="c-9" data-name="c"><path class="cls-12" d="M678.44,548.76l7.9-2.27L750,474.65l-69.57,66.13Z"/><path class="cls-3" d="M740.32,484.68l.17.16,3.6-4.07-3.94,3.74Z"/></g><g id="c-10" data-name="c"><path class="cls-10" d="M657.41,429.49l4.6,6.82,88,38.34-84.39-45.74Z"/><path class="cls-3" d="M737.47,468.54l-.1.21,5,2.17-4.77-2.59Z"/></g></g><g id="d-3" data-name="d"><g id="c-11" data-name="c"><path class="cls-13" d="M778.4,375.62l-5.92,5.71L750,474.65l30.39-91Z"/><path class="cls-3" d="M753.84,461.25l-.22-.06-1.27,5.28,1.72-5.15Z"/></g><g id="c-12" data-name="c"><path class="cls-14" d="M853,471.05l-7.26-3.86L750,474.65l96,.76Z"/><path class="cls-3" d="M763.93,474.16v-.23l-5.41.42,5.43,0Z"/></g><g id="c-13" data-name="c"><path class="cls-15" d="M785.24,571.46l1.42-8.1L750,474.65l28.94,91.52Z"/><path class="cls-3" d="M754.77,487.75l.22-.09-2.08-5,1.64,5.17Z"/></g><g id="c-14" data-name="c"><path class="cls-15" d="M668.82,538.07l8.14-1.14,73-62.28-78.1,55.8Z"/><path class="cls-3" d="M739,483.23l.14.18,4.14-3.52L738.88,483Z"/></g><g id="c-15" data-name="c"><path class="cls-14" d="M664.59,417l3.61,7.39L750,474.65l-77.2-57Z"/><path class="cls-3" d="M738.44,466.85l-.12.2,4.63,2.84-4.37-3.23Z"/></g></g><g id="d-4" data-name="d"><g id="c-16" data-name="c"><path class="cls-16" d="M791.9,380.54l-6.65,4.83L750,474.65l42.76-85.94Z"/><path class="cls-3" d="M755.67,461.91l-.21-.09-2,5.06,2.42-4.87Z"/></g><g id="c-17" data-name="c"><path class="cls-17" d="M852.46,485.42l-6.65-4.84L750,474.65l95,14.11Z"/><path class="cls-3" d="M763.87,476.11l0-.24-5.43-.33,5.38.8Z"/></g><g id="c-18" data-name="c"><path class="cls-18" d="M771.42,575.42,774,567.6l-24-93,15.92,94.66Z"/><path class="cls-3" d="M752.9,488.29l.23-.06L751.77,483l.9,5.36Z"/></g><g id="c-19" data-name="c"><path class="cls-19" d="M660.78,526.16H669l81-51.51L664.89,519Z"/><path class="cls-3" d="M737.93,481.62l.12.2,4.58-2.92-4.81,2.51Z"/></g><g id="c-20" data-name="c"><path class="cls-20" d="M673.44,405.72l2.54,7.82,74,61.11-68.51-67.23Z"/><path class="cls-3" d="M739.64,465.32l-.15.18,4.19,3.46-3.88-3.81Z"/></g></g><g id="d-5" data-name="d"><g id="c-21" data-name="c"><path class="cls-21" d="M804.59,387.28l-7.26,3.86L750,474.65l54.31-79.15Z"/><path class="cls-3" d="M757.39,462.83l-.2-.12-2.68,4.72,3.07-4.47Z"/></g><g id="c-22" data-name="c"><path class="cls-22" d="M850,499.57l-5.91-5.71-94-19.21,92.06,27.19Z"/><path class="cls-3" d="M763.53,478l.05-.23-5.32-1.08,5.21,1.54Z"/></g><g id="c-23" data-name="c"><path class="cls-23" d="M757.19,577.42l3.6-7.39L750,474.65l2.59,96Z"/><path class="cls-3" d="M751,488.56l.24,0-.61-5.39.14,5.43Z"/></g><g id="c-24" data-name="c"><path class="cls-23" d="M654.48,513.24l8.15,1.15L750,474.65l-90.46,32.11Z"/><path class="cls-3" d="M737.08,479.87l.09.22,4.94-2.25L737,479.65Z"/></g><g id="c-25" data-name="c"><path class="cls-22" d="M683.78,395.73l1.43,8.1L750,474.65l-58.49-76.11Z"/><path class="cls-3" d="M741,464l-.18.15,3.67,4-3.31-4.31Z"/></g></g><g id="d-6" data-name="d"><g id="c-26" data-name="c"><path class="cls-24" d="M816.22,395.73l-7.72,2.81L750,474.65l64.79-70.82Z"/><path class="cls-3" d="M759,464l-.18-.15-3.31,4.31,3.67-4Z"/></g><g id="c-27" data-name="c"><path class="cls-25" d="M845.52,513.24l-5.06-6.48L750,474.65l87.38,39.74Z"/><path class="cls-3" d="M762.93,479.87l.08-.22-5.12-1.81,5,2.25Z"/></g><g id="c-28" data-name="c"><path class="cls-26" d="M742.82,577.42l4.59-6.82,2.59-96L739.21,570Z"/><path class="cls-3" d="M749,488.56h.23l.15-5.43-.61,5.39Z"/></g><g id="c-29" data-name="c"><path class="cls-26" d="M650,499.57l7.91,2.27,92-27.19-94,19.21Z"/><path class="cls-3" d="M736.48,478l.06.23,5.21-1.54-5.33,1.08Z"/></g><g id="c-30" data-name="c"><path class="cls-25" d="M695.41,387.28l.29,8.22L750,474.65l-47.33-83.51Z"/><path class="cls-3" d="M742.61,462.83l-.19.13,3.07,4.47-2.67-4.72Z"/></g></g><g id="d-7" data-name="d"><g id="c-31" data-name="c"><path class="cls-27" d="M826.56,405.72l-8,1.7L750,474.65l74-61.11Z"/><path class="cls-3" d="M760.36,465.32l-.16-.17L756.33,469l4.18-3.46Z"/></g><g id="c-32" data-name="c"><path class="cls-28" d="M839.22,526.16,835.11,519,750,474.65l81,51.51Z"/><path class="cls-3" d="M762.07,481.62l.12-.21-4.82-2.51,4.58,2.92Z"/></g><g id="c-33" data-name="c"><path class="cls-29" d="M728.58,575.42l5.5-6.11L750,474.65l-24,93Z"/><path class="cls-3" d="M747.1,488.29l.23,0,.9-5.36-1.35,5.26Z"/></g><g id="c-34" data-name="c"><path class="cls-29" d="M647.55,485.42l7.51,3.34L750,474.65l-95.8,5.93Z"/><path class="cls-3" d="M736.14,476.11l0,.23,5.37-.8-5.42.33Z"/></g><g id="c-35" data-name="c"><path class="cls-28" d="M708.1,380.54l-.86,8.17L750,474.65l-35.25-89.28Z"/><path class="cls-3" d="M744.33,461.91l-.21.1,2.42,4.87-2-5.06Z"/></g></g><g id="d-8" data-name="d"><g id="c-36" data-name="c"><path class="cls-30" d="M835.41,417l-8.2.57-77.21,57,81.81-50.22Z"/><path class="cls-3" d="M761.56,466.85l-.14-.19-4.36,3.23,4.63-2.84Z"/></g><g id="c-37" data-name="c"><path class="cls-31" d="M831.18,538.07l-3.08-7.62L750,474.65l73,62.28Z"/><path class="cls-3" d="M761,483.23l.14-.19-4.42-3.15,4.13,3.52Z"/></g><g id="c-38" data-name="c"><path class="cls-32" d="M714.77,571.46l6.3-5.29L750,474.65l-36.66,88.71Z"/><path class="cls-3" d="M745.23,487.75l.23.07,1.63-5.17-2.07,5Z"/></g><g id="c-39" data-name="c"><path class="cls-33" d="M647,471.05l7,4.36,96-.76-95.7-7.46Z"/><path class="cls-3" d="M736.07,474.16v.24l5.43,0-5.42-.42Z"/></g><g id="c-40" data-name="c"><path class="cls-34" d="M721.61,375.62l-2,8,30.38,91-22.48-93.32Z"/><path class="cls-3" d="M746.16,461.25l-.22.07,1.72,5.15-1.27-5.28Z"/></g></g><g id="d-9" data-name="d"><g id="c-41" data-name="c"><path class="cls-35" d="M842.6,429.49l-8.21-.58L750,474.65l88-38.35Z"/><path class="cls-3" d="M762.53,468.54l-.11-.21-4.77,2.59,5-2.17Z"/></g><g id="c-42" data-name="c"><path class="cls-36" d="M821.57,548.76l-2-8L750,474.65l63.66,71.84Z"/><path class="cls-3" d="M759.69,484.68l.16-.17-3.94-3.74,3.6,4.07Z"/></g><g id="c-43" data-name="c"><path class="cls-37" d="M701.64,565.61l7-4.36L750,474.65l-48.65,82.74Z"/><path class="cls-3" d="M743.46,487l.21.1,2.34-4.9-2.76,4.68Z"/></g><g id="c-44" data-name="c"><path class="cls-37" d="M648.55,456.76l6.3,5.29L750,474.65,656.27,454Z"/><path class="cls-3" d="M736.27,472.23l0,.23,5.38.71-5.3-1.17Z"/></g><g id="c-45" data-name="c"><path class="cls-38" d="M735.66,372.63l-3.08,7.63L750,474.65l-9.27-95.54Z"/><path class="cls-3" d="M748.06,460.84l-.23,0,1,5.34-.53-5.4Z"/></g></g><path class="cls-39" d="M750,440.42a77.14,77.14,0,0,0-50.53,18.75L673.9,503.49a78.05,78.05,0,0,0-1.31,14.39h8.78a68.63,68.63,0,0,1,137.26,0h8.78a78.36,78.36,0,0,0-1.31-14.39l-25.57-44.32A77.2,77.2,0,0,0,750,440.42Z"/><path class="cls-40" d="M750,441.84a75.81,75.81,0,0,0-52.82,21.36l-21,36.36A76.49,76.49,0,0,0,674,517.88h7.41a68.63,68.63,0,0,1,137.26,0H826a76.69,76.69,0,0,0-2.23-18.37l-21-36.31A75.8,75.8,0,0,0,750,441.84Z"/><path class="cls-41" d="M750,443.25a74.4,74.4,0,0,0-55.71,25l-15.21,26.33a74.57,74.57,0,0,0-3.71,23.33h6a68.63,68.63,0,0,1,137.26,0h6a74.65,74.65,0,0,0-3.71-23.33l-15.21-26.33a74.42,74.42,0,0,0-55.71-25Z"/><path class="cls-42" d="M750,444.62a73.19,73.19,0,0,0-60.89,32.54l-4.91,8.5a73,73,0,0,0-7.46,32.22h4.63a68.63,68.63,0,0,1,137.26,0h4.63a73,73,0,0,0-7.46-32.16l-5-8.61A73.12,73.12,0,0,0,750,444.62Z"/><path class="cls-43" d="M750,446a71.85,71.85,0,0,0-71.85,71.85h3.22a68.63,68.63,0,0,1,137.26,0h3.22A71.85,71.85,0,0,0,750,446Z"/><path class="cls-44" d="M750,447.4a70.46,70.46,0,0,0-70.43,70.48h2.35a68.08,68.08,0,1,1,136.16,0h2.4A70.5,70.5,0,0,0,750,447.4Z"/><path class="cls-45" d="M750,448.82a69.05,69.05,0,0,0-69.06,69.05c0,.43,0,.86,0,1.28h1.39c0-.42,0-.85,0-1.28a67.66,67.66,0,1,1,135.32,0c0,.43,0,.86,0,1.28H819c0-.42,0-.85,0-1.28A69,69,0,0,0,750,448.82Z"/><path class="cls-46" d="M750.69,479.3c-1.12-.21-2.14-.84-3.1-1.06a3.83,3.83,0,0,0-1.27,3.63c.45.24.54.61,1.53,1.5s.86,1.34.81,3.42c0,.88.12,2.76,1,2.94s1.62-.61,1.9-2a8.25,8.25,0,0,1,1.21-3c.54-3.24-.33-4.38-2.09-5.44Z"/><path class="cls-39" d="M745.06,471.26c-1,0-2.67,1.77-3.39.83a2.46,2.46,0,0,1-.06-2.44,8.38,8.38,0,0,1,3.78-4.07c4.14-2.44,6.78-1.65,8.85,1.86,1.91,3.09,3.75,6.5,3.91,9.37.06.87.5,2.45-.27,3.24-2.35,2.42-8-2.5-11.33-1.72-1.12.26-2.4,1.07-3.45.38-.82-.54-.14-1.74.47-2.26,1.07-.91,2.62-4.13,2.41-5.52-.12-.78-.14.31-.92.33Z"/><path class="cls-47" d="M744.64,469.56c-1.89.77-1.69,1.87-2.63,2.77a2,2,0,0,0,2.37-.52,4.75,4.75,0,0,1,1.19-.64,13.36,13.36,0,0,0-1.2,1.2,9.05,9.05,0,0,0-2.33,3.22,8.19,8.19,0,0,0-.66,3.11,5,5,0,0,0,2.73,2.15c3.54,1.4,4.22,4.25,7.81,4.25,2.82,0,2.36-1.84,4.62-1.45,2,.34,3-1.22,1.11-2.15-2.4-.82-7.14-.34-9.38.06-.72-7.13-.09-4.63-.26-7.69s-1.09-3.24.13-5.72c-1,1.52-2.23,1.28-3.5,1.41Z"/><path class="cls-48" d="M751.64,464.76a4.09,4.09,0,0,0-.1,1c.15.59.3,1.21.48,1.74a12.69,12.69,0,0,1,.42,1.61c.15.63.7.88,1.21,1.26s.15,1.81.55,1.87.85-1.87.86-2.18A6.18,6.18,0,0,0,755,469c-.23-.51-.48-1-.74-1.52h0a5.3,5.3,0,0,0-.33-.57,7.34,7.34,0,0,0-1.38-1.51l-.09-.08c-.15-.11-.3-.23-.46-.33a3.54,3.54,0,0,0-.33-.19Z"/><path class="cls-49" d="M752.18,478c-1.25-.33-2.49-.95-3.55-1.27-2.1-.62-4.33-2-5.88-1.42-.55.25-.5.8-.68,1.59s-1,2.3-.23,1.85c1.19-.67,4.34,1.28,5.4,1.93a4.37,4.37,0,0,1,1.88,1.79,12.74,12.74,0,0,1,.07,4c-.09,1,.21,3.2,1.2,3.47s1.88-.57,2.3-2.15a9.92,9.92,0,0,1,1.32-3.34,3.25,3.25,0,0,1,2.3-1.51c1-.18,2.41.81,2.41-.35,0-.76-.67-1.49-.38-2.54.22-.82-.7-.66-1.47-1-1.81-.56-3.44-.74-4.69-1.06Z"/><path class="cls-50" d="M747.14,480.64c-.57-.31-4-2.58-5.3-1.87-.4.23-.56,0-.56-.45a6.39,6.39,0,0,1,.32-1.51,3.7,3.7,0,0,1,.9-1.85c1.2-1,4,1,5.42,1.55-.12.76-.82,4.11-.78,4.13Z"/><path class="cls-51" d="M753.08,484.93c1.59-2.8,2.63-2.44,4.55-2.4.65,0,.84-.57.69-1.16-.49,1.09-2.9-.12-4.21.46-2.75,1.21-2.24,6.58-3.54,7.1,1.35,1.13,2-3.05,2.51-4Z"/><path class="cls-3" d="M668.19,513.34,650.83,543.4H849.18l-17.37-30.06Z"/><g id="i"><path id="h" class="cls-52" d="M662.27,537.27a67.11,67.11,0,0,0-8.22.61l-.85,1.48c4.25-.38,8.2-1.13,12.46-1.24,5.74.14,11,1.45,17.07,1.45,2.65,0,5.28-.05,7.89,0,6.11,0,11.32-1.31,17.07-1.45,5.75.14,11,1.45,17.1,1.45,2.65,0,5.54,0,7.9,0,6.11,0,11.29-1.31,17-1.45,5.75.14,10.94,1.45,17,1.45,2.66,0,5.29-.05,7.92,0,6.11,0,11.32-1.31,17.07-1.45,5.75.14,11,1.45,17.07,1.45,2.64,0,5.28-.05,7.9,0,6.1,0,11.29-1.31,17-1.45,4.45.11,8.58.9,13.06,1.26l-.9-1.55a61.6,61.6,0,0,0-7.62-.56c-2.67,0-5.29.05-7.93,0-6.11,0-11.29,1.3-17,1.44-5.75-.14-11-1.44-17.07-1.44-2.64,0-5.29.05-7.9,0-6.1,0-11.33,1.3-17.07,1.44-5.75-.14-11-1.44-17.06-1.44-2.66,0-5.31.05-7.94,0-6.1,0-11.29,1.3-17,1.44-5.75-.14-10.94-1.44-17-1.44-2.66,0-5.28.05-7.9,0-6.1,0-11.32,1.3-17.07,1.44-5.74-.14-11-1.44-17.06-1.44-2.65,0-5.31.05-7.93,0Z"/><path id="h-2" data-name="h" class="cls-53" d="M662.27,535.33a67.11,67.11,0,0,0-8.22.61l-.85,1.48c4.25-.38,8.2-1.14,12.46-1.24,5.74.14,11,1.45,17.07,1.45,2.65,0,5.28,0,7.89,0,6.11,0,11.32-1.31,17.07-1.45,5.75.14,11,1.45,17.1,1.45,2.65,0,5.54,0,7.9,0,6.11,0,11.29-1.31,17-1.45,5.75.14,10.94,1.45,17,1.45,2.66,0,5.29,0,7.92,0,6.11,0,11.32-1.31,17.07-1.45,5.75.14,11,1.45,17.07,1.45,2.64,0,5.28,0,7.9,0,6.1,0,11.29-1.31,17-1.45,4.45.11,8.58.9,13.06,1.26l-.9-1.55a61.6,61.6,0,0,0-7.62-.56c-2.67,0-5.29,0-7.93,0-6.11,0-11.29,1.3-17,1.44-5.75-.14-11-1.44-17.07-1.44-2.64,0-5.29,0-7.9,0-6.1,0-11.33,1.3-17.07,1.44-5.75-.14-11-1.44-17.06-1.44-2.66,0-5.31,0-7.94,0-6.1,0-11.29,1.3-17,1.44-5.75-.14-10.94-1.44-17-1.44-2.66,0-5.28,0-7.9,0-6.1,0-11.32,1.3-17.07,1.44-5.74-.14-11-1.44-17.06-1.44-2.65,0-5.31,0-7.93,0Z"/><path id="h-3" data-name="h" class="cls-54" d="M662.27,533.38a67.11,67.11,0,0,0-8.22.61l-.85,1.48c4.25-.38,8.2-1.13,12.46-1.24,5.74.14,11,1.45,17.07,1.45,2.65,0,5.28,0,7.89,0,6.11,0,11.32-1.31,17.07-1.45,5.75.14,11,1.45,17.1,1.45,2.65,0,5.54,0,7.9,0,6.11,0,11.29-1.31,17-1.45,5.75.14,10.94,1.45,17,1.45,2.66,0,5.29,0,7.92,0,6.11,0,11.32-1.31,17.07-1.45,5.75.14,11,1.45,17.07,1.45,2.64,0,5.28,0,7.9,0,6.1,0,11.29-1.31,17-1.45,4.45.11,8.58.91,13.06,1.26l-.9-1.55a61.6,61.6,0,0,0-7.62-.56c-2.67,0-5.29,0-7.93,0-6.11,0-11.29,1.3-17,1.44-5.75-.14-11-1.44-17.07-1.44-2.64,0-5.29,0-7.9,0-6.1,0-11.33,1.3-17.07,1.44-5.75-.14-11-1.44-17.06-1.44-2.66,0-5.31,0-7.94,0-6.1,0-11.29,1.3-17,1.44-5.75-.14-10.94-1.44-17-1.44-2.66,0-5.28,0-7.9,0-6.1,0-11.32,1.3-17.07,1.44-5.74-.14-11-1.44-17.06-1.44-2.65,0-5.31,0-7.93,0Z"/></g><g id="i-2" data-name="i"><path id="h-4" data-name="h" class="cls-55" d="M662.27,531.43a65.15,65.15,0,0,0-8.22.62l-.85,1.48c4.25-.38,8.2-1.14,12.46-1.24,5.74.14,11,1.45,17.07,1.45,2.65,0,5.28-.06,7.89,0,6.11,0,11.32-1.31,17.07-1.45,5.75.14,11,1.45,17.1,1.45,2.65,0,5.54,0,7.9,0,6.11,0,11.29-1.31,17-1.45,5.75.14,10.94,1.45,17,1.45,2.66,0,5.29-.06,7.92,0,6.11,0,11.32-1.31,17.07-1.45,5.75.14,11,1.45,17.07,1.45,2.64,0,5.28-.06,7.9,0,6.1,0,11.29-1.31,17-1.45,4.45.11,8.58.9,13.06,1.26l-.9-1.56a63.61,63.61,0,0,0-7.62-.56c-2.67,0-5.29.06-7.93,0-6.11,0-11.29,1.31-17,1.45-5.75-.14-11-1.45-17.07-1.45-2.64,0-5.29.06-7.9,0-6.1,0-11.33,1.31-17.07,1.45-5.75-.14-11-1.45-17.06-1.45-2.66,0-5.31.06-7.94,0-6.1,0-11.29,1.31-17,1.45-5.75-.14-10.94-1.45-17-1.45-2.66,0-5.28.06-7.9,0-6.1,0-11.32,1.31-17.07,1.45-5.74-.14-11-1.45-17.06-1.45-2.65,0-5.31.06-7.93,0Z"/><path id="h-5" data-name="h" class="cls-56" d="M662.27,529.49a65.15,65.15,0,0,0-8.22.62l-.85,1.47c4.25-.37,8.2-1.13,12.46-1.23,5.74.14,11,1.44,17.07,1.44,2.65,0,5.28,0,7.89,0,6.11,0,11.32-1.3,17.07-1.44,5.75.14,11,1.44,17.1,1.44,2.65,0,5.54,0,7.9,0,6.11,0,11.29-1.3,17-1.44,5.75.14,10.94,1.44,17,1.44,2.66,0,5.29,0,7.92,0,6.11,0,11.32-1.3,17.07-1.44,5.75.14,11,1.44,17.07,1.44,2.64,0,5.28,0,7.9,0,6.1,0,11.29-1.3,17-1.44,4.45.1,8.58.9,13.06,1.26l-.9-1.56a63.61,63.61,0,0,0-7.62-.56c-2.67,0-5.29,0-7.93,0-6.11,0-11.29,1.31-17,1.45-5.75-.14-11-1.45-17.07-1.45-2.64,0-5.29.06-7.9,0-6.1,0-11.33,1.31-17.07,1.45-5.75-.14-11-1.45-17.06-1.45-2.66,0-5.31,0-7.94,0-6.1,0-11.29,1.31-17,1.45-5.75-.14-10.94-1.45-17-1.45-2.66,0-5.28.06-7.9,0-6.1,0-11.32,1.31-17.07,1.45-5.74-.14-11-1.45-17.06-1.45-2.65,0-5.31.06-7.93,0Z"/><path id="h-6" data-name="h" class="cls-57" d="M662.27,527.54a65.15,65.15,0,0,0-8.22.62l-.85,1.48c4.25-.38,8.2-1.14,12.46-1.24,5.74.14,11,1.45,17.07,1.45,2.65,0,5.28-.06,7.89,0,6.11,0,11.32-1.31,17.07-1.45,5.75.14,11,1.45,17.1,1.45,2.65,0,5.54-.05,7.9,0,6.11,0,11.29-1.31,17-1.45,5.75.14,10.94,1.45,17,1.45,2.66,0,5.29-.06,7.92,0,6.11,0,11.32-1.31,17.07-1.45,5.75.14,11,1.45,17.07,1.45,2.64,0,5.28-.06,7.9,0,6.1,0,11.29-1.31,17-1.45,4.45.11,8.58.9,13.06,1.26l-.9-1.56a63.61,63.61,0,0,0-7.62-.56c-2.67,0-5.29.06-7.93,0-6.11,0-11.29,1.31-17,1.45-5.75-.14-11-1.45-17.07-1.45-2.64,0-5.29.06-7.9,0-6.1,0-11.33,1.31-17.07,1.45-5.75-.14-11-1.45-17.06-1.45-2.66,0-5.31.06-7.94,0-6.1,0-11.29,1.31-17,1.45-5.75-.14-10.94-1.45-17-1.45-2.66,0-5.28.06-7.9,0-6.1,0-11.32,1.31-17.07,1.45-5.74-.14-11-1.45-17.06-1.45-2.65,0-5.31.06-7.93,0Z"/></g><g id="i-3" data-name="i"><path id="h-7" data-name="h" class="cls-58" d="M662.27,525.6a67.11,67.11,0,0,0-8.22.61l-.85,1.48c4.25-.38,8.2-1.14,12.46-1.24,5.74.14,11,1.45,17.07,1.45,2.65,0,5.28,0,7.89,0,6.11,0,11.32-1.31,17.07-1.45,5.75.14,11,1.45,17.1,1.45,2.65,0,5.54,0,7.9,0,6.11,0,11.29-1.31,17-1.45,5.75.14,10.94,1.45,17,1.45,2.66,0,5.29,0,7.92,0,6.11,0,11.32-1.31,17.07-1.45,5.75.14,11,1.45,17.07,1.45,2.64,0,5.28,0,7.9,0,6.1,0,11.29-1.31,17-1.45,4.45.11,8.58.9,13.06,1.26l-.9-1.55a61.6,61.6,0,0,0-7.62-.56c-2.67,0-5.29,0-7.93,0-6.11,0-11.29,1.3-17,1.44-5.75-.14-11-1.44-17.07-1.44-2.64,0-5.29,0-7.9,0-6.1,0-11.33,1.3-17.07,1.44-5.75-.14-11-1.44-17.06-1.44-2.66,0-5.31,0-7.94,0-6.1,0-11.29,1.3-17,1.44-5.75-.14-10.94-1.44-17-1.44-2.66,0-5.28,0-7.9,0-6.1,0-11.32,1.3-17.07,1.44-5.74-.14-11-1.44-17.06-1.44-2.65,0-5.31,0-7.93,0Z"/><path id="h-8" data-name="h" class="cls-59" d="M662.27,523.65a65.15,65.15,0,0,0-8.22.62l-.85,1.48c4.25-.38,8.2-1.14,12.46-1.24,5.74.14,11,1.45,17.07,1.45,2.65,0,5.28-.06,7.89,0,6.11,0,11.32-1.31,17.07-1.45,5.75.14,11,1.45,17.1,1.45,2.65,0,5.54-.05,7.9,0,6.11,0,11.29-1.31,17-1.45,5.75.14,10.94,1.45,17,1.45,2.66,0,5.29-.06,7.92,0,6.11,0,11.32-1.31,17.07-1.45,5.75.14,11,1.45,17.07,1.45,2.64,0,5.28-.06,7.9,0,6.1,0,11.29-1.31,17-1.45,4.45.11,8.58.9,13.06,1.26l-.9-1.56a63.61,63.61,0,0,0-7.62-.56c-2.67,0-5.29.06-7.93,0-6.11,0-11.29,1.31-17,1.45-5.75-.14-11-1.45-17.07-1.45-2.64,0-5.29.06-7.9,0-6.1,0-11.33,1.31-17.07,1.45-5.75-.14-11-1.45-17.06-1.45-2.66,0-5.31.06-7.94,0-6.1,0-11.29,1.31-17,1.45-5.75-.14-10.94-1.45-17-1.45-2.66,0-5.28.06-7.9,0-6.1,0-11.32,1.31-17.07,1.45-5.74-.14-11-1.45-17.06-1.45-2.65,0-5.31.06-7.93,0Z"/><path id="h-9" data-name="h" class="cls-60" d="M662.27,521.71a67.11,67.11,0,0,0-8.22.61l-.85,1.48c4.25-.38,8.2-1.14,12.46-1.24,5.74.14,11,1.45,17.07,1.45,2.65,0,5.28,0,7.89,0,6.11,0,11.32-1.31,17.07-1.45,5.75.14,11,1.45,17.1,1.45,2.65,0,5.54,0,7.9,0,6.11,0,11.29-1.31,17-1.45,5.75.14,10.94,1.45,17,1.45,2.66,0,5.29,0,7.92,0,6.11,0,11.32-1.31,17.07-1.45,5.75.14,11,1.45,17.07,1.45,2.64,0,5.28,0,7.9,0,6.1,0,11.29-1.31,17-1.45,4.45.11,8.58.9,13.06,1.26l-.9-1.55a61.6,61.6,0,0,0-7.62-.56c-2.67,0-5.29,0-7.93,0-6.11,0-11.29,1.3-17,1.44-5.75-.14-11-1.44-17.07-1.44-2.64,0-5.29,0-7.9,0-6.1,0-11.33,1.3-17.07,1.44-5.75-.14-11-1.44-17.06-1.44-2.66,0-5.31,0-7.94,0-6.1,0-11.29,1.3-17,1.44-5.75-.14-10.94-1.44-17-1.44-2.66,0-5.28,0-7.9,0-6.1,0-11.32,1.3-17.07,1.44-5.74-.14-11-1.44-17.06-1.44-2.65,0-5.31,0-7.93,0Z"/></g><path class="cls-61" d="M668.42,513l-.22.37H831.81l-.22-.37Zm-.39.66-.22.38H832.19l-.22-.38H668Zm-.34.6-.36.62H832.68l-.36-.62H667.69Zm-.56,1-.44.76H833.31l-.43-.76Zm-.7,1.21-.43.75H834l-.44-.75Zm-.69,1.2-.43.75H834.7l-.43-.75Zm-.7,1.21-.43.75H835.4l-.44-.75Zm-.75,1.3-.53.92H836.24l-.53-.92Zm11.33,1.28c6,1.16,6.59,0,6.59,0Zm142.17,0s.57,1.16,6.59,0Z"/><g id="k"><path class="cls-62" d="M803.43,494.84c-3,0-3.89,1.51-3.89,1.51-4.77,18.44-20.6,37.21-39.42,37.21H746v18.78h107.3l-10.79-19.11c-16.93-2.52-30.77-19.83-35.18-36.88,0,0-.94-1.51-3.92-1.51Z"/><path class="cls-63" d="M803.43,495.58a4.88,4.88,0,0,0-2.68.62c-.46.29-.55.48-.56.5l0,0a58.57,58.57,0,0,1-14.54,25.65c-7,7.1-15.82,11.92-25.48,11.92H746.76v17.3H852.91L843,534.06c-8.17-1.07-15.65-5.52-21.73-11.68a58.67,58.67,0,0,1-14.54-25.65l0,0a1.85,1.85,0,0,0-.59-.47,4.86,4.86,0,0,0-2.68-.65Z"/><path class="cls-64" d="M803.43,495.58a5.09,5.09,0,0,1,.71.06c0,5.26,0,14.14,0,18.84,0,4.08-1.45,7.36-3.51,11.23-1,2.71-1.72,1.68-4.1,5a44.81,44.81,0,0,1-9,2.12c-4.39.69-14.17,1.31-19,.24a40.31,40.31,0,0,0,17-10.68,54.82,54.82,0,0,0,3.72-4.19,59.55,59.55,0,0,0,5.25-7.81c.61-1.09,1.19-2.18,1.74-3.3q1.21-2.54,2.18-5.13c.21-.58.42-1.16.62-1.74.38-1.16.72-2.32,1-3.48l0,0s.1-.21.56-.5a3.84,3.84,0,0,1,1-.42h0a6.63,6.63,0,0,1,1.65-.2Z"/><path class="cls-65" d="M802.22,498.08c-.72,10.53-4,23-11.59,31.07-2.8,2.33-6.38,4.45-9.85,3.94C792.59,523.47,799.77,508.76,802.22,498.08Z"/><path class="cls-66" d="M792.73,516.19c-1.75,4.75-8.36,11.77-15.42,17.52a47.65,47.65,0,0,1-4.89.07c4.3-.39,14.34-8.87,20.31-17.59Z"/></g><g id="k-2" data-name="k"><path class="cls-67" d="M776.67,494.84c-3,0-3.89,1.51-3.89,1.51-4.77,18.44-20.6,37.21-39.42,37.21h-14.1v18.78h107.3l-10.79-19.11c-16.93-2.52-30.77-19.83-35.18-36.88,0,0-.94-1.51-3.92-1.51Z"/><path class="cls-63" d="M776.67,495.58a4.88,4.88,0,0,0-2.68.62c-.46.29-.55.48-.56.5l0,0a58.67,58.67,0,0,1-14.54,25.65c-7,7.1-15.82,11.92-25.48,11.92H720v17.3H826.15l-9.91-17.54c-8.17-1.07-15.65-5.52-21.73-11.68A58.67,58.67,0,0,1,780,496.73l0,0a1.85,1.85,0,0,0-.59-.47,4.86,4.86,0,0,0-2.68-.65Z"/><path class="cls-64" d="M776.67,495.58a5.09,5.09,0,0,1,.71.06c0,5.26,0,14.14,0,18.84,0,4.08-1.45,7.36-3.51,11.23-1,2.71-1.72,1.68-4.1,5a44.81,44.81,0,0,1-9,2.12c-4.39.69-14.17,1.31-19,.24a40.31,40.31,0,0,0,17-10.68,54.82,54.82,0,0,0,3.72-4.19,59.55,59.55,0,0,0,5.25-7.81c.61-1.09,1.19-2.18,1.73-3.3q1.23-2.54,2.19-5.13c.21-.58.42-1.16.62-1.74.38-1.16.72-2.32,1-3.48l0,0s.1-.21.56-.5a3.84,3.84,0,0,1,1-.42h0a6.63,6.63,0,0,1,1.65-.2Z"/><path class="cls-65" d="M775.46,498.08c-.72,10.53-4,23-11.59,31.07-2.8,2.33-6.38,4.45-9.85,3.94C765.83,523.47,773,508.76,775.46,498.08Z"/><path class="cls-66" d="M766,516.19c-1.75,4.75-8.36,11.77-15.42,17.52a47.81,47.81,0,0,1-4.9.07c4.31-.39,14.35-8.87,20.32-17.59Z"/></g><path class="cls-68" d="M753.87,496.36c4.77,18.44,20.57,37.21,39.39,37.21h14.11v18.78H692.54V533.57h14.08c18.83,0,34.65-18.77,39.43-37.21,0,0,.93-1.51,3.91-1.51s3.91,1.51,3.91,1.51Z"/><path class="cls-63" d="M750,495.58a4.89,4.89,0,0,1,2.68.65,1.85,1.85,0,0,1,.59.47l0,0a58.47,58.47,0,0,0,14.54,25.65c7,7.1,15.85,11.92,25.5,11.92h13.33v17.3H693.28V534.29h13.39c9.66,0,18.48-4.81,25.48-11.91a58.65,58.65,0,0,0,14.53-25.65l0,0s.1-.21.56-.5A5,5,0,0,1,750,495.58Z"/><path class="cls-64" d="M748.71,495.69l-.42.1h0a4,4,0,0,0-1,.41,1.55,1.55,0,0,0-.56.5l0,0c-.3,1.16-.64,2.32-1,3.48-.19.58-.41,1.16-.62,1.74-.65,1.72-1.37,3.44-2.18,5.13q-.83,1.68-1.74,3.3a59.55,59.55,0,0,1-5.25,7.81,54.82,54.82,0,0,1-3.72,4.19,40.1,40.1,0,0,1-17,10.67c4.83,1.08,7-.09,11.43-.79,3.4-.54,7.34-1,10.54-2.12,2.38-3.3,1.57-2.27,2.52-5,2.06-3.87,5.07-7.36,5.81-11.65,2.83-5.27,3.32-15,3.32-17.82Z"/><path class="cls-65" d="M748.74,498.08c-.72,10.53-4,23-11.59,31.07-2.81,2.33-6.39,4.45-9.85,3.94C739.11,523.47,746.28,508.76,748.74,498.08Z"/><path class="cls-66" d="M739.24,516.19c-1.75,4.75-8.35,11.77-15.42,17.52a47.65,47.65,0,0,1-4.89.07c4.3-.39,14.34-8.87,20.31-17.59Z"/><path class="cls-64" d="M751.66,495.79h0a3.68,3.68,0,0,1,1,.41c.46.29.55.48.56.5l0,0c.3,1.16.64,2.32,1,3.48.19.58.41,1.16.62,1.74.65,1.72,1.37,3.44,2.18,5.13.54,1.12,1.13,2.21,1.74,3.3a59.55,59.55,0,0,0,5.25,7.81,54.82,54.82,0,0,0,3.72,4.19c4.9,5,10.69,9.5,17,11.36-12.64,0-18.12-1.1-22.72-7s-6.29-8.5-7.22-12.1-3.53-11.47-3.26-18.85Z"/><path class="cls-65" d="M752.57,498.08c.72,10.53,3.88,20.95,11.49,29,2.81,2.34,6.39,4.45,9.85,3.94-12.79-8.73-18.89-22.26-21.34-32.94Z"/><g id="l"><path class="cls-69" d="M723.4,494.84c-3,0-3.92,1.51-3.92,1.51-4.41,17-20.63,38.93-37.5,41.53l-8.36,14.46h85.5V532.55c-15.39-4.14-27.72-20.29-31.83-36.2,0,0-.91-1.51-3.89-1.51Z"/><path class="cls-63" d="M723.4,495.58a4.93,4.93,0,0,0-2.69.65,1.85,1.85,0,0,0-.59.47l0,0c-2.44,9.28-8.16,18.67-14.09,26.15s-17,15-24.49,15.83L674,551.6h83.83V533a40.43,40.43,0,0,1-16.66-10.57,58.57,58.57,0,0,1-14.54-25.65l0,0s-.1-.21-.56-.5a4.94,4.94,0,0,0-2.68-.62Z"/><path class="cls-70" d="M721.12,498.09c-1.07,15.77-9.86,35.68-19.78,39.11-3.23,1.11-8.89,1.5-10.86,1.75C707.83,530.7,718.09,511.3,721.12,498.09Z"/><path class="cls-64" d="M723.39,495.58a5.22,5.22,0,0,0-.71.06c0,5.26,0,14.14,0,18.84.06,4.08,1.45,7.36,3.51,11.23a7.47,7.47,0,0,0,.36.86c.71,1.89,1.24,2.55,4,4.63,8.7,6.6,19.48,7.59,25.83,7-2-1.57-4.11-3-6-4.31a45.86,45.86,0,0,0,7.88-.88,40.35,40.35,0,0,1-17-10.68c-.84-.88-1.66-1.78-2.44-2.71-.37-.51-.88-1.22-1-1.42a61.14,61.14,0,0,1-5.48-7.87q-.93-1.62-1.74-3.3a59.22,59.22,0,0,1-2.8-6.87c-.39-1.15-.73-2.31-1-3.48l0,0s-.1-.21-.56-.5a3.66,3.66,0,0,0-1-.42h0a6.11,6.11,0,0,0-1.65-.2Z"/><path class="cls-71" d="M724.61,498.08c.72,10.53,4,23,11.59,31.07,2.8,2.33,6.39,4.45,9.85,3.94C734.24,523.47,727.06,508.76,724.61,498.08Z"/><path class="cls-66" d="M731.88,512.64c4.13,10.18,14.6,19.7,25.37,26.09a37.53,37.53,0,0,0,4.43-.11C754,534.49,741.55,528.59,731.88,512.64Z"/></g><g id="l-2" data-name="l"><path class="cls-72" d="M696.48,494.84c-3,0-3.92,1.51-3.92,1.51-4.4,17-20.63,38.93-37.5,41.53l-8.35,14.46h85.5V532.55c-15.4-4.14-27.72-20.29-31.84-36.2,0,0-.91-1.51-3.89-1.51Z"/><path class="cls-63" d="M696.48,495.58a4.86,4.86,0,0,0-2.68.65,1.85,1.85,0,0,0-.59.47l0,0c-2.45,9.28-8.16,18.67-14.1,26.15s-17,15-24.49,15.83l-7.47,12.89H731V533a40.46,40.46,0,0,1-16.67-10.57,58.65,58.65,0,0,1-14.53-25.65l0,0a1.55,1.55,0,0,0-.56-.5,5,5,0,0,0-2.69-.62Z"/><path class="cls-70" d="M694.21,498.09c-1.08,15.77-9.86,35.68-19.78,39.11-3.24,1.11-8.9,1.5-10.87,1.75C680.92,530.7,691.17,511.3,694.21,498.09Z"/><path class="cls-64" d="M696.48,495.58a5.09,5.09,0,0,0-.71.06c0,5.26,0,14.14,0,18.84.05,4.08,1.45,7.36,3.51,11.23a7.59,7.59,0,0,0,.35.86c.72,1.89,1.25,2.55,4,4.63,8.7,6.6,19.49,7.59,25.83,7-2-1.57-4.11-3-6-4.31a45.85,45.85,0,0,0,7.87-.88,40.31,40.31,0,0,1-17-10.68c-.85-.88-1.67-1.78-2.45-2.71-.36-.51-.87-1.22-1-1.42a61.21,61.21,0,0,1-5.49-7.87q-.92-1.62-1.74-3.3a61,61,0,0,1-2.8-6.87c-.38-1.15-.73-2.31-1-3.48l0,0s-.1-.21-.56-.5a3.66,3.66,0,0,0-1-.42h0a6.16,6.16,0,0,0-1.65-.2Z"/><path class="cls-65" d="M697.7,498.08c.72,10.53,4,23,11.59,31.07,2.8,2.33,6.38,4.45,9.85,3.94C707.33,523.47,700.15,508.76,697.7,498.08Z"/><path class="cls-66" d="M705,512.64c4.13,10.18,14.6,19.7,25.36,26.09a37.47,37.47,0,0,0,4.43-.11C727.05,534.49,714.63,528.59,705,512.64Z"/></g><path class="cls-3" d="M848.56,543.07c-1,.36-7.72-.33-11.23-.07l-2.23.58c-2,0-3.9,0-5.81,0-6.28,0-11.59,1.65-17.57,1.65s-11.29-1.65-17.58-1.65c-1.95,0-3.89,0-5.8,0-6.29,0-11.6,1.65-17.58,1.65s-11.29-1.65-17.57-1.65c-2,0-3.92,0-5.85,0-6.28,0-11.56,1.65-17.54,1.65s-11.26-1.65-17.54-1.65c-.47,0-.9,0-1.36,0l-1,0h-1.21c-.32,0-.6,0-.91,0s-.9,0-1.37,0c-6.28,0-11.58,1.66-17.57,1.65s-11.29-1.65-17.57-1.65c-.46,0-.91,0-1.36,0s-.59,0-.91,0h-1.27c-.32,0-.63,0-.94,0-.46,0-.89,0-1.36,0-5,0-10.84,1.06-15.58,1.48l-11,18.94H861.07Z"/><path class="cls-73" d="M833.72,540.31c-.35,0-.7,0-1,0-5.65.16-9.71,1.94-19.54,1.94s-10.85-1.78-21.95-1.53c-10.37.23-14.73,2.2-20.36,2.12s-14.78-1.22-21.82-.48-15.4,2.24-20.88,2.25c-6.82,0-13.65-1.27-20.77-.56s-10.46,2.61-19.3,2.59c-7.6,0-15.84-1.22-22.23-1.21-6,0-12.68,1.67-17.6,2.51l-1.47,2.56c3.92-.46,14.92-2.13,18.84-2.23,4.09-.11,18.7.84,26.75.57s9-2.05,18.53-2.05c6.63,0,11.62.7,18.43.7,4.24,0,8.1-2.17,14.55-2.17l4.87-.16c5.44-.9,14.63.08,21,.41,5.78.3,9.52-1.08,15.55-1.28,2.61-.11,5.23-.11,7.8-.25,6-.21,11.21,1.11,16.89,1.08,5.67-.34,11.17-1.6,17.2-1.8,2.63-.13,5.23-.13,7.83-.26a80.88,80.88,0,0,1,14.43.87L848,541.42c-4.15-.13-9.27-1.11-14.27-1.11Z"/><g id="n"><path id="m" class="cls-74" d="M663.33,560.61c-6,0-11.17,1.49-16.84,1.65a56.78,56.78,0,0,1-6.17-.6l-.85,1.48c.85.06,1.7.11,2.59.11,2.62,0,5.22-.06,7.81,0,6,0,11.13-1.48,16.8-1.65,5.68.16,10.83,1.65,16.86,1.65,2.62,0,5.23-.06,7.81,0,6,0,11.18-1.49,16.86-1.65,5.68.16,10.87,1.65,16.9,1.65,2.61,0,5.22-.06,7.79,0,6,0,11.17-1.49,16.84-1.65,5.68.16,10.8,1.65,16.83,1.65,2.64,0,5.23-.06,7.83,0,6,0,11.19-1.49,16.87-1.65,5.68.16,10.83,1.65,16.87,1.65,2.6,0,5.21-.06,7.79,0,6,0,11.17-1.49,16.84-1.65,5.67.16,10.83,1.65,16.86,1.65,2.62,0,5.22-.06,7.8,0,1.06,0,2.09-.06,3.1-.13l-.8-1.39a52.23,52.23,0,0,1-5.65.53c-5.67-.16-10.8-1.65-16.83-1.65-2.64,0-5.23.06-7.83,0-6,0-11.16,1.49-16.84,1.65-5.68-.16-10.82-1.65-16.86-1.65-2.61,0-5.22.06-7.8,0-6,0-11.19,1.49-16.86,1.65-5.68-.16-10.83-1.65-16.86-1.65-2.63,0-5.24.06-7.84,0-6,0-11.16,1.49-16.83,1.65-5.67-.16-10.8-1.65-16.83-1.65-2.63,0-5.22.06-7.81,0-6,0-11.18,1.49-16.86,1.65-5.67-.16-10.83-1.65-16.86-1.65-2.62,0-5.24.06-7.83,0Z"/><path id="m-2" data-name="m" class="cls-75" d="M663.33,558.36c-6,0-11.17,1.49-16.84,1.65a54.39,54.39,0,0,1-6.17-.6l-.85,1.48c.85.06,1.7.11,2.59.11,2.62,0,5.22-.06,7.81,0,6,0,11.13-1.48,16.8-1.64,5.68.16,10.83,1.64,16.86,1.64,2.62,0,5.23-.06,7.81,0,6,0,11.18-1.48,16.86-1.64,5.68.16,10.87,1.64,16.9,1.64,2.61,0,5.22-.06,7.79,0,6,0,11.17-1.48,16.84-1.64,5.68.16,10.8,1.64,16.83,1.64,2.64,0,5.23-.06,7.83,0,6,0,11.19-1.48,16.87-1.64,5.68.16,10.83,1.64,16.87,1.64,2.6,0,5.21-.06,7.79,0,6,0,11.17-1.48,16.84-1.64,5.67.16,10.83,1.64,16.86,1.64,2.62,0,5.22-.06,7.8,0,1.06,0,2.09-.06,3.1-.13l-.8-1.39a52.23,52.23,0,0,1-5.65.53c-5.67-.16-10.8-1.65-16.83-1.65-2.64,0-5.23.06-7.83,0-6,0-11.16,1.49-16.84,1.65-5.68-.16-10.82-1.65-16.86-1.65-2.61,0-5.22.06-7.8,0-6,0-11.19,1.49-16.86,1.65-5.68-.16-10.83-1.65-16.86-1.65-2.63,0-5.24.06-7.84,0-6,0-11.16,1.49-16.83,1.65-5.67-.16-10.8-1.65-16.83-1.65-2.63,0-5.22.06-7.81,0-6,0-11.18,1.49-16.86,1.65-5.67-.16-10.83-1.65-16.86-1.65-2.62,0-5.24.06-7.83,0Z"/><path id="m-3" data-name="m" class="cls-76" d="M663.33,556.12c-6,0-11.17,1.49-16.84,1.65a56.78,56.78,0,0,1-6.17-.6l-.85,1.48c.85.06,1.7.11,2.59.11,2.62,0,5.22-.06,7.81,0,6,0,11.13-1.49,16.8-1.65,5.68.16,10.83,1.65,16.86,1.65,2.62,0,5.23-.06,7.81,0,6,0,11.18-1.49,16.86-1.65,5.68.16,10.87,1.65,16.9,1.65,2.61,0,5.22-.06,7.79,0,6,0,11.17-1.49,16.84-1.65,5.68.16,10.8,1.65,16.83,1.65,2.64,0,5.23-.06,7.83,0,6,0,11.19-1.49,16.87-1.65,5.68.16,10.83,1.65,16.87,1.65,2.6,0,5.21-.06,7.79,0,6,0,11.17-1.49,16.84-1.65,5.67.16,10.83,1.65,16.86,1.65,2.62,0,5.22-.06,7.8,0,1.06,0,2.09-.06,3.1-.13l-.8-1.39a52.23,52.23,0,0,1-5.65.53c-5.67-.16-10.8-1.65-16.83-1.65-2.64,0-5.23,0-7.83,0-6,0-11.16,1.49-16.84,1.65-5.68-.16-10.82-1.65-16.86-1.65-2.61,0-5.22,0-7.8,0-6,0-11.19,1.49-16.86,1.65-5.68-.16-10.83-1.65-16.86-1.65-2.63,0-5.24,0-7.84,0-6,0-11.16,1.49-16.83,1.65-5.67-.16-10.8-1.65-16.83-1.65-2.63,0-5.22,0-7.81,0-6,0-11.18,1.49-16.86,1.65-5.67-.16-10.83-1.65-16.86-1.65-2.62,0-5.24,0-7.83,0Z"/></g><g id="n-2" data-name="n"><path id="m-4" data-name="m" class="cls-77" d="M663.33,553.87c-6,0-11.17,1.49-16.84,1.65a54.39,54.39,0,0,1-6.17-.61l-.85,1.49c.85.05,1.7.11,2.59.11,2.62,0,5.22-.07,7.81,0,6,0,11.13-1.49,16.8-1.65,5.68.16,10.83,1.65,16.86,1.65,2.62,0,5.23-.07,7.81,0,6,0,11.18-1.49,16.86-1.65,5.68.16,10.87,1.65,16.9,1.65,2.61,0,5.22-.07,7.79,0,6,0,11.17-1.49,16.84-1.65,5.68.16,10.8,1.65,16.83,1.65,2.64,0,5.23-.07,7.83,0,6,0,11.19-1.49,16.87-1.65,5.68.16,10.83,1.65,16.87,1.65,2.6,0,5.21-.07,7.79,0,6,0,11.17-1.49,16.84-1.65,5.67.16,10.83,1.65,16.86,1.65,2.62,0,5.22-.07,7.8,0,1.06,0,2.09-.06,3.1-.14l-.8-1.39a54.88,54.88,0,0,1-5.65.54c-5.67-.16-10.8-1.65-16.83-1.65-2.64,0-5.23,0-7.83,0-6,0-11.16,1.49-16.84,1.65-5.68-.16-10.82-1.65-16.86-1.65-2.61,0-5.22,0-7.8,0-6,0-11.19,1.49-16.86,1.65-5.68-.16-10.83-1.65-16.86-1.65-2.63,0-5.24,0-7.84,0-6,0-11.16,1.49-16.83,1.65-5.67-.16-10.8-1.65-16.83-1.65-2.63,0-5.22,0-7.81,0-6,0-11.18,1.49-16.86,1.65-5.67-.16-10.83-1.65-16.86-1.65-2.62,0-5.24,0-7.83,0Z"/><path id="m-5" data-name="m" class="cls-78" d="M663.33,551.62c-6,0-11.17,1.49-16.84,1.65a56.78,56.78,0,0,1-6.17-.6l-.85,1.48c.85.05,1.7.11,2.59.11,2.62,0,5.22-.06,7.81,0,6,0,11.13-1.49,16.8-1.65,5.68.16,10.83,1.65,16.86,1.65,2.62,0,5.23-.06,7.81,0,6,0,11.18-1.49,16.86-1.65,5.68.16,10.87,1.65,16.9,1.65,2.61,0,5.22-.06,7.79,0,6,0,11.17-1.49,16.84-1.65,5.68.16,10.8,1.65,16.83,1.65,2.64,0,5.23-.06,7.83,0,6,0,11.19-1.49,16.87-1.65,5.68.16,10.83,1.65,16.87,1.65,2.6,0,5.21-.06,7.79,0,6,0,11.17-1.49,16.84-1.65,5.67.16,10.83,1.65,16.86,1.65,2.62,0,5.22-.06,7.8,0,1.06,0,2.09-.06,3.1-.14l-.8-1.39a49.82,49.82,0,0,1-5.65.54c-5.67-.16-10.8-1.65-16.83-1.65-2.64,0-5.23,0-7.83,0-6,0-11.16,1.49-16.84,1.65-5.68-.16-10.82-1.65-16.86-1.65-2.61,0-5.22,0-7.8,0-6,0-11.19,1.49-16.86,1.65-5.68-.16-10.83-1.65-16.86-1.65-2.63,0-5.24,0-7.84,0-6,0-11.16,1.49-16.83,1.65-5.67-.16-10.8-1.65-16.83-1.65-2.63,0-5.22,0-7.81,0-6,0-11.18,1.49-16.86,1.65-5.67-.16-10.83-1.65-16.86-1.65-2.62,0-5.24,0-7.83,0Z"/><path id="m-6" data-name="m" class="cls-79" d="M663.33,549.38c-6,0-11.17,1.48-16.84,1.64a52.19,52.19,0,0,1-6.17-.6l-.85,1.49c.85.05,1.7.11,2.59.11,2.62,0,5.22-.07,7.81,0,6,0,11.13-1.49,16.8-1.65,5.68.16,10.83,1.65,16.86,1.65,2.62,0,5.23-.07,7.81,0,6,0,11.18-1.49,16.86-1.65,5.68.16,10.87,1.65,16.9,1.65,2.61,0,5.22-.07,7.79,0,6,0,11.17-1.49,16.84-1.65,5.68.16,10.8,1.65,16.83,1.65,2.64,0,5.23-.07,7.83,0,6,0,11.19-1.49,16.87-1.65,5.68.16,10.83,1.65,16.87,1.65,2.6,0,5.21-.07,7.79,0,6,0,11.17-1.49,16.84-1.65,5.67.16,10.83,1.65,16.86,1.65,2.62,0,5.22-.07,7.8,0,1.06,0,2.09-.06,3.1-.14l-.8-1.39a52.23,52.23,0,0,1-5.65.53c-5.67-.16-10.8-1.64-16.83-1.64-2.64,0-5.23,0-7.83,0-6,0-11.16,1.48-16.84,1.64-5.68-.15-10.82-1.64-16.86-1.64-2.61,0-5.22,0-7.8,0-6,0-11.19,1.48-16.86,1.64-5.68-.16-10.83-1.64-16.86-1.64-2.63,0-5.24,0-7.84,0-6,0-11.16,1.48-16.83,1.64-5.67-.16-10.8-1.64-16.83-1.64-2.63,0-5.22,0-7.81,0-6,0-11.18,1.49-16.86,1.64-5.67-.16-10.83-1.64-16.86-1.64-2.62,0-5.24,0-7.83,0Z"/></g><g id="n-3" data-name="n"><path id="m-7" data-name="m" class="cls-80" d="M663.33,547.13c-6,0-11.17,1.49-16.84,1.65a56.78,56.78,0,0,1-6.17-.6l-.85,1.48c.85.06,1.7.11,2.59.11,2.62,0,5.22-.06,7.81,0,6,0,11.13-1.49,16.8-1.65,5.68.16,10.83,1.65,16.86,1.65,2.62,0,5.23-.06,7.81,0,6,0,11.18-1.49,16.86-1.65,5.68.16,10.87,1.65,16.9,1.65,2.61,0,5.22-.06,7.79,0,6,0,11.17-1.49,16.84-1.65,5.68.16,10.8,1.65,16.83,1.65,2.64,0,5.23-.06,7.83,0,6,0,11.19-1.49,16.87-1.65,5.68.16,10.83,1.65,16.87,1.65,2.6,0,5.21-.06,7.79,0,6,0,11.17-1.49,16.84-1.65,5.67.16,10.83,1.65,16.86,1.65,2.62,0,5.22-.06,7.8,0,1.06,0,2.09-.06,3.1-.13l-.8-1.39a52.23,52.23,0,0,1-5.65.53c-5.67-.16-10.8-1.65-16.83-1.65-2.64,0-5.23,0-7.83,0-6,0-11.16,1.49-16.84,1.65-5.68-.16-10.82-1.65-16.86-1.65-2.61,0-5.22,0-7.8,0-6,0-11.19,1.49-16.86,1.65-5.68-.16-10.83-1.65-16.86-1.65-2.63,0-5.24,0-7.84,0-6,0-11.16,1.49-16.83,1.65-5.67-.16-10.8-1.65-16.83-1.65-2.63,0-5.22,0-7.81,0-6,0-11.18,1.49-16.86,1.65-5.67-.16-10.83-1.65-16.86-1.65-2.62,0-5.24,0-7.83,0Z"/><path id="m-8" data-name="m" class="cls-81" d="M663.33,544.88c-6,0-11.17,1.49-16.84,1.65a56.78,56.78,0,0,1-6.17-.6l-.85,1.48c.85.06,1.7.11,2.59.11,2.62,0,5.22-.06,7.81,0,6,0,11.13-1.48,16.8-1.65,5.68.16,10.83,1.65,16.86,1.65,2.62,0,5.23-.06,7.81,0,6,0,11.18-1.49,16.86-1.65,5.68.16,10.87,1.65,16.9,1.65,2.61,0,5.22-.06,7.79,0,6,0,11.17-1.49,16.84-1.65,5.68.16,10.8,1.65,16.83,1.65,2.64,0,5.23-.06,7.83,0,6,0,11.19-1.49,16.87-1.65,5.68.16,10.83,1.65,16.87,1.65,2.6,0,5.21-.06,7.79,0,6,0,11.17-1.49,16.84-1.65,5.67.16,10.83,1.65,16.86,1.65,2.62,0,5.22-.06,7.8,0,1.06,0,2.09-.06,3.1-.13l-.8-1.39a52.23,52.23,0,0,1-5.65.53c-5.67-.16-10.8-1.65-16.83-1.65-2.64,0-5.23,0-7.83,0-6,0-11.16,1.49-16.84,1.65-5.68-.16-10.82-1.65-16.86-1.65-2.61,0-5.22,0-7.8,0-6,0-11.19,1.49-16.86,1.65-5.68-.16-10.83-1.65-16.86-1.65-2.63,0-5.24,0-7.84,0-6,0-11.16,1.49-16.83,1.65-5.67-.16-10.8-1.65-16.83-1.65-2.63,0-5.22,0-7.81,0-6,0-11.18,1.49-16.86,1.65-5.67-.16-10.83-1.65-16.86-1.65-2.62,0-5.24,0-7.83,0Z"/><path id="m-9" data-name="m" class="cls-82" d="M663.33,542.64c-6,0-11.17,1.49-16.84,1.65a56.78,56.78,0,0,1-6.17-.6l-.85,1.48c.85.05,1.7.11,2.59.11,2.62,0,5.22-.06,7.81,0,6,0,11.13-1.49,16.8-1.65,5.68.16,10.83,1.65,16.86,1.65,2.62,0,5.23-.06,7.81,0,6,0,11.18-1.49,16.86-1.65,5.68.16,10.87,1.65,16.9,1.65,2.61,0,5.22-.06,7.79,0,6,0,11.17-1.49,16.84-1.65,5.68.16,10.8,1.65,16.83,1.65,2.64,0,5.23-.06,7.83,0,6,0,11.19-1.49,16.87-1.65,5.68.16,10.83,1.65,16.87,1.65,2.6,0,5.21-.06,7.79,0,6,0,11.17-1.49,16.84-1.65,5.67.16,10.83,1.65,16.86,1.65,2.62,0,5.22-.06,7.8,0,1.06,0,2.09-.06,3.1-.14l-.8-1.39a49.82,49.82,0,0,1-5.65.54c-5.67-.16-10.8-1.65-16.83-1.65-2.64,0-5.23.05-7.83,0-6,0-11.16,1.49-16.84,1.65-5.68-.16-10.82-1.65-16.86-1.65-2.61,0-5.22.05-7.8,0-6,0-11.19,1.49-16.86,1.65-5.68-.16-10.83-1.65-16.86-1.65-2.63,0-5.24.05-7.84,0-6,0-11.16,1.49-16.83,1.65-5.67-.16-10.8-1.65-16.83-1.65-2.63,0-5.22.05-7.81,0-6,0-11.18,1.49-16.86,1.65-5.67-.16-10.83-1.65-16.86-1.65-2.62,0-5.24.05-7.83,0Z"/></g><path class="cls-63" d="M652.05,543.09l-4.24,7.32c5-.82,12.39-3,18.55-3,6.39,0,14.1,1.57,21.7,1.6,8.84,0,12.17-1.89,19.3-2.59s13.95.92,20.77.95c5.48,0,13.84-1.9,20.88-2.64s13.5.51,22,.64,9.82-2,20.19-2.28c11.1-.25,12.12,1.53,21.95,1.53,7.4.4,13.75-1.49,20.35-2s9.66.08,14.49.19l-3.21-5.67h-.16L668,541.09Z"/><path class="cls-3" d="M837.33,543s4.73.25,6.72.48c1.71.17,3.43.32,5.15.44l-.65-.85C847.56,543.43,840.84,542.74,837.33,543Z"/></g><path class="cls-4" d="M750,369l-56.07,97.14-57.31,99.25H863.38L807.3,468.21Zm0,5.24,55,95.33,53.82,93.2H641.15L696.2,467.4Z"/></svg>