<?xml version="1.0" encoding="utf-8"?>
<!-- Generator: Adobe Illustrator 27.1.1, SVG Export Plug-In . SVG Version: 6.00 Build 0)  -->
<svg version="1.1" id="Camada_1" xmlns="http://www.w3.org/2000/svg" xmlns:xlink="http://www.w3.org/1999/xlink" x="0px" y="0px"
	 viewBox="0 0 800 577.8" style="enable-background:new 0 0 800 577.8;" xml:space="preserve">
<style type="text/css">
	.st0{fill:#265FB5;}
	.st1{fill:#EEEEEE;}
	.st2{fill:#A9BF4C;}
	.st3{fill:#55ACEE;}
	.st4{fill:#BBDDF5;}
	.st5{fill:#5C913B;}
	.st6{fill:#E2F09F;}
	.st7{fill:#DD2E44;}
	.st8{fill:#226699;}
	.st9{fill:#FFCC4D;}
</style>
<path class="st0" d="M800,488.9c0,49.1-39.8,88.9-88.9,88.9H88.9C39.8,577.8,0,538,0,488.9v-400C0,39.8,39.8,0,88.9,0h622.2
	C760.2,0,800,39.8,800,88.9V488.9z"/>
<path class="st1" d="M0,177.8h800V400H0V177.8z"/>
<path class="st2" d="M501.3,288.9c0.8,55.9-43.8,101.9-99.8,102.8c-55.9,0.8-101.9-43.8-102.8-99.8c0-1,0-2,0-3
	c0.8-55.9,46.8-100.6,102.8-99.8C456.3,189.9,500.5,234.1,501.3,288.9z"/>
<circle class="st1" cx="400" cy="288.9" r="88.9"/>
<path class="st0" d="M328,336.8l71.7-124.2l71.7,124.2H328z"/>
<path class="st3" d="M335.9,332l63.8-110.4L463.4,332H335.9z"/>
<path class="st4" d="M335.9,332l15.4-26.6l96-1.2l16.1,27.8H335.9z"/>
<path class="st5" d="M348.3,314.6l24-19.4l10.4,11.8l9-9.7l7.6,7.6l7.3-8l8.7,8l8-8.3l7.3,8.3l6.9-7.6l11.5,14.2l2.1,4.2
	c0,0-12.2,2.4-28.8,1c-16.7-1.4-26.4,2.4-39.6,4.2c-13.2,1.7-36.8-1.7-36.8-1.7L348.3,314.6L348.3,314.6z"/>
<path class="st6" d="M371.9,299.3l16,17.4l-8,0.7l-9-13.2L371.9,299.3z M391,300.7l12.8,11.5l-5.9,1l-6.2-8.7L391,300.7z M407.3,300
	l11.1,10.4l-2.8,1.7l-9-9.7L407.3,300z M421.9,300l-4.5,4.2l2.1,2.4L421.9,300z M435.8,300.4l-5.2,6.6l1.7,3.1l3.8-7.3L435.8,300.4z
	"/>
<path class="st4" d="M400.7,254l1.5,20.6l11.8-17l-8.9,18.4l18.4-8.9l-17,11.8l20.7,1.5l-20.7,1.5l17,11.8l-18.4-8.9l8.9,18.4
	l-11.8-17l-1.5,20.6l-1.5-20.6l-11.8,17l8.8-18.4l-18.4,8.9l17-11.8l-20.7-1.5l20.7-1.5l-17-11.8l18.4,8.9l-8.8-18.4l11.8,17
	L400.7,254z"/>
<path class="st7" d="M400,271.2l-4.2,4.2c0,0,1,6.2,0.7,7.3c-0.3,1,3.5,6.2,3.5,6.2l5.2-6.2l-1.4-8.3L400,271.2L400,271.2z"/>
<path class="st8" d="M402.1,263.9c17,0,26.7,8.3,26.7,8.3l-6.2-11.1c0,0-10.1-7.6-21.9-7.6c-11.8,0-25,9.4-25,9.4l-5.9,11.8
	C369.8,274.6,385.1,263.9,402.1,263.9L402.1,263.9z"/>
<path class="st9" d="M402.1,263.9c17,0,26.7,8.3,26.7,8.3l-4.5-8c0,0-12.2-7.3-24-7.3s-26.4,9.4-26.4,9.4l-4.2,8.3
	C369.8,274.6,385.1,263.9,402.1,263.9L402.1,263.9z"/>
<path class="st7" d="M402.1,263.9c17,0,26.7,8.3,26.7,8.3l-3.1-5.2c0,0-9.4-6.6-25.4-5.9c-11.8,0-28.1,8.7-28.1,8.7l-2.4,4.9
	C369.8,274.6,385.1,263.9,402.1,263.9L402.1,263.9z"/>
<path class="st1" d="M390.8,372.2H413v21.2h-22.1V372.2z M387.3,207.6h-15.9l-8-19.4l15.9-1.8L387.3,207.6z M423.6,216.4l-10.6-3.5
	l5.3-25.7l20.3,1.8L423.6,216.4z M328,325.3l-31,7.1l-0.9-21.2l31-4.4L328,325.3z M336,347.4L310.3,358l-6.2-16.8l23.9-8L336,347.4z
	 M506.7,327.9l-28.3-8v-15l31.8-4.4L506.7,327.9z M492.6,357.1L466,344.7l8.8-15.9l29.2,8.8L492.6,357.1z"/>
</svg>
