<?xml version="1.0" encoding="utf-8"?>
<!-- Generator: Adobe Illustrator 27.1.1, SVG Export Plug-In . SVG Version: 6.00 Build 0)  -->
<svg version="1.1" id="Camada_1" xmlns="http://www.w3.org/2000/svg" xmlns:xlink="http://www.w3.org/1999/xlink" x="0px" y="0px"
	 viewBox="0 0 800 577.8" style="enable-background:new 0 0 800 577.8;" xml:space="preserve">
<style type="text/css">
	.st0{fill:#00247D;}
	.st1{fill:#EEEDED;}
	.st2{fill:#CF1B2B;}
	.st3{fill:#EEEEEE;}
</style>
<path class="st0" d="M711.1,0H88.9c-4.6,0-9,0.3-13.4,1l-0.1,39l-60.7-0.1C5.1,54.4,0,71.5,0,88.9v400c0,49.1,39.8,88.9,88.9,88.9
	h622.2c49.1,0,88.9-39.8,88.9-88.9v-400C800,39.8,760.2,0,711.1,0z"/>
<path class="st1" d="M648.8,100h-28.1l-4.3-12.9l-5.3-15.7l-5.3,15.7l-4.3,12.9h-28.1l11.9,9.8l10.5,8.7l-4.4,13l-5.9,17.4
	l14.6-11.2l11-8.5l11,8.5l14.6,11.2l-5.9-17.4l-4.4-13l10.5-8.7L648.8,100z"/>
<path class="st2" d="M611.1,88.9l-5.6,16.7h-16.6l13.4,11.1l-5.7,16.6l14.4-11.1l14.4,11.1l-5.7-16.6l13.4-11.1h-16.6L611.1,88.9z"
	/>
<path class="st1" d="M648.8,461.1h-28.1l-4.3-12.9l-5.3-15.7l-5.3,15.7l-4.3,12.9h-28.1l11.9,9.8l10.5,8.7l-4.4,13l-5.9,17.4
	l14.6-11.2l11-8.5l11,8.5l14.6,11.2l-5.9-17.4l-4.4-13l10.5-8.7L648.8,461.1z"/>
<path class="st2" d="M611.1,450l-5.6,16.7h-16.6l13.4,11.1l-5.7,16.6l14.4-11.1l14.4,11.1l-5.7-16.6l13.4-11.1h-16.6L611.1,450z"/>
<path class="st1" d="M737.6,188.9h-28.1l-4.3-12.9l-5.3-15.7l-5.3,15.7l-4.3,12.9h-28.1l11.9,9.8l10.5,8.7l-4.4,13l-5.9,17.4
	l14.6-11.2l11-8.5l11,8.5l14.6,11.2l-5.9-17.4l-4.4-13l10.5-8.7L737.6,188.9z"/>
<path class="st2" d="M700,177.8l-5.6,16.7h-16.6l13.4,11.1l-5.7,16.6l14.4-11.1l14.4,11.1l-5.7-16.6l13.4-11.1h-16.6L700,177.8z"/>
<path class="st1" d="M559.9,233.3h-28.1l-4.3-12.9l-5.3-15.7l-5.3,15.7l-4.3,12.9h-28.1l11.9,9.8l10.5,8.7l-4.4,13l-5.9,17.4
	l14.6-11.2l11-8.5l11,8.5l14.6,11.2l-5.9-17.4l-4.4-13l10.5-8.7L559.9,233.3z"/>
<path class="st2" d="M522.2,222.2l-5.6,16.7H500l13.4,11.1l-5.7,16.6l14.4-11.1l14.4,11.1L531,250l13.4-11.1h-16.6L522.2,222.2z"/>
<path class="st0" d="M422.2,288.9V0H88.9c-7.1,0-13.4,1-13.4,1l-0.1,39l-60.7-0.1c0,0-0.9,1.3-2.8,4.6C4.1,58,0,73.3,0,88.9v200
	H422.2z"/>
<path class="st3" d="M422.2,0h-51.8L266.7,72.6V0H155.6v57.1L75.5,1C62.1,3,49.4,8.1,38.3,15.8l104.5,73.1h-38.6l-82.7-58
	c-2.4,2.9-4.7,5.9-6.8,9l70,49H0V200h86.3L0,261.5v27.4h74l81.5-57.1v57.1h111.1v-72.6l103.7,72.6h51.8v-45.1L359.7,200h62.6V88.9
	h-62.5l62.5-43.8V0z"/>
<path class="st2" d="M244.4,0h-66.7v111.1H0v66.7h177.8v111.1h66.7V177.8h177.8v-66.7H244.4V0z"/>
<path class="st2" d="M422.2,0h-32.5L266.7,86.2v2.7h34.9L422.2,4.4V0z M38.3,15.8c-6.2,4.3-11.9,9.4-16.8,15.1l82.7,58h38.6
	L38.3,15.8L38.3,15.8z M143,200L16.3,288.9h38.4l100.9-70.6V200H143z M422.2,284.5v-27.1L340.3,200h-38.7L422.2,284.5z"/>
</svg>
