<?xml version="1.0" encoding="utf-8"?>
<!-- Generator: Adobe Illustrator 27.1.1, SVG Export Plug-In . SVG Version: 6.00 Build 0)  -->
<svg version="1.1" id="Camada_1" xmlns="http://www.w3.org/2000/svg" xmlns:xlink="http://www.w3.org/1999/xlink" x="0px" y="0px"
	 viewBox="0 0 800 577.8" style="enable-background:new 0 0 800 577.8;" xml:space="preserve">
<style type="text/css">
	.st0{fill:#EEEEEE;}
	.st1{fill:#005293;}
	.st2{fill:#D21034;}
</style>
<path class="st0" d="M400,288.9V0H88.9C39.8,0,0,39.8,0,88.9v200H400z M400,288.9v288.9h311.1c49.1,0,88.9-39.8,88.9-88.9v-200H400z
	"/>
<path class="st1" d="M400,288.9v288.9H88.9C39.8,577.8,0,538,0,488.9v-200H400z"/>
<path class="st2" d="M400,288.9V0h311.1C760.2,0,800,39.8,800,88.9v200H400z"/>
<path class="st1" d="M215,123.8l-15-46.1l-15,46.1h-48.4l39.2,28.5l-15,46.1l39.2-28.5l39.2,28.5l-15-46.1l39.2-28.5H215z"/>
<path class="st2" d="M575.8,441.2l-15,46.1l39.2-28.5l39.2,28.5l-15-46.1l39.2-28.5H615l-15-46.1l-15,46.1h-48.4L575.8,441.2z"/>
</svg>
