<?xml version="1.0" encoding="utf-8"?>
<!-- Generator: Adobe Illustrator 27.1.1, SVG Export Plug-In . SVG Version: 6.00 Build 0)  -->
<svg version="1.1" id="Camada_1" xmlns="http://www.w3.org/2000/svg" xmlns:xlink="http://www.w3.org/1999/xlink" x="0px" y="0px"
	 viewBox="0 0 800 577.8" style="enable-background:new 0 0 800 577.8;" xml:space="preserve">
<style type="text/css">
	.st0{fill:#CE1126;}
	.st1{fill:#0038A8;}
	.st2{fill:#EEEEEE;}
	.st3{fill:#FCD116;}
</style>
<path class="st0" d="M800,488.9c0,49.1-39.8,88.9-88.9,88.9H88.9C39.8,577.8,0,538,0,488.9v-400C0,39.8,39.8,0,88.9,0h622.2
	C760.2,0,800,39.8,800,88.9V488.9z"/>
<path class="st1" d="M711.1,0H88.9C39.8,0,0,39.8,0,88.9v200h800v-200C800,39.8,760.2,0,711.1,0z"/>
<path class="st2" d="M29.2,554.3l393.7-264L29.6,23.1C10.8,39.9,0.1,63.8,0,88.9v400C0,514.9,11.4,538.1,29.2,554.3z"/>
<path class="st3" d="M357.1,256l1,25.6l24.8,6.5l-24.1,8.8l1.4,25.6l-15.8-20.2l-23.9,9.3l14.3-21.3l-16.2-19.8l24.7,7L357.1,256z
	 M35.6,66.3l19.2,17l21.8-13.5L66.5,93.3L86,109.8l-25.5-2.4l-9.7,23.7l-5.6-25l-25.6-1.9l22.1-13L35.6,66.3z M45.2,448.8L58,471
	l25-5.7l-17.2,19l13.2,22l-23.4-10.5l-16.8,19.4l2.7-25.5l-23.6-10l25.1-5.3L45.2,448.8z M222.2,288.9c0,36.8-29.8,66.7-66.7,66.7
	s-66.7-29.8-66.7-66.7s29.8-66.7,66.7-66.7S222.2,252.1,222.2,288.9z"/>
<path class="st3" d="M168.8,168.8l-3.5,58.8l-5.4-0.8l1.9-68.3l-6.2-4l-6.2,4l1.9,68.3l-5.4,0.8l-3.5-58.8l-7.8,4.8l7.3,59.9h27.5
	l7.3-59.9L168.8,168.8z M142.3,409l3.5-58.8l5.4,0.8l-1.9,68.3l6.2,4l6.2-4l-1.9-68.3l5.4-0.8l3.5,58.8l7.8-4.8l-7.3-60h-27.5
	l-7.3,60L142.3,409z M61.3,364.4l44.1-39.1l3.2,4.4l-49.6,47l1.5,7.3l7.3,1.5l47-49.7l4.4,3.3L80,383.2l9,2.1l37.2-47.5l-9.7-9.7
	l-9.7-9.7l-47.5,37.2L61.3,364.4z M249.8,213.3l-44.1,39.1l-3.2-4.4l49.6-47l-1.5-7.3l-7.3-1.5l-47,49.6l-4.4-3.2l39.1-44.1l-9-2.1
	l-37.2,47.5l9.7,9.7l9.7,9.7l47.5-37.2L249.8,213.3z M35.5,275.7l58.9,3.5l-0.8,5.4l-68.3-1.9l-4,6.2l4,6.2l68.3-1.9l0.8,5.4
	l-58.9,3.5l4.8,7.8l59.9-7.3v-27.5l-59.9-7.3L35.5,275.7z M275.6,302.1l-58.9-3.5l0.8-5.4l68.3,1.9l4-6.2l-4-6.2l-68.3,1.9l-0.8-5.4
	l58.9-3.5l-4.8-7.8l-60,7.3v27.5l60,7.3L275.6,302.1z M80,194.6l39.1,44.1l-4.4,3.2l-47-49.6l-7.3,1.5l-1.5,7.3l49.6,47l-3.2,4.4
	l-44.1-39.1l-2.1,9l47.5,37.2l9.7-9.7l9.7-9.7L89,192.5L80,194.6z M231.1,383.2L192,339l4.4-3.3l47,49.7l7.3-1.5l1.5-7.3l-49.6-47
	l3.2-4.4l44.1,39.1l2.1-9l-47.5-37.2l-9.7,9.7l-9.7,9.7l37.2,47.5L231.1,383.2z"/>
</svg>
