<?xml version="1.0" encoding="utf-8"?>
<!-- Generator: Adobe Illustrator 27.1.1, SVG Export Plug-In . SVG Version: 6.00 Build 0)  -->
<svg version="1.1" id="Camada_1" xmlns="http://www.w3.org/2000/svg" xmlns:xlink="http://www.w3.org/1999/xlink" x="0px" y="0px"
	 viewBox="0 0 800 577.8" style="enable-background:new 0 0 800 577.8;" xml:space="preserve">
<style type="text/css">
	.st0{fill:#004600;}
	.st1{fill:#EEEEEE;}
	.st2{fill:#FFFFFF;}
</style>
<path class="st0" d="M711.1,0H200v577.8h511.1c49.1,0,88.9-39.8,88.9-88.9v-400C800,39.8,760.2,0,711.1,0z M500,454.9
	c-92,0-166.7-74.6-166.7-166.7c0-82.7,60.2-151.1,139.2-164.2c-72.3,33.5-103.8,119.3-70.3,191.7c23.7,51.1,74.8,83.7,131.1,83.7
	c56.2,0,107.3-32.7,130.9-83.6C651.1,394.7,582.7,454.9,500,454.9z M613.6,223.3l-27,44.9L582,216l-51.1-11.7l48.2-20.5l-4.6-52.2
	l34.4,39.5l48.2-20.5l-26.9,45l34.4,39.5L613.6,223.3z"/>
<path class="st1" d="M88.9,0C39.8,0,0,39.8,0,88.9v400c0,49.1,39.8,88.9,88.9,88.9H200V0H88.9z"/>
<path class="st2" d="M657.2,150.6l-48.2,20.5l-34.4-39.5l4.6,52.2l-48.2,20.5L582,216l4.6,52.2l27-44.9l51.1,11.8l-34.4-39.5
	L657.2,150.6z"/>
<path class="st2" d="M533.3,399.4c-79.7,0.1-144.4-64.5-144.5-144.2c-0.1-56.3,32.6-107.5,83.7-131.1
	c-78.9,13.2-139.2,81.6-139.2,164.2c0,92,74.6,166.7,166.7,166.7c82.7,0,151.1-60.2,164.2-139.2
	C640.6,366.7,589.5,399.4,533.3,399.4z"/>
</svg>
