<?xml version="1.0" encoding="utf-8"?>
<!-- Generator: Adobe Illustrator 27.1.1, SVG Export Plug-In . SVG Version: 6.00 Build 0)  -->
<svg version="1.1" id="Camada_1" xmlns="http://www.w3.org/2000/svg" xmlns:xlink="http://www.w3.org/1999/xlink" x="0px" y="0px"
	 viewBox="0 0 800 577.8" style="enable-background:new 0 0 800 577.8;" xml:space="preserve">
<style type="text/css">
	.st0{fill:#141414;}
	.st1{fill:#007229;}
	.st2{fill:#EEEEEE;}
	.st3{fill:#D21034;}
</style>
<path class="st0" d="M711.1,0H88.9C39.8,0,0,39.8,0,88.9v100h800v-100C800,39.8,760.2,0,711.1,0z"/>
<path class="st1" d="M0,488.9c0,49.1,39.8,88.9,88.9,88.9h622.2c49.1,0,88.9-39.8,88.9-88.9v-100H0V488.9z"/>
<path class="st2" d="M0,188.9h800v200H0V188.9z"/>
<path class="st3" d="M30,22.3L30,22.3C10.9,39.2,0,63.4,0,88.9v400c0,26.5,11.6,50.3,30,66.6l358.9-266.6L30,22.3z"/>
</svg>
