<?xml version="1.0" encoding="utf-8"?>
<!-- Generator: Adobe Illustrator 27.1.1, SVG Export Plug-In . SVG Version: 6.00 Build 0)  -->
<svg version="1.1" id="Camada_1" xmlns="http://www.w3.org/2000/svg" xmlns:xlink="http://www.w3.org/1999/xlink" x="0px" y="0px"
	 viewBox="0 0 800 577.8" style="enable-background:new 0 0 800 577.8;" xml:space="preserve">
<style type="text/css">
	.st0{fill:#006600;}
	.st1{fill:#D52B1E;}
	.st2{fill:#FFCC4D;}
	.st3{fill:#FFFFFF;}
	.st4{fill:#829ACD;}
	.st5{fill:#003399;}
</style>
<path class="st0" d="M800,488.9c0,49.1-39.8,88.9-88.9,88.9H88.9C39.8,577.8,0,538,0,488.9v-400C0,39.8,39.8,0,88.9,0h622.2
	C760.2,0,800,39.8,800,88.9V488.9z"/>
<path class="st1" d="M711.1,0H333.3v577.8h377.8c49.1,0,88.9-39.8,88.9-88.9v-400C800,39.8,760.2,0,711.1,0z"/>
<path class="st2" d="M333.3,111.1c-98.2,0-177.8,79.6-177.8,177.8s79.6,177.8,177.8,177.8s177.8-79.6,177.8-177.8
	S431.5,111.1,333.3,111.1z M197.5,213.2l35.6,35.6l-54.7,27.3C180.2,254,186.7,232.6,197.5,213.2L197.5,213.2z M178.4,301.6l97.8,49
	l-60.1,40.1l0.3,0.5C194.4,366.2,181.1,334.8,178.4,301.6L178.4,301.6z M311.1,442.7c-20.4-2.9-40-9.9-57.6-20.4h57.6V442.7z
	 M311.1,400h-68.9l68.9-45.9V400z M311.1,327.4l-13.5,9l-95-47.5l47-23.5l61.5,61.4V327.4z M311.1,295.4l-78.7-78.7l78.7,13.1V295.4
	z M311.1,206.7l-98.5-15.8c24.6-30.3,59.8-50.2,98.5-55.7V206.7L311.1,206.7z M469.2,213.2c10.8,19.4,17.3,40.8,19.1,63l-54.7-27.3
	L469.2,213.2L469.2,213.2z M355.6,135.1c38.7,5.5,73.8,25.4,98.5,55.7l-98.5,15.8V135.1z M355.6,229.8l78.7-13.1l-78.7,78.8V229.8z
	 M355.6,326.8l61.4-61.4l47,23.5l-95,47.5l-13.5-9V326.8z M355.6,442.7v-20.4h57.6C395.5,432.8,375.9,439.8,355.6,442.7L355.6,442.7
	z M355.6,400v-45.9l68.9,45.9H355.6z M450.3,391.2l0.3-0.5l-60.1-40.1l97.8-49C485.6,334.8,472.3,366.2,450.3,391.2L450.3,391.2z"/>
<path class="st1" d="M244.4,177.8v155.6c0,49.1,39.8,88.9,88.9,88.9s88.9-39.8,88.9-88.9V177.8H244.4z"/>
<path class="st3" d="M266.7,200v133.3c0,36.8,29.8,66.7,66.7,66.7s66.7-29.8,66.7-66.7V200H266.7z"/>
<path class="st4" d="M288.9,266.7h88.9v44.4h-88.9V266.7z"/>
<path class="st4" d="M311.1,244.4h44.4v88.9h-44.4V244.4z"/>
<path class="st5" d="M266.7,266.7h22.2v44.4h-22.2V266.7z M311.1,266.7h44.4v44.4h-44.4V266.7z M377.8,266.7H400v44.4h-22.2V266.7z
	 M311.1,333.3h44.4v44.4h-44.4V333.3z M311.1,200h44.4v44.4h-44.4V200z"/>
</svg>
