<?xml version="1.0" encoding="utf-8"?>
<!-- Generator: Adobe Illustrator 27.1.1, SVG Export Plug-In . SVG Version: 6.00 Build 0)  -->
<svg version="1.1" id="Camada_1" xmlns="http://www.w3.org/2000/svg" xmlns:xlink="http://www.w3.org/1999/xlink" x="0px" y="0px"
	 viewBox="0 0 1500 1000" style="enable-background:new 0 0 1500 1000;" xml:space="preserve">
<style type="text/css">
	.st0{fill-rule:evenodd;clip-rule:evenodd;fill:#ED1C24;}
	.st1{fill-rule:evenodd;clip-rule:evenodd;fill:#006035;}
	.st2{fill-rule:evenodd;clip-rule:evenodd;fill:#FFF200;}
	
		.st3{fill-rule:evenodd;clip-rule:evenodd;fill:#FFF200;stroke:#231F20;stroke-width:0.6479;stroke-linecap:round;stroke-linejoin:round;}
	.st4{fill:#FFF200;stroke:#231F20;stroke-width:0.6498;stroke-linecap:round;stroke-linejoin:round;}
	.st5{fill:#FFF200;stroke:#231F20;stroke-width:0.6495;stroke-linecap:round;stroke-linejoin:round;}
	
		.st6{fill-rule:evenodd;clip-rule:evenodd;fill:#FFF200;stroke:#231F20;stroke-width:0.6495;stroke-linecap:round;stroke-linejoin:round;}
	.st7{fill:none;stroke:#231F20;stroke-width:0.6495;stroke-linecap:round;stroke-linejoin:round;}
	
		.st8{fill-rule:evenodd;clip-rule:evenodd;fill:#FFF200;stroke:#231F20;stroke-width:0.6497;stroke-linecap:round;stroke-linejoin:round;}
	.st9{fill:none;stroke:#231F20;stroke-width:0.6508;stroke-linecap:round;stroke-linejoin:round;}
	.st10{fill-rule:evenodd;clip-rule:evenodd;fill:#231F20;}
	.st11{fill:none;stroke:#ED1B2E;stroke-width:1.0593;stroke-linecap:round;stroke-linejoin:round;}
	.st12{fill:none;stroke:#231F20;stroke-width:0.6479;stroke-linecap:round;stroke-linejoin:round;}
	.st13{fill:#FFFFFF;stroke:#231F20;stroke-width:0.7597;stroke-miterlimit:2.6131;}
	.st14{fill:#ED1C24;stroke:#231F20;stroke-width:0.5739;stroke-miterlimit:2.6131;}
	.st15{fill:#2E2C70;}
	.st16{fill-rule:evenodd;clip-rule:evenodd;fill:#FFFFFF;}
	.st17{fill-rule:evenodd;clip-rule:evenodd;fill:#FFF200;stroke:#231F20;stroke-width:0.566;stroke-miterlimit:2.6131;}
	.st18{fill-rule:evenodd;clip-rule:evenodd;fill:#FFF200;stroke:#231F20;stroke-width:0.5658;stroke-miterlimit:2.6131;}
	.st19{fill-rule:evenodd;clip-rule:evenodd;fill:#FFF200;stroke:#231F20;stroke-width:0.5657;stroke-miterlimit:2.6131;}
	.st20{fill-rule:evenodd;clip-rule:evenodd;fill:#FFF200;stroke:#231F20;stroke-width:0.5227;stroke-miterlimit:2.6131;}
	.st21{fill-rule:evenodd;clip-rule:evenodd;fill:#FFF200;stroke:#231F20;stroke-width:0.5622;stroke-miterlimit:2.6131;}
	.st22{fill-rule:evenodd;clip-rule:evenodd;fill:#FFF200;stroke:#231F20;stroke-width:0.5327;stroke-miterlimit:2.6131;}
	.st23{fill-rule:evenodd;clip-rule:evenodd;fill:#FFF200;stroke:#231F20;stroke-width:0.5228;stroke-miterlimit:2.6131;}
	.st24{fill-rule:evenodd;clip-rule:evenodd;fill:#FFF200;stroke:#231F20;stroke-width:0.5624;stroke-miterlimit:2.6131;}
	.st25{fill-rule:evenodd;clip-rule:evenodd;fill:#FFF200;stroke:#231F20;stroke-width:0.5586;stroke-miterlimit:2.6131;}
	.st26{fill-rule:evenodd;clip-rule:evenodd;fill:#FFF200;stroke:#231F20;stroke-width:0.5719;stroke-miterlimit:2.6131;}
	.st27{fill-rule:evenodd;clip-rule:evenodd;fill:#FFF200;stroke:#231F20;stroke-width:0.5669;stroke-miterlimit:2.6131;}
	.st28{fill-rule:evenodd;clip-rule:evenodd;fill:#FFF200;stroke:#231F20;stroke-width:0.5697;stroke-miterlimit:2.6131;}
	.st29{fill-rule:evenodd;clip-rule:evenodd;fill:#FFF200;stroke:#231F20;stroke-width:0.5651;stroke-miterlimit:2.6131;}
	.st30{fill-rule:evenodd;clip-rule:evenodd;fill:#FFF200;stroke:#231F20;stroke-width:0.5661;stroke-miterlimit:2.6131;}
</style>
<g>
	<polygon class="st0" points="600,0 1500,0 1500,1000 600,1000 600,0 	"/>
	<polygon class="st1" points="0,0 600,0 600,1000 0,1000 0,0 	"/>
	<path class="st2" d="M795.6,655.1c-75.5-2.2-421.9-218.5-424.2-252.9l19.1-31.8c34.4,49.8,388.4,260.2,423.2,252.6L795.6,655.1
		L795.6,655.1z"/>
	<path class="st3" d="M386.5,366c-6.8,18.2,90.4,78.3,207.2,149.4s217.6,115,225.2,108.7c1.2-2,2.4-4.1,3.4-6.3
		c-1.4,2.2-4.8,2.8-10.1,1.2c-31.6-9.1-113.9-46.9-215.9-108.8S405.5,391.4,391.7,367.2c-1.1-2.2-1.6-4.7-1.5-7.1h-0.3l-2.9,5.1
		L386.5,366L386.5,366z M797.4,656.1c-1.3,2.3-3.7,2.4-8.2,1.9c-28.2-3.1-114-44.8-215.4-105.5c-118-70.6-215.5-135-204.9-151.9
		l2.9-5.1l0.6,0.2c-9.5,28.5,192.4,143.9,204.3,151.3c116.9,72.4,215.3,114.7,224,103.6L797.4,656.1L797.4,656.1z"/>
	<path class="st2" d="M600.4,423.1c75.6-0.6,168.9-10.3,222.6-31.7l-11.6-18.7c-31.7,17.6-125.5,29.1-211.7,30.9
		C497.9,402.5,426,393.1,390,368.9l-11,20c66.1,28,134.1,34,221.3,34.3L600.4,423.1z"/>
	<path class="st4" d="M826.1,391.8c-1.9,3-36.9,15-88.4,23.9c-45.5,6.8-91.5,10.1-137.5,9.9c-44,0.2-88-2.6-131.7-8.3
		c-54.1-8.5-82.1-20.3-92.4-24.5c1-2,1.6-3.4,2.6-5.2c29.2,11.5,59.6,19.6,90.7,24c43.3,5.7,87,8.5,130.7,8.4
		c45.7,0,91.3-3.4,136.5-10.1c52.9-8.5,81.8-19.5,85.8-24.6L826.1,391.8L826.1,391.8z M815.9,372.6c-5.7,4.6-34.3,14.7-84.6,22.8
		c-43.3,6.2-86.9,9.3-130.7,9.2c-42.2,0.3-84.4-2.4-126.2-8.1c-51-6.6-78.2-18.7-88-22.2c1-1.7,2-3.4,3-5
		c7.6,3.8,33.8,14.5,85.6,21.8c41.7,5.5,83.7,8.1,125.7,7.8c43.4,0.1,86.8-3,129.7-9.2c50.5-6.9,77.7-19.8,81.8-23.1L815.9,372.6
		L815.9,372.6z"/>
	<path class="st2" d="M352.2,514.1c46.5,25,149.8,37.6,247.5,38.5c89,0.1,204.9-13.8,248.2-36.7l-1.3-25
		c-13.6,21.2-137.8,41.5-248,40.7c-110.2-0.8-212.5-17.8-246.6-39.9L352.2,514.1L352.2,514.1z"/>
	<path class="st5" d="M850.3,510.5v6c-6.6,7.8-47.4,19.6-98.6,27.8c-39,6-89.8,10.5-153.2,10.5c-60.2,0-108.2-4.3-145.4-10
		c-58.8-8.6-96.4-23.6-104-28v-7c22.7,15.1,84.2,26.1,104.8,29.5c37,5.7,84.7,9.9,144.5,9.9c63,0,113.6-4.4,152.3-10.4
		C787.6,533.5,840,519.7,850.3,510.5L850.3,510.5z M850.3,489.3v6c-6.6,7.8-47.4,19.6-98.6,27.8c-39,6-89.8,10.5-153.1,10.5
		c-60.2,0-108.2-4.3-145.4-10c-58.8-8.6-96.4-23.6-104-28v-7c22.7,15.1,84.2,26.1,104.8,29.5c37,5.7,84.7,9.9,144.5,9.9
		c63,0,113.6-4.4,152.3-10.4C787.7,512.3,840,498.5,850.3,489.3L850.3,489.3z"/>
	<path class="st2" d="M599.5,650.8c-106.9-0.6-198.6-29.1-217.9-33.9l14.1,22c34.2,14.4,123.5,35.8,204.8,33.4s152.3-8.7,202.3-33.1
		l14.5-22.9C783.2,632.5,667.1,650.5,599.5,650.8L599.5,650.8z"/>
	<path class="st5" d="M808.3,634.3c-2.2,3.2-4.3,6.5-6.5,9.6c-25,8.3-50.5,14.9-76.4,19.6c-32.1,6.6-81.6,11.5-125.7,11.5
		c-94.8-1.4-172.3-19.8-208.7-35.7l-2.9-5.1l0.5-0.8l5,1.9c64.9,23.2,137.7,32.5,206.7,34.1c41.3-0.2,82.6-4,123.2-11.4
		c54.4-10.9,76.4-19.1,83.2-22.8l1.7-1L808.3,634.3z M820.8,613.6l0.2,0.2c-1.6,2.7-3.2,5.4-4.9,8.2c-12.6,4.4-46.8,14.5-96.7,21.5
		c-32.9,4.4-53.3,8.8-118.7,10.1c-122.5-3.1-201.9-27.1-220.7-33.1l-2.8-5.3c71,18.5,143.6,31.5,223.5,32.8
		c59.8-1.3,85.3-5.7,117.9-10.1c58.2-9,87.5-18.6,96.3-21.4l-0.4-0.5L820.8,613.6L820.8,613.6z"/>
	<path class="st2" d="M599.7,277.6c122.8,0,221.9,99.8,221.9,222.7C821.3,623,721.6,722.2,599,721.9s-221.9-100-221.5-222.7
		C377.7,376.7,477.2,277.5,599.7,277.6z M599.7,255.6c134.5,0,244.3,109.8,244.3,244.3S734.2,744.3,599.7,744.3
		S355.3,634.5,355.3,500S465.1,255.6,599.7,255.6L599.7,255.6z"/>
	<path class="st6" d="M599.7,252.7c136.3,0,247.5,111.2,247.5,247.6S736.1,747.8,599.7,747.8S352.2,636.6,352.2,500.2
		S463.4,252.7,599.7,252.7z M599.7,258.1c132.7,0,242.1,109,242.1,242.1S732.5,742.4,599.7,742.4s-242.1-109-242.1-242.1
		S467,258.1,599.7,258.1z"/>
	<path class="st6" d="M600,273.3c124.3,0,226.7,102,226.7,226.7S724.3,726.8,600,726.8S373.2,624.8,373.2,500S475.7,273.3,600,273.3
		z M600,278.7c121.3,0,221.3,99.6,221.3,221.3S721.3,721.3,600,721.3S378.7,621.8,378.7,500S478.7,278.7,600,278.7z"/>
	<polygon class="st2" points="589.8,251.5 611.3,251.5 611.3,749.6 589.8,749.6 589.8,251.5 	"/>
	<path class="st7" d="M592.6,251.7h15 M592.6,749.1h15.1"/>
	<path class="st8" d="M607.8,248.9h5.4V752h-5.4L607.8,248.9L607.8,248.9z M586.8,248.9h5.4V752h-5.4V248.9z"/>
	<path class="st2" d="M351.4,489.7c31-28.7,145.5-47.1,247.2-46.6s222,21.4,248.1,46l0.3,21.3c-21.9-20.6-115.4-45.2-248.2-45.5
		c-132.8-0.3-229.1,25-247.4,46V489.7z"/>
	<path class="st9" d="M351.3,490.7v18.4 M847.5,491.4v18.4"/>
	<path class="st5" d="M599.9,461.9c58.4,0,115.2,5.5,160.2,14.3c46.4,9.3,79.1,20.9,90.3,33.9v6.5c-13.5-16.2-57.3-28.1-91.3-34.9
		c-44.7-8.7-101-14.2-159.1-14.2c-61.3,0.1-118.5,5.9-162.5,14.5c-35.3,7-82.4,20.9-88.2,34.6v-6.7c3.2-9.5,38.3-23.7,87.5-33.5
		C481,467.7,538.3,462,599.9,461.9L599.9,461.9z M599.9,440.7c58.4,0,115.2,5.5,160.2,14.3c46.4,9.3,79.1,20.9,90.3,33.9v6.5
		c-13.5-16.2-57.3-28.1-91.3-34.9c-44.6-8.7-101-14.3-159.1-14.2c-61.3,0.1-118.2,5.9-162.2,14.5c-34.1,6.5-83.1,20.9-88.5,34.6
		v-6.7c3.2-9.4,39-24.1,87.5-33.5C481,446.5,538.2,440.8,599.9,440.7L599.9,440.7z"/>
	<path class="st2" d="M598.7,332.4c92.1-0.5,172.5,12.9,209.2,31.7l13.4,23.2c-31.9-17.2-118.6-35.1-222.5-32.5
		c-84.6,0.5-175.1,9.3-220.5,33.5l16-26.8C431.6,342.3,519.4,332.5,598.7,332.4L598.7,332.4z"/>
	<line class="st7" x1="810.3" y1="367.9" x2="819.4" y2="382.5"/>
	<path class="st4" d="M599.9,351.6c52.5-0.1,103.3,2.8,143.7,10.1c37.6,7,73.5,17.5,78.6,23.2l4,7c-12.5-8.1-43.5-17.2-83.3-24.8
		c-39.8-7.6-90.7-10-143-9.9c-59.3-0.2-105.4,2.9-144.9,9.8c-41.9,7.8-70.8,19-78,24.3l3.9-7.4c13.8-7.1,35.9-15.7,73-22.3
		C494.8,354.1,541.3,351.9,599.9,351.6z M599.9,330.4c50.3-0.1,99.9,2.7,138.6,9.6c30.5,6,60.7,15.2,71.8,23.5l5.8,9.2
		c-9.9-11-47.1-21.4-79.9-27.2c-38.4-6.6-86-9.2-136.3-9.7c-52.8,0.1-101.5,3.4-139.4,10.3c-36.1,6.9-59.4,15-69.3,21.3l5.1-7.7
		c13.6-7.2,35.6-13.7,63.3-19.1C497.8,333.7,546.9,330.5,599.9,330.4L599.9,330.4z"/>
	<path class="st2" d="M722.9,603.2c-45.6-8.5-91.2-9.7-123-9.4c-153.5,1.8-203.1,31.5-209.2,40.5l-11.5-18.7
		c39.1-28.3,122.7-44.2,221.5-42.6c51.3,0.8,95.6,4.3,132.8,11.5L722.9,603.2L722.9,603.2z"/>
	<line class="st7" x1="381.7" y1="618.2" x2="389.3" y2="631.2"/>
	<path class="st5" d="M599,591.1c42.7,0.6,84.6,2.4,125.1,9.9l-2.9,5.2c-37.5-6.9-77.6-9.6-122-9.4c-56.7-0.4-114,4.9-163.9,19.2
		c-15.7,4.4-41.9,14.5-44.5,22.9l-2.9-4.8c0.8-4.9,16.6-15.2,46-23.5C491,594.3,544.5,591.6,599,591.1L599,591.1z M600.9,569.7
		c44.2,0.8,89.9,2.9,134.4,11.7l-3,5.4c-40.1-8-78.4-10.6-131-11.4c-56.8,0-117.1,4.1-172,20.1c-17.6,5.2-48.2,16.3-49.3,25.1
		l-2.9-5.1c0.7-8,27.1-18.5,50.9-25.4C483.2,573.9,543.6,569.8,600.9,569.7L600.9,569.7z"/>
	<path class="st10" d="M555.1,584.6c0-0.7,0.3-1.3,0.7-1.9c0.4-0.5,1-0.7,1.6-0.8c0.4,0,0.8,0,1.1,0.2c0.3,0.2,0.6,0.5,0.7,0.8
		c0.1,0.4,0.2,0.8,0.2,1.2c0,0.4-0.2,0.9-0.4,1.3c-0.2,0.4-0.5,0.7-0.9,0.9c-0.3,0.2-0.7,0.3-1.1,0.4c-0.4,0-0.8,0-1.1-0.2
		c-0.3-0.2-0.6-0.5-0.7-0.8C555.1,585.4,555,585,555.1,584.6L555.1,584.6z M555.7,584.6c-0.1,0.5,0,0.9,0.3,1.3
		c0.3,0.3,0.7,0.4,1.1,0.4c0.4,0,0.9-0.2,1.1-0.6c0.3-0.4,0.5-0.9,0.6-1.4c0.1-0.3,0.1-0.7,0-1c-0.1-0.2-0.3-0.5-0.5-0.6
		c-0.2-0.1-0.5-0.2-0.8-0.2c-0.4,0-0.8,0.2-1.1,0.5c-0.4,0.4-0.6,1-0.6,1.5L555.7,584.6z M561.5,585.4l0.6-0.1
		c0,0.2,0.1,0.4,0.2,0.5c0.2,0.1,0.4,0.2,0.6,0.2c0.2,0,0.4-0.1,0.6-0.2c0.1-0.1,0.2-0.2,0.2-0.4c0-0.1,0-0.2-0.1-0.3
		c-0.2-0.1-0.4-0.1-0.6-0.2c-0.3,0-0.6-0.1-0.8-0.2c-0.1-0.1-0.2-0.2-0.3-0.3c0-0.1,0-0.3,0-0.4c0-0.1,0.1-0.3,0.2-0.4
		c0.1-0.1,0.2-0.2,0.3-0.3c0.1-0.1,0.2-0.1,0.4-0.2c0.2,0,0.3,0,0.5,0c0.2,0,0.4,0,0.7,0c0.2,0,0.3,0.1,0.4,0.3
		c0.1,0.2,0.1,0.3,0.1,0.5h-0.6c0-0.2-0.1-0.3-0.2-0.4c-0.1-0.1-0.3-0.1-0.5-0.1c-0.2,0-0.4,0-0.6,0.2c-0.1,0.1-0.2,0.2-0.2,0.3
		c0,0.1,0,0.1,0,0.2c0.1,0.1,0.1,0.1,0.2,0.1l0.5,0.1l0.8,0.2c0.1,0.1,0.3,0.2,0.3,0.3c0.1,0.2,0.1,0.3,0,0.5c0,0.2-0.1,0.4-0.2,0.6
		c-0.1,0.2-0.3,0.3-0.5,0.4c-0.2,0.1-0.5,0.2-0.7,0.2c-0.3,0-0.7,0-0.9-0.2C561.6,585.9,561.5,585.7,561.5,585.4L561.5,585.4z
		 M567.1,585h0.6c-0.1,0.3-0.3,0.6-0.6,0.8c-0.3,0.2-0.6,0.3-1,0.3c-0.4,0.1-0.8-0.1-1.1-0.4c-0.3-0.4-0.4-0.8-0.3-1.2
		c0-0.5,0.2-1,0.6-1.3c0.3-0.3,0.7-0.5,1.1-0.5c0.4,0,0.8,0.1,1,0.4c0.3,0.4,0.4,0.8,0.3,1.3v0.2l-2.4,0.1c0,0.3,0,0.6,0.2,0.8
		c0.2,0.2,0.4,0.3,0.6,0.3c0.2,0,0.4-0.1,0.5-0.2C566.9,585.3,567,585.1,567.1,585L567.1,585z M565.4,584.2h1.8c0-0.2,0-0.4-0.1-0.6
		c-0.1-0.2-0.4-0.3-0.6-0.3c-0.2,0-0.5,0.1-0.7,0.3C565.6,583.7,565.5,584,565.4,584.2L565.4,584.2z M568.2,586.2h0.5
		c0,0.1,0,0.3,0.1,0.4c0.2,0.1,0.4,0.2,0.6,0.1c0.2,0,0.4-0.1,0.6-0.2c0.2-0.1,0.3-0.3,0.3-0.5c0.1-0.2,0.1-0.5,0.1-0.7
		c-0.2,0.3-0.6,0.5-0.9,0.5c-0.4,0.1-0.8-0.1-1-0.4c-0.2-0.4-0.3-0.8-0.2-1.2c0-0.3,0.1-0.6,0.3-0.9c0.1-0.3,0.3-0.5,0.6-0.6
		c0.2-0.2,0.5-0.2,0.8-0.3c0.4,0,0.7,0.1,0.9,0.4v-0.4h0.5l-0.3,2.9c0,0.4-0.1,0.8-0.3,1.1c-0.1,0.2-0.3,0.4-0.6,0.5
		c-0.3,0.1-0.5,0.2-0.8,0.2c-0.3,0-0.6,0-0.9-0.2C568.2,586.8,568.1,586.5,568.2,586.2L568.2,586.2z M568.9,584.2
		c-0.1,0.3,0,0.7,0.2,0.9c0.1,0.2,0.4,0.3,0.6,0.3c0.3,0,0.5-0.1,0.7-0.3c0.2-0.3,0.4-0.6,0.4-0.9c0.1-0.3,0-0.6-0.2-0.9
		c-0.1-0.2-0.4-0.3-0.6-0.3c-0.3,0-0.5,0.1-0.7,0.3C569,583.5,568.9,583.8,568.9,584.2L568.9,584.2z M571.7,585.7l0.4-3.3h0.5v0.5
		c0.1-0.2,0.3-0.3,0.5-0.4c0.2-0.1,0.4-0.2,0.6-0.2c0.2,0,0.4,0,0.6,0.1c0.1,0.1,0.2,0.3,0.3,0.4c0.2-0.4,0.6-0.6,1.1-0.6
		c0.3,0,0.5,0.1,0.7,0.2c0.2,0.2,0.2,0.5,0.2,0.8l-0.3,2.2h-0.6l0.3-2.2c0-0.2,0-0.3,0-0.5c0-0.1-0.1-0.2-0.2-0.2
		c-0.1,0-0.2,0-0.3,0c-0.2,0-0.4,0.1-0.6,0.2c-0.2,0.2-0.3,0.5-0.3,0.7l-0.3,1.9h-0.6l0.3-2.2c0.1-0.2,0.1-0.4,0-0.6
		c-0.1-0.1-0.3-0.2-0.4-0.2c-0.2,0-0.3,0-0.4,0.1c-0.1,0.1-0.3,0.2-0.3,0.4c-0.1,0.2-0.2,0.5-0.2,0.7l-0.2,1.7L571.7,585.7z
		 M579.3,584.4h0.6c-0.1,0.3-0.3,0.6-0.6,0.8c-0.3,0.2-0.6,0.3-1,0.3c-0.4,0-0.8-0.1-1.1-0.4c-0.3-0.4-0.3-0.8-0.2-1.3
		c0-0.5,0.3-1,0.6-1.3c0.3-0.3,0.7-0.5,1.1-0.5c0.4,0,0.8,0.1,1,0.4c0.3,0.4,0.3,0.8,0.2,1.3v0.2h-2.4c0,0.3,0,0.6,0.2,0.8
		c0.2,0.2,0.4,0.3,0.6,0.3c0.2,0,0.4-0.1,0.5-0.2c0.2-0.1,0.3-0.3,0.4-0.5V584.4z M577.7,583.5h1.8c0-0.2,0-0.4-0.1-0.6
		c-0.1-0.2-0.4-0.3-0.6-0.3c-0.3,0-0.5,0.1-0.7,0.3C577.8,583,577.7,583.3,577.7,583.5L577.7,583.5z M580.5,585.4l0.4-3.3h0.5v0.5
		c0.3-0.4,0.7-0.6,1.1-0.6c0.2,0,0.4,0,0.5,0c0.1,0,0.3,0.1,0.3,0.3c0.1,0.1,0.1,0.3,0.1,0.4c0,0.2,0,0.4,0,0.6l-0.3,2.1h-0.6l0.3-2
		c0-0.2,0-0.3,0-0.5c0-0.1-0.1-0.2-0.2-0.3c-0.1,0-0.3,0-0.4,0c-0.2,0-0.5,0.1-0.6,0.2c-0.2,0.2-0.4,0.6-0.4,0.9l-0.2,1.8
		L580.5,585.4z M585.3,584.8v0.5h-0.4c-0.1,0-0.3,0-0.4,0c-0.1-0.1-0.2-0.1-0.2-0.2c0-0.2,0-0.4,0-0.7l0.3-1.9h-0.4V582h0.4l0.1-0.8
		l0.6-0.4L585,582h0.6v0.4H585l-0.3,2c0,0.1,0,0.2,0,0.3l0,0h0.2L585.3,584.8z M585.8,583.5c0-0.6,0.3-1.1,0.7-1.5
		c0.3-0.2,0.7-0.4,1.1-0.4c0.4,0,0.8,0.1,1,0.4c0.3,0.4,0.3,0.8,0.2,1.2c0,0.4-0.1,0.7-0.3,1c-0.2,0.2-0.4,0.4-0.6,0.6
		c-0.2,0.1-0.5,0.2-0.8,0.2c-0.4,0-0.8-0.1-1-0.4C585.7,584.4,585.7,583.9,585.8,583.5L585.8,583.5z M586.3,583.5
		c-0.1,0.3,0,0.7,0.1,0.9c0.1,0.2,0.4,0.3,0.6,0.3c0.3,0,0.5-0.1,0.7-0.3c0.2-0.3,0.4-0.6,0.4-1c0.1-0.3,0-0.6-0.1-0.9
		c-0.1-0.2-0.4-0.3-0.6-0.3c-0.3,0-0.5,0.1-0.7,0.3C586.5,582.8,586.4,583.2,586.3,583.5L586.3,583.5z M593.3,584.1h0.6
		c-0.1,0.3-0.3,0.6-0.6,0.8c-0.3,0.2-0.6,0.3-1,0.3c-0.4,0-0.8-0.1-1.1-0.4c-0.2-0.4-0.3-0.8-0.2-1.3c0-0.5,0.3-1,0.6-1.3
		c0.3-0.3,0.7-0.5,1.2-0.5c0.4,0,0.8,0.1,1,0.4c0.2,0.4,0.3,0.8,0.2,1.3v0.2h-2.4c-0.1,0.3,0,0.6,0.2,0.8c0.2,0.2,0.4,0.3,0.6,0.3
		c0.2,0,0.4-0.1,0.5-0.2c0.2-0.1,0.3-0.3,0.4-0.5L593.3,584.1z M591.7,583.2h1.8c0-0.2,0-0.4-0.1-0.6c-0.1-0.2-0.4-0.3-0.6-0.3
		c-0.3,0-0.5,0.1-0.7,0.3C591.8,582.7,591.7,583,591.7,583.2L591.7,583.2z M594.4,585.1l0.8-4.6h0.6l-0.8,4.6H594.4z M596.4,581.1
		v-0.7h0.6v0.7H596.4z M595.8,585l0.6-3.3h0.6l-0.6,3.3H595.8z M597.2,585l0.6-3.3h0.5v0.5c0.1-0.2,0.3-0.3,0.5-0.4
		c0.2-0.1,0.4-0.2,0.6-0.2c0.2,0,0.4,0,0.6,0.2c0.1,0.1,0.2,0.3,0.2,0.4c0.3-0.4,0.7-0.6,1.1-0.6c0.3,0,0.5,0.1,0.7,0.3
		c0.1,0.3,0.2,0.6,0.1,0.8l-0.4,2.2H601l0.4-2.2c0-0.2,0-0.3,0-0.5c0-0.1-0.1-0.2-0.2-0.2c-0.1,0-0.2,0-0.3,0
		c-0.2,0-0.4,0.1-0.6,0.2c-0.2,0.2-0.3,0.5-0.4,0.7l-0.3,1.9h-0.6l0.4-2.2c0.1-0.2,0.1-0.4,0-0.6c-0.1-0.1-0.2-0.2-0.4-0.2
		c-0.2,0-0.3,0-0.4,0.1c-0.2,0.1-0.3,0.2-0.4,0.4c-0.1,0.2-0.2,0.5-0.2,0.7l-0.3,1.7L597.2,585z M603,581.1v-0.7h0.6v0.7H603z
		 M602.4,585l0.6-3.3h0.6l-0.6,3.3H602.4z M603.8,585l0.6-3.3h0.5v0.5c0.3-0.3,0.7-0.5,1.1-0.5c0.2,0,0.3,0,0.5,0.1
		c0.1,0.1,0.2,0.2,0.3,0.3c0,0.1,0,0.3,0,0.4c0,0.2,0,0.4,0,0.6l-0.4,2.1h-0.6l0.4-2c0-0.2,0-0.4,0-0.5c0-0.1-0.1-0.2-0.2-0.3
		c-0.1-0.1-0.2-0.1-0.4-0.1c-0.2,0-0.5,0.1-0.6,0.2c-0.2,0.2-0.4,0.5-0.4,0.9l-0.3,1.8L603.8,585z M609.4,584.8
		c-0.2,0.2-0.4,0.3-0.7,0.4c-0.2,0-0.4,0-0.6,0c-0.3,0-0.6-0.1-0.8-0.3c-0.2-0.2-0.2-0.4-0.2-0.7c0-0.2,0.1-0.3,0.2-0.4
		c0.1-0.1,0.2-0.2,0.3-0.3c0.1-0.1,0.3-0.1,0.4-0.2h0.5c0.3,0,0.7-0.1,1-0.2v-0.2c0.1-0.2,0.1-0.3,0-0.5c-0.2-0.1-0.4-0.2-0.6-0.2
		c-0.2,0-0.4,0-0.6,0.1c-0.2,0.1-0.3,0.3-0.4,0.5h-0.5c0.1-0.2,0.2-0.4,0.4-0.6c0.2-0.2,0.3-0.3,0.6-0.3c0.2,0,0.5,0,0.7,0
		c0.2,0,0.5,0,0.7,0.1c0.1,0.1,0.3,0.1,0.3,0.3c0,0.1,0,0.3,0,0.4c0,0.2,0,0.4,0,0.5l-0.1,0.7c-0.1,0.3-0.1,0.7-0.2,1
		c0,0.1,0,0.3,0,0.4h-0.6c0-0.1,0-0.3,0-0.4L609.4,584.8z M609.6,583.5c-0.3,0.1-0.6,0.2-0.9,0.2h-0.5c-0.2,0.1-0.3,0.2-0.4,0.4
		c-0.1,0.1-0.1,0.3,0,0.4c0.1,0.1,0.3,0.2,0.5,0.2c0.2,0,0.4,0,0.6-0.1c0.2-0.1,0.3-0.2,0.4-0.4c0.1-0.2,0.2-0.4,0.2-0.6v-0.2
		L609.6,583.5z M612.8,585.2v-0.4c-0.2,0.3-0.6,0.5-1,0.5c-0.2,0-0.5-0.1-0.7-0.2c-0.2-0.2-0.3-0.4-0.4-0.7c-0.1-0.3-0.1-0.6,0-0.9
		c0.1-0.3,0.2-0.6,0.3-0.9c0.1-0.3,0.3-0.5,0.6-0.6c0.2-0.1,0.5-0.2,0.7-0.2c0.2,0,0.3,0,0.5,0.1c0.1,0.1,0.2,0.2,0.3,0.3l0.3-1.7
		h0.6l-0.8,4.6L612.8,585.2z M611.3,583.5c-0.1,0.3-0.1,0.7,0,1c0.1,0.2,0.3,0.3,0.6,0.3c0.3,0,0.5-0.1,0.7-0.3
		c0.2-0.3,0.4-0.6,0.4-0.9c0.1-0.3,0.1-0.7,0-1c-0.1-0.2-0.3-0.3-0.6-0.3c-0.3,0-0.5,0.1-0.7,0.3
		C611.5,582.8,611.4,583.1,611.3,583.5L611.3,583.5z M614.3,583.5c0.1-0.5,0.3-1,0.7-1.4c0.3-0.2,0.7-0.4,1.1-0.4
		c0.4,0,0.8,0.2,1,0.5c0.2,0.4,0.3,0.8,0.2,1.3c-0.1,0.4-0.2,0.7-0.4,1c-0.3,0.5-0.9,0.8-1.5,0.7c-0.4,0-0.8-0.2-1-0.5
		C614.2,584.4,614.2,584,614.3,583.5L614.3,583.5z M614.8,583.5c-0.1,0.3-0.1,0.7,0,1c0.1,0.2,0.4,0.3,0.6,0.3
		c0.3,0,0.5-0.1,0.7-0.3c0.2-0.3,0.4-0.6,0.4-1c0.1-0.3,0.1-0.6,0-0.9c-0.1-0.2-0.4-0.3-0.6-0.3c-0.3,0-0.5,0.1-0.7,0.3
		C615,582.8,614.8,583.1,614.8,583.5z M619.2,585.3l0.6-3.3h0.5v0.5c0.1-0.2,0.3-0.3,0.4-0.5c0.1,0,0.3,0,0.4,0
		c0.2,0,0.4,0.1,0.5,0.2l-0.3,0.5c-0.1-0.1-0.2-0.1-0.4-0.1c-0.1,0-0.2,0-0.4,0c-0.1,0.1-0.2,0.2-0.3,0.3c-0.1,0.2-0.2,0.4-0.2,0.7
		l-0.3,1.7L619.2,585.3z M623.6,584.4h0.6c-0.1,0.3-0.4,0.6-0.7,0.8c-0.3,0.2-0.6,0.3-1,0.2c-0.4,0-0.8-0.2-1-0.5
		c-0.2-0.4-0.3-0.8-0.2-1.3c0.1-0.5,0.3-1,0.7-1.3c0.3-0.3,0.7-0.4,1.2-0.4c0.4,0,0.8,0.2,1,0.5c0.2,0.4,0.3,0.9,0.2,1.3v0.2h-2.4
		c-0.1,0.3,0,0.6,0.1,0.9c0.1,0.2,0.4,0.3,0.6,0.3c0.2,0,0.4,0,0.6-0.1C623.4,584.8,623.6,584.6,623.6,584.4L623.6,584.4z
		 M622,583.4h1.8c0.1-0.2,0.1-0.4,0-0.6c-0.1-0.2-0.4-0.4-0.6-0.4c-0.3,0-0.5,0.1-0.7,0.2C622.3,582.8,622.1,583,622,583.4
		L622,583.4z M624.6,584.4h0.6c0,0.2,0,0.4,0.2,0.5c0.1,0.1,0.3,0.2,0.6,0.2c0.2,0,0.4,0,0.6-0.1c0.1-0.1,0.2-0.2,0.3-0.4
		c0.1-0.1,0.1-0.2,0-0.3c-0.2-0.1-0.3-0.2-0.5-0.2c-0.3-0.1-0.5-0.2-0.8-0.3c-0.1-0.1-0.2-0.2-0.3-0.3c0-0.1,0-0.3,0-0.4
		c0-0.2,0.1-0.3,0.2-0.4c0.1-0.1,0.2-0.2,0.3-0.3c0.1-0.1,0.2-0.1,0.4-0.2c0.2,0,0.3,0,0.5,0c0.2,0,0.4,0,0.6,0.1
		c0.2,0.1,0.3,0.2,0.4,0.3c0,0.2,0,0.4,0,0.5H627c0-0.2,0-0.3-0.1-0.4c-0.1-0.1-0.3-0.2-0.5-0.2c-0.2-0.1-0.4-0.1-0.6,0
		c-0.1,0.1-0.2,0.2-0.2,0.3c0,0.1,0,0.1,0,0.2c0,0.1,0.1,0.1,0.2,0.2l0.4,0.2l0.7,0.3c0.1,0.1,0.2,0.2,0.3,0.3
		c0.1,0.2,0.1,0.3,0,0.5c0,0.2-0.1,0.4-0.3,0.5c-0.1,0.2-0.3,0.3-0.5,0.4c-0.2,0-0.5,0-0.7,0c-0.3,0-0.7-0.1-0.9-0.3
		c-0.2-0.2-0.3-0.5-0.3-0.8V584.4z M627.5,586.8l0.9-4.6h0.5v0.4c0.1-0.2,0.3-0.3,0.5-0.4c0.2,0,0.4,0,0.6,0c0.5,0,1,0.4,1,0.9
		c0.1,0.3,0.1,0.6,0,0.9c-0.1,0.3-0.2,0.6-0.4,0.9c-0.2,0.3-0.4,0.5-0.6,0.6c-0.2,0.1-0.5,0.2-0.7,0.2c-0.3,0-0.6-0.2-0.7-0.5
		l-0.3,1.6L627.5,586.8z M628.6,583.9c-0.1,0.3-0.1,0.7,0,1c0.1,0.2,0.3,0.3,0.6,0.3c0.3,0,0.5-0.1,0.7-0.3c0.2-0.3,0.4-0.6,0.5-1
		c0.1-0.3,0.1-0.7,0-1c-0.1-0.2-0.3-0.3-0.5-0.4c-0.3,0-0.5,0.1-0.7,0.3C628.8,583.2,628.7,583.5,628.6,583.9L628.6,583.9z
		 M633.6,584.7h0.6c-0.1,0.3-0.4,0.6-0.7,0.8c-0.3,0.2-0.6,0.3-1,0.2c-0.4,0-0.8-0.2-1-0.5c-0.2-0.4-0.3-0.8-0.2-1.3
		c0.1-0.5,0.3-1,0.7-1.3c0.3-0.3,0.7-0.4,1.2-0.4c0.4,0,0.8,0.2,1,0.5c0.2,0.4,0.3,0.9,0.2,1.3v0.2h-2.4c-0.1,0.3,0,0.6,0.1,0.9
		c0.1,0.2,0.4,0.3,0.6,0.3c0.2,0,0.4,0,0.6-0.1C633.4,585.1,633.6,584.9,633.6,584.7L633.6,584.7z M632,583.7h1.8
		c0.1-0.2,0.1-0.4,0-0.6c-0.1-0.2-0.4-0.4-0.6-0.4c-0.3,0-0.5,0.1-0.7,0.2C632.3,583.1,632.1,583.4,632,583.7L632,583.7z
		 M635.4,581.8l0.1-0.7h0.6l-0.1,0.7H635.4z M634.6,585.8l0.7-3.3h0.6l-0.7,3.3H634.6z M637.3,585.4v0.5h-0.4c-0.2,0-0.3,0-0.4-0.1
		c-0.1-0.1-0.2-0.2-0.2-0.3c0-0.2,0-0.4,0-0.7l0.4-1.9h-0.4v-0.4h0.4l0.2-0.8l0.6-0.3l-0.2,1.2h0.6v0.4h-0.6l-0.4,1.9
		c0,0.1,0,0.2,0,0.3c0,0,0,0.1,0,0.1h0.2L637.3,585.4z M639.8,585.6c-0.2,0.1-0.4,0.3-0.7,0.4c-0.2,0-0.4,0-0.6,0
		c-0.3,0-0.6-0.1-0.7-0.3c-0.2-0.2-0.2-0.5-0.2-0.7c0-0.2,0.1-0.3,0.2-0.4c0.1-0.1,0.2-0.2,0.4-0.3c0.1-0.1,0.3-0.1,0.4-0.2h0.5
		c0.3,0,0.7-0.1,1-0.2v-0.2c0.1-0.2,0.1-0.3,0-0.5c-0.2-0.1-0.4-0.2-0.6-0.2c-0.2,0-0.4,0-0.6,0.1c-0.2,0.1-0.3,0.3-0.4,0.5h-0.5
		c0.1-0.2,0.2-0.4,0.4-0.6c0.2-0.1,0.3-0.3,0.6-0.3c0.2,0,0.5,0,0.7,0c0.2,0,0.4,0,0.6,0.1c0.1,0.1,0.3,0.1,0.3,0.3
		c0,0.1,0,0.3,0,0.4c0,0.2,0,0.4,0,0.5l-0.2,0.7c-0.1,0.3-0.1,0.7-0.2,1c0,0.1,0,0.3,0,0.4h-0.6c0-0.1,0-0.3,0-0.4L639.8,585.6z
		 M640,584.3c-0.3,0.1-0.6,0.2-0.9,0.2h-0.5c-0.2,0.1-0.3,0.2-0.4,0.4c-0.1,0.1-0.1,0.3,0,0.4c0.1,0.1,0.3,0.2,0.4,0.2
		c0.2,0,0.4,0,0.6-0.1c0.2-0.1,0.3-0.2,0.4-0.4c0.1-0.2,0.2-0.4,0.2-0.6v-0.2L640,584.3z M642.9,584.5c0.1-0.5,0.4-1,0.8-1.3
		c0.3-0.2,0.7-0.3,1.1-0.3c0.4,0,0.8,0.2,1,0.5c0.2,0.4,0.3,0.8,0.2,1.3c-0.1,0.4-0.2,0.7-0.4,1c-0.3,0.5-0.9,0.7-1.5,0.7
		c-0.4,0-0.8-0.2-1-0.5C642.8,585.5,642.8,585,642.9,584.5L642.9,584.5z M643.4,584.5c-0.1,0.3-0.1,0.7,0,1c0.1,0.2,0.4,0.4,0.6,0.4
		c0.3,0,0.6-0.1,0.7-0.3c0.3-0.3,0.4-0.6,0.5-1c0.1-0.3,0.1-0.6,0-0.9c-0.1-0.2-0.4-0.4-0.6-0.4c-0.3,0-0.6,0.1-0.7,0.3
		C643.7,583.8,643.5,584.2,643.4,584.5z M647.6,587.7l1-4.6h0.5v0.4c0.1-0.1,0.3-0.3,0.5-0.4c0.2,0,0.4,0,0.6,0
		c0.3,0,0.5,0.1,0.7,0.3c0.2,0.2,0.3,0.4,0.3,0.6c0.1,0.3,0.1,0.6,0,0.9c-0.1,0.3-0.2,0.6-0.4,0.9c-0.2,0.3-0.4,0.5-0.6,0.6
		c-0.2,0.1-0.5,0.2-0.7,0.2c-0.2,0-0.3-0.1-0.5-0.2c-0.1-0.1-0.2-0.2-0.3-0.3l-0.4,1.6L647.6,587.7z M648.8,584.8
		c-0.1,0.3-0.1,0.7,0,1c0.1,0.2,0.3,0.3,0.5,0.4c0.3,0,0.5-0.1,0.7-0.3c0.2-0.3,0.4-0.6,0.5-1c0.1-0.3,0.1-0.7,0-1
		c-0.1-0.2-0.3-0.3-0.5-0.4c-0.3,0-0.5,0.1-0.7,0.3C649,584.1,648.8,584.5,648.8,584.8L648.8,584.8z M651.3,586.6l0.7-3.3h0.5v0.5
		c0.1-0.2,0.3-0.3,0.4-0.4c0.1,0,0.3,0,0.4,0c0.2,0,0.4,0.1,0.5,0.2l-0.3,0.5c-0.1-0.1-0.2-0.1-0.4-0.2c-0.1,0-0.2,0-0.4,0
		c-0.1,0.1-0.2,0.2-0.3,0.3c-0.1,0.2-0.2,0.4-0.2,0.7l-0.4,1.7H651.3z M653.5,585.1c0.1-0.5,0.4-1,0.8-1.3c0.3-0.2,0.7-0.3,1.1-0.3
		c0.4,0,0.7,0.2,1,0.5c0.2,0.4,0.3,0.8,0.2,1.3c-0.1,0.4-0.2,0.7-0.4,1c-0.3,0.5-0.9,0.7-1.5,0.7c-0.4,0-0.8-0.2-1-0.5
		C653.4,586,653.4,585.5,653.5,585.1L653.5,585.1z M654.1,585.1c-0.1,0.3-0.1,0.7,0,1c0.1,0.2,0.3,0.3,0.6,0.4
		c0.3,0,0.6-0.1,0.7-0.3c0.3-0.3,0.4-0.6,0.5-1c0.1-0.3,0.1-0.6,0-0.9c-0.1-0.2-0.3-0.3-0.6-0.4c-0.3,0-0.6,0.1-0.7,0.3
		C654.3,584.4,654.1,584.7,654.1,585.1z M657.6,583.1l0.1-0.7h0.6l-0.1,0.7H657.6z M655.8,588.3l0.2-0.5h0.2c0.1,0,0.2,0,0.3,0
		c0.1-0.2,0.2-0.4,0.2-0.6l0.8-3.5h0.6l-0.8,3.5c0,0.3-0.2,0.6-0.3,0.8c-0.2,0.2-0.5,0.3-0.7,0.3L655.8,588.3L655.8,588.3z
		 M660.6,586.1h0.6c-0.1,0.3-0.4,0.6-0.7,0.8c-0.3,0.2-0.6,0.2-1,0.2c-0.4,0-0.8-0.2-1-0.5c-0.2-0.4-0.3-0.9-0.1-1.3
		c0.1-0.5,0.3-0.9,0.7-1.3c0.3-0.3,0.7-0.4,1.2-0.4c0.4,0,0.7,0.2,0.9,0.5c0.2,0.4,0.3,0.9,0.1,1.3v0.2l-2.4-0.1
		c-0.1,0.3,0,0.6,0.1,0.9c0.1,0.2,0.4,0.3,0.6,0.3c0.2,0,0.4,0,0.6-0.1C660.4,586.4,660.5,586.2,660.6,586.1L660.6,586.1z
		 M659,585.1h1.8c0.1-0.2,0.1-0.4,0-0.6c-0.1-0.2-0.3-0.4-0.6-0.4c-0.2,0-0.5,0.1-0.7,0.2c-0.2,0.2-0.4,0.4-0.4,0.7L659,585.1z"/>
	<path class="st10" d="M664.2,586.1h0.5c-0.1,0.4-0.3,0.7-0.6,0.9c-0.3,0.2-0.6,0.3-0.9,0.3c-0.4,0-0.7-0.2-0.9-0.5
		c-0.2-0.4-0.2-0.9-0.1-1.3c0.1-0.3,0.2-0.6,0.4-0.9c0.2-0.3,0.4-0.4,0.7-0.6c0.3-0.1,0.5-0.2,0.8-0.2c0.3,0,0.6,0.1,0.8,0.3
		c0.2,0.2,0.3,0.5,0.3,0.8h-0.6c0-0.2,0-0.4-0.2-0.5c-0.1-0.1-0.3-0.2-0.4-0.2c-0.3,0-0.5,0.1-0.7,0.3c-0.2,0.3-0.4,0.6-0.5,0.9
		c-0.1,0.3-0.1,0.7,0,1c0.1,0.2,0.3,0.3,0.6,0.4c0.2,0,0.4-0.1,0.6-0.2c0.2-0.2,0.3-0.4,0.4-0.6L664.2,586.1z M666.2,587.1v0.5h-0.4
		c-0.2,0-0.3,0-0.4-0.1c-0.1-0.1-0.2-0.2-0.2-0.3c0-0.2,0-0.4,0-0.7l0.4-1.9h-0.4v-0.4h0.7l0.2-0.8l0.6-0.3l-0.3,1.2h0.6v0.4h-0.6
		l-0.5,1.9c0,0.1,0,0.2,0,0.3c0,0,0,0.1,0,0.1L666.2,587.1L666.2,587.1z M666.8,586c0.1-0.5,0.4-1,0.8-1.3c0.3-0.2,0.7-0.3,1.1-0.3
		c0.4,0,0.8,0.2,1,0.5c0.2,0.4,0.3,0.9,0.1,1.3c-0.1,0.4-0.2,0.7-0.4,1c-0.3,0.5-0.9,0.7-1.5,0.7c-0.4,0-0.8-0.2-1-0.5
		c-0.2-0.4-0.2-0.9,0-1.3L666.8,586z M667.3,586c-0.1,0.3-0.1,0.7,0,1c0.1,0.2,0.3,0.4,0.6,0.4c0.3,0,0.5-0.1,0.7-0.3
		c0.3-0.3,0.4-0.6,0.5-0.9c0.1-0.3,0.1-0.6,0-0.9c-0.1-0.2-0.3-0.4-0.6-0.4c-0.3,0-0.5,0.1-0.7,0.3
		C667.6,585.3,667.4,585.6,667.3,586L667.3,586z M673.8,588.2v-0.4c-0.2,0.3-0.6,0.5-1,0.4c-0.2,0-0.5-0.1-0.6-0.3
		c-0.2-0.2-0.3-0.4-0.4-0.7c-0.1-0.3-0.1-0.6,0-0.9c0.1-0.3,0.2-0.6,0.4-0.9c0.1-0.2,0.4-0.5,0.6-0.6c0.2-0.1,0.5-0.2,0.8-0.2
		c0.2,0,0.3,0.1,0.5,0.2c0.1,0.1,0.2,0.2,0.3,0.4l0.4-1.7h0.5l-1.1,4.6h-0.5L673.8,588.2z M672.5,586.5c-0.1,0.3-0.1,0.7,0,1
		c0.1,0.2,0.3,0.4,0.5,0.4c0.2,0,0.5-0.1,0.7-0.3c0.2-0.2,0.4-0.6,0.5-0.9c0.1-0.3,0.1-0.7,0-1c-0.1-0.2-0.3-0.4-0.6-0.4
		c-0.3,0-0.5,0.1-0.7,0.3C672.6,585.8,672.5,586.1,672.5,586.5L672.5,586.5z M677.6,587.6l0.5,0.1c-0.2,0.3-0.4,0.6-0.7,0.7
		c-0.3,0.2-0.6,0.2-1,0.2c-0.4,0-0.8-0.2-1-0.6c-0.2-0.4-0.2-0.9,0-1.3c0.1-0.5,0.4-0.9,0.7-1.3c0.3-0.3,0.8-0.4,1.2-0.4
		c0.4,0,0.7,0.2,0.9,0.6c0.2,0.4,0.2,0.9,0,1.3v0.2L676,587c-0.1,0.3-0.1,0.6,0,0.9c0.1,0.2,0.4,0.3,0.6,0.4c0.2,0,0.4,0,0.6-0.1
		C677.3,588,677.5,587.8,677.6,587.6L677.6,587.6z M676,586.5l1.8,0.2c0.1-0.2,0.1-0.4,0-0.6c-0.1-0.2-0.3-0.4-0.6-0.4
		c-0.2,0-0.5,0-0.7,0.2C676.3,586,676.2,586.2,676,586.5L676,586.5z M683.8,587.6l0.6,0.2c-0.2,0.4-0.5,0.8-0.9,1.1
		c-0.4,0.2-0.8,0.3-1.3,0.3c-0.4,0-0.8-0.2-1.1-0.4c-0.3-0.3-0.4-0.6-0.5-0.9c-0.1-0.4-0.1-0.8,0-1.3c0.1-0.4,0.3-0.9,0.6-1.2
		c0.5-0.6,1.3-1,2.1-0.9c0.4,0,0.7,0.2,1,0.5c0.2,0.3,0.4,0.7,0.4,1h-0.6c0-0.3-0.1-0.6-0.3-0.8c-0.2-0.2-0.4-0.3-0.7-0.3
		c-0.3,0-0.6,0-0.9,0.2c-0.3,0.2-0.5,0.4-0.6,0.6c-0.2,0.3-0.3,0.6-0.4,0.9c-0.1,0.3-0.1,0.7,0,1c0,0.3,0.1,0.5,0.4,0.7
		c0.2,0.2,0.4,0.3,0.7,0.3c0.3,0,0.6,0,0.9-0.2c0.3-0.2,0.5-0.5,0.7-0.8L683.8,587.6z M684.9,587.6c0.1-0.5,0.4-1,0.9-1.3
		c0.3-0.2,0.7-0.3,1.1-0.3c0.4,0,0.7,0.2,0.9,0.6c0.2,0.4,0.2,0.9,0,1.3c-0.1,0.4-0.2,0.7-0.5,1c-0.2,0.2-0.4,0.4-0.7,0.5
		c-0.3,0.1-0.5,0.1-0.8,0.1c-0.4,0-0.7-0.2-0.9-0.6C684.7,588.5,684.7,588.1,684.9,587.6L684.9,587.6z M685.4,587.6
		c-0.1,0.3-0.1,0.7,0,1c0.1,0.2,0.3,0.4,0.6,0.4c0.3,0,0.5-0.1,0.7-0.2c0.3-0.3,0.5-0.6,0.5-0.9c0.1-0.3,0.1-0.7,0-1
		c-0.1-0.2-0.3-0.4-0.6-0.4c-0.3,0-0.5,0.1-0.7,0.2C685.7,587,685.5,587.3,685.4,587.6L685.4,587.6z M688,589.7l1.2-4.6h0.5
		l-1.2,4.6H688z M691.4,590.1l0.1-0.5c-0.3,0.3-0.7,0.5-1.1,0.4c-0.2,0-0.3-0.1-0.5-0.2c-0.1-0.1-0.2-0.2-0.3-0.3c0-0.1,0-0.3,0-0.4
		c0-0.2,0-0.4,0-0.5l0.6-2.1h0.5l-0.5,1.8c-0.1,0.2-0.1,0.4-0.1,0.6c0,0.1,0,0.3,0.1,0.4c0.1,0.1,0.2,0.2,0.4,0.2c0.2,0,0.3,0,0.5,0
		c0.2-0.1,0.3-0.2,0.4-0.3c0.1-0.2,0.2-0.4,0.3-0.6l0.5-1.8h0.5l-0.9,3.3H691.4L691.4,590.1z M692.7,590.2l0.9-3.3h0.5l-0.1,0.5
		c0.1-0.2,0.3-0.3,0.5-0.4c0.2-0.1,0.4-0.1,0.6,0c0.2,0,0.4,0.1,0.5,0.2c0.1,0.1,0.2,0.3,0.2,0.5c0.3-0.3,0.7-0.5,1.1-0.5
		c0.3,0,0.5,0.1,0.6,0.4c0.1,0.3,0.1,0.6,0,0.9l-0.6,2.2h-0.5l0.6-2.1c0-0.2,0-0.3,0-0.5c0-0.1-0.1-0.2-0.1-0.3
		c-0.1-0.1-0.2-0.1-0.3-0.1c-0.2,0-0.4,0-0.6,0.2c-0.2,0.2-0.4,0.4-0.4,0.7l-0.5,1.9h-0.5l0.6-2.2c0.1-0.2,0.1-0.4,0-0.6
		c-0.1-0.1-0.2-0.2-0.4-0.2c-0.1,0-0.3,0-0.4,0c-0.2,0.1-0.3,0.2-0.4,0.3c-0.1,0.2-0.2,0.4-0.3,0.7l-0.5,1.7h-0.5L692.7,590.2z
		 M698.3,591h-0.5l1.3-4.6h0.5l-0.5,1.6c0.3-0.3,0.6-0.4,1-0.3c0.2,0,0.4,0.1,0.5,0.2c0.1,0.1,0.3,0.2,0.3,0.4c0,0.2,0,0.4,0,0.6
		c0,0.7-0.3,1.4-0.9,1.9c-0.3,0.3-0.7,0.4-1.1,0.3c-0.3,0-0.6-0.3-0.7-0.6L698.3,591L698.3,591z M698.7,589.3
		c-0.1,0.3-0.1,0.6,0,0.9c0,0.3,0.3,0.5,0.6,0.5c0.3,0,0.5-0.1,0.7-0.2c0.3-0.2,0.5-0.6,0.5-0.9c0.1-0.3,0.1-0.7,0-1
		c-0.1-0.2-0.3-0.4-0.5-0.4c-0.3,0-0.5,0.1-0.7,0.2C699.1,588.6,698.9,588.9,698.7,589.3L698.7,589.3z M703.3,591.2
		c-0.2,0.1-0.4,0.2-0.7,0.3c-0.2,0-0.4,0-0.6,0c-0.3,0-0.6-0.1-0.7-0.4c-0.1-0.2-0.1-0.5,0-0.7c0-0.2,0.1-0.3,0.2-0.4
		c0.1-0.1,0.2-0.2,0.4-0.3c0.1-0.1,0.3-0.1,0.4-0.1h0.5c0.3,0,0.7,0,1,0v-0.2c0.1-0.2,0.1-0.3,0-0.5c-0.1-0.1-0.3-0.2-0.5-0.2
		c-0.2-0.1-0.4-0.1-0.6,0c-0.2,0.1-0.3,0.3-0.4,0.5l-0.5-0.2c0.1-0.2,0.2-0.4,0.4-0.5c0.2-0.1,0.4-0.2,0.6-0.3c0.2,0,0.5,0,0.7,0
		c0.2,0,0.4,0.1,0.6,0.2c0.1,0.1,0.2,0.2,0.3,0.3c0,0.1,0,0.3,0,0.4c0,0.2-0.1,0.4-0.1,0.5l-0.2,0.7c-0.1,0.3-0.2,0.7-0.2,1
		c0,0.1,0,0.3,0,0.4h-0.6c0-0.1,0-0.3,0-0.4L703.3,591.2z M703.6,590c-0.3,0-0.6,0-0.9,0h-0.5c-0.1,0-0.2,0.1-0.3,0.2
		c-0.1,0.1-0.1,0.2-0.2,0.3c-0.1,0.1-0.1,0.3,0,0.4c0.1,0.1,0.3,0.2,0.4,0.2c0.2,0.1,0.4,0.1,0.6,0c0.2,0,0.4,0,0.6-0.1
		c0.1-0.2,0.2-0.4,0.2-0.6v-0.2L703.6,590z M704.5,591.9l1-3.2h0.5l-0.1,0.5c0.3-0.3,0.7-0.5,1.2-0.4c0.2,0,0.3,0.1,0.5,0.2
		c0.1,0.1,0.2,0.2,0.3,0.3c0,0.1,0,0.3,0,0.4c0,0.2-0.1,0.4-0.1,0.6l-0.6,2h-0.5l0.6-2c0-0.2,0-0.4,0-0.5c0-0.1,0-0.2-0.1-0.3
		c-0.1-0.1-0.2-0.1-0.3-0.2c-0.2,0-0.5,0-0.7,0.1c-0.3,0.2-0.4,0.5-0.5,0.8l-0.6,1.8h-0.5L704.5,591.9z M708.1,590.7
		c0.1-0.5,0.5-1,0.9-1.3c0.3-0.2,0.7-0.3,1.1-0.2c0.4,0,0.7,0.3,0.9,0.6c0.2,0.4,0.2,0.9,0,1.3c-0.1,0.4-0.3,0.7-0.5,1
		c-0.2,0.2-0.4,0.4-0.7,0.5c-0.3,0.1-0.5,0.1-0.8,0c-0.4,0-0.7-0.3-0.9-0.6C707.9,591.5,707.9,591.1,708.1,590.7L708.1,590.7z
		 M708.7,590.7c-0.1,0.3-0.1,0.7,0,1c0.1,0.2,0.3,0.4,0.6,0.4c0.3,0,0.5,0,0.7-0.2c0.3-0.2,0.5-0.6,0.6-0.9c0.1-0.3,0.1-0.7,0-1
		c-0.1-0.2-0.3-0.4-0.6-0.4c-0.3,0-0.5,0-0.7,0.2C709,590,708.8,590.4,708.7,590.7L708.7,590.7z"/>
	<line class="st11" x1="735" y1="581.9" x2="721.5" y2="605.9"/>
	<path class="st2" d="M392.3,361.3c76-1,427.3,214.6,428.3,254.3L798.8,649c-9.8-46.1-366.2-255.9-425-252L392.3,361.3L392.3,361.3z
		"/>
	<path class="st12" d="M819,618.4l-18.5,28.7 M391.7,363.2L374.5,395"/>
	<path class="st3" d="M371.6,395.7c14.1-9.6,117.8,36.6,226.4,102.1s211.7,139.8,202.4,153.7l-3.1,4.8l-1.4,1.1
		c0.3-0.2,1.9-2.2-0.2-7.3c-4.6-15.2-78-73.7-199.7-147.2c-118.7-70.8-217.6-113.4-227.5-101.2L371.6,395.7L371.6,395.7z M822.7,618
		c8.8-17.6-87.3-90.1-206.6-160.7c-122-69.2-210-109.9-226.1-97.7l-3.6,6.5c0,0.4,0.1-0.4,0.9-1c2.9-2.6,7.8-2.4,9.9-2.4
		C425,363.1,504,399.5,614.9,463c48.5,28.3,205.2,128.7,204.6,157c0,2.4,0.2,2.9-0.7,4.1L822.7,618L822.7,618z"/>
	<path class="st13" d="M451.5,527.5c0.7,81.6,66.6,147.6,148.2,148.3c81.9,0,148.4-66.3,148.6-148.2l0,0v-198l-296.9-0.4
		L451.5,527.5L451.5,527.5z"/>
	<path class="st14" d="M457.1,527.8L457.1,527.8L457.1,527.8c0.1,37.6,15.1,73.6,41.9,100c55.4,55.6,145.4,55.7,201,0.3
		c0,0,0.1-0.1,0.1-0.1c26.7-26.5,41.7-62.5,41.8-100.1l0,0V336H457.2L457.1,527.8L457.1,527.8z M684.6,393.4v122.2v12.9l0,0
		c0,3.5-0.2,7.1-0.6,10.6c-2.3,18.7-10.8,36.1-24.3,49.3c-16,15.9-37.6,24.9-60.1,24.8c-46.6-0.7-84.2-38.5-84.6-85.1V393.1
		l169.8,0.3H684.6z"/>
	<path class="st15" d="M581.6,506L581.6,506c-0.1,5.3,1.9,10.4,5.5,14.4c6.6,7.3,17.8,7.9,25.1,1.3c0.5-0.4,0.9-0.9,1.3-1.3
		c3.6-3.9,5.5-9,5.5-14.2l0,0v-27h-37.5L581.6,506L581.6,506z"/>
	<path class="st16" d="M611,485.6c-2,0-3.7,1.7-3.7,3.7c0,2,1.7,3.7,3.7,3.7c2,0,3.7-1.7,3.7-3.7C614.7,487.3,613,485.6,611,485.6z"
		/>
	<path class="st16" d="M600.6,495.6c-2,0-3.7,1.7-3.7,3.7c0,2,1.7,3.7,3.7,3.7c2,0,3.7-1.7,3.7-3.7v0
		C604.3,497.3,602.6,495.6,600.6,495.6z"/>
	<path class="st16" d="M610.9,506c-2,0-3.7,1.7-3.7,3.7c0,2,1.7,3.7,3.7,3.7c2,0,3.7-1.7,3.7-3.7C614.7,507.7,613,506,610.9,506z"/>
	<path class="st16" d="M590.7,506.1c-2,0-3.7,1.7-3.7,3.7c0,2,1.7,3.7,3.7,3.7c2,0,3.7-1.7,3.7-3.7v0
		C594.4,507.7,592.7,506.1,590.7,506.1z"/>
	<path class="st16" d="M590.6,485.6c-2,0-3.7,1.7-3.7,3.7c0,2,1.7,3.7,3.7,3.7c2,0,3.7-1.7,3.7-3.7v0
		C594.3,487.3,592.7,485.6,590.6,485.6z"/>
	<path class="st15" d="M581.4,570.5L581.4,570.5c0,5.3,2,10.4,5.5,14.2c6.6,7.3,17.8,7.9,25.1,1.3c0.5-0.4,0.9-0.9,1.3-1.3
		c3.6-3.9,5.5-9,5.5-14.2l0,0v-26.9h-37.5L581.4,570.5L581.4,570.5z"/>
	<path class="st16" d="M610.7,550.1c-2,0-3.7,1.7-3.7,3.7c0,2,1.7,3.7,3.7,3.7c2,0,3.7-1.7,3.7-3.7l0,0
		C614.4,551.8,612.8,550.1,610.7,550.1z"/>
	<path class="st16" d="M600.4,560c-2,0-3.7,1.7-3.7,3.7c0,2,1.7,3.7,3.7,3.7c2,0,3.7-1.6,3.7-3.7C604.1,561.7,602.4,560.1,600.4,560
		L600.4,560z"/>
	<path class="st16" d="M610.7,570.5c-2,0-3.7,1.7-3.7,3.7c0,2,1.7,3.7,3.7,3.7c2,0,3.7-1.7,3.7-3.7l0,0
		C614.4,572.2,612.8,570.5,610.7,570.5z"/>
	<path class="st16" d="M590.5,570.5c-2,0-3.7,1.7-3.7,3.7c0,2,1.7,3.7,3.7,3.7c2,0,3.7-1.7,3.7-3.7l0,0
		C594.2,572.2,592.5,570.5,590.5,570.5z"/>
	<path class="st16" d="M590.4,550.1c-2,0-3.7,1.7-3.7,3.7c0,2,1.7,3.7,3.7,3.7c2,0,3.7-1.7,3.7-3.7v0
		C594.1,551.7,592.5,550.1,590.4,550.1z"/>
	<path class="st15" d="M529.6,506.1L529.6,506.1c0,5.3,2,10.4,5.5,14.2c6.6,7.3,17.8,7.9,25.1,1.3c0.5-0.4,0.9-0.9,1.3-1.3
		c3.6-3.9,5.5-9,5.5-14.2l0,0v-26.9h-37.5L529.6,506.1L529.6,506.1z"/>
	<path class="st16" d="M559,485.8c-2,0-3.7,1.7-3.7,3.7s1.7,3.7,3.7,3.7c2,0,3.7-1.7,3.7-3.7v0C562.7,487.4,561,485.8,559,485.8z"/>
	<path class="st16" d="M548.6,495.7c-2,0-3.7,1.7-3.7,3.7s1.7,3.7,3.7,3.7c2,0,3.7-1.7,3.7-3.7v0
		C552.3,497.4,550.6,495.8,548.6,495.7z"/>
	<path class="st16" d="M559,506.2c-2,0-3.7,1.7-3.7,3.7c0,2,1.7,3.7,3.7,3.7c2,0,3.7-1.7,3.7-3.7C562.7,507.8,561,506.2,559,506.2z"
		/>
	<path class="st16" d="M538.7,506.2c-2,0-3.7,1.7-3.7,3.7s1.7,3.7,3.7,3.7c2,0,3.7-1.7,3.7-3.7v0
		C542.4,507.9,540.7,506.2,538.7,506.2z"/>
	<path class="st16" d="M538.6,485.7c-2,0-3.7,1.7-3.7,3.7s1.7,3.7,3.7,3.7c2,0,3.6-1.6,3.7-3.7C542.4,487.4,540.7,485.8,538.6,485.7
		L538.6,485.7z"/>
	<path class="st15" d="M633.5,506.1L633.5,506.1c0,5.3,2,10.4,5.5,14.2c6.6,7.3,17.8,7.9,25.1,1.3c0.5-0.4,0.9-0.9,1.3-1.3
		c3.6-3.9,5.5-9,5.5-14.2l0,0v-26.9h-37.5L633.5,506.1L633.5,506.1z"/>
	<path class="st16" d="M662.8,485.7c-2,0-3.7,1.7-3.7,3.7c0,2,1.7,3.7,3.7,3.7c2,0,3.7-1.7,3.7-3.7
		C666.6,487.4,664.9,485.7,662.8,485.7z"/>
	<path class="st16" d="M652.4,495.7c-2,0-3.7,1.7-3.7,3.7c0,2,1.7,3.7,3.7,3.7c2,0,3.7-1.7,3.7-3.7v0
		C656.1,497.4,654.5,495.7,652.4,495.7z"/>
	<path class="st16" d="M662.8,506.2c-2,0-3.7,1.7-3.7,3.7s1.7,3.7,3.7,3.7c2,0,3.7-1.7,3.7-3.7C666.5,507.8,664.9,506.2,662.8,506.2
		z"/>
	<path class="st16" d="M642.5,506.2c-2,0-3.7,1.7-3.7,3.7c0,2,1.7,3.7,3.7,3.7c2,0,3.7-1.7,3.7-3.7v0
		C646.2,507.8,644.6,506.2,642.5,506.2z"/>
	<path class="st16" d="M642.5,485.7c-2,0-3.7,1.7-3.7,3.7c0,2,1.7,3.7,3.7,3.7c2,0,3.7-1.7,3.7-3.7v0
		C646.2,487.4,644.5,485.7,642.5,485.7z"/>
	<path class="st15" d="M581.6,441L581.6,441c0,5.3,2,10.4,5.5,14.2c6.6,7.3,17.8,7.9,25.1,1.3c0.5-0.4,0.9-0.9,1.3-1.3
		c3.6-3.9,5.5-9,5.5-14.2l0,0v-26.9h-37.5L581.6,441L581.6,441z"/>
	<path class="st16" d="M611,420.6c-2,0-3.7,1.7-3.7,3.7c0,2,1.7,3.7,3.7,3.7c2,0,3.7-1.7,3.7-3.7v0C614.7,422.3,613,420.6,611,420.6
		z"/>
	<path class="st16" d="M600.5,430.6c-2,0-3.7,1.7-3.7,3.7s1.7,3.7,3.7,3.7c2,0,3.7-1.7,3.7-3.7C604.3,432.2,602.6,430.6,600.5,430.6
		z"/>
	<path class="st16" d="M610.9,441c-2,0-3.7,1.7-3.7,3.7c0,2,1.7,3.7,3.7,3.7c2,0,3.7-1.7,3.7-3.7C614.7,442.6,613,441,610.9,441z"/>
	<path class="st16" d="M590.7,441c-2,0-3.7,1.7-3.7,3.7c0,2,1.7,3.7,3.7,3.7c2,0,3.7-1.7,3.7-3.7C594.4,442.6,592.7,441,590.7,441z"
		/>
	<path class="st16" d="M590.6,420.6c-2,0-3.7,1.7-3.7,3.7s1.7,3.7,3.7,3.7c2,0,3.7-1.7,3.7-3.7C594.3,422.2,592.7,420.6,590.6,420.6
		z"/>
	<path class="st2" d="M475.5,386.1c0.3-13.8,10.1-17.1,10.2-17.1s10.6,3.5,10.5,17.2L475.5,386.1L475.5,386.1z"/>
	<path class="st17" d="M467,369.2l-1.7,15.9h10.3c0-13.2,9.9-15.3,10.2-15.3c0.2,0,10,2.9,10.2,15.3h10.4l-1.9-16h-37.5L467,369.2z"
		/>
	<path class="st17" d="M464.6,385.1h42.5c1,0.1,1.7,1,1.6,2l0,0c0.1,1-0.6,1.9-1.6,2h-42.5c-1-0.1-1.7-1-1.6-2l0,0
		C462.9,386.1,463.6,385.3,464.6,385.1z"/>
	<path class="st18" d="M480,385.1c0-8.3,5.6-10.6,5.7-10.6c3.9,2,6.2,6.2,5.9,10.6H480z"/>
	<path class="st18" d="M465.5,362.6h40.6c0.9,0.1,1.6,0.8,1.6,1.8l0,0c0.1,0.9-0.6,1.7-1.6,1.8h-40.6c-0.9-0.1-1.6-0.8-1.6-1.8l0,0
		C463.9,363.5,464.6,362.7,465.5,362.6z"/>
	<path class="st18" d="M466.4,366.2h38.8c0.9,0.1,1.6,0.9,1.5,1.8l0,0c0.1,0.9-0.6,1.7-1.5,1.8h-38.8c-0.9-0.1-1.6-0.9-1.5-1.8l0,0
		C464.8,367,465.5,366.2,466.4,366.2z"/>
	<path class="st19" d="M478.9,339.7h3.1v2.2h2.2v-2.2h3.2v2.2h2.2v-2.2h3.2v5c0,0.7-0.6,1.3-1.3,1.3c0,0,0,0-0.1,0h-11
		c-0.8,0-1.4-0.6-1.4-1.3L478.9,339.7L478.9,339.7z"/>
	<polygon class="st18" points="490.5,346.4 491.2,362.6 480.4,362.5 481.1,346.4 490.5,346.4 	"/>
	<path class="st19" d="M492.3,347.6h3v2.2h2.2v-2.2h3v2.2h2.2v-2.2h3.1v5c0,0.7-0.6,1.3-1.3,1.3c0,0,0,0,0,0h-10.8
		c-0.7,0-1.4-0.6-1.4-1.3L492.3,347.6L492.3,347.6z"/>
	<polygon class="st19" points="503.9,353.9 504.2,362.6 493.9,362.6 494.2,353.9 503.9,353.9 	"/>
	<path class="st19" d="M465.8,347.6h3v2.2h2.2v-2.2h3.1v2.2h2.2v-2.2h3.1v5c0,0.7-0.6,1.3-1.3,1.3c0,0,0,0,0,0h-10.8
		c-0.7,0-1.4-0.6-1.4-1.3L465.8,347.6L465.8,347.6z"/>
	<polygon class="st19" points="477.4,353.9 477.7,362.6 467.4,362.6 467.7,353.9 477.4,353.9 	"/>
	<path class="st10" d="M484.7,351.5c0-0.6,0.5-1.1,1.1-1.1s1.1,0.5,1.1,1.1v3.8h-2.2V351.5z"/>
	<path class="st10" d="M498,357.2c0-0.6,0.5-1,1-1s1,0.5,1,1v3H498V357.2z"/>
	<path class="st10" d="M471.4,357.2c0-0.6,0.5-1,1-1c0.6,0,1,0.5,1,1v3h-2.1V357.2z"/>
	<path class="st19" d="M593.2,339.7h3.1v2.2h2.2v-2.2h3.2v2.2h2.2v-2.2h3.2v5c0,0.7-0.6,1.3-1.3,1.3c0,0,0,0-0.1,0h-11
		c-0.8,0-1.4-0.6-1.4-1.3L593.2,339.7L593.2,339.7z"/>
	<polygon class="st18" points="604.8,346.5 605.5,362.6 594.7,362.5 595.4,346.4 604.8,346.5 	"/>
	<path class="st19" d="M606.6,347.6h3v2.2h2.2v-2.2h3.1v2.2h2.2v-2.2h3.1v5c0,0.7-0.6,1.3-1.3,1.3c0,0,0,0,0,0H608
		c-0.7,0-1.4-0.6-1.4-1.3L606.6,347.6L606.6,347.6z"/>
	<polygon class="st19" points="618.2,353.9 618.5,362.6 608.2,362.6 608.5,353.9 618.2,353.9 	"/>
	<path class="st19" d="M580,347.6h3v2.2h2.2v-2.2h3.1v2.2h2.2v-2.2h3.1v5c0,0.7-0.6,1.3-1.3,1.3c0,0,0,0,0,0h-10.8
		c-0.7,0-1.4-0.6-1.4-1.3L580,347.6L580,347.6z"/>
	<polygon class="st19" points="591.6,353.9 592,362.6 581.6,362.6 581.9,353.9 591.6,353.9 	"/>
	<path class="st2" d="M589.8,386.1c0.3-13.8,10.1-17.1,10.2-17.1c0.1,0,10.6,3.5,10.5,17.2L589.8,386.1L589.8,386.1z"/>
	<path class="st17" d="M581.3,369.2l-1.7,15.9H590c0-13.2,9.9-15.3,10.2-15.3c0.2,0,10,2.9,10.2,15.3h10.4l-1.9-16h-37.5
		L581.3,369.2z"/>
	<path class="st17" d="M578.9,385.2h42.4c1,0.1,1.7,1,1.6,2l0,0c0.1,1-0.6,1.9-1.6,2h-42.4c-1-0.1-1.7-1-1.6-2l0,0
		C577.2,386.1,577.9,385.3,578.9,385.2z"/>
	<path class="st18" d="M594.3,385.1c0-8.3,5.6-10.6,5.7-10.6c3.9,2,6.2,6.2,5.9,10.6H594.3z"/>
	<path class="st18" d="M579.9,362.7h40.6c0.9,0.1,1.6,0.8,1.6,1.8l0,0c0.1,0.9-0.6,1.7-1.6,1.8h-40.6c-0.9-0.1-1.6-0.8-1.6-1.8l0,0
		C578.2,363.5,578.9,362.7,579.9,362.7z"/>
	<path class="st18" d="M580.7,366.2h38.9c0.9,0.1,1.6,0.9,1.5,1.8l0,0c0.1,0.9-0.6,1.7-1.5,1.8h-38.9c-0.9-0.1-1.5-0.9-1.5-1.8l0,0
		C579.1,367.1,579.8,366.3,580.7,366.2z"/>
	<path class="st10" d="M599,351.5c0-0.6,0.5-1.1,1.1-1.1c0.6,0,1.1,0.5,1.1,1.1v3.8H599V351.5z"/>
	<path class="st10" d="M612.3,357.2c0-0.6,0.5-1,1-1s1,0.5,1,1v3h-2.1V357.2z"/>
	<path class="st10" d="M585.7,357.2c0-0.6,0.5-1,1-1s1,0.5,1,1v3h-2.1V357.2z"/>
	<path class="st19" d="M706.2,339.8h3.1v2.2h2.2v-2.2h3.2v2.2h2.2v-2.2h3.2v5c0,0.7-0.6,1.3-1.3,1.3c0,0,0,0-0.1,0h-11
		c-0.8,0-1.4-0.6-1.4-1.3L706.2,339.8L706.2,339.8z"/>
	<polygon class="st18" points="717.8,346.5 718.5,362.7 707.7,362.6 708.4,346.5 717.8,346.5 	"/>
	<path class="st19" d="M719.6,347.7h3v2.2h2.2v-2.2h3.1v2.2h2.2v-2.2h3.1v5.1c0,0.7-0.6,1.3-1.3,1.3c0,0,0,0,0,0H721
		c-0.7,0-1.4-0.6-1.4-1.3v-5V347.7z"/>
	<polygon class="st19" points="731.2,354 731.5,362.7 721.2,362.7 721.5,354 731.2,354 	"/>
	<path class="st19" d="M693.1,347.7h3v2.2h2.2v-2.2h3.1v2.2h2.2v-2.2h3.1v5.1c0,0.7-0.6,1.3-1.3,1.3c0,0,0,0,0,0h-10.8
		c-0.7,0-1.4-0.6-1.4-1.3L693.1,347.7L693.1,347.7z"/>
	<polygon class="st19" points="704.6,354 705,362.7 694.7,362.7 694.9,354 704.6,354 	"/>
	<path class="st2" d="M702.8,386.2c0.3-13.8,10.1-17.1,10.2-17.1c0.1,0,10.6,3.5,10.5,17.2L702.8,386.2L702.8,386.2z"/>
	<path class="st17" d="M694.3,369.3l-1.7,15.9H703c0-13.2,9.9-15.3,10.2-15.3c0.2,0,10,2.9,10.2,15.3h10.4l-1.9-16h-37.5
		L694.3,369.3z"/>
	<path class="st17" d="M691.9,385.3h42.3c1,0.1,1.7,1,1.6,2l0,0c0.1,1-0.6,1.9-1.6,2h-42.3c-1-0.1-1.7-1-1.6-2l0,0
		C690.2,386.2,690.9,385.4,691.9,385.3z"/>
	<path class="st18" d="M707.3,385.2c0-8.3,5.6-10.6,5.7-10.6c3.9,2,6.2,6.2,5.9,10.6H707.3z"/>
	<path class="st18" d="M692.8,362.7h40.6c0.9,0.1,1.6,0.8,1.6,1.8l0,0c0.1,0.9-0.6,1.7-1.6,1.8h-40.6c-0.9-0.1-1.6-0.8-1.6-1.8l0,0
		C691.2,363.6,691.9,362.8,692.8,362.7z"/>
	<path class="st18" d="M693.7,366.3h38.8c0.9,0.1,1.6,0.9,1.5,1.8l0,0c0.1,0.9-0.6,1.7-1.5,1.8h-38.8c-0.9-0.1-1.6-0.9-1.5-1.8l0,0
		C692.1,367.1,692.8,366.3,693.7,366.3z"/>
	<path class="st10" d="M712.1,351.6c0-0.6,0.5-1.1,1.1-1.1c0.6,0,1.1,0.5,1.1,1.1v3.8h-2.2V351.6z"/>
	<path class="st10" d="M725.4,357.2c0-0.6,0.5-1,1-1s1,0.5,1,1v3h-2.1V357.2z"/>
	<path class="st10" d="M698.7,357.2c0-0.6,0.5-1,1-1s1,0.5,1,1v3h-2.1V357.2z"/>
	<path class="st20" d="M479,455.5h3.1v2.2h2.2v-2.2h3.2v2.2h2.2v-2.2h3.2v5c0,0.7-0.6,1.3-1.3,1.3c0,0,0,0-0.1,0h-11
		c-0.8,0-1.4-0.6-1.4-1.3L479,455.5L479,455.5z"/>
	<polygon class="st21" points="490.5,462.2 491.2,478.3 480.5,478.3 481.2,462.2 490.5,462.2 	"/>
	<path class="st22" d="M492.3,463.4h3v2.2h2.2v-2.2h3.1v2.2h2.2v-2.2h3.1v5c0,0.7-0.6,1.3-1.3,1.3c0,0,0,0,0,0h-10.8
		c-0.7,0-1.4-0.6-1.4-1.3L492.3,463.4L492.3,463.4z"/>
	<polygon class="st23" points="503.9,469.7 504.3,478.3 493.9,478.3 494.2,469.7 503.9,469.7 	"/>
	<path class="st22" d="M465.8,463.4h3v2.2h2.2v-2.2h3v2.2h2.2v-2.2h3.1v5c0,0.7-0.6,1.3-1.3,1.3c0,0,0,0,0,0h-10.8
		c-0.7,0-1.4-0.6-1.4-1.3L465.8,463.4L465.8,463.4z"/>
	<polygon class="st23" points="477.4,469.7 477.7,478.4 467.4,478.4 467.7,469.7 477.4,469.7 	"/>
	<path class="st2" d="M475.5,501.9c0.3-13.8,10.1-17.1,10.2-17.1c0.1,0,10.6,3.5,10.5,17.2L475.5,501.9L475.5,501.9z"/>
	<path class="st24" d="M467.1,485.1l-1.7,15.9h10.3c0-13.2,9.9-15.3,10.2-15.3s10,2.9,10.2,15.3h10.4l-1.9-16h-37.5L467.1,485.1z"/>
	<path class="st24" d="M464.7,500.9h42.4c1,0.1,1.7,1,1.6,2l0,0c0.1,1-0.6,1.9-1.6,2h-42.4c-1-0.1-1.7-1-1.6-2l0,0
		C463,501.9,463.7,501,464.7,500.9z"/>
	<path class="st25" d="M480.1,500.9c0-8.3,5.6-10.6,5.7-10.6c3.9,2,6.2,6.2,5.9,10.6H480.1z"/>
	<path class="st21" d="M465.6,478.5h40.6c0.9,0.1,1.6,0.8,1.6,1.8l0,0c0.1,0.9-0.6,1.7-1.6,1.8h-40.6c-0.9-0.1-1.6-0.8-1.6-1.8l0,0
		C464,479.3,464.7,478.5,465.6,478.5z"/>
	<path class="st21" d="M466.4,481.9h38.8c0.9,0.1,1.6,0.9,1.5,1.8l0,0c0.1,0.9-0.6,1.7-1.5,1.8h-38.8c-0.9-0.1-1.6-0.9-1.5-1.8l0,0
		C464.9,482.8,465.5,482,466.4,481.9z"/>
	<path class="st10" d="M484.8,467.3c0-0.6,0.5-1.1,1.1-1.1s1.1,0.5,1.1,1.1v3.8h-2.2V467.3z"/>
	<path class="st10" d="M498.1,472.9c0-0.6,0.5-1,1-1s1,0.5,1,1v3h-2.1V472.9z"/>
	<path class="st10" d="M471.5,472.9c0-0.6,0.5-1,1-1c0.6,0,1,0.5,1,1l0,0v3h-2.1V472.9z"/>
	<path class="st18" d="M699.6,577.7l2.2,2.2l-1.5,1.5l1.6,1.6l1.6-1.6l2.2,2.2l-1.6,1.6l1.6,1.6l1.6-1.6l2.2,2.2l-3.5,3.5
		c-0.5,0.5-1.3,0.5-1.8,0.1c0,0,0,0-0.1-0.1l-7.8-7.8c-0.5-0.5-0.5-1.4,0-1.9L699.6,577.7L699.6,577.7z"/>
	<polygon class="st26" points="703,590.6 692.1,602.4 684.5,594.8 696.4,583.9 703,590.6 	"/>
	<path class="st27" d="M703.3,592.6l2.2,2.2l-1.5,1.5l1.5,1.5l1.6-1.6l2.2,2.2l-1.6,1.6l1.5,1.5l1.6-1.6l2.2,2.2l-3.5,3.5
		c-0.5,0.5-1.3,0.5-1.8,0c0,0,0,0,0,0l-7.6-7.6c-0.5-0.5-0.5-1.4,0-1.9l3.5-3.5L703.3,592.6z"/>
	<polygon class="st19" points="707.2,605.3 701.3,611.7 694,604.4 700.3,598.4 707.2,605.3 	"/>
	<path class="st27" d="M684.7,573.9l2.2,2.2l-1.5,1.5l1.5,1.5l1.6-1.6l2.2,2.2l-1.6,1.6l1.6,1.5l1.6-1.6l2.2,2.2l-3.5,3.5
		c-0.5,0.5-1.3,0.5-1.8,0c0,0,0,0,0,0l-7.7-7.8c-0.5-0.5-0.5-1.4,0-1.9l3.5-3.5L684.7,573.9z"/>
	<polygon class="st19" points="688.4,586.5 682.5,592.9 675.2,585.6 681.5,579.7 688.4,586.5 	"/>
	<path class="st2" d="M664.3,608c10-9.5,19.2-4.9,19.3-4.9c0.1,0,5,10-4.7,19.6L664.3,608L664.3,608z"/>
	<path class="st17" d="M670.3,590.1l-12.4,10l7.3,7.3c9.3-9.2,17.9-3.8,18-3.6c0.1,0.2,5,9.1-3.5,18l7.3,7.3l10-12.6L670.3,590.1
		L670.3,590.1z"/>
	<path class="st28" d="M657.3,599.7l30,30c0.6,0.8,0.5,1.9-0.2,2.5l0,0c-0.6,0.8-1.8,0.9-2.5,0.2l-30-30c-0.6-0.8-0.5-1.9,0.2-2.5
		l0,0C655.4,599.2,656.5,599.1,657.3,599.7z"/>
	<path class="st29" d="M668.3,610.5c5.9-5.8,11.5-3.5,11.5-3.5c1.3,4.2,0,8.8-3.3,11.7L668.3,610.5z"/>
	<path class="st18" d="M673.9,584.3l28.7,28.7c0.6,0.7,0.5,1.7-0.2,2.3l0,0c-0.6,0.7-1.6,0.7-2.3,0.2l-28.7-28.7
		c-0.6-0.7-0.5-1.7,0.2-2.3l0,0C672.1,583.8,673.2,583.7,673.9,584.3z"/>
	<path class="st18" d="M672,587.5l27.5,27.5c0.5,0.7,0.4,1.6-0.2,2.2l0,0c-0.6,0.6-1.5,0.7-2.2,0.2l-27.5-27.5
		c-0.5-0.7-0.4-1.6,0.2-2.2l0,0C670.3,587,671.3,587,672,587.5z"/>
	<path class="st10" d="M695.3,589.8c0.4-0.5,1.1-0.5,1.5-0.1c0.5,0.4,0.5,1.1,0.1,1.5c0,0.1-0.1,0.1-0.1,0.1l-2.7,2.7l-1.5-1.5
		L695.3,589.8z"/>
	<path class="st10" d="M700.8,603.1c0.4-0.4,1-0.5,1.5-0.2c0.4,0.4,0.5,1,0.2,1.5c-0.1,0.1-0.1,0.1-0.2,0.2l-2.2,2.2l-1.5-1.5
		L700.8,603.1z"/>
	<path class="st10" d="M681.9,584.3c0.4-0.4,1-0.5,1.5-0.2s0.5,1,0.2,1.5c-0.1,0.1-0.1,0.1-0.2,0.2l-2.2,2.2l-1.5-1.5L681.9,584.3z"
		/>
	<path class="st19" d="M706.1,455.5h3.1v2.2h2.2v-2.2h3.2v2.2h2.2v-2.2h3.2v5c0,0.7-0.6,1.3-1.3,1.3c0,0,0,0-0.1,0h-11
		c-0.8,0-1.4-0.6-1.4-1.3L706.1,455.5L706.1,455.5z"/>
	<polygon class="st18" points="717.6,462.2 718.3,478.4 707.5,478.3 708.3,462.2 717.6,462.2 	"/>
	<path class="st19" d="M719.4,463.4h3v2.2h2.2v-2.2h3v2.2h2.2v-2.2h3.1v5c0,0.7-0.6,1.3-1.3,1.3c0,0,0,0,0,0h-10.8
		c-0.7,0-1.4-0.6-1.4-1.3L719.4,463.4L719.4,463.4z"/>
	<polygon class="st19" points="731,469.7 731.3,478.4 721,478.4 721.3,469.7 731,469.7 	"/>
	<path class="st19" d="M692.9,463.4h3v2.2h2.2v-2.2h3v2.2h2.2v-2.2h3.1v5c0,0.7-0.6,1.3-1.3,1.3c0,0,0,0,0,0h-10.8
		c-0.7,0-1.4-0.6-1.4-1.3V463.4L692.9,463.4z"/>
	<polygon class="st19" points="704.5,469.7 704.8,478.4 694.5,478.4 694.8,469.7 704.5,469.7 	"/>
	<path class="st2" d="M702.6,501.9c0.3-13.8,10.1-17.1,10.2-17.1c0.1,0,10.6,3.5,10.5,17.2L702.6,501.9L702.6,501.9z"/>
	<path class="st17" d="M694.2,485.1l-1.7,15.9h10.3c0-13.2,9.9-15.3,10.2-15.3s10,2.9,10.2,15.3h10.4l-1.9-16h-37.5L694.2,485.1z"/>
	<path class="st17" d="M691.7,500.9h42.4c1,0.1,1.7,1,1.6,2l0,0c0.1,1-0.6,1.9-1.6,2h-42.4c-1-0.1-1.7-1-1.6-2l0,0
		C690,501.9,690.8,501.1,691.7,500.9z"/>
	<path class="st18" d="M707.2,500.9c0-8.3,5.6-10.6,5.7-10.6c3.9,2,6.2,6.2,5.9,10.6H707.2z"/>
	<path class="st18" d="M692.7,478.5h40.6c0.9,0.1,1.6,0.8,1.6,1.8l0,0c0.1,0.9-0.6,1.7-1.6,1.8h-40.6c-0.9-0.1-1.6-0.8-1.6-1.8l0,0
		C691,479.3,691.7,478.5,692.7,478.5z"/>
	<path class="st18" d="M693.5,482h38.8c0.9,0.1,1.6,0.9,1.5,1.8l0,0c0.1,0.9-0.6,1.7-1.5,1.8h-38.8c-0.9-0.1-1.6-0.9-1.5-1.8l0,0
		C692,482.8,692.6,482,693.5,482z"/>
	<path class="st10" d="M711.9,467.4c0-0.6,0.5-1.1,1.1-1.1c0.6,0,1.1,0.5,1.1,1.1l0,0v3.8h-2.2V467.4z"/>
	<path class="st10" d="M725.2,472.9c0-0.6,0.5-1,1-1s1,0.5,1,1l0,0v3h-2.1V472.9z"/>
	<path class="st10" d="M698.5,472.9c0-0.6,0.5-1,1-1c0.6,0,1,0.5,1,1v3h-2.1V472.9z"/>
	<path class="st19" d="M490.2,587.2l2.2-2.2l1.5,1.5l1.6-1.6l-1.6-1.6l2.2-2.2l1.6,1.6l1.6-1.6l-1.6-1.6l2.2-2.2l3.5,3.5
		c0.5,0.5,0.5,1.3,0.1,1.8c0,0,0,0-0.1,0.1l-7.8,7.8c-0.5,0.5-1.4,0.5-1.9,0L490.2,587.2L490.2,587.2z"/>
	<polygon class="st18" points="503.1,583.8 515,594.7 507.4,602.3 496.5,590.4 503.1,583.8 	"/>
	<path class="st19" d="M505.2,583.3l2.2-2.2l1.5,1.5l1.5-1.5l-1.6-1.6l2.2-2.2l1.6,1.6l1.5-1.5l-1.6-1.6l2.2-2.2l3.5,3.5
		c0.5,0.5,0.5,1.3,0,1.8c0,0,0,0,0,0l-7.6,7.6c-0.5,0.5-1.4,0.5-1.9,0l-3.5-3.5L505.2,583.3z"/>
	<polygon class="st19" points="517.9,579.6 524.2,585.5 517,592.8 511,586.5 517.9,579.6 	"/>
	<path class="st19" d="M486.5,602.1l2.2-2.2l1.5,1.5l1.5-1.5l-1.6-1.6l2.2-2.2l1.6,1.6l1.5-1.5l-1.6-1.6l2.2-2.2l3.5,3.5
		c0.5,0.5,0.5,1.3,0,1.8c0,0,0,0,0,0l-7.6,7.6c-0.5,0.5-1.4,0.5-1.9,0l-3.5-3.5L486.5,602.1z"/>
	<polygon class="st19" points="499.1,598.4 505.5,604.3 498.2,611.6 492.3,605.2 499.1,598.4 	"/>
	<path class="st2" d="M520.5,622.4c-9.5-10-4.9-19.2-4.9-19.3c0-0.1,10-5,19.6,4.7L520.5,622.4L520.5,622.4z"/>
	<path class="st17" d="M502.7,616.5l10,12.4l7.3-7.3c-9.2-9.3-3.8-17.9-3.6-18c0.2-0.1,9.1-5,18,3.5l7.3-7.3l-12.7-9.9L502.7,616.5z
		"/>
	<path class="st30" d="M512.2,629.4l30-30c0.8-0.6,1.9-0.5,2.5,0.2l0,0c0.8,0.6,0.9,1.8,0.2,2.5l-30,30c-0.8,0.6-1.9,0.5-2.5-0.2
		l0,0C511.7,631.3,511.6,630.2,512.2,629.4z"/>
	<path class="st19" d="M523.1,618.5c-5.8-5.9-3.5-11.5-3.5-11.5c4.2-1.3,8.8,0,11.7,3.3L523.1,618.5z"/>
	<path class="st18" d="M496.9,613l28.7-28.7c0.7-0.6,1.7-0.5,2.3,0.2l0,0c0.7,0.6,0.7,1.6,0.2,2.3l-28.7,28.7
		c-0.7,0.6-1.7,0.5-2.3-0.2l0,0C496.4,614.7,496.3,613.6,496.9,613z"/>
	<path class="st18" d="M500,614.8l27.5-27.5c0.7-0.5,1.6-0.4,2.2,0.2l0,0c0.6,0.6,0.7,1.5,0.2,2.2l-27.4,27.6
		c-0.7,0.5-1.6,0.4-2.2-0.2l0,0c-0.6-0.6-0.7-1.5-0.2-2.2L500,614.8z"/>
	<path class="st10" d="M502.7,591.1c-0.5-0.4-0.5-1.1-0.1-1.5c0.4-0.5,1.1-0.5,1.5-0.1c0.1,0,0.1,0.1,0.1,0.1l2.7,2.7l-1.5,1.5
		L502.7,591.1z"/>
	<path class="st10" d="M515.9,585.7c-0.4-0.4-0.5-1-0.2-1.5c0.4-0.4,1-0.5,1.5-0.2c0.1,0.1,0.1,0.1,0.2,0.2l2.2,2.2l-1.5,1.5
		L515.9,585.7z"/>
	<path class="st10" d="M497.2,604.5c-0.4-0.4-0.5-1-0.2-1.5c0.4-0.4,1-0.5,1.5-0.2c0.1,0.1,0.1,0.1,0.2,0.2l2.2,2.2l-1.5,1.5
		L497.2,604.5z"/>
</g>
</svg>
