<svg id="Layer_1" data-name="Layer 1" xmlns="http://www.w3.org/2000/svg" viewBox="0 0 1500 1000"><defs><style>.cls-1{fill:#0038a8;}.cls-2,.cls-4{fill:#fff;}.cls-3{fill:#d52b1e;}.cls-10,.cls-11,.cls-12,.cls-13,.cls-14,.cls-15,.cls-16,.cls-17,.cls-18,.cls-4,.cls-5,.cls-6,.cls-7,.cls-8,.cls-9{stroke:#000;}.cls-4,.cls-6{stroke-miterlimit:10;}.cls-4{stroke-width:3.69px;}.cls-10,.cls-11,.cls-12,.cls-13,.cls-14,.cls-15,.cls-16,.cls-17,.cls-18,.cls-5,.cls-8,.cls-9{fill:#009b3a;}.cls-5{stroke-width:0.99px;}.cls-6{fill:none;stroke-width:1.48px;}.cls-7{fill:#fedf00;}.cls-7,.cls-9{stroke-width:0.6px;}.cls-8{stroke-width:0.75px;}.cls-10{stroke-width:0.79px;}.cls-11{stroke-width:0.84px;}.cls-12{stroke-width:0.86px;}.cls-13{stroke-width:0.83px;}.cls-14{stroke-width:0.98px;}.cls-15{stroke-width:0.84px;}.cls-16{stroke-width:0.64px;}.cls-17{stroke-width:0.84px;}.cls-18{stroke-width:0.77px;}</style></defs><path class="cls-1" d="M0,0H1500V1000H0Z"/><path class="cls-2" d="M0,0H1500V666.67H0Z"/><path class="cls-3" d="M0,0H1500V333.33H0Z"/><path class="cls-4" d="M895,500A145,145,0,1,1,750,355,145,145,0,0,1,895,500Z"/><path class="cls-5" d="M820.1,477.5c-3.52-.14-3.54,3.74-3.54,3.74s.12-1.14,0,.16.58,4.43,3.18,4.68,3.66-3,3.68-4.52c0-.61-.2-4-3.34-4.05"/><path d="M659,558,657.79,556a7.79,7.79,0,0,0-1-1.17,1.41,1.41,0,0,0-1-.47,1.72,1.72,0,0,0-1.13.22,1.6,1.6,0,0,0-.84,1.17,3.22,3.22,0,0,0,.68,2.08l1.25,2.14Zm12.28-.71-15.78,9.38-4.81-8.09a13.77,13.77,0,0,1-1.65-3.68,4.1,4.1,0,0,1,.27-2.78,5.08,5.08,0,0,1,2.13-2.27,5.46,5.46,0,0,1,2.57-.8,5.11,5.11,0,0,1,2.47.64,7.73,7.73,0,0,1,1.66,1.33,6,6,0,0,1-.2-1.62,9.79,9.79,0,0,1,.38-1.27,12.3,12.3,0,0,1,.55-1.26l3.18-5.08,3.25,5.52-3.25,5.47a4.52,4.52,0,0,0-.68,1.59,2.59,2.59,0,0,0,.33,1.4l.27.45,6.39-3.8Zm-27.77-12.84-4.81-14.39,3.71-1.25,3,9,2.79-.94-2.84-8.37,3.57-1.16,2.8,8.33,3.41-1.11-3.08-9.28L656,524l4.89,14.66Zm.51-29.29-.19-1.35a3.55,3.55,0,0,0-.82-2.23,2,2,0,0,0-1.55-.49,2.28,2.28,0,0,0-1.37.73,2.85,2.85,0,0,0-.33,2.22l.15,1.61Zm-7.13,6.56-1.09-9.34a6.6,6.6,0,0,1,.9-4.74,5.58,5.58,0,0,1,4-2,5.67,5.67,0,0,1,4.51,1.14,7.43,7.43,0,0,1,2.14,4.89l.35,3.07,6.75-.78.66,5.66ZM636.28,486l.59-5.63,10.89,1.17a9.63,9.63,0,0,1,3,.84,6,6,0,0,1,2.36,1.86,6.54,6.54,0,0,1,1.28,2.42,11.41,11.41,0,0,1,.17,4,19.82,19.82,0,0,1-.51,2.87,7.25,7.25,0,0,1-1,2.54,6.56,6.56,0,0,1-1.77,1.79,5.74,5.74,0,0,1-2.23.95,10,10,0,0,1-3.14.2L635,497.82l.58-5.64,11.12,1.21a2.93,2.93,0,0,0,3.51-2.77,3.07,3.07,0,0,0-.59-2.37,3.1,3.1,0,0,0-2.24-1.08Zm18.24-15.41,1-2.71a3.35,3.35,0,0,0,.18-2.15,1.7,1.7,0,0,0-1.11-1,1.57,1.57,0,0,0-1.44.12,3.22,3.22,0,0,0-1.16,1.78l-1,2.74Zm-6.8-2.39.82-2.3a2.69,2.69,0,0,0,.15-1.91,1.49,1.49,0,0,0-1.06-.9,1.57,1.57,0,0,0-1.34.06,2.68,2.68,0,0,0-1,1.55l-.86,2.36Zm-8.66,3,3.49-10a5.94,5.94,0,0,1,2.61-3.42,4.38,4.38,0,0,1,3.54-.26,4.48,4.48,0,0,1,2.29,1.9,4.87,4.87,0,0,1,.51,2.26,4.88,4.88,0,0,1,2.48-2.18,4.49,4.49,0,0,1,3.08.07,5,5,0,0,1,2.18,1.46,5.32,5.32,0,0,1,1.1,2.31,6.7,6.7,0,0,1-.15,2.22c-.29,1.28-.46,2.1-.61,2.48l-3.22,9.24Zm9.35-23.5,3-4.83L663.18,450l4.59-7.55,3.85,2.35-7.49,12.38Zm12.11-18,3.64-4.34,14,11.82-3.65,4.34Zm25.4-9.86,4.77-2a9.62,9.62,0,0,1,1,3.7,7.21,7.21,0,0,1-.68,3.33,11.23,11.23,0,0,1-2.66,3.15,12.16,12.16,0,0,1-4.33,2.45,8.06,8.06,0,0,1-4.49-.26,10.7,10.7,0,0,1-4.62-3.42c-1.92-2.34-2.8-4.65-2.6-6.91s1.42-4.36,3.68-6.27a9.17,9.17,0,0,1,5.1-2.38,8,8,0,0,1,5,1.4L683,416.63a3.91,3.91,0,0,0-1.22-.59,2.71,2.71,0,0,0-1.52,0,3.2,3.2,0,0,0-1.39.69,3.3,3.3,0,0,0-1.28,3.1,6.69,6.69,0,0,0,1.69,3.26c1.31,1.56,2.45,2.43,3.39,2.61a3.61,3.61,0,0,0,4-3,5.74,5.74,0,0,0-.75-2.82m18.55-11-4.79-5,1.2,6.8Zm2.85,3-5.74,2.92.59,3.1L697,420.47,694.83,401l5.51-2.81L714.8,411.4l-5.27,2.69Zm22.29-19.11L731,402.6l1.38-.2a5.65,5.65,0,0,0,2.47-.73,2.72,2.72,0,0,0,.94-1.55,7.93,7.93,0,0,0,0-3.2c-.27-1.91-.79-3.19-1.5-3.8a4.05,4.05,0,0,0-3.29-.61Zm-6.16-3.32,8.32-1.19a10,10,0,0,1,4,.1,6.58,6.58,0,0,1,2.81,1.56,7.8,7.8,0,0,1,1.84,2.7,12.61,12.61,0,0,1,.95,3.46,11.14,11.14,0,0,1,0,4.58,7.75,7.75,0,0,1-1.44,3,6.07,6.07,0,0,1-2.33,1.78,12.57,12.57,0,0,1-3.28,1L726,407.53Zm24.94-3.55L763.52,387l-.28,3.9-9.47-.7-.22,2.91,8.78.64-.32,3.72-8.73-.62-.26,3.57,9.74.73-.3,4.13L747,404.1ZM771.7,388l5.44,1.52-3.76,13.32,8.5,2.4-1.24,4.32-14-4Zm30.92,20.33,1.17.76a3.64,3.64,0,0,0,2.22.79,1.7,1.7,0,0,0,1.35-.84,2.25,2.25,0,0,0,.34-1.55,3.06,3.06,0,0,0-1.49-1.67l-1.35-.91Zm-.45-9.65,7.87,5.2a6.36,6.36,0,0,1,3,3.75,5.34,5.34,0,0,1-1,4.33,5.55,5.55,0,0,1-3.77,2.68,7.29,7.29,0,0,1-5.11-1.48l-2.59-1.72-3.72,5.67L792.1,414Zm19.88,27.94,3.19-6.11-6.06,3.28Zm-1.94,3.65-4.59-4.52-2.77,1.52-4.12-4.05,8.47-3.91,9.32-4.31,4.38,4.33-8,17.92-4.21-4.18Zm17,7.95,1.3,2a7.1,7.1,0,0,0,1,1.13,1.45,1.45,0,0,0,1,.43,1.56,1.56,0,0,0,1.09-.27,1.73,1.73,0,0,0,.84-1.19,3.36,3.36,0,0,0-.76-2l-1.3-2.09Zm-12.25,1.08,15.45-9.86,5.07,7.95a15.8,15.8,0,0,1,1.83,3.61,4.57,4.57,0,0,1-.24,2.78,5.12,5.12,0,0,1-2,2.33,4.88,4.88,0,0,1-2.58.87,5.54,5.54,0,0,1-2.49-.51,9.25,9.25,0,0,1-1.68-1.31,6.07,6.07,0,0,1,.25,1.6,10.72,10.72,0,0,1-.32,1.27,7.8,7.8,0,0,1-.55,1.3l-3,5.17-3.47-5.4,3.11-5.55a3.79,3.79,0,0,0,.62-1.64,2,2,0,0,0-.39-1.39l-.25-.42-6.28,4ZM846.54,464l5.49-4.14-6.87.38Zm-3.34,2.46-2.2-6.06-3.12.22-2-5.44,19.58.23,2.12,5.78-14.87,12.74-2-5.59ZM852,485.91l3.78-.5,1.09,8.74-7.76.93a17.76,17.76,0,0,1-2.84-4.11,14.26,14.26,0,0,1-1.2-4.47,10.58,10.58,0,0,1,.47-5.41,7.62,7.62,0,0,1,2.87-3.61,11.19,11.19,0,0,1,4.86-1.73,10.24,10.24,0,0,1,5.33.59,8.09,8.09,0,0,1,3.8,3.16,11.53,11.53,0,0,1,1.49,4.88,12.72,12.72,0,0,1,0,4.56,5.54,5.54,0,0,1-1.38,2.7,7.26,7.26,0,0,1-2.7,1.84l-1.64-5.29a2.9,2.9,0,0,0,1.42-1.34,3.75,3.75,0,0,0,.3-2.1,3.85,3.85,0,0,0-1.65-2.79,6.29,6.29,0,0,0-4.22-.59,6.66,6.66,0,0,0-4.08,1.62,4.22,4.22,0,0,0-.86,3.28,5.89,5.89,0,0,0,.49,1.75,11.92,11.92,0,0,0,1.17,1.88l1.73-.24Zm11.61,27.48-.65,5.61-10.83-1.22a9.28,9.28,0,0,1-3-.85,6.73,6.73,0,0,1-2.34-1.86,6.64,6.64,0,0,1-1.25-2.41,12,12,0,0,1-.15-4c.12-.87.29-1.84.5-2.88a7.31,7.31,0,0,1,1.07-2.53,7.18,7.18,0,0,1,1.75-1.77,6.34,6.34,0,0,1,2.26-.93,9.34,9.34,0,0,1,3.14-.17l10.85,1.24-.64,5.6-11.1-1.28a3.19,3.19,0,0,0-2.44.57,3.58,3.58,0,0,0-.51,4.56,3.34,3.34,0,0,0,2.22,1.12Zm-16.87,20.86,6.9.24L848,530.43Zm-4.1-.21L844.7,528l-2.56-1.83,1.91-5.47,15.06,12.52L857,539l-19.52.48,1.92-5.62Zm10.12,16.87-3.19,5.42-7.21,0,3.45,6.34-3.17,5.36L837,556.51l-6.6-3.9,2.9-4.9,6.6,3.93Z"/><path class="cls-6" d="M871.34,500A121.37,121.37,0,1,1,750,378.66,121.38,121.38,0,0,1,871.34,500Z"/><path class="cls-6" d="M840.29,499.57A90.32,90.32,0,1,1,750,409.27a90.31,90.31,0,0,1,90.32,90.3Z"/><path class="cls-7" d="M750,467.09l7.59,21.72,22.95.51-18.29,13.91,6.65,22L750,512.16l-18.9,13.08,6.61-22-18.32-13.91,23-.51Z"/><path class="cls-8" d="M791.69,561.93c-.77.64-3.85,1-4.67,1.12s-4.06.14-5.43.19c-.75,0-2.2.26-3,.26-6.63-.75,10.78-.65,13.06-1.58m-17.39-5.13c.43-.77,2.61-5.61,3.39-7s2.6-4.95,3.68-6.44c.55-.82,2.71-3.17,3.23-2.11-3.77,3.26-6.74,9-8.32,12.77a32.87,32.87,0,0,1-1.91,3.1c-.44.55-.26,1.58-1,1.66s-.22.23-.22.23.62-1.4,1.1-2.22Zm25,3.7a33.89,33.89,0,0,1-4.86-1.1,24.86,24.86,0,0,0-7.61-1,21.11,21.11,0,0,0-7.16,1.64,17.52,17.52,0,0,1-4.9.86s-1.56.25-.83-.11,3.12-2.24,3.12-2.24l1.56-2.14c.45-.12,8.38-10.53,7.52-13.32,1.22-2.06,2.64-5.73,2.11-6.37-.26-.26-6.18,1.88-7.48,3.06-1.5,1.3-2.56,4-3,5.57s-2.72,2.83-2.72,2.83c-1.85,1.33-3.19,5.54-3.82,9s-9,5.29-9,5.29-2.33.87-.26,1.53c.35.1,1.28,1.66,2,1.68,1,.12,6.23-2.11,7-1.93q2.65.6,5.25,1.43c2,.68,3.62,1,5,.51a10.31,10.31,0,0,1,4.94,0,8.93,8.93,0,0,0,4.11-.11,32.35,32.35,0,0,0,3.73-1.81s2.92-1.27,4.61-2.06.66-1.14.66-1.14"/><path class="cls-9" d="M776.52,570.62s-11.56-6-12.18-6.19c-.36,0-5.24-2.74-7.47-3.43a15.66,15.66,0,0,0-4.64-.61,35.05,35.05,0,0,0-5,1l2.87,1.17s2.69,1.32,4,2c1.88,1,2,2.21,2,2.21l10.46,4.6,2.12,1.52s1.93-2.66,7.86-2.28"/><path class="cls-10" d="M788.13,546.63c3.64-3.24,5.41-7.85,8.4-10.4.49.35.49.92-.1,1.95s-1.32,1.35-1.65,1.87c-.61.82-2.43,2.33-2.92,3.24a6.35,6.35,0,0,1-2.59,3c-1.58.94-1.08,2.44-1.21,3.07s-2.56,2.43-3.73,4.58c-.23,2.24-.33,1.3-1.69,2.1a93.15,93.15,0,0,0,5.49-9.39M780,556.88c-.24.49-7.4,4.56-5.16,4s8.85-3,10.73-3.82c2.3-1,3.68-3.11,5.41-4.82s7.21-7,8.15-9,1.77-5-1.93-11.41a8.23,8.23,0,0,1-1.95,2.45,36.35,36.35,0,0,1-3.4,2.6l-2.37,2.24s-8.37,15.38-9.48,17.77"/><path class="cls-8" d="M809.08,551.47s-4.59-.41-5-.41-2.94-.35-6.6-.35-5,1.26-5.92,2.27-3.89,3.74-3.89,3.74l1.54-.13c3.67-2.86,6.52-1.81,7.66-1.9a16.31,16.31,0,0,0,6.29-1.22c3.73-1.31,3.51-.08,3.1,0a19.36,19.36,0,0,1-5.53,1.12c-2.77.15-5.19.68-6.28.68s-9.17,2.21-9.17,2.21,8.74.52,9.68.83a4.91,4.91,0,0,0,3.62-.38,26.25,26.25,0,0,1,6.23-2.15,12.24,12.24,0,0,0,3-1.21,5.68,5.68,0,0,0,1.69-2c.84-1.52-.47-1.11-.47-1.11m4.28-23.94c.56-1.36,1.93-4.58,3.39-5.84a11.48,11.48,0,0,1,3.25-1.48c.34-.12,2.85-.24-.28.62a6.51,6.51,0,0,0-3.84,2.42c-1.09,3-2,5.69-4.08,7.64a14.92,14.92,0,0,0-2.44,3.61l-1.61.55c2.94-1.8,4.22-5.13,5.61-7.52Zm14.2-1.71a8.4,8.4,0,0,0-2.26,1c-3.74,1.12-5.27,3.47-6.91,5.39-.83,1-2,1.75-6,3.44a31.34,31.34,0,0,0-6.46,4s-1.15.23-.93.79c.09.26,1.06.05,1.06.05s7.44-1.06,10.54-2.94a13.6,13.6,0,0,0,5-5c.84-1.28,1.78-3.69,1.83-2.14.14,4.11-6.25,8.1-9,9.33a28.17,28.17,0,0,1-6.07,1.32c-2.57.48-4.13.34-3.94-.23.26-.82.56-1,1.24-1.79,1.22-1.46,4.17-2,6.35-3a18.87,18.87,0,0,0,6.23-4.3,7.41,7.41,0,0,0,2-3.24c1-3.24,1-5,1.9-6.19,3.14-3.87,3.6-5.12,3.75-6.84,0-.4-1.63.91-2.49,1.39-1.7,1-2.32,1-5.79,1.91s-3.44,3.14-4,4.22a8.66,8.66,0,0,1-2.27,2.53c-.68.35-2.35,2.77-3,4.18-.46,1-1.28,1.78-1.93,1.7s1.32-7.62,1.76-8.86a16.23,16.23,0,0,0,.57-4.45c0-.77,0-2.81-1.33-3s-1.42-2.09-1.42-2.09c-3.25,2.81-1.43,7.77-1.08,10.72s-.67,8.31-.67,8.31c3.14,1.34.67,5.15-.31,6.39s-3,1.48-3.85,2.59-7.5,10.3-7.5,10.3l8.18-2.32s.76.13-.46-.79.4-4.33,1.46-5.17c2-1.58,4.73-.43,4.73-.43a17.78,17.78,0,0,0,8.45-1.27c3.89-1.53,5.56-4,7.4-5.89,1-1,2.84-4.4,4-6.4.7-1.16,2-3.36,1.18-3.1"/><path class="cls-11" d="M804.35,547.83c.63-.26.72-.37,1.87-1.62a2,2,0,0,0-1.61-3.27c-.86.06-1.76-.14-3.44,2.12s.78,3.08,1.69,3.17a3.82,3.82,0,0,0,1.49-.4"/><path class="cls-12" d="M800.12,533.56c-1.08,1.81-1.66,3.9-.81,4.54a3.51,3.51,0,0,0,1.58.77,5.5,5.5,0,0,0,3.43-2.42c1-1.52,1.85-3.19-.23-4.22a2.76,2.76,0,0,0-4,1.33"/><path class="cls-8" d="M806.31,511.4s.17-.27-.54-1a30.37,30.37,0,0,1-2.54-3.22,6,6,0,0,0-3,4.7,27.93,27.93,0,0,1,0,5.54,17.67,17.67,0,0,1-1.36,4.48c-1.13,2.78.17,5.33.42,6.23s1.12,3.68,1.12,3.68a6.59,6.59,0,0,1,1.18-.63,8.8,8.8,0,0,1,1.55,0,12.36,12.36,0,0,0,1.4-3.81A28,28,0,0,0,804,522c-.66-3.8-.62-4.89-.17-7a6.63,6.63,0,0,1,2.52-3.58"/><path class="cls-13" d="M809.67,515.2a3.24,3.24,0,0,0,1.92-1.46,4.94,4.94,0,0,0,.6-2.88c-2-3.84-4.64-.74-4.64-.74-2.38,4.87,2.12,5.08,2.12,5.08"/><path class="cls-14" d="M816.41,508.17c-3,.15-4.41,5.46-4.41,5.46a5.29,5.29,0,0,1-2,2.33c-1.67,1-.69,2.52-.69,5.16s-1.84,7.31-1.84,7.31l-.69,1.59s.07,1.19,1.14-1c1.84-3.63,3.84-2.75,4.6-6.66.48-2.91,5.29-3.84,5.29-3.84l-1.35-.25c-5-2.34.29-8.19,1.14-9.23s1.77-1-1.14-.9"/><path class="cls-15" d="M815.57,514.47c-1.36,2.89,2.49,3,3.38,2.53a8.34,8.34,0,0,0,1.17-1.17c1.56-2.25.13-3.77-.68-4s-2.46-.46-3.87,2.62"/><path class="cls-8" d="M808.26,503.21c1,1.88,3.83,7.12,4.49,6.79.41-.2.09-1.27.09-1.27a17.76,17.76,0,0,0-.55-3.13c-.45-1.73-.34-3.94-1.24-5.35s-3-3.1-3.8-5.33-.17-6.48-.1-7,.33-.16-.11-.67a30.36,30.36,0,0,0-4-2.45,23.28,23.28,0,0,1,.12,3.89c0,.61-.2,1.32-.3,2.37s.52,2.27,2,5.15c1.7,3.34,2.52,5.39,3.42,7m21.38-24.89a21.48,21.48,0,0,1-1.4,2.09c-.38.38-6.19,5.37-6.52,5.58s-3.31,1.19-6.07,8.65A30.67,30.67,0,0,0,814.08,509l1.34-.17.23-.73s.45-2.46.8-4.34,2.45-4.42,3.83-6.33a25.61,25.61,0,0,0,2.36-4.54c1.56-3.14,2.31-5.94,3.85-8.13.06,2.61-9.84,18.62-10.9,24.07l2.93-.45c2.34-2.14,5.41-6.63,7.48-9.53s3-7.45,3.36-9.47.28-11.09.28-11.09"/><path class="cls-8" d="M809.9,480a8.7,8.7,0,0,0-2.66-1.8,43.29,43.29,0,0,1,.36,4.37c0,1.66.14,4.44.06,5.93s-.8,3.93.25,6.33a42.34,42.34,0,0,0,3.15,5.07c.78,1.46,2.22,9,2.22,9s-.53-10.25-.08-13.15.56-7.3-.08-9.52-1.76-4.86-3.22-6.27m6.83-10a16.6,16.6,0,0,0,1.95-5.45,31,31,0,0,0,.23-4.38c0-.88-.38-2.4,0-2.51s.05.48.25,1.78c.09.46-.23,1.75-.29,3.39a14.47,14.47,0,0,1-.71,4.19c-.51,1.57,0,3.31-.37,3.79s-1.24,2.38-1.24,2.38a8.22,8.22,0,0,0-.45,2.9c0,1.41.13,2.94.13,2.94a3,3,0,0,1,2.12-1.41s.33-2.37.33-3.11a53.46,53.46,0,0,1,1.43-7.09,20.48,20.48,0,0,0,.08-10.35,46.36,46.36,0,0,1-.5-4.9s-1.4,1.12-2.23,5.36c-.26,1.29.28,4.74.07,8.43a80.18,80.18,0,0,1-2.3,10.78"/><path class="cls-8" d="M816.73,470a1.53,1.53,0,0,0-.09.17.33.33,0,0,0,.09-.17"/><path class="cls-8" d="M811.21,448.58c.75,0,.75.81.6,1.45a14.83,14.83,0,0,0-.1,2.14,22.75,22.75,0,0,0,.56,2.94,5.15,5.15,0,0,1,.53,3.11c-.14,1.18-1.35,2.57-.92,4.58a19.28,19.28,0,0,0,1.35,3.06c.32.64.15,2.18.23,3.45a3.71,3.71,0,0,0,.72,2.06s-.85,1.57-1.13-.4a16.22,16.22,0,0,0-.84-4.27c-.7-1.67-1.35-4.67-.25-7a6.47,6.47,0,0,0,.33-2.27c0-1-.62-2.71-.74-3.78-.1-.84,0-2.62,0-3.26m-3.93,9.43c.18,1.27.59,2,2,4.76a29.66,29.66,0,0,1,1.59,4,13.15,13.15,0,0,1,.33,1.86c0,.25.17,2,.17,2v.73s-4-2.32-5.72-3.56-3.7-3-5-4c-1.43-1.18-4.83-5.21-4.87-8.43l-1.56-1.42s-1.19,7.17,4.43,11.82a28.1,28.1,0,0,0,7.17,4.51c3.79,1.74,3.29,3.31,4.87,6.66A50.62,50.62,0,0,1,813.8,485c.13,1-.44,15.36-.44,15.36l.14,1.3s3.46-13.28,5.13-14.76c0,0-3.31-.51-3-5.7l-.58-3.42s-.66-4.12.58-6.67a24.19,24.19,0,0,0,1-8.73c-.31-2.42-.42-3.14-.72-5.46a82.24,82.24,0,0,0-2.05-9.39,24.07,24.07,0,0,0-1.24-3.52c-.17-.51-.5-2.18-1-2.2-.31,0-.78,2.15-.78,2.15s-.69,2.36-.83,3c-.45,1.9-1.51,3.5-2,7.78-.09.78-.17,2.87-.27,3.15a8,8,0,0,0,0,1.94"/><path class="cls-8" d="M810.55,477.94a9.58,9.58,0,0,0-1.17-1.94c-1.18-1.39-2.77-2.57-7.28-4.78s-5.7-5.92-8-7.44a9.55,9.55,0,0,0-3.09-1.07s2,2.76,2.48,3.71a10.93,10.93,0,0,0,3.24,4.35,17.21,17.21,0,0,0,7.4,3.7,29.26,29.26,0,0,1,6.41,3.47m-14.19-21.3a24.29,24.29,0,0,0,3.72,7.4c3.73,4.71,10.9,8.08,10.9,8.08a31.93,31.93,0,0,0-2.76-7.82c-3.27-5.27-11.88-7.86-11.88-7.86s-.16-.2,0,.2m10.29,2.22c1.93-4.23-3.84-8.27-5.46-11.21.6-.48,1.31.77,2,1.61,1,1.25,3.61,4.89,3.61,4.89l.82-3.87L800.73,444c-.09.91-2.21,1.66-2.21,1.66-1,5.78,8.13,13.17,8.13,13.17"/><path class="cls-8" d="M794.69,449.06a6.81,6.81,0,0,1-2.24.74l.92,2.45.54.67s2.16,3.12,3.41,3.51a33.25,33.25,0,0,1,4.46,1.38c2.48,1.05,6.53,4.59,6.53,4.59s-6.73-7.59-9.31-13.28l-.87-3.28-2.44.16s.67,2.3-1,3.06"/><path class="cls-8" d="M769.5,444.21a24.23,24.23,0,0,0,3.66,2.71c1.49.9,5.77,3.41,9,4,.75.12,4.77.63,4.77.63a2.24,2.24,0,0,1,2.07-1.92l-5.69-.62a15.36,15.36,0,0,1-10.82-5.34c3.65,2.22,8.9,5.7,13.16,5.51,17.46-1.71-5.27-2.15-7.24-3.41a18.67,18.67,0,0,1-3.87-3.43l-5.12-.23s-2.52-.16.11,2.08"/><path class="cls-8" d="M790.06,454.15c1.13-.08,1.92-.29,2.17-1.53a2.17,2.17,0,0,0-2-2.75,2.55,2.55,0,0,0-3.21,1.36c-.72,1.69,1.9,2.77,1.9,2.77a2.34,2.34,0,0,0,1.1.15m2-10c-1.48,0-2,1.21-1.67,3.56s4,1.33,4,1.33l.67-.35s.49-.38.22-2.26-1.76-2.28-3.24-2.28M798,445.8h-.05s.05,0,.05,0"/><path class="cls-8" d="M797.9,445.8a3.73,3.73,0,0,1,.53-.17c.75-.29,1.51-2.1,1.51-2.1.38-2.46-1.37-3.06-1.37-3.06-3-.59-3,2-3,2-.82,3.38,1.92,3.35,2.36,3.33m-13.17-11.61c.17,1.13,1.76,2.75,2,3a38.09,38.09,0,0,1,3,3.33c.68.95,3,5.27,3,5.27a.83.83,0,0,0,.57-.39c.4-.67-1.53-5.91-1.73-6.27a14.64,14.64,0,0,0-3-4,27.55,27.55,0,0,1-2.27-2.72c2.07,2.65,7.37,10.17,8.93,13.51,0,0-.19-3.56-.39-5.47-.66-5.58-2.11-7.31-2.58-8.12a9,9,0,0,0-4.41-3.49c-1.49-.54-3.26-1.28-5.15-1.89s-.45,1.16.27,2.68a18,18,0,0,1,1.79,4.55"/><path class="cls-8" d="M777.45,443.37c1.92,1.64,2.79,2.78,6.79,3.37s4.37.36,4.37.36,2.09-1,1-1.89c-5.93-2.61-11.54-5.71-14.39-9.2,0,0,.5-.48,2.55,1.57a22.81,22.81,0,0,0,2.72,2.38,43.11,43.11,0,0,0,5.24,3.11,22.72,22.72,0,0,0,4,1.3s.41-.87.77-1-.22-1.44-2.71-3.46A19.47,19.47,0,0,1,784.2,436s-3-.64-6.14-1.17c-2.38-.38-6.86-3.85-6.78-2.91a15.91,15.91,0,0,0,1.88,5.89,23.6,23.6,0,0,0,4.29,5.58"/><path class="cls-9" d="M744.12,564c-1.74.51-14.85,5.44-14.85,5.44l-3.66,1.46a12.48,12.48,0,0,1,8.92,1.41l14.61-6.76a1,1,0,0,0-.41-.48c-.38-.26-2.84-1.6-4.61-1.07"/><path class="cls-16" d="M725.05,571.33c-.09.08-.19.43.06.54.73.4.54.56,3.84,1s5.52-.27,6.09-.9-8.27-2.1-10-.6"/><path class="cls-17" d="M704.08,524.17l-.61-4.1s-.76-11.08-2-13.3c-.24-.49-.13-1.64-.93-1.66-1.53-.12-1.53,3.49-1.72,6.75-2.48,16.47,10.65,29,10.65,29Z"/><path class="cls-18" d="M769.07,573s-1.38-.3-.51-1.38,3.32-1.57,3.82-1.57a12,12,0,0,1,2.91.39c1.05.26,2.5,1.18,2.07,1.85a4.85,4.85,0,0,1-3.79,1.43,12.08,12.08,0,0,1-3.24-.25c-.7-.27-1.27-.47-1.27-.47"/><path class="cls-9" d="M754.83,565.12s-4.51-2.07-8.78-4.16c-5.64-2.75-12.4-6.57-17.12-13.58-5.9-8.67-11-13.32-12.27-14.25s-1.46-1.28-1.93-.62-.13,1.07.23,1.67c1.21,2,4.2,5.68,5.27,7.67,1.84,3.56,5.65,7.45,5.62,9.75,0,.32-1.11-.23-1.11-.23A22.23,22.23,0,0,1,712.2,537.5c-2.64-7.84-1.52-10.15-2.13-14.06-1-7-1.26-7.53-4.7-15.34-.1-.19-2.11-3.45-2.38-2.73-.38.94.34,4.43.34,4.43l.36,4s-.29,8.92-.29,9.46-2.25,6.12,7.3,15.48c0,0,.15,1.59-1.13.19-.91-1-7.75-6.25-9.83-14.89s-2.45-17.29-.83-20.88c1.47-3.25,4.42-11.18,3.16-18.11-.15-.72-.35-2.85-.81-2.29-.19.27-1,3.78-1.57,5-.72,1.66-1.84,3.29-2.19,4.44-.67,2-4,5-3.32,10.5.73,6.36,1.14,7.35,1.91,9.62.26.83.9,2.94.49,3.15s-1.74-2.52-1.74-2.52-6.05-11.89-2.32-21.53,13.23-18.71,13.23-18.71,7.69-6.37,9.25-7.86c.62-.57.47-1,.27-.93-1.91.48-16.7,3.54-21.9,21.16,0,0-.27.74-.65.56s0-1,0-1,3.25-12.49,12.38-18.16c10-6.21,8.79-5.3,12.09-7.26,2.07-1.29,3.95-3,6.26-6.85a10.73,10.73,0,0,0,1.06-3c-.11-.38-.55.14-.76.77,0,0-2.83,4.36-7,5.83s-7.68-.63-11.93,4.08a62.85,62.85,0,0,0-7.65,11.27s-1.11,1.7-1.36,1.65c-.47-.14.23-1.8.23-1.8s5.69-12.08,10.26-14.53a91.92,91.92,0,0,0,11.25-6.84c3.16-2.48,8.6-8.55,10.57-10.64.41-.45,3.33-3.41,4-4.37.39-.52,1.32-1.28,1.16-1.41-.41-.32-3.18,1-3.18,1a47.51,47.51,0,0,0-24.45,18.31,22.49,22.49,0,0,1-2,2.56,7.76,7.76,0,0,0-1.5,2.77c-.61-.51,5.3-7.9,5.3-7.9l1-4.78s1.75-7.18,5.42-12.25c.37-.46,2.54-2.65,2.91-3.11.73-.79-1.39.7-1,.36,0,0-14.06,10.09-14.06,22.81,0,2.28-1.42,4.37-3.38,7.2-2.29,3.3-3.06,5.33-4,10.23q-.62,3.09-1.29,6.18s.13,1.81-.45,1.68-.4-1.64-.4-1.64,1.44-9.47,2.45-12.39,1.65-4.76,1.65-4.76-.58-7.13,1-11c1.34-3.4,4.73-7.89,5.26-9a24.8,24.8,0,0,0,2.24-7.32c.06-.49-.32-.09-1,1.33-1.54,3.49-2.83,4.4-5.37,7.67,0,0-6.52,4.73-8.88,18.77,0,0-.07,5.23-.87,13.44a54.74,54.74,0,0,0,.59,15c.44,2.07,1.26,2.09.75,2.34-.32.16.2,0-.54-1.54a20.65,20.65,0,0,1-1.59-8.77c0-7.33.64-13.21.64-13.21s.48-11.83-4.43-17.17c-.24-.28.86,2.39,1.35,5.06.6,3.3-.49,7.89-.81,9.67s-3.59,9.62-2.43,17c0,0,2.76,12.45,6.33,18.48,0,0,2.22,2.6.26.16s-5.94-12.12-6.29-13-3.16-6.82-5.86-9.27a45.39,45.39,0,0,0-5.22-3.6s-2.08-1.58-.5.52c1.25,1.67,2.92,4.65,3.72,5.95a68.68,68.68,0,0,1,4.41,8.36c1.29,2.82,4.27,11.1,4.27,11.1l1.9,5.26a22.82,22.82,0,0,1,4.94,3.71,35.86,35.86,0,0,1,6.84,11.57,22,22,0,0,0,3.31,5.43s-.47.9-2.43-2.49-3.83-9.9-8.5-14.92c-3.54-3.86-13.07-7.74-13.07-7.74s6.12,10.67,7.64,12.58c2.58,3,6.3,7.33,7.26,8.46s6.75,8.27,7.6,9.41a27.25,27.25,0,0,0,2.93,3.29c1.52,1.61,6,4.56,6.37,5,.06.47.15.08-.23-.2-2-1.19-4.38-3.07-6.84-4.67s-11.93-5.67-18.32-14.47c-1.51-2.6-2.23-3.64-2.74-3.37-.78.41,4.3,17.22,14.74,22.56,0,0,11.53,5.13,14.08,6.67a56.3,56.3,0,0,1,5.54,3.15c.75.61-.68.58-.77.56-6.12-.48-14.91-1.29-20.31-4.42,0,0-2.32-1.62-.41.66,1.51,1.77,4.38,6.13,9.92,8.58a59.06,59.06,0,0,0,16.55,4c2.89.16,13.22.21,15.2.85s5.23,2.77,7.12,3.37c1.71.56,6.88,2.54,6.88,2.54a26.44,26.44,0,0,0,2.39,1.16c.94.37,4.81.33,5.08-.39s-1.1-1.64-1.1-1.64"/><path class="cls-8" d="M821.79,477.6c1.17.43,1.69,3.9,1.69,3.9s-.1-2-.1-3-.48-4.68-.48-4.68l-1,.74a7.56,7.56,0,0,0-1.93,2.73,4.13,4.13,0,0,1,1.86.28"/></svg>