<?xml version="1.0" encoding="utf-8"?>
<!-- Generator: Adobe Illustrator 27.1.1, SVG Export Plug-In . SVG Version: 6.00 Build 0)  -->
<svg version="1.1" id="Camada_1" xmlns="http://www.w3.org/2000/svg" xmlns:xlink="http://www.w3.org/1999/xlink" x="0px" y="0px"
	 viewBox="0 0 800 577.8" style="enable-background:new 0 0 800 577.8;" xml:space="preserve">
<style type="text/css">
	.st0{fill:#0038A8;}
	.st1{fill:#EEEEEE;}
	.st2{fill:#D52B1E;}
	.st3{fill:#99AAB5;}
	.st4{fill:#FFAC33;}
	.st5{fill:#007127;}
</style>
<path class="st0" d="M0,488.9c0,49.1,39.8,88.9,88.9,88.9h622.2c49.1,0,88.9-39.8,88.9-88.9V400H0V488.9z"/>
<path class="st1" d="M0,177.8h800V400H0V177.8z"/>
<path class="st2" d="M711.1,0H88.9C39.8,0,0,39.8,0,88.9v88.9h800V88.9C800,39.8,760.2,0,711.1,0z"/>
<path d="M488.9,288.9c0,49.1-39.8,88.9-88.9,88.9s-88.9-39.8-88.9-88.9S350.9,200,400,200S488.9,239.8,488.9,288.9z"/>
<path class="st1" d="M483.3,288.9c0,46-37.3,83.3-83.4,83.3c-46,0-83.3-37.3-83.3-83.4s37.3-83.3,83.4-83.3
	C446,205.5,483.3,242.9,483.3,288.9z"/>
<path d="M472.2,288.9c0,39.9-32.3,72.2-72.2,72.2s-72.2-32.3-72.2-72.2s32.3-72.2,72.2-72.2S472.2,249,472.2,288.9z"/>
<path class="st1" d="M469.5,288.9c0,38.4-31.1,69.5-69.4,69.5c-38.4,0-69.5-31.1-69.5-69.4l0,0c0-38.4,31.1-69.5,69.4-69.5
	C438.4,219.5,469.5,250.5,469.5,288.9z"/>
<path class="st3" d="M469.6,288.4c0-38.4-31.2-69.6-69.6-69.6s-69.6,31.2-69.6,69.6c0,12.3,3.2,24.3,9.4,34.9l60.3-33.1l60.2,33.1
	C466.2,313.1,469.6,301.2,469.6,288.4L469.6,288.4z"/>
<path d="M455.6,288.9c0,30.7-24.9,55.6-55.6,55.6s-55.6-24.9-55.6-55.6s24.9-55.6,55.6-55.6S455.6,258.2,455.6,288.9z"/>
<circle class="st1" cx="400" cy="288.9" r="53.3"/>
<path class="st4" d="M400,270.7l4.1,12.6h13.2l-10.7,7.8l4.1,12.6l-10.7-7.8l-10.7,7.8l4.1-12.6l-10.7-7.8h13.2L400,270.7z"/>
<path class="st5" d="M411,255.9c0,0,6.7-1.6,10.6-2s7.4,8.6,12.1,10.2c4.8,1.6,4.7,6.3,6.7,11.8c2,5.5,0.8,6.6,0.8,12.9
	s3.5,9.4,2.7,14.1c-0.8,4.7-4.7,5.9-7,9c-2.3,3.2-0.4,7-2.8,9.4c-2.3,2.3-10.2,2-12.9,4.3c-2.7,2.3-7.8,5.9-11.4,3.9
	c-3.5-2-11-2.7-11-2.7s2-7,7.4-9.4c5.5-2.3,7.8-2,12.9-3.5c5.1-1.6,4.7-3.9,8.2-7c3.5-3.1,3.9-7.4,5.9-10.6c2-3.1,2.4-5.5,1.6-9.8
	c-0.9-4.4-2.2-8.8-3.9-12.9c-1.6-3.9-5.1-8.6-7.4-11.4C421.2,259.4,411,255.9,411,255.9L411,255.9z"/>
<path class="st5" d="M386.8,258.3c0,0,3.9-8.5,0-9c-15.7-2-18.8,12.1-23.5,13.7c-4.7,1.6-5.5,9.4-7.4,14.9c-2,5.5-1.2,6.6-1.2,12.9
	c0,6.3,0.1,7.4,0.9,12.1c0.8,4.7,1.8,8.2,4.2,11.4c2.4,3.1,3.2,4.7,5.6,7c2.3,2.3,6.9,4.7,9.7,7c2.7,2.3,11.1,3.1,14.6,1.2
	c3.5-2,9.7-2.7,9.7-2.7s-2.6-4.7-8.1-7c-5.5-2.3-5.9-4.3-11-5.9c-5.1-1.6-4.7-3.9-8.2-7c-3.5-3.1-3.9-7.4-5.9-10.6
	c-2-3.1-0.9-3.9-0.1-8.2c0.8-4.3,2.3-7.8,3.9-11.7c1.6-3.9,5.5-9,7.8-11.7C380.1,261.8,386.8,258.3,386.8,258.3L386.8,258.3z"/>
<path class="st5" d="M387.2,330.3l5.1,3.5l6.6-4.7l6.3,4.3l8.2-3.1l-8.2,5.9l-5.9-4.7l-6.3,4.3l-6.3-3.5L387.2,330.3z"/>
</svg>
