<?xml version="1.0" encoding="utf-8"?>
<!-- Generator: Adobe Illustrator 27.1.1, SVG Export Plug-In . SVG Version: 6.00 Build 0)  -->
<svg version="1.1" id="Camada_1" xmlns="http://www.w3.org/2000/svg" xmlns:xlink="http://www.w3.org/1999/xlink" x="0px" y="0px"
	 viewBox="0 0 800 577.8" style="enable-background:new 0 0 800 577.8;" xml:space="preserve">
<style type="text/css">
	.st0{fill:#002D62;}
	.st1{fill:#DD2E44;}
	.st2{fill:#CE1225;}
	.st3{fill:#EEEEEE;}
	.st4{fill:#FFFFFF;}
	.st5{fill:#996B38;}
	.st6{fill:#FFCE46;}
	.st7{fill:#549334;}
</style>
<path class="st0" d="M800,488.9c0,49.1-39.8,88.9-88.9,88.9H88.9C39.8,577.8,0,538,0,488.9v-400C0,39.8,39.8,0,88.9,0h622.2
	C760.2,0,800,39.8,800,88.9V488.9z"/>
<path class="st1" d="M711.1,0H444.4v244.4H800V88.9C800,39.8,760.2,0,711.1,0z"/>
<path class="st2" d="M88.9,577.8h266.7V333.3H0v155.6C0,538,39.8,577.8,88.9,577.8z"/>
<path class="st3" d="M800,222.2H466.7V0H333.3v222.2H0v133.3h333.3v222.2h133.3V355.6H800V222.2z"/>
<path class="st0" d="M400.5,243.2h-42.6l7.4,7.2v36.8h35.2V243.2L400.5,243.2z M400.5,330.7c5.7-6.2,9.5-5.9,25.6-5.9
	c8.6,0,9.6-5.8,9.6-17.1v-20.4h-35.1V330.7z"/>
<path class="st2" d="M400.5,330.7c-5.7-6.2-9.5-5.9-25.6-5.9c-8.6,0-9.6-5.8-9.6-17.1v-20.4h35.2V330.7z M400.5,243.2H443l-7.4,7.2
	v36.8h-35.1L400.5,243.2L400.5,243.2z"/>
<path class="st4" d="M406.6,326.2v-82.9h-12.2v83c2.4,1,4.5,2.5,6.1,4.5C402.1,328.7,404.2,327.2,406.6,326.2z"/>
<path class="st4" d="M365.3,281h70.2v12.2h-70.2V281z"/>
<path class="st0" d="M400.5,279l23.1-24.6v7.4l4.3-3.6v41.1c0,15.3-24,13.8-27.4,6.7c-3.3,7-27.4,8.6-27.4-6.7v-41.1l4.3,3.6v-7.4
	L400.5,279z"/>
<path class="st4" d="M400.5,305.4c-11.1,5.9-18.2,1.3-18.2-4.4v-7.1c-4.3,0-9.1-2.2-9.1-3.6v-6.1c0,1.8,7.2,3.4,9.1,3.4v-21.3l4,3.2
	v-5.5l6.1,6.2v4.4l-4-3.4v18c4.2,0,7.4,2.5,12.2,2.5c4.8,0,8-2.5,12.2-2.5v-18l-4,3.4v-4.4l6.1-6.2v5.5l4-3.2v21.3
	c1.9,0,9.1-1.7,9.1-3.4v6.1c0,1.4-4.8,3.6-9.1,3.6v7.1C418.7,306.7,411.5,311.4,400.5,305.4l0-6.2c5.9,3.4,12.2,4.3,12.2,0.6v-4.4
	c-4.2,0-7.4,2.5-12.2,2.5c-4.8,0-8-2.5-12.2-2.5v4.4c0,3.7,6.2,2.9,12.2-0.6L400.5,305.4L400.5,305.4z"/>
<path class="st2" d="M408.6,270.3v4.4l4-3.4v18c-4.2,0-7.4,2.5-12.2,2.5c-4.8,0-8-2.5-12.2-2.5v-18l4,3.4v-4.4l8.2,8.7L408.6,270.3z
	"/>
<path class="st2" d="M373.1,290.4v9c0,15.3,24.1,13.8,27.4,6.7c3.3,7,27.4,8.6,27.4-6.7v-9c0,1.4-4.8,3.6-9.1,3.6v7.1
	c0,5.6-7.2,10.3-18.2,4.4c-11.1,5.9-18.2,1.3-18.2-4.4v-7.1C378,293.9,373.1,291.7,373.1,290.4L373.1,290.4z"/>
<path class="st0" d="M409.7,228.5c0.4-1.1,0.8-2.7,1.2-4.2c-3.5-0.4-7-0.7-10.5-0.7c-3.6,0-7.4,0.3-10.5,0.7
	c0.4,1.5,0.8,3.1,1.2,4.2c0.3,0.8-1.4,2.9-7.3,2.6c-6.4-0.2-12.7,0.2-19,1.3c1.1,1.7,1.5,2,1.4,3.3c-0.2,1.4-3.6,2.8-9.5,3.6
	c-5.9,0.8-8.2,7-10.3,15.8c-2.7-1-5.5-1.8-8.3-2.2c1.3-5.7,5.9-18.8,11.7-20.1c-1.4-3.1-1.1-4.7,4.3-7.2c5.8-2.7,15.6-4.4,26.4-4.8
	c-0.7-2.6,0-3.7,3.4-5.1c2.9-1.3,7.5-2.2,16.5-2.2c8.9,0,13.5,1,16.4,2.2c3.4,1.4,4.1,2.5,3.4,5.1c10.8,0.4,20.6,2,26.4,4.8
	c5.4,2.5,5.7,4.1,4.3,7.2c5.7,1.3,10.4,14.3,11.7,20.1c-2.2,0.3-6,1.3-8.3,2.2c-2-8.8-4.4-15-10.3-15.8c-5.9-0.8-9.4-2.2-9.5-3.6
	c-0.2-1.3,0.3-1.6,1.4-3.3c-6.3-1.1-12.6-1.5-19-1.3C411.1,231.4,409.5,229.3,409.7,228.5L409.7,228.5z"/>
<g>
	<path class="st5" d="M400.5,281.1l28.3-24.2l0.6,0.7l-28.9,24.7V281.1z M400.5,278.4l23.9-25.9l0.7,0.7l-24.6,26.7V278.4z
		 M400.5,274.8l19-26.2l0.8,0.6l-19.7,27.3V274.8z M400.5,281.1l-28.3-24.2l-0.6,0.7l28.9,24.7V281.1z"/>
	<path class="st5" d="M400.5,278.4l-23.9-25.9l-0.7,0.7l24.6,26.7V278.4z M400.5,274.8l-19-26.2l-0.8,0.6l19.8,27.3V274.8z"/>
</g>
<path class="st6" d="M428.3,256.5l4.1-2.1l-2.7,3.7C429.4,258.3,428.1,256.7,428.3,256.5z M423.9,252.2l3.8-2.6l-2.3,4
	C425.2,253.8,423.7,252.4,423.9,252.2L423.9,252.2z M419,248.4l3.5-3l-1.8,4.2C420.4,249.8,418.8,248.6,419,248.4L419,248.4z
	 M372.6,256.5l-4.1-2.1l2.7,3.7C371.5,258.3,372.8,256.7,372.6,256.5z M377.1,252.2l-3.8-2.6l2.3,4
	C375.8,253.8,377.3,252.4,377.1,252.2z M382,248.4l-3.5-3l1.8,4.2C380.5,249.8,382.2,248.6,382,248.4z"/>
<path class="st4" d="M393.6,274.9c1.1-0.9,4.2-2.4,6.1-1.4c1.4-1.6,4.8-3.1,6.6-2.1l3.9,12.1c-1.1,0.8-3.3,0.4-4.7,1.2
	c-0.4,0.2-1.4,0.8-1.6,1.3c-0.7-0.3-2.2-0.1-3.2,0.2c-1,0.3-1.7,1.3-2.8,1.5L393.6,274.9"/>
<path d="M398,287.7l-4.4-12.8l0-0.1c1.2-1,4.3-2.4,6.2-1.4c1.3-1.6,4.8-3.1,6.6-2.1l4,12.1c-0.6,0.5-1.4,0.6-2.3,0.7
	c-0.8,0-1.7,0.2-2.4,0.6c-0.5,0.3-1.4,0.8-1.6,1.2c-0.7-0.3-2.3,0-3.3,0.2c-0.4,0.1-0.8,0.4-1.2,0.7
	C399.1,287.3,398.6,287.6,398,287.7z M393.7,275l4.3,12.7c0.6-0.2,1.1-0.5,1.5-0.8c0.4-0.3,0.8-0.5,1.2-0.7c1-0.3,2.5-0.5,3.3-0.2
	c0.1-0.4,1-1,1.5-1.2c0.8-0.5,1.7-0.6,2.6-0.7c0.8-0.1,1.6-0.2,2.2-0.6l-4-12c-1.7-0.9-5,0.4-6.5,2.1C398,272.6,394.9,274,393.7,275
	L393.7,275z"/>
<path class="st7" d="M437.9,339.6c3.6,0,8.4,1,9.9,1.5c-1.9-1.4-4.1-2.5-6.3-3.3c3.3,0.5,4.2,1.1,6.4,1.6c1.5,0.4,1.8,0.6,1.8,2.8
	c0,1.5,0,3.4,0.9,0.3c0.8-2.8,1.2-3.2-0.3-4.1c-1.8-1.2-3.8-2.2-5.8-3c4.3,1.1,7.7,2.5,9.8,3.8c-1.3-2.1-3.1-3.8-5.2-5.1
	c2.5,0.6,5.8,1.9,8.2,3.2c-1.4-2.1-3.3-3.8-5.4-5.1c3.8,0.8,7.8,2,10,3.3c-2.1-2.8-4.5-5.2-7.7-6.2c4.2,0.5,8.2,1.8,10,2.9
	c-2.4-2.3-5-4.8-7.5-5.6c3.4,0.5,6.6,1.4,8.5,2.2c-2.8-2.6-6.2-4.3-10-4.9c2.6,0,5.9,0.3,8.8,0.9c-2.5-1.5-5.3-2.3-8.2-2.4
	c4.3-1,9.1-0.8,14.4,0.9c-3.1-1.8-6.4-3-9.8-3.8c2.1-0.1,5.1-0.6,7.1-0.3c-3.1-1-6.4-1.5-9.6-1.6c4.2-1.2,8.4-2,11-2.5
	c-4.4-0.3-9.4,0-13.8,0.7c4.9-4.2,8.4-4.2,11.6-4.7c3.2-0.6,5.5-1.2,2.2-1.6c-2.1-0.2-3.9-0.4-5.4-0.4c3.4-1,7.8-3.2,9.2-4
	c1.4-0.8,5-3.3,1.2-1.6c-3.8,1.7-9.2,2-14.2,2.6c-1.8,0.1-3.5,0.6-5.1,1.4c2.7-1.5,5.7-3.2,8.8-4.7c3.1-1.5,2.4-2,5.2,1.1
	c1.3,1.5,1.2,0-0.5-4c-1.4-3.1-2.6-1.6-5.6-0.5c-1.1,0.4-2.5,1.1-4.2,2c1.7-2.1,7.7-9,8.7-10.2c1.1-1.2,2.6,0.2,4.7,1.5
	c2,1.3,1.3,0.1-0.6-2.1c-1.9-2.1-2.8-2.5-4-1.4c-1.2,1-7.2,4.8-10.6,8c6.1-5.8,13.2-12.4,14.9-14.2c-3.5,1.9-6.7,4-9.5,6.2
	c1-1.4,2.8-4,3.7-5c-1.4,1-3.4,2-4.5,3c1.6-2.9,3.4-5.6,3.6-6.1c0.4-0.8,0.8-0.9,1.4-1l3.1-0.3c1.8-0.1,1.1-0.5,0.3-0.7
	c-4.9-1.3-4.7-0.7-5.8,0.3c-1.1,1.1-2.1,2.3-3,3.6c1.2-3.8,5-7.4,5.6-8.5c-3.9,2.1-5.9,3.8-7.3,5.6c1.8-2.8,7.3-7.2,9-8.9
	c-1.7,0.7-5.3,2.5-6.3,3.6c0.9-1.6,1.8-3.3,2.6-5c-2.9,1.9-5.3,4.4-6.9,7.4c0.2-0.7,0.5-1.8,0.8-2.7c1-1.9,3.6-4.5,5-6
	c1.4-1.5,1.7-1.9,5.6,0.6c-0.5-1.4-1.2-2.7-2-3.9c-1.1-1.7-1.7-1-3.2,0.3c-0.9,0.7-1.7,1.7-3.2,3c1.7-4.4,3.7-9,4.7-12
	c-3,3.1-5.3,6.8-6.8,10.8c0.1-3,1.8-9.3,1.5-12.4c-1.7,2.3-2.9,5-3.4,7.8c-0.1-3.4-0.1-7.5-1-9.9c0.2,2.1-1.9,6.8-2.4,10.1
	c-1.3-3.2-2.8-6.2-3.6-8.3c0.1,1.6,0.5,5.4,1.2,9.9c-1.1-3.4-5.1-7-5.3-9.8c-0.1,4,2.8,10.8,3.1,12.7c0,0.6,0.3,1.6,0.5,2.6
	c-1.4-2.2-4.7-6.2-5.5-8.8c0,1.6,0.6,4.5,0.9,6.3c-1.7-1.6-3-0.7-5.9,4.9c1-0.3,2.1-1.5,2.9-2.1c0.8-0.6,1.6-1.2,2.5,0.3
	c1.1,1.8,4.1,6,5.7,11.3c-0.5-1.5-3.2-5.1-4.2-6.7c0.2,0.8,0.7,3.2,1,4.7c-0.9-2.7-2.2-5.3-3.7-7.7c-0.1,1.8,1.2,6.9,1.4,9
	c-0.8-1.8-1.6-3.5-2.3-4.8c0.5,1.4,1.3,6.5,1.2,9.1c-1-1.7-2-3.4-3.2-5c0.7,2.1,1.3,6.2,1.4,8.6c-0.3-0.6-0.6-1.2-1-1.8
	c-1.4-2.2-2.3,1.8-3.1,3.9c-0.8,2.1-0.4,1.8,0.6,0.4c1.4-2.2,1.3-1.9,2.1,0.5c0.5,1.4,2,4.8,3.2,9.3c-1.2-2-2.9-4.6-3.8-6.5
	c-0.9-1.9-1-1.8,0,2c0.6,2.5,2.2,7.2,1.6,12.2c-1-3.5-2.1-6.9-3.3-10.3c0.2,2.2,0.4,6.2,0.4,8c-0.5-0.9-1.1-1.7-1.8-2.4
	c0.9,2.9,1.1,8,1.1,11.1c-0.4-1.8-1-3.5-1.9-5.1c0.1,3.4,0.5,6.8,1.1,10.1c-0.4-1.8-1.1-3.6-2-5.3c0.5,2.6,0.6,6.8-0.1,9.6
	c-0.2-1.4-0.5-2.8-1.1-4.2c-0.2,1.3-0.5,5-1.4,6.7c0.4-2,0.6-4,0.4-6c-0.6,2.4-1.5,4.8-2.6,7c0.3-1.2,0.8-3.6,0.9-5.9
	c-0.3,1.4-1.3,2.6-1.8,3.9c0.3-2,0.3-3.8,0.2-4.6c-1,3.1-2.5,6.1-4.5,8.7c1.1-2.8,1.4-5.8,1.4-7.6c-1.8,3.1-1.9,4.5-4.8,8.2
	c1.1-2.2,1.4-4.8,0.9-7.2c-0.2,0.8-1.2,3.1-2.6,5.6c-0.2-2.5,0-5,0.7-7.4c-1.2,0.8-2.9,3.2-2.9,5c-0.4-1.7-1.1-3.2-2.2-4.6
	c1,6.2,0.6,11.6-3.1,14c-8.3,5.4-15.3,17.4-25.4,21.9c1.2,0.8,2.3,1.7,3.2,2.8c9.7-4.3,16.2-13.9,23.7-19.3c3.6-1.9,11.7,2.4,20.7,0
	c3.5-0.9,10.2,1.1,13.2,2.4C445.5,342.1,442.8,340.5,437.9,339.6L437.9,339.6z"/>
<path class="st7" d="M368.3,333.3c1.7-0.3,6.2-0.2,9.8,0.4c-2.4-0.9-0.9-6.6-3.8-8.8c3,1.4,4.2,0.9,5.8,1.2l0.6,0.2
	c-0.1-1.1,0.1-2.3,0.7-3.3c0.4,1.5,2.1,1.8,3.5,3c0.2,0.2,0.5,0.4,0.7,0.6c0.1-1.8,2.7-4.2,3-5.3c0.6,1.6,2,2.7,2.6,5
	c1.4,5.8-3.2,7-1.5,11.2c8.3,5.4,15.6,16.2,25.7,20.7c-1.2,0.8-2.2,1.7-3.2,2.8c-13.4-5.9-22-23.1-34.3-24l-0.9,0.4
	c-3,1.5-5.9,2.6-8.6,2c-2.5-0.3-5.1,0.1-7.3,1.3C364.5,335.4,366.2,333.9,368.3,333.3c-2.5,0.9-5.2,1-7.7,0.2
	c-1.5,3.7-5.1,4.7-8.2,5.1c-3.2,0.4-5.5,1.7-6.5,3.5c-0.3-1.7-0.2-3.5,0.2-5.2c-1.7-0.2-3.4-0.2-5,0.1c1.9-0.7,3.6-6.1,8.2-6.7
	c-0.9-0.6-1.7-1.3-2.3-2.2c1.1,0.6,2.1-0.1,4.1-0.6c1.3-0.3,2.7-0.5,4.1-0.4c-1.5-1.1-2.6-2.7-3-4.5c-1.4,4.3-6.1,5.5-8.9,5.7
	c-3.3,0.2-4.9,1.3-5.5,2.2c0-2,0.7-3.7,1.4-4.8c-1.4,0.1-2.6,0.2-3.4,0.5c0.3-2.5,1.7-4.7,3.8-6.1c-2-0.5-4.8-4-5-6.6
	c1.6,1.8,8.2-0.1,11.4,3.5c-1.9-1.6-3.1-3.9-3.3-6.4c0.7,1,2.3,1,3.9,1.9c-2.2-7.8-7.6-6.1-10.8-8.6c-4.1-3.2-2.4-8.7-5.7-11.4
	c1.4,0,2.6,0.1,3.6,0.3c-0.7-1.7-0.7-5-0.6-7c0.8,2.5,3.5,2.2,5.3,4.6c0.3-0.6,0.4-1.3,0.3-2c1.2,1.5,2.4,2.8,3.1,4.2
	c-0.2-2.6,0.8-4.2,1.6-4.9c-0.1,0.9,0.2,3.2,1.2,5.3c1,2.1,1.4,4.4,0.7,8.2c-0.7,3.6,0.8,6.4,2.6,9c0.2-1.6,0-6.2-0.5-7.6
	c-0.5-1.4-0.7-3.9-0.2-6.6c0.3,1.1,1.6,2.7,3,4.1c0.4,0.4,0.6,0.9,0.8,1.4c0.4-1,0.7-1.7,1.1-2.6c0.4-1.2-5.3-3.3-5-9.8
	c-3.9-2.2-7.4-5-8.3-10.2c0.6,0.5,1.4,0.9,2.1,1.1c-2.1-3.2-2.7-7.2-1.9-9.2c0.5,1.7,2.2,2.1,4,3.4c0.4-3.4-3.2-5.9-3.1-9.2
	c0.1-5.2,2.9-5.3,3.8-8.6c0.7,1.1,1.3,2.3,1.7,3.5c0.6-2.2,3.3-3.8,3.3-5.5c1.4,2,2.4,4.2,1.6,6.5c1.7-0.5,3.5-0.3,5,0.7
	c-3.4,0.6-3.2,4.7-5.4,5.7c-2.2,1-6.4,4-5.3,8.4c1.4,1.5,2.7,3.9,3.4,8.1c0.7,0.6,1.3,1.4,1.7,2.4c0.6-1,1.1-2.1,1.5-3.3
	c-0.2-1.7-2.5-3.6-3.1-5.3c-0.8-2.2,1.2-5.7,0.4-8.7c1.1,0.4,3,1.1,4.3,2.8c1-2.4,3-3.9,3-7.9c0.8,1.6,1.5,3.3,2,5
	c1.5-2,3.6-3.5,6-4.3c-1.6,2.8-1,5.5-1.1,7.8c-0.1,2.3-0.1,6.1-3.4,8.6c-3.3,2.6-4.2,3.3-4.9,9.7c1.4-3,4.8-5.4,4.9-7
	c0.7,2.9,1.2,5.1,1.2,7.1c1.1-1.3,3.1-2,5.5-2.2c-1.7,1.9-2.9,9.4-7.3,10.3c-4.4,0.9-6.2,5.4-7.4,7.2c-1.5,2.3-1.9,4-0.4,7.1
	c-0.1-2.3,0.3-4.5,1.2-6.6c1.5-2.9,4.6-4.2,4.8-6.2c0.4,1.8,0.6,3.6,0.6,5.4c2.2-4.5,6.9-3.2,8.2-4.5c-1.2,1.5-2,3.3-2.3,5.3
	c-0.6,2.6-2.4,4.8-4.9,5.9c-2,1-3.8,1.1-4.9,3.2c-0.3,1.2,0.8,2.3,0.8,4.2c0.1-0.6,0.3-1.2,0.6-1.8c1.3-1.8,2.1-3.2,2.1-4.2
	c2.8,2.8,3.4,5.5,2.5,8.4c-0.9,2.9-1.6,5.3,0.2,7.6c1,0.9,2.2,1.5,3.5,1.9c1.5-1.5-0.2-3.2-1.9-5c-1.7-1.7-1.5-5.8-0.1-7.4
	c1.4-1.7,2.6-3.5,2.5-5c1,0.9,2.1,2.5,2.5,3.4c0.4-1.3,1.3-2.4,2.4-3.2c0.2,2.4,1.8,3.5,1.8,6.2c0.6-1.6,1.9-2.9,3.5-3.5
	c-0.4,1.3,0.9,3.4,1,4.6c0.1,1.1,0,2.3-0.5,3.4c-0.6,1.6-1.8,2.9-3.4,3.7c-0.6,0.3-1.6,0.6-2.6,1.1c2.4-0.3,6.6,0.5,7.6,2.2
	C374,331.2,370.2,332.6,368.3,333.3L368.3,333.3z"/>
<g>
	<path class="st2" d="M402.7,348.6c-0.4-0.4-1.1-0.6-2.2-0.6c-1.1,0-1.7,0.2-2.2,0.6c-4.4-1.5-7.2-0.8-7.2,0.5v4.2
		c0,0.7,1.6,1.6,7.5,0.2c0.4,0.3,0.9,0.5,1.8,0.5c1,0,1.5-0.2,1.9-0.5v0c5.9,1.4,7.5,0.5,7.5-0.2v-4.2
		C409.9,347.7,407.1,347,402.7,348.6z"/>
	<path class="st2" d="M409.5,348.4c1.8,0.1,3.6,0.5,5.3,1.2c-0.3,1.7-0.5,3.3-0.6,5c-1.4-0.8-3-1.3-4.6-1.6L409.5,348.4L409.5,348.4
		z M391.6,348.4c-1.8,0.1-3.6,0.5-5.3,1.2c0.2,0.9,0.7,4.2,0.7,5c1.4-0.8,3-1.3,4.6-1.6L391.6,348.4L391.6,348.4z"/>
	<path class="st2" d="M400.5,344.1c12.6,0,22.7,0.8,30.8,2.5c-1,0.8-1.8,1.8-2.5,2.2c-0.7,0.6-0.5,2.4,1.2,3.8
		c2.8,2,6.6,2.4,9.7,0.9l2.3-1c-1.1,1-2.1,2.2-1.6,3.4c2.4,5.3,11.5-1.7,17,5c1.5-1.9,5.1-5.8,6.6-7.2c-3.1-3.8-7.4-3.2-11-2.9
		c1.3-2.2,1.4-3.8-1.4-5.8c-1.2-0.8-5.2-0.7-8.9,1c0.7-1.7,0.6-4.6-5.2-7.1c-8.7-3.9-23.5-4.7-37.2-4.7c-13.7,0-28.5,0.8-37.2,4.7
		c-5.7,2.5-5.8,5.4-5.1,7.1c-3.7-1.7-7.7-1.8-8.9-1c-2.8,2-2.7,3.7-1.4,5.8c-3.6-0.3-7.9-0.9-11,2.9c1.5,1.5,5.2,5.3,6.6,7.2
		c5.5-6.7,14.6,0.3,17-5c0.5-1.2-0.4-2.4-1.5-3.4l2.3,1c3.2,1.4,6.9,1.1,9.7-0.9c1.7-1.5,1.9-3.2,1.2-3.8c-0.7-0.5-1.5-1.5-2.5-2.2
		C377.7,344.9,387.9,344.1,400.5,344.1L400.5,344.1z"/>
</g>
</svg>
