<?xml version="1.0" encoding="utf-8"?>
<!-- Generator: Adobe Illustrator 27.1.1, SVG Export Plug-In . SVG Version: 6.00 Build 0)  -->
<svg version="1.1" id="Camada_1" xmlns="http://www.w3.org/2000/svg" xmlns:xlink="http://www.w3.org/1999/xlink" x="0px" y="0px"
	 viewBox="0 0 800 577.8" style="enable-background:new 0 0 800 577.8;" xml:space="preserve">
<style type="text/css">
	.st0{fill:#EEEEEE;}
	.st1{fill:#C60C30;}
	.st2{fill:#003478;}
	.st3{fill:#292F33;}
</style>
<path class="st0" d="M800,488.9c0,49.1-39.8,88.9-88.9,88.9H88.9C39.8,577.8,0,538,0,488.9v-400C0,39.8,39.8,0,88.9,0h622.2
	C760.2,0,800,39.8,800,88.9V488.9z"/>
<path class="st1" d="M476.5,179.7c-60.3-42.2-143.5-27.6-185.7,32.8c-20.3,30.7-11.8,72.1,18.9,92.4c29.6,19.5,69.2,12.5,90.3-15.9
	c21.1-30.2,62.7-37.5,92.9-16.4c30.2,21.1,37.5,62.7,16.4,92.9C551.5,305.1,536.8,221.9,476.5,179.7
	C476.5,179.7,476.5,179.7,476.5,179.7L476.5,179.7z"/>
<path class="st2" d="M492.8,272.5c-30.2-21.1-71.7-13.8-92.8,16.4c-21.8,29.7-63.6,36-93.2,14.2c-28.7-21.1-35.7-61-16-90.7
	c-43.1,59.7-29.6,143.1,30.1,186.1S464,428.1,507,368.4c0.7-1,1.5-2,2.2-3.1C530.3,335.2,523,293.7,492.8,272.5
	C492.9,272.6,492.9,272.5,492.8,272.5L492.8,272.5z"/>
<path class="st3" d="M540.8,457.2l42.8-51.1l17,14.3l-42.8,51.1L540.8,457.2z M597.9,389.1l42.8-51l17,14.3l-42.8,51L597.9,389.1z
	 M574.8,485.8l42.8-51l17,14.3l-42.8,51L574.8,485.8z M632,417.6l42.9-51l17,14.3l-42.9,51L632,417.6z M608.8,514.4l42.9-51l17,14.3
	l-42.9,51L608.8,514.4z M666,446.2l42.8-51.1l17,14.3L683,460.5L666,446.2z M666,131.5l17-14.3l42.9,51.1l-17,14.3L666,131.5z
	 M608.9,63.4l17-14.3l42.8,51.1l-17,14.3L608.9,63.4z M574.8,92l17-14.3l100,119.2l-17,14.3L574.8,92z M540.8,120.6l17-14.3
	l42.8,51.1l-17,14.3L540.8,120.6z M597.9,188.7l17-14.3l42.9,51l-17,14.3L597.9,188.7z M142.2,352.3l17-14.3l100,119.2l-17,14.3
	L142.2,352.3z M108.2,380.9l17-14.3l42.9,51.1L151,432L108.2,380.9z M165.3,449l17-14.3l42.9,51l-17,14.3L165.3,449z M74.1,409.4
	l17-14.3l100,119.2l-17,14.3L74.1,409.4z M74.1,168.3l100-119.2l17,14.3l-100,119.2L74.1,168.3z M108.2,196.9l100-119.2l17,14.3
	l-100,119.2L108.2,196.9z M142.2,225.4l100-119.2l17,14.3l-100,119.2L142.2,225.4z"/>
</svg>
