<?xml version="1.0" encoding="utf-8"?>
<!-- Generator: Adobe Illustrator 27.1.1, SVG Export Plug-In . SVG Version: 6.00 Build 0)  -->
<svg version="1.1" id="Camada_1" xmlns="http://www.w3.org/2000/svg" xmlns:xlink="http://www.w3.org/1999/xlink" x="0px" y="0px"
	 viewBox="0 0 800 577.8" style="enable-background:new 0 0 800 577.8;" xml:space="preserve">
<style type="text/css">
	.st0{fill:#0F47AF;}
	.st1{fill:#EEEEEE;}
	.st2{fill:#1F601A;}
	.st3{fill:#06209F;}
	.st4{fill:#FFFFFF;}
	.st5{fill:#FFCC01;}
	.st6{fill:#017E93;}
	.st7{fill:#E60000;}
</style>
<path class="st0" d="M800,488.9c0,49.1-39.8,88.9-88.9,88.9H88.9C39.8,577.8,0,538,0,488.9v-400C0,39.8,39.8,0,88.9,0h622.2
	C760.2,0,800,39.8,800,88.9V488.9z"/>
<path class="st1" d="M0,177.8h800V400H0V177.8z"/>
<path class="st2" d="M388,362.2c5.5-17-13.5-20.1-13.5-20.1s1.4,9.7-10.1,10.1c3.8,7.6,0.4,13.9-4.5,14.2
	C367.9,373.6,384.6,372.9,388,362.2L388,362.2z M359.8,351.9c10.5-12.8-4.9-22-4.9-22s-2.1,8.9-12.2,5.3c0.7,7.9-4.4,12.2-8.8,10.8
	C338.5,355,353.2,360,359.8,351.9z M339.9,334.2c12.5-6.7,3.4-19,3.4-19s-4.6,6.3-11.4,0.2c-2,6.5-7.5,8.1-10.5,5.7
	C322,329.7,332,338.4,339.9,334.2L339.9,334.2z M332.2,311.8c13.2-2.7,8.2-16.4,8.2-16.4s-5.9,4.5-10.4-2.9c-3.6,5.3-9,5.4-11,2.3
	C317.2,302.8,323.9,313.5,332.2,311.8L332.2,311.8z M329.1,292.6c12.1-0.1,10.1-13,10.1-13s-6,3-8.7-4.3c-4.1,4.1-8.9,3.2-10.1,0.1
	C317.5,282,321.4,292.6,329.1,292.6L329.1,292.6z M332,274.2c9.4,3.2,10.9-8.8,10.9-8.8s-5.4,1-5.7-6.2c-4.2,2.5-7.6,0.4-7.9-2.7
	C325.4,261.7,326,272.2,332,274.2z M339.3,259c4.7,2.8,10-6.4,10-6.4s-4.1-1.5-3-8.2c-3.6,1.6-6.1,0.6-5.8-2.2
	C336.5,246.4,334.8,256.5,339.3,259L339.3,259z M408.5,362.2C403,345.2,422,342,422,342s-1.4,9.7,10.1,10.1
	c-3.8,7.6-0.4,13.9,4.5,14.2C428.6,373.6,412,372.9,408.5,362.2L408.5,362.2z M436.7,351.9c-10.5-12.8,4.9-22,4.9-22
	s2.1,8.9,12.2,5.3c-0.7,7.9,4.4,12.2,8.8,10.8C458.1,355,443.4,360,436.7,351.9L436.7,351.9z M456.6,334.2c-12.5-6.7-3.4-19-3.4-19
	s4.6,6.3,11.3,0.2c2,6.5,7.5,8.1,10.5,5.7C474.5,329.7,464.6,338.4,456.6,334.2L456.6,334.2z M464.3,311.8
	c-13.2-2.7-8.2-16.4-8.2-16.4s5.9,4.5,10.4-2.9c3.6,5.3,9,5.4,11,2.3C479.3,302.8,472.7,313.5,464.3,311.8z M467.4,292.6
	c-12.1-0.1-10.1-13-10.1-13s6,3,8.7-4.3c4.1,4.1,8.9,3.2,10.1,0.1C479.1,282,475.1,292.6,467.4,292.6L467.4,292.6z M464.5,274.2
	c-9.4,3.2-10.9-8.8-10.9-8.8s5.4,1,5.7-6.2c4.2,2.5,7.6,0.4,7.9-2.7C471.2,261.7,470.6,272.2,464.5,274.2z M457.3,259
	c-4.7,2.8-10-6.4-10-6.4s4.1-1.5,3.1-8.2c3.6,1.6,6.1,0.6,5.8-2.2C460.1,246.4,461.7,256.5,457.3,259z"/>
<circle class="st3" cx="397.9" cy="362.2" r="8.9"/>
<path class="st3" d="M396,283.9l-41.3-44.3c0,0-6.9,51,13.2,64.6C388,317.7,396,283.9,396,283.9z"/>
<path class="st4" d="M374.5,260.9l-9.2-9.9c0,0-4.7,39.6,15.4,53.2C371,284.4,374.5,260.9,374.5,260.9L374.5,260.9z"/>
<path class="st3" d="M396,302.3l-56.6-32.1c0,0-2.8,33,7.2,49c9.9,16,46.3,17,51.4,1.4C403,304.9,396,302.3,396,302.3L396,302.3z"/>
<path class="st4" d="M359.9,281.8l-10.6-6c0,0-6.3,66.3,43.9,51.1C359.9,325.2,359.9,281.8,359.9,281.8z"/>
<path class="st3" d="M399.8,283.9l41.3-44.3c0,0,6.9,51-13.2,64.6C407.8,317.7,399.8,283.9,399.8,283.9z"/>
<path class="st4" d="M421.2,260.9l9.2-9.9c0,0,4.7,39.6-15.4,53.2C424.8,284.4,421.2,260.9,421.2,260.9L421.2,260.9z"/>
<path class="st3" d="M399.8,302.3l56.6-32.1c0,0,2.8,33-7.1,49c-9.9,16-46.3,17-51.4,1.4C392.8,304.9,399.8,302.3,399.8,302.3
	L399.8,302.3z"/>
<path class="st4" d="M435.9,281.8l10.6-6c0,0,6.3,66.3-44,51.1C435.9,325.2,435.9,281.8,435.9,281.8z"/>
<path class="st5" d="M396,228.8l-55,94.8h110L396,228.8z"/>
<path class="st4" d="M348.8,319.2l47.3-81.5l47.3,81.5H348.8z"/>
<path class="st6" d="M362.3,295.8l-13.5,23.3h94.5l-13.5-23.3H362.3z"/>
<path class="st5" d="M357.8,307.4c0,0,15.3-21.6,21.2-21.6c5.9,0,8.7,6.8,8.7,6.8s2.3-3.6,5.5-3.6s4.7,3.7,4.7,3.7s2.3-3.6,3.7-2.9
	c1.4,0.6,5.9,6.2,5.9,6.2s1.4-2.4,4.5-3.3c3.1-0.9,5.2,3.3,5.2,3.3s3.1-6.6,3.8-3.3c0.7,3.3,12.1,14.8,12.1,14.8L357.8,307.4
	L357.8,307.4z"/>
<circle class="st7" cx="397.4" cy="271.9" r="4.2"/>
<path class="st5" d="M311.2,249.8c-5.8,11.4-9.2,23.9-10.2,36.7l11.1,0.3c1-11.6,4.1-22.4,9.1-32.2L311.2,249.8L311.2,249.8z
	 M416.8,208.5c13.8,3,26.6,9.3,37.3,18.4l7.7-8c-12.2-10.4-26.8-17.7-42.6-21.1L416.8,208.5z M471,244.7
	c9.6,14.1,15.3,31.1,15.3,49.4c0,3.3-0.6,6.5-1,9.8l10.9,2c0.5-3.9,1.2-7.7,1.2-11.8c0-20.6-6.4-39.7-17.2-55.5L471,244.7z
	 M360.5,372.4c-26.8-13.1-45.1-39.1-48.2-68.8l-11,1.2c3.6,33.6,24.3,63,54.6,77.7L360.5,372.4z M330.8,239.6
	c16.4-20.8,41.5-33,68-33c0.6,0,1.1,0.2,1.7,0.2l0.7-11c-0.8,0-1.6-0.2-2.4-0.2c-31.4,0-59,14.9-77.1,37.8L330.8,239.6L330.8,239.6z
	 M481.9,320.1c-7.2,23.3-23.9,42.5-46,52.9l4.5,10.1c24.9-11.7,43.7-33.3,51.9-59.5L481.9,320.1L481.9,320.1z"/>
</svg>
