<?xml version="1.0" encoding="utf-8"?>
<!-- Generator: Adobe Illustrator 27.1.1, SVG Export Plug-In . SVG Version: 6.00 Build 0)  -->
<svg version="1.1" id="Camada_1" xmlns="http://www.w3.org/2000/svg" xmlns:xlink="http://www.w3.org/1999/xlink" x="0px" y="0px"
	 viewBox="0 0 800 577.8" style="enable-background:new 0 0 800 577.8;" xml:space="preserve">
<style type="text/css">
	.st0{fill:#E30917;}
	.st1{fill:#EEEEEE;}
</style>
<path class="st0" d="M800,488.9c0,49.1-39.8,88.9-88.9,88.9H88.9C39.8,577.8,0,538,0,488.9v-400C0,39.8,39.8,0,88.9,0h622.2
	C760.2,0,800,39.8,800,88.9V488.9z"/>
<path class="st1" d="M355.6,422.2c-73.6,0-133.3-59.7-133.3-133.3s59.7-133.3,133.3-133.3c29.1,0,56,9.4,77.9,25.3
	c-30.9-35.2-75.5-55.4-122.4-55.4c-90.2,0-163.4,73.2-163.4,163.4c0,90.2,73.1,163.4,163.4,163.4c0,0,0,0,0,0
	c48.8,0,92.4-21.5,122.4-55.4C410.8,413.4,383.6,422.2,355.6,422.2z M442.5,294l54.2,12.5l4.9,55.4l28.6-47.7l54.2,12.5l-36.5-42
	l28.6-47.7l-51.2,21.8l-36.5-42l4.9,55.4L442.5,294z"/>
</svg>
