<?xml version="1.0" encoding="utf-8"?>
<!-- Generator: Adobe Illustrator 27.1.1, SVG Export Plug-In . SVG Version: 6.00 Build 0)  -->
<svg version="1.1" id="Camada_1" xmlns="http://www.w3.org/2000/svg" xmlns:xlink="http://www.w3.org/1999/xlink" x="0px" y="0px"
	 viewBox="0 0 800 577.8" style="enable-background:new 0 0 800 577.8;" xml:space="preserve">
<style type="text/css">
	.st0{fill:#4B92DB;}
	.st1{fill:#FFFFFF;}
</style>
<path class="st0" d="M800,488.9c0,49.1-39.8,88.9-88.9,88.9H88.9C39.8,577.8,0,538,0,488.9v-400C0,39.8,39.8,0,88.9,0h622.2
	C760.2,0,800,39.8,800,88.9V488.9z"/>
<g>
	<path class="st1" d="M234.5,234c3.3-6.8,8.7-13.2,15.1-18.1c14.2-10.7,29.8-24.6,30-42.9c-4.7,13.1-19,18.6-28.6,27.6
		c-5,4.8-8.9,10.5-11.2,16.4l-0.3-0.3c1.2-5.3,3.4-10,4.9-15.1c4.2-13.9,3.4-30.6,17-39.8c-7,1.8-12.8,6.3-18,12.1
		c-10.9,12.1-10,30-8.5,46C235.4,224.8,235.1,229,234.5,234L234.5,234z M306,405.8c-15.8-12.7-18.2-31.8-25.2-48.6
		c-4.4-10.4-11.5-19.8-19.1-28.8c8.4,16.7,4.8,38.2,15.6,54c3.4,4.9,8.1,9.6,12.5,13.6l-0.2,0.2c-4-2-7.8-4.6-11.1-7.6
		c-19-15.8-47.5-17.8-58.8-43.5c3.1,18.9,18,35.6,34.2,46.2C269.2,401.3,288.9,400.2,306,405.8L306,405.8z"/>
	<path class="st1" d="M234.9,352.9c10.7,8.4,23.4,15,33.2,22.4c-1.9-4.8-5-9.3-6.3-14.4c-5.7-23.1-2.5-49.8-12.4-71.2
		c1.8,12.2-3,22.9-4.1,34.4c-0.9,9.5,0.8,18.7,4.4,26.7c1.1,2.4,3.1,4.5,3.6,6.9c-3.6-3.2-6.1-7.3-8.5-11.3
		c-11.5-18.6-35.6-30.7-37.2-53.3c-0.8,10.1,0.1,20.8,3.4,29.7C215.6,335.2,224.5,344.7,234.9,352.9z M251.1,194.4
		c7.6-7.1,16.4-12.4,22.8-20.9c7.7-10.2,14.4-21.6,24.5-30.4c-13.7,5.3-28.4,10.8-37.2,24.8C255.9,176.2,255.2,185.9,251.1,194.4
		L251.1,194.4z M346.7,416c2.9-0.7,6.4-0.5,9-1.4c-11.1-2.2-21.8-5.6-30.3-13.4c-12.3-11.3-23.2-23.3-36.4-32
		c10.3,13.9,13.2,34,32.1,41.2c3.3,1.3,7.2,1.5,10,3.3c-3.6,0.6-6.8-0.6-10.2-1.3c-24.3-5.2-54,1.5-72.2-19.2
		c6.9,13.5,21.1,24.2,34.8,28.7C304.8,428.7,326.8,420.9,346.7,416L346.7,416z"/>
	<path class="st1" d="M238.3,329.8l1,0.8c-1.1-7.5-1.6-15.5,0.5-22.6c3.2-11.4,7.2-22.5,9.4-34.3c1.6-9.2,3.5-19.5,2.5-28.4
		c-1.2,4.8-2.5,9.5-5.1,13.6c-10,15.5-20.3,33.7-13.3,53.3c-0.2,0.2-0.4,0.5-0.6,0.3c-2.8-6.5-3.4-13.9-5.3-20.9
		c-4.8-18.5-19.1-33.9-14.9-55.3c-2.2,4.6-3.1,9.9-4.2,14.9c-2.5,13.1,0,26.9,3.6,38.9C216.2,305.3,230.9,316,238.3,329.8
		L238.3,329.8z"/>
	<path class="st1" d="M256.8,230.4c3.3-6.7,5.4-14.3,6.3-21.7c-1.3,3.2-3.2,6.2-5.8,8.6c-11,10.5-24.1,20.8-26.6,35.6
		c-0.4,2.1-0.5,4.3-1.2,6.4c-0.5,0.2-0.5-0.3-0.7-0.5l1.4-18.4c1.3-17.9-8.1-37.9,2.3-53.7c-0.4-0.1-0.6,0.2-0.8,0.4
		c-9.4,12-15.7,25.2-15.7,41.4c0,20,11.5,33.9,12.9,52.6C231.9,261.5,248.3,247.6,256.8,230.4L256.8,230.4z M572.7,291.7
		c-1.8,7-2.4,14.4-5.3,20.9c-0.3,0.1-0.5-0.1-0.6-0.3c7-19.7-3.3-37.8-13.3-53.3c-2.6-4.1-3.9-8.8-5.1-13.6
		c-1.1,8.9,0.8,19.2,2.5,28.4c2.1,11.8,6.2,22.9,9.4,34.3c2.1,7.1,1.6,15.2,0.5,22.6l1-0.8c7.4-13.8,22.2-24.5,26.6-39.5
		c3.6-12,6-25.9,3.6-38.9c-1.2-5-2-10.3-4.2-14.9C591.8,257.8,577.6,273.2,572.7,291.7L572.7,291.7z M521.6,388.5
		c-3.4,3-7.1,5.6-11.1,7.6l-0.2-0.2c4.4-4,9.1-8.7,12.5-13.6c10.8-15.7,7.2-37.3,15.6-54c-7.6,9.1-14.7,18.4-19.1,28.8
		c-7,16.8-9.4,35.8-25.2,48.6c17.1-5.6,36.8-4.5,52.1-14.6c16.2-10.6,31.1-27.3,34.2-46.2C569,370.8,540.5,372.8,521.6,388.5
		L521.6,388.5z"/>
	<path class="st1" d="M468.9,413.5c2.9-1.8,6.7-2,10-3.3c18.8-7.1,21.8-27.3,32.1-41.2c-13.2,8.8-24.1,20.8-36.4,32
		c-8.6,7.8-19.2,11.2-30.3,13.4c2.7,1,6.1,0.8,9,1.4c19.9,4.9,42,12.7,63.1,5.7c13.7-4.5,27.9-15.2,34.8-28.7
		c-18.2,20.7-47.9,14-72.2,19.2C475.7,412.9,472.5,414,468.9,413.5z M546.8,357.7c0.6-2.4,2.5-4.6,3.6-6.9
		c3.8-8.4,5.4-17.6,4.4-26.7c-1.1-11.6-5.9-22.3-4.1-34.4c-9.9,21.4-6.7,48.1-12.4,71.2c-1.3,5.1-4.4,9.6-6.3,14.4
		c9.7-7.4,22.5-14,33.2-22.4c10.3-8.1,19.3-17.7,24-30.1c3.4-9,4.2-19.6,3.4-29.7c-1.6,22.6-25.7,34.7-37.2,53.3
		C552.8,350.4,550.3,354.5,546.8,357.7z M569.7,240.4l1.4,18.4c-0.2,0.1-0.2,0.7-0.7,0.5c-0.6-2-0.8-4.2-1.2-6.4
		c-2.5-14.8-15.5-25.2-26.6-35.6c-2.5-2.4-4.5-5.3-5.8-8.6c0.9,7.4,3,15,6.3,21.7c8.5,17.2,24.9,31.1,27.9,50.7
		c1.4-18.8,12.9-32.7,12.9-52.6c0-16.2-6.3-29.3-15.7-41.4c-0.3-0.1-0.5-0.4-0.8-0.4C577.8,202.5,568.4,222.4,569.7,240.4
		L569.7,240.4z"/>
	<path class="st1" d="M555.5,201.6c1.5,5.1,3.7,9.8,4.9,15.1l-0.3,0.3c-2.4-6.2-6.3-11.8-11.2-16.4c-9.5-9-23.8-14.4-28.6-27.6
		c0.2,18.3,15.8,32.1,30,42.9c6.4,4.8,11.8,11.3,15.1,18.1c-0.6-4.7-0.7-9.5-0.4-14.2c1.5-16,2.4-33.8-8.5-46
		c-5.2-5.8-11.1-10.3-18-12.1C552.1,171.1,551.4,187.7,555.5,201.6L555.5,201.6z M471.7,429.8c-16.4-6.8-33-15.8-51.6-15.8
		c-6.8,0-13.5,1.2-20,3.1c-6.5-2-13.2-3.1-20-3.1c-18.6,0-35.3,9-51.6,15.8c-14.8,6.1-34.4,4.9-47.5-4.1
		c6.5,8.1,15.2,13.2,24.1,16.6c16.6,6.6,36.1,1.6,50.3-7.5c10.2-6.5,19-15.8,31.1-15.8c2.2,0,4.4,0.3,6.6,0.8
		c-17.1,6.8-32.6,18.8-44.8,30.4c2.2,2.6,5.1,4.9,7.8,7.1c13.5-14,28.8-29,44.1-35.2c15.3,6.2,30.6,21.3,44.1,35.2
		c2.7-2.2,5.6-4.6,7.8-7.1c-12.1-11.6-27.7-23.5-44.8-30.4c2.2-0.5,4.4-0.8,6.6-0.8c12.2,0,20.9,9.2,31.1,15.8
		c14.2,9.1,33.6,14.2,50.3,7.5c9-3.4,17.6-8.4,24.1-16.6C506.1,434.7,486.5,435.9,471.7,429.8L471.7,429.8z"/>
	<path class="st1" d="M548.9,194.4c-4.1-8.5-4.8-18.2-10-26.4c-8.9-14-23.6-19.5-37.2-24.8c10,8.8,16.8,20.2,24.5,30.4
		C532.6,182,541.4,187.3,548.9,194.4z M279.2,207l-1.5-0.8c-9.2,18.7-14,39.3-14,60.1c0,13.2,1.9,26.1,5.5,38.4l3.2-0.8
		c-3.4-11.7-5.2-23.8-5.4-36h24.6c0.2,10.3,1.7,20.4,4.6,30l3.2-0.8c-2.9-9.5-4.4-19.3-4.6-29.2h22.3c0.1,3.3,0.5,6.5,0.9,9.7
		c-1.1,0.1-2.1,0.4-3.1,0.7l-0.7,2.2c-1.5,0.3-2.5,2.8-2.5,2.8c-1.2,0.4-2.2,2-1.8,2.4c0.4,0.4-0.7,0.6-0.7,0.6v3.1l-0.7,1l0.1,3.4
		c0.8,0,0.7,1.5,0.7,1.5c-1.4,0.1-1.1,2-1.1,2l-2.9,1l-0.6,0.8l-3.6-0.1l-0.9,0.9c-0.3-0.9-0.7-1.7-1-2.6l-3.2,0.8
		c0.1,0.3,0.2,0.6,0.4,1h-4.1l-0.3-0.7l-1.4-0.3l-0.1-1.5l-2.1,0.1l-0.4,0.8l-2.2,0.1c0.1,1.4-2.2,3.5-2.5,2.9
		c-0.3-0.6-1.8-2.1-1.1-2.4c0.7-0.3,2.5-0.6,2.5-0.6v-1l-5.1-0.1l-0.6,0.8l-2.1,0.1v2.2l-1,0.3c-0.7,0.4,0.1,2,0.1,2
		c1,1-0.1,2.5-0.1,2.5c-0.8,0.8,0.7,2.4,0.7,2.4c1.1,0.3-0.7,1.1-0.7,1.1c0.3,1.4,1.1,1.8,1.1,1.8c-0.8,1.4,0.6,2.1,0.6,2.1l0.1,2.4
		l1,0.6v1.5l0.6,1h2.2l-0.1-3.5c-1.9-2.2,1.6-2.8,1.8-2c0.1,0.8,1.6,1.3,1.6,1.3c0.3,2.1,2.6,3.4,3.3,1.3c0.7-2.1,1.2-0.8,1.6,0.1
		c0.9,1.2,1.9,2.4,3,3.4h2.1l0.3,2c2.3-0.1,3,0.1,4,3.4c0.5,1.8,1.8,3.3,3.6,4l1.9-0.1c0-1.7,1.9,0.3,1.9,1.1c0,0.8,3.7,4,3.7,4
		l3.7,0.8l1.1,0.9c2.2,2.8,4.4,5.5,6.9,8l-17.4,17.4c-15.2-15.5-26.3-34.5-32.4-55.3l-3.2,0.8c6.3,21.7,18,41.6,34.4,58
		c11.1,11.1,23.8,20.1,37.6,26.7l1.6-2.9c-13.2-6.3-25.3-14.7-35.7-25l17.4-17.4c9,8.8,19.3,15.8,30.5,20.8l1.6-2.9
		c-11-5-21.1-11.9-29.8-20.3l3.1-3.1c0.2,0.3,0.5,0.5,0.5,1c0.3,2.1,1.2,1.7,1.2,1.7l7.8-0.1l2.8-2.4l7-0.1c3.6-0.1,1.4-5,0.7-5
		c-0.5-0.4-0.5-1.2-0.4-2.1c5.6,4.3,11.5,8.2,18,10.9l1.6-2.9c-8.7-3.7-16.6-8.9-23.4-15.3l-0.8-0.8l17.3-17.3
		c5.6,5.3,12.1,9.2,19.1,11.8l1.6-2.9c-6.9-2.4-13.2-6.2-18.4-11.2l15.8-15.8c4.8,4.3,10.8,6.7,17.2,7.3l0,0.2c0,0-0.5,1.3,0.1,1.5
		c0.6,0.2,0.4,0.3,0.7,0.6l-0.3,0.7c-0.5-0.7-0.8,0.5-0.5,0.8c0.3,0.3-0.7,0.1-0.7,0.5s-0.3,0.6,0,0.8c0.3,0.2-0.1,0.3-0.5,0.6
		c-0.4,0.3,1.8,0.4,1.8,0.4s-0.4-0.8,0.1-0.8l0.2,0v1.1c-0.2,0-0.3,0-0.6,0v1l-1.1,0.1l1,1.1l0.7,0.1v2.3l0,0.1c0,1.8-4.5,0.6-5,0.1
		l-0.1,2.5l-0.8,0.1l0.1,1.7l-0.1,2.4l1.5-0.3v1l3.7,0.1l0.7-0.8v2.6l0,0.1l-2.5,0.3l-1,0.5l-0.1,0l-0.4-0.8h-1.1l-0.3,0.4
		c-3.3-0.5-6.7-0.7-9.9-1.8l-1.6,2.9c2,0.7,4.1,1.2,6.2,1.7c-0.3,0.3-0.9,0.6-0.8,0.8c0.3,0.7-1.1,1.4-1.1,1.4l-1.2,0.4l-0.8,1.3
		l-1.6,0.6l-0.3,2.9l-0.8,0.6v1.3l-1,0.3v0.7l-1.4,0.1l0.8,2.1l1.1,0.6c1.9,0.3,1.1,2.6,1.1,2.6l1.1,0.1l0.6,1.5l1.1,2.2
		c0.4,1.7,1.6,1.3,2.2,1.1c0.6-0.1,1.1,1.7,1.1,1.7l5.5,0.1c0,0-0.3,0.6,0.7,0.8c0.5,0.2,2.7,0.3,4.6,0.3v2.5
		c-10-0.2-19.9-2.3-29.2-6.1l-1.6,2.9c9.7,4.1,20.2,6.4,30.8,6.6v22.3c-14.4-0.2-28.6-3.4-41.8-9.3l-1.6,2.9
		c13.6,6.2,28.4,9.5,43.4,9.7v24.6c-19.2-0.2-38.2-4.6-55.5-12.8l-1.6,2.9c18.1,8.7,38.1,13.3,58.8,13.3c21.3,0,42.4-5,61.4-14.6
		l-1.6-3c-17.6,8.9-37.3,14-58.2,14.3v-24.6c9.8-0.2,19.5-1.7,28.9-4.5l2.7,0.8l0.7,2.2l1.1-0.1l0.8-0.7l3.3-0.1l1.6-1.5l1.8-0.3
		l14.4-12.2c6.5-4.1,12.8-8.6,18.5-14.1l17.3,17.3c-9.7,9.5-20.8,17.4-33,23.6l1.6,3c26.7-13.5,48.2-35.4,61.3-62.3l0,0l-1.9-1
		l1.9,1c9-18.5,13.6-38.9,13.6-59.5c0-17.8-3.4-35.1-9.9-51.1c-6.9-17-17.1-32.3-30-45.3c-13-13-28.4-23.2-45.5-30.1v0
		c-16.2-6.5-33.5-9.9-50.9-9.8c-21.9,0-42.6,5.2-61,14.5l1.5,2.9c18-9,37.7-13.8,57.8-14v24.6c-16.1,0.2-32,4.1-46.4,11.2l1.5,2.9
		c14-6.9,29.3-10.6,44.9-10.8v22.3c-12,0.2-23.8,3.1-34.6,8.3l1.5,2.9c10.3-5,21.6-7.7,33.1-7.9v24.6c-7.7,0.2-15,2.1-21.7,5.2
		l1.5,2.9c6.3-2.9,13.1-4.6,20.2-4.8v22.3c-2.5,0.2-5,0.8-7.4,1.7h-1l-0.1-1.5l0.7-0.4l-1.1-0.4l-0.8,1.1l-0.3,1.3l-1.4,0.3v0.7h-1
		v1.2c-2,1.1-4,2.1-5.6,3.6l-15.8-15.8c4-3.8,8.6-6.9,13.6-9.2l-1.5-2.9c-5.3,2.5-10.1,5.8-14.4,9.8l-17.4-17.4
		c6.1-5.9,13-10.6,20.4-14.2l-1.5-2.9c-7.8,3.8-14.9,8.8-21.2,14.8l-15.8-15.8c7.8-7.6,16.8-14,26.6-18.8l-1.5-2.9
		c-10.1,5-19.3,11.5-27.4,19.4l-17.4-17.4c9.8-9.6,21.1-17.6,33.4-23.8l-1.5-2.9c-26.6,13.4-48.1,35-61.3,61.7L279.2,207L279.2,207z
		 M330.1,267.9l0.1,0.8l-2.1,2.2l0.3,2.2l-1.2,0.4l-0.3,1l-0.6,2.9l1.4,0.1c0.7-0.3,0.6,1.8,0,2.1c-0.6,0.3-2.1,0.8-1.2,1.4
		c0.8,0.6-2.2,0.4-2.2-0.4c0-0.8-1.6-1.5-2.1-1.2c-0.2,0.2-0.5-0.2-0.7-0.6c-0.6-3.6-0.9-7.3-1-10.9H330.1L330.1,267.9z M321,335.4
		h0.3c0.7-2.4,4,0.1,4.3,1c0.1,0.3,0.6,0.6,1,1l-2.1,2.1C323.3,338.2,322.2,336.7,321,335.4L321,335.4z M342.6,321.4
		c-1.2-1.2-2-2.8-3.1-4.1c0.2-0.7,0.6-1.3,0.6-1.3c1.8-1.1-0.4-2.9-0.4-2.9c0.3-1.7-1-3.6-1-3.6c-2.5-1.7-1.8-4.9-1.8-4.9v-2.2
		c-2.1-2,0.8-2.2,0.8-2.2c1-1.7-0.7-2.9-0.7-2.9l-0.1-1.8l-2.2-0.3l-0.3-6.6l-5-7.1c-1-0.3-0.3-2-0.3-2c1.2-0.7-0.3-2.4-0.3-2.4
		l-0.1-3.1l2.9-0.3l0.7-1.1h1.4l-0.1-3.6c0.3-0.9,0.9-1.1,1.4-1.1h0.2c0.4,0.1,0.8,0.2,0.8,0.2l1.9,0.1l0.2-0.4h6.6l0.6,3.6
		l-1.8,1.5c-1.5,0.8-1.5,2.8,0.1,3.2c1.1,0.1,0.7,2.8-1,1c-2.5,0,1.4,2.2,0.3,1.7c2.5,1.3,1.9-1.1,1.9-1.1l1.3-1
		c2,10.2,6.8,19.7,14,27.2L342.6,321.4L342.6,321.4z M337.7,264.4c-1.6-1-0.8-4.6-0.8-4.6c2.6-3.9,5.6-1.7,5.6-1.7l1.9-0.1
		c0.7,0.4,1,1,1.2,1.6c-0.1,1-0.3,2-0.4,3c-0.2,0.3-0.3,0.7-0.5,1c-0.2,0.2-0.1,0.7-0.2,1.1h-5.3l0-0.1L337.7,264.4L337.7,264.4z
		 M368.2,270l0.6-0.8l0.2-1.2h1.6c0,0.8,0.4,1.5,0.5,2.3l-0.1,0.5l-1,0.3l-0.3-0.6l-0.4,1.5h-2.5l-0.1-1.7L368.2,270L368.2,270z
		 M362.3,301.7c-4.8-5.1-8.5-11.1-10.9-17.7c-1-2.9-1.8-5.9-2.3-9c1.2,0.4,2.4,2.3,2.4,2.6c0,0.4,5.5,0.1,5.5,0.1
		c1.5,1,2.1,3.5,2.1,3.5c1.5-2,4.7-0.1,2.3,1c2.2,1.4,2.2,2.6,2.2,2.6c1.8-0.6,1.8,0.8,1.8,1.3c0,0.4,0.6-2.1,0.6-2.1
		c-2.1-1.5,2.8-2.1,1.4,0.7l-0.8,1.2l1.4,1.1l0.1,3.2c3-0.3,2.2-4,2.2-4l1.4-0.3c0-1.3,1-0.6,1-0.6c-0.8-3.8,1-5,1.8-5.4
		c1.1,2,2.1,4.1,3.7,5.9L362.3,301.7L362.3,301.7z M376.4,277.3c0.2-0.8,0.2-1.6,0.2-1.6c-1.2-0.6-0.6-2.5,0.8-0.8
		c1.4,1.7-0.8-3.4-0.8-3.4l-1.1-1l-0.9-0.1c-0.2-1.4-0.8-2.7-0.8-4.2c0-0.7,0.3-1.2,0.4-1.9c0.3-0.1,0.6,0,0.6,0l0.8,0.7l1.2,1
		l0.1,0.8l-0.8,0.4l-0.1,1.1l0.4,1.5h1.1c0.4-2.2,3.3-2.2,4.1-0.8l0.8-2c-1.9-1,0-2.5,0.5-1.8c0.6,0.7,1.8-1.8,1.8-1.8s1,1.3,0-0.4
		c-1-1.7,0.7-2.5,0.7-2.5c-0.3-1.7,1.8-1.4,1.8-1.4l0.1-2.2l-1.9-0.1c-0.4,2-2.1,0.3-1.2-0.1s1.6-1.3,1.6-1.3V254l0.8-0.3l0.1-1.4
		h2.1l1.8-0.8l0.4-0.7l1.9-0.1l2.8-2.5l-0.3-1.1c-1.6,0,0-1.3,0-1.3l0.3-2.1h-1.5l-0.2-2.5c1.9-0.4,3.7-1.1,5.7-1.1l0.3,3.4
		l-1.5-0.5h-1l-0.4-0.8l-0.8-0.1v3.1l0.8,0.7l0.7,0.7l1.4,0.1l0.3,1.7l3.4,0.1l0.4,0.7l2.1,0.1l4,4l-0.3,1.3l-0.7,0.4
		c0.3,1-1.8,0.4-1.8,0.4v0.8l1,0.1l1,0.6l1.4-2.4c1.5-1,2.2,0.4,2.3,1.3c0.1,0.8-0.7,0.7-0.7,0.7v2l0.8,0.3c1.4,1.7-0.6,2.6-0.6,2.6
		l-0.4,1.4c-0.4,1.3-1.9,1-1.9,1l-0.6,0.8l-1.6,0.4l3.3,0.4c0.3-1.1,1.1-1.4,1.6-0.8c0.4,0.6,0.4,1.5,0.4,1.5l0.8,0.1l-0.1,1.5
		l0.8,0.3v4.5l1,1.1c1.6-0.7,1.6,0.4,0.8,1c-0.8,0.6-0.3,3.1-0.3,3.1l-0.7,0.7v1.1L414,280v1.5c-1.4-0.7-3-0.4-3.4,0
		c-1.2-0.8-3.8-0.6-3.8,0.1c0.8,1.1-1,1.4-1,1.4l-1,1.1c0.7,1.4-0.7,1.5-0.7,1.5v2.6l-1.6,1.5l0.1,2.1c-0.9,0.1-1.6,0.5-2.6,0.5
		c-6.4,0-12.4-2.5-17.1-6.7c0,0,0.1,0,0.1,0c0.4-0.7,1-1.1,1.8-1.3l0.4-1l3.7,0.1c0.3-1.5,2.1-1,2.1-0.3c0,0.7,1.4,0.1,1.4,0.1
		l1-1.5h1.5l0.1-1.7l0.7-0.4v-2.5c2.2-0.7,1.9-2.8,1.9-2.8l0.6-0.7l-0.3-1c-1.1-0.4-0.6-1.4,0.1-1.1c0.7,0.3-1-1.3-1-1.3
		c-0.8,0.7-1.5-0.8-1.5-0.8h-2.1v-2l-0.3-1.8l-2.1-1l-1.5,1.4l-0.3,2v1.2l-1.4,0.3l-0.3,3.8l-1.1,0.4l0.1,1.4l-1.5,0.4l-1.5,0.4
		l-0.3,1.8l-1.1,0.7l-0.6,1.7l-0.6,3.8C379.2,282.2,377.6,279.8,376.4,277.3L376.4,277.3z M449.5,204.4c0.2,0.2,0.4,0.4,0.6,0.5
		c0.6,0.5,1.3,1,2,1.6v0.8c1-0.2,2.4,1,2.6,2l-17,17c-4.8-4.5-10.4-8.2-16.5-10.8c-6.2-2.6-12.9-4-19.6-4.2v-24.6
		c10,0.2,19.6,2.2,28.6,5.9C437.2,195.4,443.5,199.6,449.5,204.4z M464.8,203.8c2,1.1,3.5,3.6,3.3,4c-0.3,0.6,1.6,0.4,1.6,0.4
		c0.3-2.5,2.6-1.7,2.8-0.8c0.1,0.8,0.6,2.6,0.6,2.6l0.7,1.2l1,1l1.5-0.1l0.4,0.8l1.8,0.3c0,0,1.5,1.7,1.6,2.1
		c0.1,0.4,2.2,0.3,2.8,0.4c0.6,0.1,1.4,0.6,1.5,1.3c0.1,0.7,1,1.8,1,1.8s1.6,0.4,1.8,1c0.2,0.6,0.5,1.2,0.8,1.8l1.4,1.1l0.1,1.3
		l1.5,0.1l0.4,1.7l2.5-0.1l1.4-1c0.4-0.2,0.6-0.4,0.9-0.6c0.5,1.2,1.3,2.2,1.7,3.3c4.6,11.7,7.2,24.2,7.4,37.2h-22.3
		c-0.1-3.7-0.5-7.5-1.2-11.1c0.2-0.8,0.4-1.5,0.1-1.8c-0.4-0.4,0.4-2.4,0.4-2.4s0.6-1.1,0-2.2c-0.6-1.1,0.1-2.4,0.6-2.9l-1.1-0.6
		l-1.1-0.1l-1.1,0.2l-0.7-2.4l0.2-0.4l0.7,0.1v-0.8l-1.3-0.4c-0.1-0.3-0.2-0.7-0.3-1l-0.2-3.5l-1-0.7l0.3-1.1l-1.1-0.4l0.6-1.8l-1-2
		h-1.8c-0.6-1.2-1.1-2.4-1.8-3.6c0-0.2,0.1-0.4,0.8-0.6c0.3-0.1,0.7-0.2,1.1-0.2l-0.1-1.4l-1.2-0.8L472,221c0,0-1.5,0.3-1.4,1.1
		c0,0.2-0.3,0.2-0.4,0.3c-0.9-1.4-2-2.6-3-4c0.1-0.2,0.1-0.4,0.2-0.6c0.6-1,0.3-1.5-0.7-1.8c-1-0.3-1-0.3-1.2-1.4
		c-0.3-1.1-1.4-1.4-1.4-1.4l-0.4-1.7l-1.3,0.8c-0.5-0.6-0.9-1.3-1.4-1.8l0.6-1.8c-0.6-0.1-0.7-0.5-0.9-0.8L464.8,203.8L464.8,203.8z
		 M460.3,214.8l-0.1,0.2c0,1.3,0.5,1.2,1.1,1.1l1.2,1.5c0.1,0.6,0.4,1,0.9,1.2c2.2,3,4.2,6,6,9.2c-0.2,0.2-0.2,0.3-0.2,0.3l-2.2,0.3
		v2.2l-1.1,0.4l0.1,1.4l1.5-0.1c0,0,0,1.7,0.4,1c0.4-0.7,3.8,0.1,3.6,1.8c-0.1,0.7,3.4,2.5,3,4.7c0.4,0.1,0.4,0.3,0.6,0.5
		c0.7,1.9,1.2,3.9,1.7,5.9l-0.1,0.2l0.2,0.2c0.5,1.9,1,3.8,1.3,5.7c-0.1,1.4-0.4,2.7-1.1,3.2c-1.6,1,0.1,0.4,0.1,0.4l-0.3,3.1
		c0.4,1.4,1.1,0.7,1.5,0c0.1-0.2,0.3-0.3,0.4-0.5c0.2,2,0.6,4,0.6,6h-16.6l0.3-0.4l0.7-2l2.3-0.7l0.3-1.8l-1.2-0.1
		c0,0,1.4-2.5,2.1-2.5c0.7,0,5.2,0,5.6-0.3s1.2-2.5,1.2-2.9c0-0.4,1.1-0.6,1.5-0.7c0.4-0.1,1.4-1.2,1.6-1.8c0.3-0.6-0.7-4-1.2-3.5
		c-0.6,0.6-1.8,0.8-1.8,0.8l-0.4,1.5l-0.7,0.6c0,0,0.1,0.4,0,1.4c-0.1,1-1.4,1.5-1.4,1.5l-0.6,0.7c0,0-3.3,0.2-3.7,0
		c-1.2-0.6-0.4-2.2,0.4-2.1c0.8,0.1-0.1-2.4-0.1-2.4l1.1-0.1c0,0,0.1-2.5,0.6-2.5s-0.1-0.8-0.7-1.2c-0.6-0.4-1.2-1.8-1.8-1.7
		c-0.6,0.1-2.8,0-2.8,0l-0.4,0.8l-1.5,0.3c0,0,0.1,1.1-0.1,1.4c-0.8,1-4,3.1-2.6-0.4l0.4-0.8v-1.3l-2.5-0.1c0,0-1.2-0.4-1.2-1
		c0-0.6-0.1-1.2-0.1-1.2l-2.9-3.2l-3.4-0.4l-0.3-0.7l-2.1-0.3c-0.3-0.1-0.4,0-0.7-0.1c-0.9-1.5-2.1-2.7-3.2-4.1l-0.2-1
		c-0.1-0.5-1.6-2.3-2.4-2.4c-0.4-0.4-0.6-0.9-1-1.3l17.1-17.1c0.5,0.5,0.6,0.8,1.3,1.3c0.1,0.1,0.2,0,0.3,0
		C459.3,213.4,459.8,214.2,460.3,214.8L460.3,214.8z M472.8,298.4c-3.7,8.4-8.9,16.1-15.3,22.8c-0.3-2.8-0.9-5.9-0.9-5.9l-1.1-0.6
		l0.3-3.4h-1.5l-2.5,3.2l-0.3,0.9l-1.4-1.4l0.7-0.7l-0.1-1.7l1-0.8v-1.4l0.8-0.3l0.1-3.1l0.7-0.1v-6.7l-2.1-2
		c-0.1,0.7-2.3,0.7-2.3,0.7s-0.6,1-1,1s0.6,1.3,0.3,2.1c-0.3,0.8-1.4,0.8-1.4,0.8l-2.1,0.6l-0.6,0.7H442l-0.2-1.5l0.4-0.4l2.1-0.6
		l1.4-0.7l0.7-1.4c0.1-1.4,1.8-1.2,1.8-1.2s3.2-2.6,3.3-3.9c0.1-1.3,1.2-4.8,3.2-4.8h3.6c1.4-0.6,1-2.4,1-2.4l1.8-0.3l0.3,1
		c0,0,2.5,0.3,2.8-0.1c0.3-0.4,0.8-1.4,1.5-1c0.7,0.4,2.9-1,2.9-1c0.1-1,3.6-0.6,3.6-0.6l0.4-1.2c0,0-2.3-3.2-2.8-3.2
		c-0.4,0-2.6-2-2.9-1.3c-2.2-0.6-2.1-3.6-2.1-3.6l-0.8-2c0-1.1-2.1-3.5-2.5-3.2c-0.9-0.6-1-1.3-1-1.9h19.2
		C479.3,278.5,477.1,288.8,472.8,298.4L472.8,298.4z M410.6,294.6l0.7,0.3l-1.2,1l-1.1,1.3l-1.4-0.4l-1.6-0.1l-0.6-1l-1-0.1l-0.1,2
		l-0.7,0.8l-1.6,1.7c1.7,0,0.6,0.9-0.3,1.3v-5.6c1.7-0.1,3.2-0.7,4.8-1.1l0.7,0.6h1.2l0.1-1c0.7-0.2,1.4-0.2,2.1-0.5
		C410.5,294.1,410.6,294.6,410.6,294.6L410.6,294.6z M435.3,233.3c0.2,0,0.4,0.1,0.6,0.1c0.8,0,2.6-0.3,2.6-0.3l1.2,0.3
		c0.7,0.8,1.3,1.6,1.9,2.5l-1.4-0.2l-1.1-0.1l-2.1-0.1c-2.1,1.4-2.5,3.1-2.5,3.1c-1,1.9-3.1-0.3-2.8-1.6L435.3,233.3L435.3,233.3z
		 M430.8,311.5l3.6,1.8c0.4,0.6,2.2,0.4,2.2,0.4l0.6,0.7c0,0,1.1-0.1,1.8,0.7c0.7,0.8,4.3,0.1,4.3,0.1l1,0.8l1.5,0.6l2.6,0.1
		l1.6,1.6c-2.5,0.9-5.2,1-7.8,0.4c-0.4-0.4-3.3-1.7-3.3-1.7s-2.2-1.8-2.6-1.2c-0.4,0.6-2.3-0.7-2.3-0.3s-1.8-1-1.8-1l-2.8-1l2.1-0.4
		L430.8,311.5L430.8,311.5z M431.2,295.2c0.1-0.2,0.2-0.3,0-0.5c-0.2-0.2-0.4-0.2-0.7-0.2l-1.1-1.1c-0.1-0.9,0.1-2,0-2.5
		c-0.1-0.6,2.3-1.4,1.9-0.1c-0.4,1.3,0,1.8,0,1.8c1.8-1.7,3.3,0.1,3.2,0.6c-0.1,0.4,1,0.8,1.6,0.4c0.7-0.4,1.5,1.3,1.2,2.1
		c-0.3,0.8-2.8,0.7-2.9-0.1c-0.1-0.8-0.6-0.6-0.8-0.1c-0.2,0.4-1.3,0.6-2,0.3L431.2,295.2L431.2,295.2z M443,242.3
		c-1.4,0-1.6-1.1-1.6-1.1s-1.1-0.4-1.1,0.1s-0.4,1.7,0,2.2c0.4,0.6-0.6,1.4-1,1c-0.4-0.4-1.5-1.7-1.2-2.1s-1.9-3.1,0.3-3.5
		c2.2-0.4-0.1-1.7,0.7-2l1.1-0.6h1.1l0.5-0.4c0.6,0.9,1.4,1.6,2,2.5c-0.1,0.3-0.4,0.4-0.4,0.8C443.7,241.5,444.4,242.3,443,242.3
		L443,242.3z M410.3,290.3c-0.8,0.3-1.7,0.3-2.5,0.6v-2.7l1.4-1.5C410.7,286.2,410.4,289.3,410.3,290.3L410.3,290.3z M401.7,342.7
		c0.7-0.8,3.4-0.9,4.7,0.1c1.5,1.1,3.6,0.4,3.6,0.4l1.2,1.4c-3.1,0.4-6.2,1.2-9.4,1.2L401.7,342.7L401.7,342.7z M420,218.5
		c5.6,2.4,10.8,5.7,15.4,10l-1,1c-0.4-0.5-1.9-0.8-1.9-1.3c0-0.6-1.4-1.3-1.2-0.4c0.1,0.8-1,1.3-1.2,1c-0.3-0.3-1.1,0.8-1.1,0.8
		c0,0.4-0.3,1,0.6,1.1c0.8,0.1,2.3-0.6,2.5,0.3c0,0.3,0.1,0.5,0.2,0.7l-5.4,5.4c-0.8,0-1.5,0-1.5,0c-0.4,1.3-2.3-0.1-1.8-1
		c0.6-0.8,0.6-1.4,0.6-1.4l-0.7-0.1l-0.8,1.5c-1.9,0-2.5,1.1-2.1,1.8c0.4,0.7-0.6-0.1-0.8,0.8c-0.3,1,0.1,1,1,1.4
		c0.8,0.4-0.4,0.4,0.1,1.1c0.4,0.5,1.1,0.4,1.2,0.6l-0.5,0.5c-1,0.5-2.3,0.4-2.3,0.4c0,0.4-0.5,0.4-0.9,0.5c-1.4-1-2.8-2-4.4-2.7
		l-0.1-0.2h-0.2c-0.7-0.4-1.3-1-2-1.3c0.4-0.3,1-0.5,1.3-1.4c0.4-1.3,0.7-2.7,0.8-4c0,0-2.2-0.1-2.3,0.6c-0.1,0.7-1.5,1.1-1.5,1.1
		s-1.1,0.4-0.7,1c0.4,0.6-0.8,0.8-0.8,0.8s0.1,0.6-0.1,1.1c-2.2-0.6-4.3-1.4-6.6-1.5v-22.3C408,214.8,414.2,216.1,420,218.5z
		 M403,308.9l3.2-0.7c0.3-1.4,1.6,0.3,1.6,0.3c1.4-0.1,1.6,0.8,1.6,0.8l1.8,0.3c1.5,0.4,0.6,0.6,0.7,1.1c0.1,0.8,0.8,0.6,0.8,0.6
		l0.3-1.8l0.8,0.1l-0.8-1l-1.5-0.7l-1.6-0.7c-1.1-1.5,0.3-1.3,1.4-1.1h1.8c0,0,2.1,2.8,2.1,3.5c0,0.7,1,0.8,1,0.8l1.2-0.1l0.4,1h1.2
		l0.4,0.8h2.5l0.1-1.3l-2.3-0.4l-0.1-1.4l-1.6-0.4c-0.6-2.4,0.4-3.1,1.1-2l0.8,0.1l-0.3-2.1l1-0.3l-0.3-2.9l-0.8-0.3v-1l3.4,0.1
		c-0.3-1.8,0.1-2.6,0.1-2.6h1l0.1,0.7l4.2,0.4l0.2,0c1.6,1,0.8,2.2,0.3,2.5c-0.6,0.3-1.5,0.3-1.5,0.3l-0.3,0.6l-3.6,0.3l-0.3,1.4
		c-1.8-0.3-2.5,1.7-2.1,2.6c0.4,1,0,1.8,0,1.8l1.5,0.7l1.9-0.6c0.3-1.4,1.5-1.7,2.6-2.5c1-0.8,2.4,1.1,2.2,2.3
		c-2.2,1.6-4.2,3.4-6.7,4.6c-3.6,1.8-7.6,3-11.6,3.9h0l-1.5-0.4l-0.1-2.1c-0.3-1.4-2.9-1.4-2.8-0.4s-4.9,0.4-4.9,0.4v-3.8L403,308.9
		L403,308.9z M401.6,349.2c3.8-0.1,7.5-0.9,11.2-1.5l0.5,1.1l2.3,0.7l1.6,0.4l0.6,2.4l1.2,0.1l0.4,1.5c1.5,1.1-0.4,3.5-0.4,3.5v3.1
		l1.1,0.6l-0.1,1.1l1.8,1.8l2.1,0.1l3.4,3.6c-8.2,2.2-16.8,3.5-25.6,3.7L401.6,349.2L401.6,349.2z M456.5,354.6v-1
		c2.5-1.8,2.6-5,0.3-5.3c-1.8-0.2-1-2.1,0.7-2.4l1-0.4v-1.3l3.2-2.9V339l-6.9-5.7c-1.5-0.6-1.5-2.5-0.9-4.3c1.2-1,2.5-1.9,3.6-3
		l9.7,9.7c-0.4,0.7-0.7,1.4-0.6,1.9l1.2,0.6l0.1,2.4c0.9,1,3,0.9,4.6,0.6l0.6,0.6C468.1,346.6,462.4,350.8,456.5,354.6L456.5,354.6z
		 M475.5,339.4l-0.6-0.6l-0.2-3.5l-0.7-0.7l-0.1-3.5c0.6-1.8-2.6-4.5-2.9-3.9c-0.3,0.6-2.1,0.1-2.1,0.7s-1.1,3.4-0.6,4.3v0.1
		l-8.6-8.6c14.5-15,22.7-35,23.1-55.8h22.2c-0.2,14.8-3.6,29.4-9.9,42.8C490.3,321.3,483.6,331,475.5,339.4z M519.7,324.1
		c-6.3,12.9-14.6,24.7-24.6,35l-17.3-17.3c19.3-19.8,30.2-46.2,30.6-73.9H533C532.8,287.4,528.2,306.6,519.7,324.1z M523.4,216.4
		c6.1,15.1,9.4,31.4,9.6,48.2h-24.6c-0.2-13.2-2.8-26.2-7.6-38.4c-0.6-1.6-1.6-3-2.4-4.6c0.2-0.8,0.5-2.2,1.7-1.9
		c1.4,0.4,0.4-3.1,0.4-3.1s-1.9-1.4-1.8-2.1c0.1-0.7-1.9-2.1-1.8-2.6c0.1-0.6-1.8-1.7-1.6-2.2c0.1-0.6-1-2.1-1-2.1l-2.1-2l-0.3-1.3
		l-1.6-0.1l-3.3-4l0.1-1.1l-1-0.1v-1.5l-1-0.6l-1.5-0.1l-3.1-3.4l-0.3-1.5h-1.5l0.2-2.4l16.1-16.1
		C507.3,185.7,516.9,200.4,523.4,216.4L523.4,216.4z M401.6,157.9v-24.6c16.5,0.2,32.8,3.4,48.1,9.6v0c16.1,6.5,30.8,16.1,43.2,28.2
		l-14.6,14.6c-0.5,0.1-1.1,0.3-1.5,0.1c-1-0.4,0.4-1.4,0.4-1.4v-1.1l-0.8-0.8c0,0-2.3,0.3-2.5-0.1c-0.1-0.4-0.6-2.2-0.6-2.2
		l-0.1-2.4l-1-0.4l-0.1-0.8l-1.5,0.1v-1.7l-0.8-0.3l-0.8-0.4l-0.1-1.7l-3-0.1l-1-1.4l-1.1-1.7l-3.4-0.3l-0.8-0.8l-1.4-0.3l-1-0.4
		l-0.4,0.7l-2.6,0.1l-0.1,0.8c-1,0.5-4.1,0.4-5.8,0.4c-2.5-1.2-4.8-2.8-7.3-3.8l-1.2,3.1c2.2,0.9,4.3,2.3,6.5,3.4
		c-0.1,0.2-0.2,0.5-0.4,0.5c-0.7,0-0.4,1.8-0.4,1.8s1.8,0,2.3,0.1c0.6,0.1,0.6,1.5,0.6,1.5c2.1-0.1,2.9,2.6,2.6,3.4
		c-0.3,0.7,0.8,0.7,0.8,0.7s0,2.2-0.3,2.8c-0.3,0.6,1.8,1,2.3,1.8c0.6,0.8-0.3,3.6-0.7,3.8c-0.4,0.1,1.1,0.6,1,1.3
		c-0.1,0.7,0.4,0,0.6,1.1l0.4,3.5l1.9,0.1c0.3-1.8,3.8-1.9,4.4-1.7c2.3,0.8,4.1,4.5,4.1,5.3c0,0.8-1.5,1-1.5,1l0.1,0.9l-4.9,4.9
		c-0.4-0.3-0.9-0.5-1.2-0.4c-0.7,0.4-0.4-2.9-0.4-2.9s1.2-0.8,1.8-0.4c0.6,0.4-4.7-7-5.8-6.3c-1.1,0.7-3.6-0.7-3.4-2
		c0.1-1.2-5-5.4-5-5.4s-1.6-1.1-1.9-0.3c-0.3,0.8-0.8,1.4,0,1.8s0.7-0.7,1.6,0.3s2.8,2.2,2.1,3.1c-0.4,0.5-0.9,0.9-1.5,1.1l1,1.1
		h1.5l0.3,2.4c0,0,1.6,0.8,2.1,1.8c0.3,0.8,0.2,1.2,0,1.7c-3-2.3-6.2-4.4-9.5-6.3c0.1-0.4,0.2-0.7,0.2-1c-0.3-1,1.1-1.4,1.8-0.3
		l1.4-0.1l0.3-1.3l-1.9-1.6h-1.5c0,0-0.1,1.1-1.1,0.7c-1-0.4-0.4-0.3-1.2-0.4c-0.8-0.1-0.6,1.8-0.4,2.4l0,0.2
		c-2.2-1.1-4.2-2.5-6.5-3.4c-9.5-3.9-19.5-5.9-29.8-6.1V171c0.8,0,1.3-0.2,1.4-0.6c0.1-0.6,0.3-0.7,1.1-0.8c0.8-0.1-0.1-1.8-1-1.7
		c-0.7,0.1-1.2-0.3-1.5-0.8v-6c13,0.2,25.8,2.8,37.9,7.7l1.2-3.1C428.3,160.7,415.1,158,401.6,157.9L401.6,157.9z M375.7,244.3
		l-1.3,0c-0.6,1.3-1.9-0.1-1.9-0.1c-0.3-0.8-2.2,0-2.2,0c0,1.5-2.6-0.7-2.6-0.7l-4.8-3.5c-2.8-2.5-6.9,0.7-7,1.4
		c0.1,1-0.7,1.1-1.5,0.9c2.2-4.1,4.7-8,7.9-11.4L375.7,244.3L375.7,244.3z M360,228.6c-3.6,3.9-6.6,8.3-8.9,13c-0.6,0-1.4,0-1.5,0.5
		c-0.4,1.1-2.2,0.8-2.2,0.8l-0.3,0.6l-1.4,0.3l-0.3,0.8l-1.6,0.3l4.1-0.1c1.1-0.1-0.4,2.4-1.1,2.2l-1.9,0.1l-0.7,0.7h-1.8l-0.9,1.1
		l-2.6-0.1c0,0-1.5,1.3-1.4,1.7c0.1,0.4-0.3,1.7-0.7,1.7c-0.4,0-1.2,1.3-1,1.7c0.3,0.4-0.8,1.8-0.8,1.8l-0.3,1.4l-0.8,0.3v3.8
		l-1.6,1.1v1.7l-0.8,0.8h-11.2c0.4-20,8.3-39.1,22.2-53.5L360,228.6L360,228.6z M340.3,208.9c-14.5,15-22.7,34.9-23.1,55.8h-22.3
		c0.3-26.8,10.9-52.4,29.6-71.5L340.3,208.9L340.3,208.9z M304.8,173.4l17.4,17.4c-8.2,8.4-14.9,18-20,28.6
		c-6.8,14.1-10.4,29.6-10.6,45.2H267C267.4,230.5,280.9,197.8,304.8,173.4z"/>
	<path class="st1" d="M291.2,331.6l1.5,1.4l0.6-1l-1-2.1l-1-0.7l-0.7-2l-2.1-1l1,2.5l0.5,1.2L291.2,331.6z M339.1,281.8
		c0.1,1.5,1.2-1,1.2-1v-9.5l-2.5-0.3l0.1,1h0.7c1.1,2,0.1,6.7,0.1,6.7s-1.6,0.1-1.9-0.7c-0.3-0.8-1,1.8-0.4,2.2
		C337,280.7,339,280.3,339.1,281.8L339.1,281.8z"/>
	<path class="st1" d="M337.8,282.6v3.4l2.2,2.9l0.8-2l0.3-1.3l-1-0.4l0.2-2.1l0.8-0.1l0.1-1l-2.1,1.4L337.8,282.6z M381.3,276.5
		l0.3-1.4l0.8-0.4l0.1-1.4l0.6-1l0.8-1l0.3-1.1l1.4-0.8l1.7-0.3l0.7-0.8l0.3-1.7l0.1-1.2l0.6-0.8l1.6-0.7v-2.6h-0.8l-0.1-1L388,260
		l-0.3,0.7h-0.7l-0.2,1.1h0.8l0.2,0.8l-0.6,0.6l-0.3,0.7l-1.1,0.3l-2.5,2.4l-0.2,1.1l-0.7,1l-0.8,2.1l-2.9,0.1l-0.5,2.5l0.4,2.1
		L381.3,276.5z M392.2,285.6l-1.2,0.1l0.1,2l0.8,0.7l1.5,0.4c0,0,2.1-0.6,2.2-2.2l-3.2-0.1L392.2,285.6L392.2,285.6z M403,277.6
		c0.3,1.2,0.3-2,0.8-1.8c0.6,0.1,0.1-2,0.1-2l-2.5,1.8C402.8,275.8,402.9,277.1,403,277.6L403,277.6z M412.8,274.8
		c-2.1-1.4-1.9-3.2-2.5-4.5c-0.2-0.5-0.8-1-1.2,0.1v1.8c0,0,1.9,3.1,2.6,3.5C412.4,276.2,413.5,275.3,412.8,274.8z M474.7,279
		c-0.6-1.7-3.9-0.2-3.3,0.6c0.8,1.1,2.2,0.6,2.8,0.7C474.7,280.4,475.2,280.7,474.7,279z M479.1,232.6c0,0.4,0.3,2.5,0.3,2.5
		s1,0.4,1.1,1c0.1,0.6,0,1.7,0.4,1.8c0.4,0.1,1.2,0.7,1,1.2c-0.3,0.6-0.3,1.7-0.3,1.7l0.6,1.3l1.1,0.7c0,0,0.4-3.4-0.3-3.5
		c-0.7-0.1-0.4-2.1-0.4-2.1s0.7-2.6-0.4-2.6c-1.1,0-0.3-1.4-1-1.8c-0.7-0.4-0.3-2.4-0.6-2.9c-0.3-0.6-0.3-1.3-1-1.7
		c-0.7-0.4,0.1,1.5-0.3,1.8c-0.4,0.3-0.7,0.8-1.1,1.3C477.8,231.6,479.1,232.1,479.1,232.6L479.1,232.6z M473.2,219.4
		c0.4,0.6,1.2,1,1.2,1.5c0,0.6-0.3,1,0.6,1.1c0.8,0.1,1.4-0.1,1.6,0.6c0.2,0.8,0.3,1.6,0.1,2.4c-0.1,0.6,0.1,1.4,0.8,1.4
		c0.7,0,0.8,0.1,0.8,0.6c0,0.4,0.8-1.5,0.8-1.5c-0.5-0.5-0.9-1.1-1.2-1.8c0,0-0.7-2-0.7-2.2c0-0.3-1-0.6-1.4-0.7
		c-0.4-0.1-1.1-1.4-1.1-1.4L473.2,219.4L473.2,219.4z M471.6,216.4c0.6,0,1,0.3,1.5,0.6c0.6,0.3,1,0.7,1.4,1.3l1.4-0.4
		c0,0,0.1-1.4-0.4-1s-1-1-1.5-0.8c-0.6,0.1-0.8-0.6-1.4-1.2c-0.6-0.7-0.4-0.8-1.1-1.3s-1.1-0.4-1.1,0.1c0,0.6,0.7,0.8,0.4,1.5
		c-0.2,0.5,0,1,0.5,1.2C471.4,216.3,471.5,216.4,471.6,216.4L471.6,216.4z M456,226c0,0,0.4,0.7,0.8,1.1c0.4,0.4,1.4,1.3,0.4,1.8
		c-1,0.6,0.1,0.4,0.1,0.4s-0.1,2.9-1.4,2.5s-1.6,1.5-1.6,2.1s4.9,0.8,4.1,0c-0.4-0.4,0.6-1.4,0.6-1.4s3.3,0.3,4,0.3
		c0.7,0,1.2-0.1,0.8-0.8c-0.4-0.7-1.6-0.6-1.6-0.6s-1.6,0.4-3.2-0.4c-1.5-0.8,0.3-1.1,0.6-1.1c0.3,0,1.5-1,1-1.7c-0.6-0.7,0-2,0-1.4
		c0,0.6,1.5,0.8,1.8,0.4c0.3-0.4,0-1.7-0.7-2.1c-0.7-0.4,1.2-0.7,0.7-1.4c-0.6-0.7-0.9-1.6-0.9-1.6s-0.8,1.1-2.5,0.6
		c0,0-0.3,2.6-1.1,3.2L456,226L456,226z M473.8,224.9L473.8,224.9C473.8,225,473.9,225,473.8,224.9z M424.2,233.2
		c0,0.4,1,0.8,1.5,0.8c0.6,0,2.1-1.1,2.1-1.1s0.7-2,0.1-1.8c-0.6,0.1-1.6,1-1.8,0.1c-0.1-0.8-1.8-0.4-1.8-0.4l-2.2,0.3l-0.1,1
		l1.5,0.1C423.5,232.3,424.2,232.8,424.2,233.2L424.2,233.2z M436,186.8c-0.7,0-1.9-0.8-1.6-1.4c0.3-0.6-2.3-1.1-2.3-1.1
		s-2.3-2.2-1.5-2c0.8,0.3,0.4-1,0.4-1s-1.6,0.3-2.1,0.1c-0.4-0.1-0.3-1.4-0.3-1.4s-1.6-0.4-1.6,0s0.6,0.4,0.8,1.2
		c0.3,0.8,0.1,2.2,1.4,2.5c1.2,0.3,1.5,0.6,1.6,1.1c0.1,0.6,1.6,0.7,1.6,0.7l1.1,0.6l3.3,2.8v-1.1
		C436.8,187.9,436.7,186.8,436,186.8z M421.6,168.9c0,0,0.1-0.1,0.2-0.1C421.3,168.6,421,168.5,421.6,168.9z M425.8,168.9l-1-0.7
		c0,0-1.5-0.1-1.5-0.6c0-0.4-1,1.2-1.6,1.2c0.7,0.3,1.7,0.9,1.7,0.9c1.1,0,1.8,0.8,1.8,1.3s1.5,0.3,1.5,0.3l0.1-1L425.8,168.9z
		 M465.2,168.5c0,0,2.6,3,2.5,1.5c-0.3-4.2-2.2-4.3-2.9-5.2c-0.7-0.8-3.6,0.2-3.4,1.3c0.1,0.7,0.7,1.4,1.8,1.7L465.2,168.5z
		 M412.1,152.3v-1.5l-0.5-0.6l-0.6-2l-1.8-0.6l-1.8,0.7l-1.9,1.3l-2.1,0.3l-1.1,1.2l4.4,0.4l0.8,1.4l3.2,0.3l2.1,2.1
		c1.8,0.6,2.2-0.3,1.1-1.2L412.1,152.3L412.1,152.3z M424.8,145.5h-2.5c-0.1-1-2.3-0.6-2.5,0c-0.1,0.6-1,0.7-1,0.7l-3.2,0.3
		c-0.3,0.8-1.9,1.4-2.1,0.8c-0.3-1.2-2.1,1.5-0.3,2.1c1.8,0.6,3.6,0,3.6,0l0.4-0.8l6.9,0.1c0.6-0.6,0.8-1.4,0.8-1.4s1.6-0.6,2.3-0.3
		c0.7,0.3,0.1-2-0.6-1.7C426.1,145.6,424.8,145.5,424.8,145.5z M387.6,174.5c0.1,0.4,1.5,0.6,1.6,0.1c0.1-0.4,0.7-1.3-0.6-1.3
		c-1.2,0-1-0.7-1.4-1.1c-0.4-0.4-3.3-0.4-3.2,0.1c0.1,0.7,1.2,1.5,1.2,1.5S387.5,174.1,387.6,174.5L387.6,174.5z M394.1,300.3
		c0.6-0.1,1-0.4,1.5-0.5c0.5-0.1,0.7-0.9,0.9-1.8c0.2-0.8-0.2-1.3-0.2-1.3s-0.5,0.8-1.3,0c-0.8-0.8-1.6,1.9-1.9,2.5
		C393.2,299.3,393.5,300.4,394.1,300.3L394.1,300.3z"/>
</g>
</svg>
