<?xml version="1.0" encoding="utf-8"?>
<!-- Generator: Adobe Illustrator 27.1.1, SVG Export Plug-In . SVG Version: 6.00 Build 0)  -->
<svg version="1.1" id="Camada_1" xmlns="http://www.w3.org/2000/svg" xmlns:xlink="http://www.w3.org/1999/xlink" x="0px" y="0px"
	 viewBox="0 0 1500 1000" style="enable-background:new 0 0 1500 1000;" xml:space="preserve">
<style type="text/css">
	.st0{fill:#B31942;}
	.st1{fill:#FFFFFF;}
	.st2{fill:#0A3161;}
</style>
<g>
	<path class="st0" d="M0,0h1500v1000H0"/>
	<g>
		<rect y="384.6" class="st1" width="1500" height="76.9"/>
		<rect y="230.8" class="st1" width="1500" height="76.9"/>
		<rect y="76.9" class="st1" width="1500" height="76.9"/>
		<rect y="846.2" class="st1" width="1500" height="76.9"/>
		<rect y="538.5" class="st1" width="1500" height="76.9"/>
		<rect y="692.3" class="st1" width="1500" height="76.9"/>
	</g>
	<path class="st2" d="M0,0h760v538.5H0"/>
	<g>
		<g id="s18">
			<g id="s9">
				<g id="s5">
					<g id="s4">
						<path id="s" class="st1" d="M63.3,23.1l18.1,55.7L34.1,44.3h58.5L45.2,78.7L63.3,23.1z"/>
						<g>
							<path id="s_00000096017620446671025310000014685303813400519077_" class="st1" d="M63.3,130.8l18.1,55.7L34.1,152h58.5
								l-47.3,34.4L63.3,130.8z"/>
						</g>
						<g>
							<path id="s_00000026854188283883497750000002665958184507609021_" class="st1" d="M63.3,238.5l18.1,55.7l-47.3-34.4h58.5
								l-47.3,34.4L63.3,238.5z"/>
						</g>
						<g>
							<path id="s_00000090989538931739834700000007270539471326850952_" class="st1" d="M63.3,346.2l18.1,55.7l-47.3-34.4h58.5
								l-47.3,34.4L63.3,346.2z"/>
						</g>
					</g>
					<g>
						<path id="s_00000019672279329847468270000009806669746476694922_" class="st1" d="M63.3,453.8l18.1,55.7l-47.3-34.4h58.5
							l-47.3,34.4L63.3,453.8z"/>
					</g>
				</g>
				<g>
					<g id="s4_00000031911718859191707850000013595480428055009967_">
						<path id="s_00000032607236783471540700000005995392498887675529_" class="st1" d="M126.7,76.9l18.1,55.7L97.4,98.2h58.5
							l-47.3,34.4L126.7,76.9z"/>
						<g>
							<path id="s_00000077300761622155059260000000265573947464936330_" class="st1" d="M126.7,184.6l18.1,55.7l-47.3-34.4h58.5
								l-47.3,34.4L126.7,184.6z"/>
						</g>
						<g>
							<path id="s_00000004525553542769269930000018026239309629751470_" class="st1" d="M126.7,292.3l18.1,55.7l-47.3-34.4h58.5
								L108.6,348L126.7,292.3z"/>
						</g>
						<g>
							<path id="s_00000119114809317689208040000014142539585057671093_" class="st1" d="M126.7,400l18.1,55.7l-47.3-34.4h58.5
								l-47.3,34.4L126.7,400z"/>
						</g>
					</g>
				</g>
			</g>
			<g>
				<g id="s9_00000153681366636328025360000004023265527181732016_">
					<g id="s5_00000080205562544099698530000013894761797400435611_">
						<g id="s4_00000158030831465801743230000016657785487013184424_">
							<path id="s_00000070820691082076952870000008657296265980000682_" class="st1" d="M190,23.1l18.1,55.7l-47.3-34.4h58.5
								l-47.3,34.4L190,23.1z"/>
							<g>
								<path id="s_00000125560629345183716800000002884031557653041563_" class="st1" d="M190,130.8l18.1,55.7L160.7,152h58.5
									l-47.3,34.4L190,130.8z"/>
							</g>
							<g>
								<path id="s_00000025438076437559199610000004944654137420518313_" class="st1" d="M190,238.5l18.1,55.7l-47.3-34.4h58.5
									l-47.3,34.4L190,238.5z"/>
							</g>
							<g>
								<path id="s_00000011709810993330092450000001657349254539069368_" class="st1" d="M190,346.2l18.1,55.7l-47.3-34.4h58.5
									l-47.3,34.4L190,346.2z"/>
							</g>
						</g>
						<g>
							<path id="s_00000068638360038956419530000009269078516463929237_" class="st1" d="M190,453.8l18.1,55.7l-47.3-34.4h58.5
								l-47.3,34.4L190,453.8z"/>
						</g>
					</g>
					<g>
						<g id="s4_00000075851141101094143210000007157697449990331062_">
							<path id="s_00000080887196994681435250000008691835915233085373_" class="st1" d="M253.3,76.9l18.1,55.7l-47.3-34.4h58.5
								l-47.3,34.4L253.3,76.9z"/>
							<g>
								<path id="s_00000109027248073368686760000002168864380974048940_" class="st1" d="M253.3,184.6l18.1,55.7l-47.3-34.4h58.5
									l-47.3,34.4L253.3,184.6z"/>
							</g>
							<g>
								<path id="s_00000065062002701387779310000018194933293246408605_" class="st1" d="M253.3,292.3l18.1,55.7l-47.3-34.4h58.5
									L235.2,348L253.3,292.3z"/>
							</g>
							<g>
								<path id="s_00000164501827557562205830000012222881062357557438_" class="st1" d="M253.3,400l18.1,55.7l-47.3-34.4h58.5
									l-47.3,34.4L253.3,400z"/>
							</g>
						</g>
					</g>
				</g>
			</g>
		</g>
		<g>
			<g id="s18_00000172397984540186043880000007732867980718113689_">
				<g id="s9_00000109722415484445440260000011618026127383909762_">
					<g id="s5_00000044889669455608132550000002902275139755083934_">
						<g id="s4_00000059304650130440010270000010502719240164745902_">
							<path id="s_00000087413819707671670630000014858414690860405929_" class="st1" d="M316.7,23.1l18.1,55.7l-47.3-34.4h58.5
								l-47.3,34.4L316.7,23.1z"/>
							<g>
								<path id="s_00000091010204953330990000000010311541663163717279_" class="st1" d="M316.7,130.8l18.1,55.7L287.4,152h58.5
									l-47.3,34.4L316.7,130.8z"/>
							</g>
							<g>
								<path id="s_00000016784361626670433960000002273309574478962866_" class="st1" d="M316.7,238.5l18.1,55.7l-47.3-34.4h58.5
									l-47.3,34.4L316.7,238.5z"/>
							</g>
							<g>
								<path id="s_00000043433123247486449940000004013443535575220144_" class="st1" d="M316.7,346.2l18.1,55.7l-47.3-34.4h58.5
									l-47.3,34.4L316.7,346.2z"/>
							</g>
						</g>
						<g>
							<path id="s_00000035497901533182341980000003261144078319963802_" class="st1" d="M316.7,453.8l18.1,55.7l-47.3-34.4h58.5
								l-47.3,34.4L316.7,453.8z"/>
						</g>
					</g>
					<g>
						<g id="s4_00000107546200657366183650000011162451670328205992_">
							<path id="s_00000157288703268941021480000004033563649348559530_" class="st1" d="M380,76.9l18.1,55.7l-47.3-34.4h58.5
								l-47.3,34.4L380,76.9z"/>
							<g>
								<path id="s_00000065766739496866240410000011492230809388994229_" class="st1" d="M380,184.6l18.1,55.7l-47.3-34.4h58.5
									l-47.3,34.4L380,184.6z"/>
							</g>
							<g>
								<path id="s_00000095303968554586086960000005555599786296477338_" class="st1" d="M380,292.3l18.1,55.7l-47.3-34.4h58.5
									L361.9,348L380,292.3z"/>
							</g>
							<g>
								<path id="s_00000173857152044265190760000008423181954534059702_" class="st1" d="M380,400l18.1,55.7l-47.3-34.4h58.5
									l-47.3,34.4L380,400z"/>
							</g>
						</g>
					</g>
				</g>
				<g>
					<g id="s9_00000156563909843459290250000010127558261802906759_">
						<g id="s5_00000159437485560869597120000008911638020229411775_">
							<g id="s4_00000093889922060838060770000011987790760338106538_">
								<path id="s_00000067222812742968585270000012554254242898395569_" class="st1" d="M443.3,23.1l18.1,55.7l-47.3-34.4h58.5
									l-47.3,34.4L443.3,23.1z"/>
								<g>
									<path id="s_00000066502639812641272730000000186073253952062135_" class="st1" d="M443.3,130.8l18.1,55.7L414.1,152h58.5
										l-47.3,34.4L443.3,130.8z"/>
								</g>
								<g>
									<path id="s_00000132082484941434158150000001329342843694087849_" class="st1" d="M443.3,238.5l18.1,55.7l-47.3-34.4h58.5
										l-47.3,34.4L443.3,238.5z"/>
								</g>
								<g>
									<path id="s_00000163789451647228456570000010583954086076547758_" class="st1" d="M443.3,346.2l18.1,55.7l-47.3-34.4h58.5
										l-47.3,34.4L443.3,346.2z"/>
								</g>
							</g>
							<g>
								<path id="s_00000168812048813956588790000009481445905913886356_" class="st1" d="M443.3,453.8l18.1,55.7l-47.3-34.4h58.5
									l-47.3,34.4L443.3,453.8z"/>
							</g>
						</g>
						<g>
							<g id="s4_00000174582343549087236780000010410219482218305951_">
								<path id="s_00000119807420078518216490000015700750089821907623_" class="st1" d="M506.7,76.9l18.1,55.7l-47.3-34.4h58.5
									l-47.3,34.4L506.7,76.9z"/>
								<g>
									<path id="s_00000158724948743602130200000013084418198092879269_" class="st1" d="M506.7,184.6l18.1,55.7l-47.3-34.4h58.5
										l-47.3,34.4L506.7,184.6z"/>
								</g>
								<g>
									<path id="s_00000165913357333457024300000014300793481901150908_" class="st1" d="M506.7,292.3l18.1,55.7l-47.3-34.4h58.5
										L488.6,348L506.7,292.3z"/>
								</g>
								<g>
									<path id="s_00000010293926776658627410000005613368936792217272_" class="st1" d="M506.7,400l18.1,55.7l-47.3-34.4h58.5
										l-47.3,34.4L506.7,400z"/>
								</g>
							</g>
						</g>
					</g>
				</g>
			</g>
		</g>
		<g>
			<g id="s9_00000075860669423918564200000001884942656216355765_">
				<g id="s5_00000097492222259396275740000013185018763933375873_">
					<g id="s4_00000062176369477434230000000002082751512631604384_">
						<path id="s_00000106120580679613650340000003032863218809989306_" class="st1" d="M570,23.1l18.1,55.7l-47.3-34.4h58.5
							l-47.3,34.4L570,23.1z"/>
						<g>
							<path id="s_00000162340543160361475990000005508996082610034359_" class="st1" d="M570,130.8l18.1,55.7L540.7,152h58.5
								l-47.3,34.4L570,130.8z"/>
						</g>
						<g>
							<path id="s_00000045579136112984522140000009020694033537008012_" class="st1" d="M570,238.5l18.1,55.7l-47.3-34.4h58.5
								l-47.3,34.4L570,238.5z"/>
						</g>
						<g>
							<path id="s_00000152224801355823814830000010719631865219254684_" class="st1" d="M570,346.2l18.1,55.7l-47.3-34.4h58.5
								l-47.3,34.4L570,346.2z"/>
						</g>
					</g>
					<g>
						<path id="s_00000165921983888598888640000015959397804289545649_" class="st1" d="M570,453.8l18.1,55.7l-47.3-34.4h58.5
							l-47.3,34.4L570,453.8z"/>
					</g>
				</g>
				<g>
					<g id="s4_00000113324304122114793780000014796211280649108414_">
						<path id="s_00000133507188163206615690000015199091981094937248_" class="st1" d="M633.3,76.9l18.1,55.7l-47.3-34.4h58.5
							l-47.3,34.4L633.3,76.9z"/>
						<g>
							<path id="s_00000062907654273531372440000014804563425328615042_" class="st1" d="M633.3,184.6l18.1,55.7l-47.3-34.4h58.5
								l-47.3,34.4L633.3,184.6z"/>
						</g>
						<g>
							<path id="s_00000156585044878144718650000000111362211336857739_" class="st1" d="M633.3,292.3l18.1,55.7l-47.3-34.4h58.5
								L615.2,348L633.3,292.3z"/>
						</g>
						<g>
							<path id="s_00000117676931963042458190000012942881521741159556_" class="st1" d="M633.3,400l18.1,55.7l-47.3-34.4h58.5
								l-47.3,34.4L633.3,400z"/>
						</g>
					</g>
				</g>
			</g>
		</g>
		<g>
			<g id="s5_00000127010244907324800590000014460355803667543483_">
				<g id="s4_00000173873397858138701320000009934906200155535524_">
					<path id="s_00000129896737075739139030000000258363777520560311_" class="st1" d="M696.7,23.1l18.1,55.7l-47.3-34.4h58.5
						l-47.3,34.4L696.7,23.1z"/>
					<g>
						<path id="s_00000037664710978369744060000015373099585127662495_" class="st1" d="M696.7,130.8l18.1,55.7L667.4,152h58.5
							l-47.3,34.4L696.7,130.8z"/>
					</g>
					<g>
						<path id="s_00000152247247250397143340000005891896670593831357_" class="st1" d="M696.7,238.5l18.1,55.7l-47.3-34.4h58.5
							l-47.3,34.4L696.7,238.5z"/>
					</g>
					<g>
						<path id="s_00000049216033629032111480000001120112091718822808_" class="st1" d="M696.7,346.2l18.1,55.7l-47.3-34.4h58.5
							l-47.3,34.4L696.7,346.2z"/>
					</g>
				</g>
				<g>
					<path id="s_00000169555272838169174860000016854084650531438262_" class="st1" d="M696.7,453.8l18.1,55.7l-47.3-34.4h58.5
						l-47.3,34.4L696.7,453.8z"/>
				</g>
			</g>
		</g>
	</g>
</g>
</svg>
