<?xml version="1.0" encoding="utf-8"?>
<!-- Generator: Adobe Illustrator 27.1.1, SVG Export Plug-In . SVG Version: 6.00 Build 0)  -->
<svg version="1.1" id="Camada_1" xmlns="http://www.w3.org/2000/svg" xmlns:xlink="http://www.w3.org/1999/xlink" x="0px" y="0px"
	 viewBox="0 0 800 577.8" style="enable-background:new 0 0 800 577.8;" xml:space="preserve">
<style type="text/css">
	.st0{fill:#B22334;}
	.st1{fill:#EEEEEE;}
	.st2{fill:#3C3B6E;}
	.st3{fill:#FFFFFF;}
</style>
<path class="st0" d="M787.7,44.4C772.3,18,743.9,0,711.1,0H400v44.4H787.7z M0,444.4h800v44.4H0V444.4z M400,266.7h400v44.4H400
	V266.7z M400,177.8h400v44.4H400V177.8z M0,355.6h800V400H0V355.6z M88.9,577.8h622.2c32.8,0,61.2-18,76.6-44.4H12.3
	C27.7,559.8,56.1,577.8,88.9,577.8z M400,88.9h400v44.4H400V88.9z"/>
<path class="st1" d="M1.5,504c0.4,2.1,0.8,4.1,1.3,6.2c0.6,2.2,1.3,4.4,2,6.6c2,5.8,4.4,11.3,7.4,16.5l0.1,0.1h775.3l0-0.1
	c3-5.2,5.5-10.8,7.4-16.5c1.5-4.2,2.6-8.5,3.4-12.8c0.9-4.9,1.5-9.9,1.5-15.1H0C0,494.1,0.6,499.1,1.5,504z M0,400h800v44.4H0V400z
	 M0,311.1v44.4h800v-44.4H400H0z M400,222.2h400v44.4H400V222.2z M400,133.3h400v44.4H400V133.3z M12.3,44.4l-0.1,0.1L12.3,44.4z
	 M2.8,67.6c0.6-2.3,1.3-4.4,2-6.6C4.1,63.2,3.4,65.4,2.8,67.6z M400,88.9h400c0-5.2-0.6-10.2-1.5-15.1c-0.8-4.4-1.9-8.6-3.4-12.8
	c-1.9-5.7-4.4-11.3-7.4-16.5H400V88.9z"/>
<path class="st2" d="M400,0H88.9C39.8,0,0,39.8,0,88.9v222.2h400V0z"/>
<path class="st3" d="M44.5,60.6l13.7,10L53,86.7l13.7-10l13.7,10l-5.2-16.1l13.7-10h-17l-5.2-16.1l-5.2,16.1H44.5z M88.9,105
	l13.7,10l-5.2,16.1l13.7-10l13.7,10l-5.2-16.1l13.7-10h-17l-5.2-16.1l-5.2,16.1H88.9z M177.8,105l13.7,10l-5.2,16.1l13.7-10l13.7,10
	l-5.2-16.1l13.7-10h-17L200,88.9l-5.2,16.1H177.8z M266.7,105l13.7,10l-5.2,16.1l13.7-10l13.7,10l-5.2-16.1l13.7-10h-17l-5.2-16.1
	l-5.2,16.1H266.7z M88.9,193.9l13.7,10L97.4,220l13.7-10l13.7,10l-5.2-16.1l13.7-10h-17l-5.2-16.1l-5.2,16.1H88.9z M177.8,193.9
	l13.7,10l-5.2,16.1l13.7-10l13.7,10l-5.2-16.1l13.7-10h-17l-5.2-16.1l-5.2,16.1H177.8z M266.7,193.9l13.7,10l-5.2,16.1l13.7-10
	l13.7,10l-5.2-16.1l13.7-10h-17l-5.2-16.1l-5.2,16.1H266.7z M133.4,60.6l13.7,10l-5.2,16.1l13.7-10l13.7,10L164,70.6l13.7-10h-17
	l-5.2-16.1l-5.2,16.1H133.4z M222.2,60.6l13.7,10l-5.2,16.1l13.7-10l13.7,10l-5.2-16.1l13.7-10h-17l-5.2-16.1l-5.2,16.1H222.2z
	 M311.1,60.6l13.7,10l-5.2,16.1l13.7-10l13.7,10l-5.2-16.1l13.7-10h-17l-5.2-16.1l-5.2,16.1H311.1z M44.5,149.5l13.7,10L53,175.6
	l13.7-10l13.7,10l-5.2-16.1l13.7-10h-17l-5.2-16.1l-5.2,16.1H44.5z M141.8,175.6l13.7-10l13.7,10l-5.2-16.1l13.7-10h-17l-5.2-16.1
	l-5.2,16.1h-17l13.7,10L141.8,175.6z M222.2,149.5l13.7,10l-5.2,16.1l13.7-10l13.7,10l-5.2-16.1l13.7-10h-17l-5.2-16.1l-5.2,16.1
	H222.2z M311.1,149.5l13.7,10l-5.2,16.1l13.7-10l13.7,10l-5.2-16.1l13.7-10h-17l-5.2-16.1l-5.2,16.1H311.1z M44.5,238.4l13.7,10
	L53,264.4l13.7-10l13.7,10l-5.2-16.1l13.7-10h-17l-5.2-16.1l-5.2,16.1H44.5z M141.8,264.4l13.7-10l13.7,10l-5.2-16.1l13.7-10h-17
	l-5.2-16.1l-5.2,16.1h-17l13.7,10L141.8,264.4z M222.2,238.4l13.7,10l-5.2,16.1l13.7-10l13.7,10l-5.2-16.1l13.7-10h-17l-5.2-16.1
	l-5.2,16.1H222.2z M311.1,238.4l13.7,10l-5.2,16.1l13.7-10l13.7,10l-5.2-16.1l13.7-10h-17l-5.2-16.1l-5.2,16.1H311.1z"/>
</svg>
