<?xml version="1.0" encoding="utf-8"?>
<!-- Generator: Adobe Illustrator 27.1.1, SVG Export Plug-In . SVG Version: 6.00 Build 0)  -->
<svg version="1.1" id="Camada_1" xmlns="http://www.w3.org/2000/svg" xmlns:xlink="http://www.w3.org/1999/xlink" x="0px" y="0px"
	 viewBox="0 0 800 577.8" style="enable-background:new 0 0 800 577.8;" xml:space="preserve">
<style type="text/css">
	.st0{fill:#0038A8;}
	.st1{fill:#EEEEEE;}
	.st2{fill:#FFD983;}
	.st3{fill:#FFCC4D;}
	.st4{fill:#FFAC33;}
	.st5{fill:#C1694F;}
</style>
<path class="st0" d="M0,488.9c0,49.1,39.8,88.9,88.9,88.9h622.2c49.1,0,88.9-39.8,88.9-88.9v-22.2H0V488.9z M0,311.1h800V400H0
	V311.1z"/>
<path class="st1" d="M0,400h800v66.7H0V400z"/>
<path class="st0" d="M800,88.9C800,39.8,760.2,0,711.1,0H355.6v88.9H800z M355.6,155.6H800v88.9H355.6V155.6z"/>
<path class="st1" d="M355.6,88.9V0H88.9C39.8,0,0,39.8,0,88.9v222.2h800v-66.7H355.6v-88.9H800V88.9H355.6z"/>
<path class="st2" d="M288.9,155.6c0-61.4-49.7-111.1-111.1-111.1S66.7,94.2,66.7,155.6s49.7,111.1,111.1,111.1
	S288.9,216.9,288.9,155.6z"/>
<path class="st3" d="M266.7,155.6c0-49.1-39.8-88.9-88.9-88.9s-88.9,39.8-88.9,88.9s39.8,88.9,88.9,88.9S266.7,204.6,266.7,155.6z"
	/>
<path class="st4" d="M177.8,13.3l14.1,89.8l57.1-70.7l-32.7,84.8L301,84.4l-70.7,57.1l89.8,14.1l-89.8,14.1l70.7,57.1L216.2,194
	l32.7,84.8L191.8,208l-14.1,89.8L163.7,208l-57.1,70.7l32.7-84.8l-84.8,32.7l70.7-57.1l-89.8-14.1l89.8-14.1L54.6,84.4l84.8,32.7
	l-32.7-84.8l57.1,70.7L177.8,13.3z"/>
<path class="st5" d="M244.4,155.6c0-36.8-29.8-66.7-66.7-66.7s-66.7,29.8-66.7,66.7s29.8,66.7,66.7,66.7S244.4,192.4,244.4,155.6z"
	/>
<path class="st4" d="M129.6,155.6c0-26.4,21.4-47.9,47.8-47.9c26.4,0,47.9,21.4,47.9,47.8s-21.4,47.9-47.8,47.9
	S129.7,182.1,129.6,155.6L129.6,155.6z"/>
</svg>
