<svg id="Layer_1" data-name="Layer 1" xmlns="http://www.w3.org/2000/svg" xmlns:xlink="http://www.w3.org/1999/xlink" viewBox="0 0 1500 1000"><defs><style>.cls-1,.cls-2{fill:none;}.cls-2{clip-path:url(#clip-path);}.cls-3{fill:#fff;}.cls-4{clip-path:url(#clip-path-2);}.cls-5{fill:#04a;}.cls-6{fill:#fde100;}.cls-7{fill:#b49530;}.cls-8{fill:#fdd500;}.cls-9{fill:#ceab2b;}</style><clipPath id="clip-path"><line class="cls-1" x1="-2.31" y1="-2.86" x2="-2.31" y2="888.8"/></clipPath><clipPath id="clip-path-2"><path class="cls-2" d="M-2.31,888.8"/></clipPath></defs><rect class="cls-3" width="1500" height="1000"/><g class="cls-4"><rect class="cls-3" x="-2.31" y="-2.86" width="1502.31" height="1002.86"/></g><rect class="cls-5" x="547.78" y="104.02" width="952.22" height="112"/><rect class="cls-5" x="547.78" y="328.01" width="952.22" height="112"/><rect class="cls-5" x="-2.31" y="552" width="1502.31" height="112.01"/><rect class="cls-5" x="-2.31" y="776" width="1502.31" height="111.99"/><path class="cls-6" d="M248,183.51c-6.77-6.86-16.2-6.37-27.28-5.88-16.2.68-36.12,1.37-57.12-20.29-13.35-13.8-27.58-13.6-39.36-13.41-9.42.19-17.27.3-21.59-6.87-5.11,9.22-5.11,25.77,15.7,31.36,13.84,3.63,31.41,18.41,36.51,25.38,18,24.49,42.89,13.42,70.76,43.69-23.55,0-27.28,42.12-78.22,41.15-16.49-.4-26.1,7.05-33.66,14.49-8.44,8.23-14.33,16.57-23.85,14.21,3,10.09,14.72,21.75,33.27,11.07,12.46-7.15,35.34-9.12,43.77-7.84,15.7,2.36,25.91-3.43,38-9.3,10.9-5.3,23.46-10.58,43.09-9.71-16.69,16.56,10.5,49-26.21,84.25-24.92,24-4.12,51.15-20.31,60.84,9.23,5.09,25.81,5.09,31.4-15.68,3.63-13.81,18.45-31.34,25.42-36.33,24.54-18,13.45-42.91,43.77-70.64,0,23.42,42.2,27.14,41.22,78.08-.68,34.48,33.27,39.09,28.76,57.32,10.1-2.94,21.79-14.7,11.09-33.22C376,403.73,374,381,375.28,372.49c4.61-30.07-20.91-39.78-19-80.82,6.68,6.65,16.1,6.16,27.19,5.67,16.19-.68,36.21-1.37,57.22,20.38,13.25,13.73,27.58,13.52,39.25,13.32,9.52-.1,17.28-.28,21.69,7,5.1-9.21,5.1-25.77-15.7-31.35-13.84-3.63-31.4-18.42-36.41-25.27-18.06-24.6-43-13.42-70.76-43.8,23.45,0,27.19-42,78.22-41.14,16.29.3,25.9-7.15,33.47-14.6,8.44-8.23,14.32-16.46,23.94-14-3-10.19-14.73-21.84-33.27-11.07-12.46,7.16-35.23,9.11-43.77,7.74-15.8-2.45-26,3.43-38.08,9.22-10.89,5.28-23.36,10.67-42.89,9.79,16.59-16.56-10.6-48.89,26.11-84.25,24.92-24,4.22-51.15,20.31-60.84-9.22-5.1-25.81-5.1-31.4,15.67C367.72,67.9,352.89,85.44,346,90.54c-24.63,17.93-13.44,42.8-43.87,70.63,0-23.51-42.1-27.23-41.22-78.09.69-34.57-33.27-39.18-28.65-57.4-10.21,2.93-21.89,14.69-11.09,33.21,7.16,12.45,9.12,35.27,7.75,43.69-4.61,30.08,20.9,39.78,19,80.93"/><path class="cls-7" d="M248,183.51l-.2.2c-4.91-4.9-11.29-5.89-18.75-5.89-5.2,0-11,.49-17.27.49-14.42,0-31.11-2.75-48.38-20.76-11.68-12.05-24-13.32-34.84-13.32-2.85,0-5.69.08-8.24.08-7.66,0-14.14-.77-18-7.05l.29-.2.29.2A22.25,22.25,0,0,0,100.19,148c0,7.93,4.41,16.45,18.25,20.08,13.94,3.82,31.5,18.52,36.7,25.57,17.77,24.3,42.7,13.22,70.67,43.68l.59.6h-.79c-22.86-.19-27,41.05-76.55,41.05h-2.65c-31.4,0-37.29,29-53.19,29.08a13.94,13.94,0,0,1-3.44-.38l.1-.29.39-.1c2.07,7.15,8.64,15.08,18.85,15.08,4,0,8.73-1.27,13.94-4.2,10.1-5.89,27.08-8.23,37.68-8.34a52.58,52.58,0,0,1,6.28.4,45,45,0,0,0,7.06.58c23.66.11,35.14-19.58,69.78-19.69,1.28,0,2.65.11,4.13.11l.78.08-.58.5c-4.92,4.9-5.89,11.26-5.89,18.71,0,5.29.49,11.07.49,17.24,0,14.41-2.75,31.06-20.81,48.4-12.07,11.56-13.35,23.9-13.35,34.68,0,2.93.1,5.68.1,8.23,0,7.73-.79,14.11-7.07,17.93l-.19-.3.19-.29a22.32,22.32,0,0,0,10.7,2.75c7.95,0,16.49-4.41,20.12-18.22,3.83-13.92,18.55-31.46,25.61-36.55,24.34-17.84,13.25-42.71,43.78-70.64l.58-.49V314c-.19,22.73,41.12,26.84,41.12,76.32v2.74c0,31.25,29.06,37.13,29.25,53.09a13.35,13.35,0,0,1-.49,3.33l-.29-.08-.1-.3c7.16-2.07,15.11-8.63,15.11-18.91,0-4-1.28-8.62-4.22-13.81-5.89-10.2-8.24-27.15-8.34-37.72a52.5,52.5,0,0,1,.39-6.27,43.75,43.75,0,0,0,.59-7.06c.1-23.6-19.63-35.08-19.73-69.65,0-1.27.1-2.65.1-4.12l.1-.79.49.6c4.91,4.89,11.29,6,18.75,6,5.3,0,11.08-.48,17.27-.48,14.42-.1,31.11,2.64,48.48,20.66,11.58,12.06,23.95,13.33,34.74,13.33,2.95,0,5.69-.09,8.35-.09,7.65,0,14.13.77,17.85,7l-.29.2-.29-.09A22.94,22.94,0,0,0,504,327.13c0-7.93-4.42-16.46-18.25-20.09s-31.5-18.52-36.61-25.47c-17.86-24.39-42.78-13.32-70.76-43.69l-.49-.6h.79c22.77.21,26.89-41.13,76.45-41.13h2.75c31.31,0,37.19-28.91,53.09-29.1a13.46,13.46,0,0,1,3.44.39l-.1.39-.29.1c-2.07-7.15-8.64-15.18-18.95-15.18-4,0-8.63,1.27-13.83,4.31-10.21,5.77-27.19,8.23-37.79,8.23a54.42,54.42,0,0,1-6.27-.4,45.22,45.22,0,0,0-7.08-.58C406.48,164.31,395,184,360.36,184c-1.28,0-2.65,0-4.13-.1h-.78l.59-.6c4.91-4.89,6-11.25,6-18.71,0-5.18-.59-11-.59-17.24,0-14.29,2.75-31,20.81-48.29,12.07-11.66,13.34-24,13.34-34.78,0-2.84-.1-5.69-.1-8.23,0-7.64.78-14.11,7.07-17.94l.19.31-.1.29A23,23,0,0,0,391.86,36c-7.95,0-16.49,4.4-20.12,18.22S353.2,85.63,346.22,90.83c-24.43,17.73-13.35,42.62-43.77,70.53l-.58.6v-.79c.19-22.83-41.23-26.93-41.23-76.41V82.1c0-31.33-28.95-37.22-29.14-53.08a14.39,14.39,0,0,1,.39-3.43l.4.09.09.3c-7.16,2.15-15.21,8.62-15.21,18.9,0,4,1.28,8.72,4.32,13.91,5.79,10.09,8.24,27,8.24,37.62a55,55,0,0,1-.39,6.28,44.8,44.8,0,0,0-.59,7c0,23.6,19.73,35.07,19.73,69.65,0,1.28,0,2.65-.1,4.12v.78l-.59-.58.2-.2-.3-.1c0-1.37.1-2.74.1-4,0-34.29-19.63-45.56-19.73-69.65a47.27,47.27,0,0,1,.59-7.16,49.3,49.3,0,0,0,.39-6.17c0-10.48-2.45-27.42-8.24-37.32-3-5.29-4.32-10-4.32-14.21,0-10.67,8.25-17.43,15.71-19.5l.59-.19-.2.6a12.21,12.21,0,0,0-.39,3.23c-.2,15,29.14,21.34,29.14,53.08v2.66c-.09,49.07,41,52.7,41.22,76.41h-.39l-.2-.29c30.23-27.62,19-52.41,43.87-70.63,6.77-5,21.59-22.54,25.22-36.25,3.74-14,12.57-18.71,20.81-18.71A22.76,22.76,0,0,1,403,38.11l.49.31-.49.29c-6,3.63-6.77,9.6-6.77,17.34,0,2.54.09,5.3.09,8.23,0,10.87-1.27,23.42-13.53,35.27-17.87,17.14-20.52,33.51-20.52,47.8,0,6.18.5,12,.5,17.24,0,7.55-1.09,14.12-6.19,19.21l-.2-.29v-.29c1.38.08,2.75.08,4,.08,34.35,0,45.63-19.58,69.77-19.68a47.06,47.06,0,0,1,7.26.59,50.24,50.24,0,0,0,6.09.38c10.5,0,27.48-2.44,37.39-8.22,5.3-3,10-4.31,14.23-4.31,10.7,0,17.47,8.23,19.63,15.68l.1.58-.59-.2a12.37,12.37,0,0,0-3.24-.38c-15-.2-21.29,29.08-53.09,29.08h-2.75c-49.17-.08-52.8,41-76.45,41.15v-.39l.2-.19c27.67,30.17,52.5,19,70.75,43.69,5,6.87,22.58,21.65,36.32,25.28,14,3.72,18.84,12.54,18.74,20.77a22.87,22.87,0,0,1-2.85,11.07l-.29.49-.29-.49c-3.63-6-9.62-6.75-17.27-6.75-2.66,0-5.4.08-8.35.08-10.79,0-23.45-1.28-35.23-13.52-17.27-17.82-33.66-20.47-48-20.47-6.19,0-12,.49-17.27.49-7.56,0-14.14-1.08-19.24-6.17l.29-.19h.3c0,1.36-.1,2.74-.1,4,0,34.29,19.73,45.56,19.73,69.65a48.31,48.31,0,0,1-.59,7.25,50.67,50.67,0,0,0-.29,6.08c0,10.48,2.35,27.43,8.14,37.31,3,5.3,4.32,10,4.32,14.22,0,10.68-8.24,17.44-15.6,19.59l-.59.11.09-.6a11.66,11.66,0,0,0,.4-3.14c.2-15.08-29.05-21.35-29.15-53.09v-2.74c.1-49.08-41-52.71-41.22-76.32h.39l.2.19c-30.23,27.63-19,52.42-43.77,70.64-6.87,5-21.69,22.53-25.32,36.25-3.73,14-12.56,18.71-20.81,18.71A23.06,23.06,0,0,1,201.27,437l-.49-.3.49-.29c6-3.63,6.77-9.61,6.77-17.34,0-2.55-.1-5.3-.1-8.23,0-10.78,1.28-23.41,13.55-35.17C239.35,358.38,242,342,242.1,327.71c0-6.17-.59-11.95-.59-17.24,0-7.53,1.08-14.1,6.18-19.21l.3.3-.1.3c-1.38,0-2.75-.1-4-.1-34.35,0-45.63,19.69-69.78,19.69a47.2,47.2,0,0,1-7.16-.58,52.1,52.1,0,0,0-6.18-.3c-10.5,0-27.38,2.36-37.39,8.13-5.3,3-10,4.3-14.23,4.3-10.7,0-17.47-8.22-19.53-15.56l-.2-.59.59.1a12.38,12.38,0,0,0,3.24.39c15,.19,21.39-29,53.19-29.1h2.65c49.17.1,52.8-41,76.55-41.15v.4l-.29.2c-27.68-30.18-52.51-19-70.77-43.7-5-6.86-22.56-21.65-36.31-25.27C104.21,165,99.5,156.17,99.5,148a22.91,22.91,0,0,1,2.85-11.08l.29-.49.29.49c3.63,6,9.72,6.76,17.38,6.76,2.55,0,5.3-.09,8.24-.09,10.89,0,23.45,1.27,35.33,13.52,17.17,17.83,33.56,20.57,47.89,20.57,6.18,0,12-.49,17.27-.49,7.56-.1,14.13,1,19.24,6.08l-.29.29-.3-.1.3.1"/><polyline class="cls-6" points="302.16 14.41 331.01 167.24 460.17 79.77 372.33 208.2 525.63 237.58 372.53 266.39 460.17 395.31 331.5 307.63 302.16 460.65 273.31 307.83 144.05 395.31 231.89 266.88 78.6 237.58 231.69 208.78 144.05 79.77 272.72 167.44 302.16 14.41"/><polyline class="cls-7" points="302.16 14.41 302.45 14.32 331.21 166.66 459.97 79.47 460.46 79.96 372.92 208 525.72 237.2 525.72 237.88 373.11 266.58 460.46 395.12 459.97 395.61 331.8 308.22 302.45 460.75 301.77 460.75 273.01 308.42 144.25 395.61 143.76 395.12 231.3 267.18 78.5 237.88 78.5 237.2 231.1 208.49 143.76 79.96 144.25 79.47 272.52 166.85 301.77 14.32 302.45 14.32 302.16 14.41 302.45 14.52 273.01 168.03 145.33 81.03 232.29 208.97 80.46 237.58 232.48 266.69 145.33 394.03 273.5 307.24 302.16 458.79 331.31 307.04 458.89 394.03 371.94 266.09 523.76 237.58 371.74 208.49 458.89 81.03 330.72 167.83 301.77 14.52 302.16 14.41 302.45 14.52 302.16 14.41"/><polyline class="cls-8" points="273.31 307.83 144.05 395.31 460.17 79.77 372.33 208.2 273.31 307.83"/><polyline class="cls-7" points="273.31 307.83 273.5 308.12 144.25 395.61 143.76 395.12 459.97 79.47 460.46 79.96 372.63 208.39 273.5 308.12 273.31 307.83 273.01 307.63 372.04 208 457.81 82.59 146.9 392.96 273.11 307.53 273.31 307.83 273.01 307.63 273.31 307.83"/><polyline class="cls-8" points="272.74 167.46 144.05 79.77 460.19 395.33 372.55 266.36"/><polyline class="cls-7" points="272.74 167.46 272.55 167.76 146.95 82.15 457.83 392.5 372.28 266.57 272.49 167.72 272.74 167.46 272.55 167.76 272.74 167.46 272.98 167.22 372.82 266.12 460.47 395.14 459.94 395.57 143.81 80 144.25 79.47 272.96 167.2 272.98 167.22 272.74 167.46"/><polyline class="cls-8" points="330.98 167.25 302.13 14.4 302.13 460.68 331.51 307.61"/><polyline class="cls-7" points="330.98 167.25 330.63 167.31 302.48 18.13 302.48 457.02 331.17 307.59 330.63 167.25 330.98 167.25 330.63 167.31 330.98 167.25 331.33 167.25 331.86 307.66 302.46 460.75 301.78 460.68 301.78 14.4 302.46 14.34 331.33 167.22 331.33 167.25 330.98 167.25"/><polyline class="cls-8" points="525.66 237.55 372.55 266.36 231.92 266.89 78.58 237.55"/><polyline class="cls-7" points="525.66 237.55 525.72 237.89 372.58 266.71 231.89 267.24 78.52 237.89 78.58 237.2 525.66 237.2 525.72 237.89 525.66 237.55 525.66 237.9 82.26 237.9 231.96 266.54 372.51 266 525.6 237.2 525.66 237.55 525.66 237.9 525.66 237.55"/><path class="cls-6" d="M225.78,237.55a76.34,76.34,0,1,1,76.35,76.2,76.28,76.28,0,0,1-76.35-76.2"/><path class="cls-7" d="M225.78,237.55h-.35a76.69,76.69,0,1,1,76.7,76.55,76.61,76.61,0,0,1-76.7-76.55h.7a75.93,75.93,0,1,0,22.26-53.64,75.52,75.52,0,0,0-22.26,53.64h-.35"/><path class="cls-6" d="M228.34,45.24c-3.6,16.95,16,24.45,12.72,56.72C239,122.88,255.43,143.67,260,151.5"/><path class="cls-7" d="M228.68,45.3a19.69,19.69,0,0,0-.44,4.07c-.07,12.79,13.52,21.38,13.54,45.51,0,2.24-.12,4.6-.37,7.1a36,36,0,0,0-.18,3.73c0,19.45,14.74,38.22,19.07,45.61l-.6.35c-4.27-7.32-19.16-26.19-19.17-46a34.36,34.36,0,0,1,.19-3.79c.24-2.49.36-4.82.36-7,0-23.85-13.47-32.17-13.54-45.51a19.42,19.42,0,0,1,.46-4.2l.68.13"/><path class="cls-6" d="M250.36,110.48c3.48,13.85,13.62,26,19.64,33.3"/><path class="cls-7" d="M250.7,110.39c3.45,13.75,13.54,25.87,19.58,33.17l-.55.45c-6-7.31-16.19-19.49-19.7-33.44l.67-.18"/><path class="cls-6" d="M113.72,153.67c9.46,14.5,28.63,6,49.18,31.1,13.33,16.29,39.71,19.37,48.49,21.67"/><path class="cls-7" d="M114,153.47c9.17,14.27,28.47,5.85,49.16,31.09,13.18,16.12,39.47,19.24,48.31,21.54l-.18.68c-8.72-2.3-35.21-5.36-48.67-21.8-20.41-25-39.45-16.39-49.21-31.14l.59-.37"/><path class="cls-6" d="M135.3,161c5.61,1.81,11,2.54,17.19,5.61"/><path class="cls-7" d="M135.41,160.64c5.57,1.79,11,2.55,17.24,5.64l-.3.61c-6.17-3-11.5-3.77-17.16-5.58l.22-.67"/><path class="cls-6" d="M175.51,184.24c12.28,7.33,28.05,8.77,37.48,9.68"/><path class="cls-7" d="M175.68,183.93c12.19,7.29,27.91,8.73,37.34,9.64l-.07.7c-9.42-.92-25.25-2.36-37.63-9.73l.36-.61"/><path class="cls-6" d="M109.48,311.2c17,3.6,24.49-16,56.81-12.71,21,2.12,41.8-14.33,49.64-18.9"/><path class="cls-7" d="M109.54,310.88a20.15,20.15,0,0,0,4.06.42c12.82.06,21.42-13.5,45.59-13.52,2.25,0,4.61.12,7.13.37a35.93,35.93,0,0,0,3.72.19c19.49,0,38.3-14.72,45.71-19l.35.6C208.76,284.15,189.86,299,170,299c-1.25,0-2.52-.08-3.78-.19-2.5-.25-4.85-.38-7.07-.38-23.88,0-32.23,13.46-45.59,13.52a20.1,20.1,0,0,1-4.2-.45l.14-.67"/><path class="cls-6" d="M129.92,301.17c5.25-2.7,9.58-6,16.14-8.19"/><path class="cls-7" d="M129.76,300.85c5.21-2.67,9.56-6,16.19-8.18l.22.65c-6.51,2.18-10.8,5.43-16.08,8.15l-.33-.62"/><path class="cls-6" d="M174.83,289.22c13.88-3.48,26-13.59,33.37-19.6"/><path class="cls-7" d="M174.74,288.88c13.77-3.44,25.92-13.52,33.24-19.54l.43.56c-7.32,6-19.51,16.15-33.49,19.66l-.18-.68"/><path class="cls-6" d="M218.05,425.59c14.62-9.41,6-28.52,31.21-49.1,16.29-13.32,19.44-39.56,21.69-48.38l-52.9,97.48"/><path class="cls-7" d="M217.86,425.29c14.33-9.11,5.89-28.41,31.2-49.08,16.1-13.13,19.24-39.39,21.59-48.21l.6.2c-2.26,8.73-5.3,35.18-21.79,48.59-25,20.38-16.39,39.39-31.21,49.09l-.39-.59"/><path class="cls-6" d="M225.41,404.13c1.77-5.68,2.56-11,5.6-17.24l-5.6,17.24"/><path class="cls-7" d="M225.12,403.93c1.77-5.48,2.55-10.87,5.59-17.14l.69.29c-3.14,6.17-3.83,11.46-5.69,17.15l-.59-.3"/><path class="cls-6" d="M248.72,363.94c7.34-12.27,8.79-28,9.7-37.41"/><path class="cls-7" d="M248.41,363.76c7.31-12.18,8.75-27.86,9.66-37.27l.7.07c-.93,9.4-2.35,25.19-9.76,37.56l-.6-.36"/><path class="cls-6" d="M375.92,429.85c3.59-17-16-24.44-12.74-56.71,2.12-20.92-14.37-41.73-18.94-49.54"/><path class="cls-7" d="M375.58,429.77a19.13,19.13,0,0,0,.42-4c.07-12.8-13.52-21.39-13.53-45.52,0-2.24.11-4.61.36-7.11.12-1.24.19-2.47.19-3.72,0-19.44-14.76-38.21-19.08-45.61l.6-.34c4.26,7.29,19.17,26.17,19.17,45.95,0,1.27-.06,2.52-.18,3.79a70,70,0,0,0-.37,7c0,23.86,13.48,32.17,13.54,45.52a20,20,0,0,1-.45,4.19l-.67-.15"/><path class="cls-6" d="M365.85,409.44c-2.69-5.24-6-9.55-8.19-16.1"/><path class="cls-7" d="M365.53,409.6c-2.67-5.2-6-9.55-8.19-16.15l.65-.22c2.2,6.49,5.45,10.77,8.17,16l-.63.32"/><path class="cls-6" d="M353.89,364.61c-3.49-13.85-13.62-26-19.64-33.29"/><path class="cls-7" d="M353.55,364.7C350.1,350.94,340,338.82,334,331.53l.55-.45c6,7.32,16.18,19.48,19.7,33.44l-.68.18"/><path class="cls-6" d="M490.52,321.44c-9.46-14.52-28.62-6-49.17-31.11C428,274,401.63,271,392.86,268.67"/><path class="cls-7" d="M490.23,321.62c-9.17-14.27-28.46-5.84-49.16-31.08C427.9,274.4,401.6,271.3,392.78,269l.17-.68c8.71,2.31,35.21,5.35,48.67,21.79,20.41,25,39.44,16.37,49.2,31.14l-.59.37"/><path class="cls-6" d="M469,314.11c-5.61-1.8-11-2.54-17.2-5.61"/><path class="cls-7" d="M468.85,314.44c-5.58-1.79-11-2.53-17.25-5.63l.3-.63c6.16,3,11.51,3.79,17.16,5.6l-.21.66"/><path class="cls-6" d="M428.74,290.86c-12.28-7.34-28.05-8.78-37.48-9.69"/><path class="cls-7" d="M428.55,291.16c-12.18-7.29-27.89-8.74-37.32-9.64l.06-.7c9.43.92,25.25,2.34,37.63,9.73l-.37.61"/><path class="cls-6" d="M494.77,163.88c-17-3.58-24.49,16-56.82,12.72-20.94-2.12-41.79,14.33-49.62,18.91"/><path class="cls-7" d="M494.69,164.21a20.62,20.62,0,0,0-4-.42c-12.82-.07-21.42,13.49-45.61,13.52-2.24,0-4.6-.12-7.12-.36a35.84,35.84,0,0,0-3.73-.19c-19.46,0-38.29,14.71-45.69,19l-.35-.59c7.32-4.27,26.24-19.12,46-19.15a36.86,36.86,0,0,1,3.79.2q3.75.38,7.06.37c23.9,0,32.24-13.47,45.61-13.53a19.92,19.92,0,0,1,4.18.45l-.14.67"/><path class="cls-6" d="M474.32,173.93c-5.23,2.7-9.56,6-16.13,8.17"/><path class="cls-7" d="M474.49,174.23c-5.21,2.68-9.57,6-16.19,8.2l-.22-.67c6.5-2.18,10.81-5.43,16.07-8.15l.34.62"/><path class="cls-6" d="M429.42,185.87c-13.89,3.48-26.05,13.59-33.36,19.61"/><path class="cls-7" d="M429.51,186.21c-13.79,3.45-25.92,13.52-33.24,19.54l-.43-.55c7.31-6,19.5-16.16,33.5-19.67l.17.68"/><path class="cls-6" d="M386.17,49.47c-14.55,9.46-6,28.6-31.17,49.1-16.32,13.3-19.4,39.64-21.71,48.4"/><path class="cls-7" d="M386.35,49.77c-14.3,9.16-5.86,28.42-31.14,49.07C339,112,335.94,138.25,333.63,147.06l-.67-.18c2.31-8.7,5.35-35.14,21.82-48.58C379.83,77.94,371.19,58.93,386,49.18l.38.59"/><path class="cls-6" d="M378.82,71c-1.79,5.61-2.54,11-5.62,17.18"/><path class="cls-7" d="M379.15,71.1c-1.78,5.58-2.53,11-5.63,17.23l-.64-.29c3.06-6.16,3.8-11.48,5.6-17.14l.67.2"/><path class="cls-6" d="M355.54,111.15c-7.36,12.26-8.8,28-9.72,37.41"/><path class="cls-7" d="M355.83,111.33c-7.3,12.17-8.75,27.86-9.66,37.27l-.7-.07c.92-9.41,2.36-25.2,9.76-37.56l.6.36"/><path class="cls-6" d="M346.18,292.32A70.21,70.21,0,0,0,367.69,212"/><path class="cls-7" d="M346,292.05a69.92,69.92,0,0,0,21.41-79.93l.65-.24a70.57,70.57,0,0,1-21.62,80.7l-.44-.53"/><path class="cls-6" d="M366.26,208.63a63,63,0,0,0-3.41-6.58"/><path class="cls-7" d="M366,208.76a68.64,68.64,0,0,0-3.4-6.54l.6-.36a69.11,69.11,0,0,1,3.43,6.62l-.63.28"/><line class="cls-6" x1="360.46" y1="198.25" x2="358.46" y2="195.44"/><polyline class="cls-7" points="360.18 198.44 358.18 195.65 358.74 195.24 360.74 198.04"/><line class="cls-6" x1="356.36" y1="192.79" x2="354.66" y2="190.82"/><polyline class="cls-7" points="356.1 193.01 354.4 191.04 354.93 190.6 356.62 192.55"/><path class="cls-6" d="M288.1,168.63c-1.38.29-2.77.62-4.13,1"/><path class="cls-7" d="M288.17,169c-1.38.27-2.75.61-4.11,1l-.18-.68c1.37-.36,2.76-.69,4.15-1l.14.69"/><path class="cls-6" d="M276.68,172c-1.83.69-3.64,1.48-5.41,2.35"/><path class="cls-7" d="M276.79,172.31c-1.8.7-3.6,1.49-5.37,2.36l-.31-.64q2.68-1.31,5.43-2.37l.25.65"/><path class="cls-6" d="M266.21,177.08a72,72,0,0,0-7,4.74"/><path class="cls-7" d="M266.38,177.37a72.63,72.63,0,0,0-6.95,4.72l-.42-.55a73.88,73.88,0,0,1,7-4.76l.36.59"/><path class="cls-6" d="M252.75,187.43a74.82,74.82,0,0,0-5.63,6.27"/><path class="cls-7" d="M253,187.68a72.13,72.13,0,0,0-5.59,6.23l-.55-.43a72.41,72.41,0,0,1,5.65-6.3l.49.5"/><path class="cls-9" d="M280.24,271.45c2.68.88,3.65,1,7.19-1.31,4.49-2.94,9.14-4.37,11.26-3.1a6.85,6.85,0,0,0,6.62.16c1.55-.9,3.85-2.3,8.9.49s6.94,4.42,10.12,4.25c2.05-.11,1.55,1.62,0,1.46s-4.4-1.68-6.86-2.37c-1.47-.4-3.75-1.13-6,.59s-5.64,3.74-7,3.57a30.75,30.75,0,0,0-3.84,0c-2.12,0-4.21-2.55-6.21-3-3.91-.89-5.38-1.05-7.26-.55-3.1.79-5.55,2.28-6.86,1.54s-1.46-2.2,0-1.71"/><path class="cls-7" d="M280.24,271.45l.11-.34a8.31,8.31,0,0,0,2.57.57c1.08,0,2.21-.45,4.31-1.83,3.42-2.23,6.91-3.61,9.45-3.63l2.19.51a6.48,6.48,0,0,0,3.32.89,6,6,0,0,0,2.94-.72,7.26,7.26,0,0,1,3.82-1.21,11.25,11.25,0,0,1,5.42,1.7c4.78,2.67,6.74,4.23,9.52,4.21h.42l.19,0,1.53,1-1.5,1.16-.24,0c-1.68-.18-4.49-1.7-6.92-2.37a9.79,9.79,0,0,0-2.73-.49,4.81,4.81,0,0,0-3,1c-2.26,1.67-5.37,3.63-7.07,3.66h-.21l-1.26-.07-2.53.07c-2.38-.05-4.46-2.66-6.29-3a25,25,0,0,0-5.14-.83l-1.95.27c-2.48.63-4.53,1.73-6.09,1.75l-1-.23-1.21-1.66.24-.6.62-.21.63.11-.11.34-.11.32-.41-.07-.16.11.85,1,.69.15c1.24,0,3.36-1.06,5.91-1.72l2.13-.29a25.6,25.6,0,0,1,5.3.85c2.17.54,4.26,3.05,6.13,3l2.53-.09,1.35.09h.12c1.24,0,4.49-1.89,6.65-3.53a5.62,5.62,0,0,1,3.42-1.15,10.14,10.14,0,0,1,2.92.54c2.51.69,5.4,2.21,6.8,2.33l.17,0,.8-.47-.83-.32h-.61c-3.1,0-5.14-1.68-9.86-4.29a10.39,10.39,0,0,0-5.08-1.62,6.41,6.41,0,0,0-3.46,1.13,6.8,6.8,0,0,1-3.3.8,7.11,7.11,0,0,1-3.68-1l-1.83-.41c-2.29,0-5.73,1.33-9.07,3.52-2.12,1.38-3.38,1.94-4.69,1.94a8.87,8.87,0,0,1-2.79-.61l.11-.32"/><path class="cls-9" d="M287.59,276.34a11.22,11.22,0,0,1,5.88,1.21,9.78,9.78,0,0,0,5.31.82,22.38,22.38,0,0,1,6.21-.08c1.3.24,4.4-.5,6.44-1.14s3.18-1.14,4.4-.74.49.74-.89,1.08-5.55,2.1-6.61,3.33-3.76,1.81-6.2,1.95a13.32,13.32,0,0,1-7.6-2c-1.78-1.38-4.73-3.19-6.36-3.35s-2-1-.58-1.05"/><path class="cls-7" d="M287.59,276.34l0-.35.76,0a11.36,11.36,0,0,1,5.28,1.27,10.71,10.71,0,0,0,4.05.89l1-.09a20.4,20.4,0,0,1,3.5-.28,17.78,17.78,0,0,1,2.85.19l.53.05a24.15,24.15,0,0,0,5.74-1.18,13.42,13.42,0,0,1,3.59-.91l1,.16.87.76-.65.66-1.14.32c-1.29.27-5.52,2.14-6.43,3.24-1.23,1.37-4,1.9-6.44,2.07h-.59a13.39,13.39,0,0,1-7.25-2.13c-1.73-1.36-4.72-3.14-6.18-3.26-1-.15-1.66-.31-1.8-1l1.24-.73,0,.35,0,.34-.55.1-.05,0-.11-.1H287l0,.1-.11-.1h.1l0,0v0h0l0,0,1.16.36c1.8.2,4.71,2,6.55,3.42a12.91,12.91,0,0,0,6.81,2h.55c2.39-.13,5.05-.76,6-1.83,1.21-1.36,5.31-3.08,6.79-3.44l1-.31.23-.12.09.11h-.11l0-.11.09.11h.07l-.15.1,0-.1h.18l-.15.1-.41-.19-.82-.13a12.75,12.75,0,0,0-3.37.88,24.71,24.71,0,0,1-6,1.2l-.66-.05a17,17,0,0,0-2.72-.17,19.38,19.38,0,0,0-3.35.24l-1.19.1a11.16,11.16,0,0,1-4.34-.94,10.85,10.85,0,0,0-5-1.21l-.72,0,0-.34"/><path class="cls-9" d="M274.85,296.54a33.82,33.82,0,0,0,13.88-2.44c3.6-1.63,13.23-2,19.76.33s17.46,2.77,20.73,1.79c-7.67,5.21-21.21-.17-26.44.32A8.39,8.39,0,0,1,307,300.3c-.82-2.12-7.19-2.12-8.5-3.59s-6.7-1.79-10.12-.34-11.1,2.12-13.56.17"/><path class="cls-7" d="M274.85,296.54v-.34l1,0a33.4,33.4,0,0,0,12.69-2.44c1.89-.86,5.2-1.32,8.91-1.32a35,35,0,0,1,11.09,1.64,53.4,53.4,0,0,0,15.49,2.24,20.87,20.87,0,0,0,5.05-.46l.29.61a16.24,16.24,0,0,1-9.25,2.36c-6.31,0-13-2-16.65-2l-.71,0,0-.35.05-.34a8.49,8.49,0,0,1,4.52,4l-.32.13-.33.12c-.25-.79-2-1.41-3.82-1.83s-3.77-.77-4.61-1.66c-.56-.67-2.5-1.18-4.65-1.16a13.85,13.85,0,0,0-5.08.91,22.75,22.75,0,0,1-8.19,1.43c-2.34,0-4.49-.34-5.71-1.3l-.82-.66,1,.05v.34l.22-.28c.95.79,3,1.16,5.28,1.14a22.59,22.59,0,0,0,7.92-1.35,13.85,13.85,0,0,1,5.35-1c2.26,0,4.26.42,5.17,1.39.46.58,2.39,1,4.25,1.45s3.73.91,4.31,2.25l-.65.26a8.16,8.16,0,0,0-4-3.55l0-.68.77-.05c3.81,0,10.47,2,16.65,2a15.54,15.54,0,0,0,8.86-2.24l.19.3.1.32a20.17,20.17,0,0,1-5.24.51,53.32,53.32,0,0,1-15.72-2.3,34.72,34.72,0,0,0-10.86-1.6c-3.63,0-6.92.49-8.62,1.26a33.7,33.7,0,0,1-13,2.49h-1v-.35l.22-.28-.22.28"/><path class="cls-9" d="M252,197.78c10.93-8.47,17.8-9.95,21.89-7.65s13.21,4.23,16.16,4.72,2.93,3.1,1.14,4.4-2,2.13-1.8,3.59-2.8.58-5.06-1.31c-3.93-3.26-11.75-6.35-12.9-7.83s-5.06-1.62-8.33,1.15-6.68.82-8.16,3.25-5.52,1.68-2.94-.32"/><path class="cls-7" d="M252,197.78l-.22-.27c8-6.19,13.84-8.69,18.12-8.7a8.52,8.52,0,0,1,4.15,1c4,2.23,13.14,4.2,16.05,4.69,1.76.27,2.67,1.38,2.66,2.56l-1.36,2.45c-1.45,1.08-1.69,1.63-1.72,2.57l.06.71V203l-.35.74-.8.23a8.53,8.53,0,0,1-4.49-2.12c-3.87-3.23-11.6-6.23-12.94-7.89a3.33,3.33,0,0,0-2.57-.9,8.38,8.38,0,0,0-5.26,2.09,8.2,8.2,0,0,1-4.94,1.83c-1.47.18-2.52.3-3.15,1.34a3.54,3.54,0,0,1-3,1.72l-1.47-1.05,1-1.43.22.27.21.27-.7.89.77.35,2.36-1.37c.84-1.38,2.26-1.52,3.67-1.67a7.63,7.63,0,0,0,4.56-1.68,9.1,9.1,0,0,1,5.72-2.25,3.89,3.89,0,0,1,3.11,1.17c.95,1.29,8.88,4.48,12.85,7.77a8.08,8.08,0,0,0,4,2L289,203v-.07l-.05-.79c0-1.14.49-2.05,2-3.13l1.08-1.89c0-.82-.53-1.61-2.07-1.88-3-.51-12.1-2.45-16.28-4.76a7.57,7.57,0,0,0-3.81-.92c-4,0-9.76,2.4-17.7,8.54l-.2-.27"/><path class="cls-9" d="M263.1,218.48c1.8,2,7.62,4.14,11.27,3.91,8.32-.49,11.59-5.71,13.71-4.24s1,1.15-.32,1.47-7.36,2.77-10.29,4.08-11.1.81-14.37-5.22"/><path class="cls-7" d="M263.1,218.48l.25-.25c1.57,1.75,7,3.84,10.49,3.82h.51c7.21-.42,10.38-4.4,12.89-4.5l1,.32,1.33,1.35-.75.58-1,.17c-1.24.3-7.31,2.76-10.23,4.06a9.6,9.6,0,0,1-3.64.61c-3.72,0-8.73-1.49-11.17-6l.55-.41-.25.25.31-.16c2.25,4.17,7,5.61,10.56,5.61a8.75,8.75,0,0,0,3.36-.55c3-1.32,8.95-3.74,10.34-4.09l1.08-.2L289,219l0,.07-.07-.05,0,0,0,.07-.07-.05.18.15h-.23l0-.15.18.15H289l-.07,0v0H289l-.07,0-1-.82-.65-.21c-1.82-.08-5.46,4.07-12.85,4.51h-.55c-3.78,0-9.14-2.05-11-4l.26-.24.31-.16-.31.16"/><path class="cls-9" d="M270.12,211.47c-.25,2.09.62,5.2,2.09,5.16l.12,1.6c-3.37-.29-4.17-5.08-2.21-6.76l-3.75.65c-.25,3.84,1.88,8.39,7.43,8.39s7.84-5.61,6.93-8.72c2,1.81,4.89,3.74,5.72,2.3s1.31-3.1,2.12-3.28c-3.26-.64-9.3-4.4-12.9-4.22s-10.44,3.09-13.71,3.73-6.53,5.87-3.1,4.42,6.37-2.13,7.51-2.62"/><path class="cls-7" d="M270.12,211.47l.35.05-.05.7L271,215l1.21,1.24v0h0v0l.36,0,.14,2,0,.41-.4-.05a4.16,4.16,0,0,1-3.57-4.44,3.81,3.81,0,0,1,1.17-2.92l.23.26.06.35-3.75.64-.06-.34.35,0,0,.59c0,3.57,2.05,7.43,7.1,7.44a6.86,6.86,0,0,0,6.77-6.93l-.18-1.34-.34-1.2.91.84c1.44,1.34,3.51,2.74,4.55,2.71l.63-.34c.84-1.41,1.18-3.1,2.37-3.44l.06.34-.06.34c-3.3-.68-9.16-4.25-12.61-4.22h-.22c-3.45.14-10.32,3-13.65,3.74-2.1.34-4.36,3.12-4.28,3.87v.08l.12,0,.84-.23c3.44-1.47,6.44-2.15,7.51-2.62h0l3.79-.67.47-.07-.06.47-.35-.05.06.35-3.75.64-.06-.34.13.32c-1.21.52-4.11,1.16-7.51,2.6l-1.11.29-.6-.21-.23-.58c.09-1.41,2.37-4,4.85-4.56,3.2-.63,10-3.57,13.75-3.75h.25c3.81,0,9.65,3.65,12.74,4.25v.68c-.45,0-1.1,1.58-1.89,3.1l-1.24.69c-1.5,0-3.49-1.52-5-2.89l.24-.26.34-.09.2,1.54a7.57,7.57,0,0,1-7.47,7.63c-5.49,0-7.79-4.34-7.8-8.14l0-.63,0-.26,4-.72,1.25-.22-1,.83a3.12,3.12,0,0,0-.94,2.4c0,1.77,1,3.6,2.95,3.75l0,.35-.36,0-.1-1.6.34,0,.05.35h-.08c-1.74-.15-2.41-2.7-2.45-4.76l0-.79.35,0,.06.35-.06-.35"/><path class="cls-9" d="M319.88,248.73l-1.43-2.54c-1.47-1.32-1.55.15-.74,2.28s-.24,3.74-3.84,3.51c-3.13-.22-5.38.23-6.68,1.55s-5.55,2-7.19.06-4.82-2.19-7.26-2.36a3.46,3.46,0,0,1-3.18-4.23c.49-1.64-.09-1.8-1.23-.66l-.95,2.62c.08,2.53-4.6,6.53-6.72,8.31s-2.37,3.42.49,1,6-4.06,7.61-5.93a4,4,0,0,0,2.59,1.36c4.08.31,5.71.89,7.1,2.1,0,1.38-.1,4-.25,5s.58,1.55,1.07-.34a13.07,13.07,0,0,1,1.71-3.49,12,12,0,0,0,5-.2c.64,1.87,1.24,3.63,1.73,4.69s1.14.32.81-1.06a30.17,30.17,0,0,1-.36-4.53,10.38,10.38,0,0,1,7.54-1l2.44-.83c1.06,1.14,2.95,3.11,4.42,5s2.73,1.6,1.8-.06c-1.15-2.05-4.45-8.23-4.45-10.18"/><path class="cls-7" d="M319.88,248.73l-.3.16-1.44-2.55.31-.15-.23.25-.65-.4v0h0v0h0l0,.31.49,2,.28,1.38c0,1.57-1.34,2.63-3.77,2.63l-.7,0-1.4,0q-3.54,0-5,1.49a6.48,6.48,0,0,1-4.23,1.39,4.52,4.52,0,0,1-3.48-1.33c-1.47-1.79-4.57-2.08-7-2.24a3.87,3.87,0,0,1-3.62-3.82l.12-.86.16-.84,0-.14.07-.07V246l-.07,0,.07-.07V246l-.85.62-.25-.24.33.13-1,2.61-.33-.12h.35V249c-.07,2.87-4.74,6.7-6.86,8.5a4.83,4.83,0,0,0-1.49,1.8h-.19l.13-.13.06.13h-.19l.13-.13-.13.12v-.17l.13.05-.13.12v-.17a5.31,5.31,0,0,0,1.73-1.15c2.88-2.49,6-4.12,7.58-5.91l.25-.3.26.29,2.37,1.26c4.09.3,5.83.91,7.3,2.19l.12.11v.15c0,1.4-.1,4-.26,5v.23l.05.32h0l-.07.11v-.14l.07,0-.07.11v-.09l0,0h0v0l0,0,.46-1a13.51,13.51,0,0,1,1.75-3.59l.12-.21.25,0,1.85.17a12.18,12.18,0,0,0,3-.36l.3-.09.11.3c.65,1.87,1.24,3.64,1.73,4.65l.17.29v.12l-.07-.07.07,0v.1l-.07-.07.11-.51-.07-.66a27.81,27.81,0,0,1-.36-4.59v-.2l.17-.1a10.05,10.05,0,0,1,5.16-1.34l2.64.28-.08.34-.12-.32,2.44-.83.22-.08.15.16c1.06,1.13,2.95,3.11,4.44,5l1.46,1.17h0v-.09l-.28-.79c-1.16-2.07-4.46-8.14-4.49-10.32h.35l-.3.16.3-.16h.35c0,1.71,3.26,8,4.4,10l.36,1.11-.19.55-.54.23-2-1.44c-1.47-1.85-3.34-3.8-4.41-5l.26-.24.11.32-2.44.84-.09,0h-.1l-2.48-.29a9.39,9.39,0,0,0-4.79,1.25l-.19-.29.36,0a29.86,29.86,0,0,0,.33,4.47l.1.8-.74,1.18-.82-.71c-.51-1.08-1.1-2.85-1.75-4.72l.34-.1.08.34a13.09,13.09,0,0,1-3.13.38l-2-.19.06-.33.31.16a13.14,13.14,0,0,0-1.68,3.43l-1.1,1.52-.68-1,0-.34c.16-.91.23-3.57.25-4.93h.35l-.23.27c-1.33-1.17-2.83-1.71-6.9-2a4.36,4.36,0,0,1-2.82-1.49l.26-.23.26.23c-1.71,1.93-4.83,3.53-7.64,5.95-1.08.92-1.66,1.3-2.19,1.34l-.37-.15-.14-.37c.06-.64.68-1.38,1.74-2.33,2.12-1.72,6.69-5.78,6.62-8v-.11l1-2.68,0-.08.05-.05,1.35-.84.65.8-.2,1-.08.66a3.18,3.18,0,0,0,3,3.13c2.45.17,5.71.38,7.5,2.48a3.8,3.8,0,0,0,2.95,1.09,5.83,5.83,0,0,0,3.72-1.19c1.2-1.2,3.08-1.7,5.52-1.7l1.45.06.65,0c2.3,0,3.05-.83,3.07-1.94l-.24-1.13-.53-2.25.72-1,1.11.58,0,0,1.47,2.59,0,.09v.09h-.35"/><path class="cls-9" d="M337.87,212.12c.25,3.84-1.88,8.39-7.42,8.39s-7.84-5.61-6.94-8.72a13.53,13.53,0,0,1-3.7,2.54c0,1.57.1,3.23.24,4.82a21.39,21.39,0,0,0,9.83,3.24c3.64.23,9.46-2,11.27-3.91-3.28,6-12,6.76-14.95,5.45-1.64-.72-3.75-2.06-6-2.92a25.89,25.89,0,0,0,1,5c1.14,3.26-5.39,3.74-3.91,7,3.75,8.32-1.48,3.26-2.94.65s-.65,5.54,0,7.83c-5.88-12.38-1.1-20-2.78-26.72-1.3-5.22-.16-9.13,3.26-11.9,1.16-.93,0-2.29-1.79-3.59s-1.8-3.91,1.15-4.4,11.72-3.89,16.16-5.38,10.61-1.3,21.55,7.18c2.57,2-1.15,3.9-2.62,1.45s-4.57,1.8-7.83-1-7.18-2.6-8.33-1.13c-.77,1-5,.48-8.68,2.55,1.6,1.4-.3,4.12-2.42,5.1-1.65.75-1.81,2.61-2,5.56,2.92-1.27,6.21-2.73,8.49-2.62,3.59.17,10.45,3.09,13.72,3.73s6.52,5.87,3.09,4.42-6.36-2.12-7.51-2.62l-3.75-.65c.26,2.09-.62,5.2-2.09,5.16l-.11,1.6c3.37-.29,4.16-5.08,2.2-6.76"/><path class="cls-7" d="M337.87,212.12l.35,0,0,.63c0,3.8-2.32,8.12-7.79,8.14a7.57,7.57,0,0,1-7.48-7.63l.21-1.53.33.08.24.26a14.16,14.16,0,0,1-3.81,2.61l-.13-.33h.35v.23c0,1.47.1,3.06.23,4.57l-.34,0,.17-.3A20.92,20.92,0,0,0,329.9,222h.5c3.52,0,8.91-2.07,10.48-3.82l.57.41c-2.51,4.61-8,6.19-11.91,6.19a8.84,8.84,0,0,1-3.48-.58c-1.69-.74-3.77-2.06-6-2.91l.13-.33.34-.06a25.5,25.5,0,0,0,1,4.92l.15.85c0,1.4-1.23,2.23-2.28,3s-2,1.48-2,2.35l.18.78A13,13,0,0,1,319,237l-.17.62-.56.28c-1.27-.11-3.22-2.49-4.19-4.1l-.22-.3,0,0,.09-.13v.15l-.09,0,.09-.13v0l.13.08-.13.06v-.14l.13.08-.13,1.31a32.91,32.91,0,0,0,.81,6.64l-.66.24A30.11,30.11,0,0,1,311,228.29c0-3.87.64-7.17.64-10.12a13.71,13.71,0,0,0-.37-3.35,17,17,0,0,1-.53-4,10,10,0,0,1,3.92-8.22l.32-.6c.05-.55-.83-1.53-2.11-2.45l-1.36-2.45c0-1.18.9-2.29,2.66-2.56,2.84-.47,11.66-3.88,16.11-5.38a13.56,13.56,0,0,1,4.37-.71c4.17,0,9.65,1.85,17.49,8l1,1.65a1.78,1.78,0,0,1-1.93,1.58L349,198.27l-1-.62c-.91,0-2.32.8-3.94.81l-2.78-1.06a8.29,8.29,0,0,0-5.27-2.1,3.32,3.32,0,0,0-2.56.9c-.62.71-1.86.73-3.48,1a15.45,15.45,0,0,0-5.3,1.65l-.17-.31.23-.26.72,1.57c0,1.63-1.56,3.32-3.23,4.1-1.41.62-1.61,2.28-1.74,5.26h-.36l-.14-.33c2.82-1.21,6-2.65,8.38-2.66h.26c3.72.18,10.57,3.12,13.77,3.75,2.48.56,4.76,3.15,4.83,4.56l-.22.58-.61.23-1.11-.31c-3.4-1.44-6.29-2.08-7.51-2.6l.14-.32-.06.34-3.75-.64.06-.35.35,0,0,.81c0,2-.73,4.61-2.46,4.74H332l0-.35.35,0-.11,1.6-.35,0,0-.35c1.91-.15,2.93-2,2.94-3.75a3.16,3.16,0,0,0-.94-2.4l-.95-.83,5,.87.27.07,0,.26-.35,0-.06.34-3.75-.64.06-.35.23-.26a3.81,3.81,0,0,1,1.18,2.92c0,2-1.19,4.23-3.58,4.44l-.41.05.14-2,0-.37.37,0v0h0v0l1.21-1.24.54-2.8,0-.72,0-.47,4.21.72,0,0h0c1.09.47,4.07,1.15,7.51,2.62l.84.23.12,0v-.08c.1-.75-2.17-3.52-4.26-3.87-3.33-.69-10.2-3.6-13.68-3.74h-.22c-2.13,0-5.29,1.38-8.09,2.59l-.53.23,0-.57c.14-2.89.27-5,2.15-5.85,1.48-.66,2.84-2.32,2.82-3.47l-.48-1.05-.37-.33.43-.23a15.91,15.91,0,0,1,5.53-1.72c1.62-.24,2.9-.46,3.05-.76a3.89,3.89,0,0,1,3.1-1.18,9,9,0,0,1,5.73,2.28l2.32.89c1.38,0,2.72-.77,3.94-.8l1.63,1,1.63,1,1.24-.88-.76-1.12c-7.8-6-13.13-7.8-17.07-7.8a13.11,13.11,0,0,0-4.15.69c-4.44,1.48-13.19,4.89-16.22,5.39-1.53.27-2.07,1.06-2.08,1.88l1.09,1.89c1.3,1,2.36,1.93,2.39,3l-.59,1.15a9.29,9.29,0,0,0-3.65,7.67,15.72,15.72,0,0,0,.51,3.86,14.84,14.84,0,0,1,.39,3.52c0,3.06-.64,6.31-.64,10.12a29.13,29.13,0,0,0,3,13l-.32.16-.34.1a33.13,33.13,0,0,1-.83-6.83l.08-1.23.62-.72.77.68c.76,1.46,3.13,3.87,3.59,3.74v0l0-.22a11.79,11.79,0,0,0-1.29-3.88l-.25-1.06c0-1.38,1.24-2.15,2.28-2.92s2-1.51,2-2.42l-.11-.63a26.3,26.3,0,0,1-1-5l-.08-.58.56.21c2.26.89,4.37,2.22,6,2.93a8.24,8.24,0,0,0,3.19.51c3.75,0,9-1.53,11.3-5.8l.31.16.24.24c-1.85,2-7.2,4-11,4h-.54a22,22,0,0,1-10-3.27l-.17-.11v-.18c-.13-1.52-.23-3.11-.23-4.62v-.47l.22-.09a13,13,0,0,0,3.59-2.46l.93-.85-.35,1.21-.19,1.34a6.87,6.87,0,0,0,6.79,6.93c5,0,7.06-3.87,7.09-7.44l0-.59.35,0-.06.34.06-.34"/><path d="M231,386.91s0,0,0,0v0"/></svg>