<svg id="Layer_1" data-name="Layer 1" xmlns="http://www.w3.org/2000/svg" viewBox="0 0 1500 1000"><defs><style>.cls-1{fill:#ce202c;}.cls-2{fill:#273376;}.cls-3{fill:#ffcc05;}.cls-4{fill:#fff;}</style></defs><rect class="cls-1" x="-0.82" width="1501.64" height="1000"/><rect class="cls-2" x="-0.82" width="1501.64" height="666.67"/><rect class="cls-3" x="-0.82" width="1501.64" height="333.33"/><polygon class="cls-4" points="816.33 350.65 794.56 391.59 819.12 404.65 816.33 350.65"/><polygon class="cls-4" points="816.33 350.65 822.78 396.57 795.23 400.44 816.33 350.65"/><polygon class="cls-4" points="854.19 389.86 808.53 381.81 803.7 409.21 854.19 389.86"/><polygon class="cls-4" points="854.19 389.86 812.52 410.19 800.32 385.18 854.19 389.86"/><polygon class="cls-4" points="767.33 374.55 799.54 407.9 819.56 388.58 767.33 374.55"/><polygon class="cls-4" points="767.33 374.55 813 382.6 808.17 410 767.33 374.55"/><polygon class="cls-4" points="828.6 437.99 822.15 392.07 794.6 395.95 828.6 437.99"/><polygon class="cls-4" points="828.6 437.99 796.39 404.64 816.4 385.31 828.6 437.99"/><polygon class="cls-4" points="774.92 428.52 816.6 408.2 804.4 383.19 774.92 428.52"/><polygon class="cls-4" points="774.92 428.52 796.69 387.59 821.25 400.65 774.92 428.52"/><polygon class="cls-4" points="940.41 395.82 905.95 426.84 924.57 447.52 940.41 395.82"/><polygon class="cls-4" points="940.41 395.82 930.77 441.17 903.55 435.38 940.41 395.82"/><polygon class="cls-4" points="962.58 445.61 922.42 422.43 908.51 446.52 962.58 445.61"/><polygon class="cls-4" points="962.58 445.61 916.47 450.46 913.56 422.79 962.58 445.61"/><polygon class="cls-4" points="886.2 401.51 905.06 443.87 930.47 432.56 886.2 401.51"/><polygon class="cls-4" points="886.2 401.51 926.35 424.7 912.44 448.79 886.2 401.51"/><polygon class="cls-4" points="922.07 482.08 931.71 436.73 904.5 430.95 922.07 482.08"/><polygon class="cls-4" points="922.07 482.08 903.21 439.73 928.63 428.41 922.07 482.08"/><polygon class="cls-4" points="874.87 454.83 920.98 449.98 918.07 422.32 874.87 454.83"/><polygon class="cls-4" points="874.87 454.83 909.32 423.8 927.94 444.48 874.87 454.83"/><polygon class="cls-4" points="1041.56 480.69 998.57 498.06 1008.99 523.86 1041.56 480.69"/><polygon class="cls-4" points="1041.56 480.69 1016.99 520.01 993.4 505.27 1041.56 480.69"/><polygon class="cls-4" points="1045.36 535.07 1015.56 499.55 994.25 517.43 1045.36 535.07"/><polygon class="cls-4" points="1045.36 535.07 1000.37 523.85 1007.1 496.86 1045.36 535.07"/><polygon class="cls-4" points="988.67 467.51 991.91 513.76 1019.66 511.82 988.67 467.51"/><polygon class="cls-4" points="988.67 467.51 1018.48 503.03 997.16 520.91 988.67 467.51"/><polygon class="cls-4" points="994.83 555.49 1019.39 516.16 995.8 501.42 994.83 555.49"/><polygon class="cls-4" points="994.83 555.49 991.59 509.23 1019.34 507.29 994.83 555.49"/><polygon class="cls-4" points="959.79 513.73 1004.78 524.95 1011.51 497.95 959.79 513.73"/><polygon class="cls-4" points="959.79 513.73 1002.78 496.36 1013.2 522.16 959.79 513.73"/><polygon class="cls-4" points="1107.58 595.05 1061.24 596.67 1062.22 624.47 1107.58 595.05"/><polygon class="cls-4" points="1107.58 595.05 1071.05 623.59 1053.92 601.67 1107.58 595.05"/><polygon class="cls-4" points="1092.56 647.44 1076.7 603.87 1050.56 613.39 1092.56 647.44"/><polygon class="cls-4" points="1092.56 647.44 1054.12 621.52 1069.68 598.45 1092.56 647.44"/><polygon class="cls-4" points="1062.39 564.57 1049.62 609.14 1076.36 616.81 1062.39 564.57"/><polygon class="cls-4" points="1062.39 564.57 1078.25 608.14 1052.11 617.65 1062.39 564.57"/><polygon class="cls-4" points="1038.09 649.35 1074.62 620.8 1057.49 598.88 1038.09 649.35"/><polygon class="cls-4" points="1038.09 649.35 1050.87 604.78 1077.61 612.44 1038.09 649.35"/><polygon class="cls-4" points="1019.44 598.13 1057.88 624.05 1073.44 600.99 1019.44 598.13"/><polygon class="cls-4" points="1019.44 598.13 1065.78 596.51 1066.75 624.31 1019.44 598.13"/><polygon class="cls-4" points="683.67 350.65 705.44 391.59 680.88 404.65 683.67 350.65"/><polygon class="cls-4" points="683.67 350.65 677.22 396.57 704.77 400.44 683.67 350.65"/><polygon class="cls-4" points="645.81 389.86 691.47 381.81 696.3 409.21 645.81 389.86"/><polygon class="cls-4" points="645.81 389.86 687.48 410.19 699.68 385.18 645.81 389.86"/><polygon class="cls-4" points="732.67 374.55 700.46 407.9 680.44 388.58 732.67 374.55"/><polygon class="cls-4" points="732.67 374.55 687 382.6 691.83 410 732.67 374.55"/><polygon class="cls-4" points="671.4 437.99 677.85 392.07 705.4 395.95 671.4 437.99"/><polygon class="cls-4" points="671.4 437.99 703.61 404.64 683.6 385.31 671.4 437.99"/><polygon class="cls-4" points="725.08 428.52 683.4 408.2 695.6 383.19 725.08 428.52"/><polygon class="cls-4" points="725.08 428.52 703.31 387.59 678.75 400.65 725.08 428.52"/><polygon class="cls-4" points="559.59 395.82 594.05 426.84 575.43 447.52 559.59 395.82"/><polygon class="cls-4" points="559.59 395.82 569.23 441.17 596.44 435.38 559.59 395.82"/><polygon class="cls-4" points="537.42 445.61 577.58 422.43 591.49 446.52 537.42 445.61"/><polygon class="cls-4" points="537.42 445.61 583.53 450.46 586.44 422.79 537.42 445.61"/><polygon class="cls-4" points="613.8 401.51 594.94 443.87 569.53 432.56 613.8 401.51"/><polygon class="cls-4" points="613.8 401.51 573.65 424.7 587.56 448.79 613.8 401.51"/><polygon class="cls-4" points="577.93 482.08 568.29 436.73 595.5 430.95 577.93 482.08"/><polygon class="cls-4" points="577.93 482.08 596.79 439.73 571.37 428.41 577.93 482.08"/><polygon class="cls-4" points="625.13 454.83 579.02 449.98 581.93 422.32 625.13 454.83"/><polygon class="cls-4" points="625.13 454.83 590.68 423.8 572.06 444.48 625.13 454.83"/><polygon class="cls-4" points="458.44 480.69 501.43 498.06 491.01 523.86 458.44 480.69"/><polygon class="cls-4" points="458.44 480.69 483.01 520.01 506.6 505.27 458.44 480.69"/><polygon class="cls-4" points="454.64 535.07 484.44 499.55 505.75 517.43 454.64 535.07"/><polygon class="cls-4" points="454.64 535.07 499.63 523.85 492.9 496.86 454.64 535.07"/><polygon class="cls-4" points="511.33 467.51 508.09 513.76 480.34 511.82 511.33 467.51"/><polygon class="cls-4" points="511.33 467.51 481.52 503.03 502.83 520.91 511.33 467.51"/><polygon class="cls-4" points="505.18 555.49 480.6 516.16 504.2 501.42 505.18 555.49"/><polygon class="cls-4" points="505.18 555.49 508.41 509.23 480.66 507.29 505.18 555.49"/><polygon class="cls-4" points="540.21 513.73 495.22 524.95 488.49 497.95 540.21 513.73"/><polygon class="cls-4" points="540.21 513.73 497.22 496.36 486.8 522.16 540.21 513.73"/><polygon class="cls-4" points="392.42 595.05 438.75 596.67 437.78 624.47 392.42 595.05"/><polygon class="cls-4" points="392.42 595.05 428.95 623.59 446.08 601.67 392.42 595.05"/><polygon class="cls-4" points="407.44 647.44 423.3 603.87 449.44 613.39 407.44 647.44"/><polygon class="cls-4" points="407.44 647.44 445.88 621.52 430.32 598.45 407.44 647.44"/><polygon class="cls-4" points="437.61 564.57 450.38 609.14 423.64 616.81 437.61 564.57"/><polygon class="cls-4" points="437.61 564.57 421.75 608.14 447.89 617.65 437.61 564.57"/><polygon class="cls-4" points="461.92 649.35 425.38 620.8 442.5 598.88 461.92 649.35"/><polygon class="cls-4" points="461.92 649.35 449.13 604.78 422.39 612.44 461.92 649.35"/><polygon class="cls-4" points="480.56 598.13 442.12 624.05 426.56 600.99 480.56 598.13"/><polygon class="cls-4" points="480.56 598.13 434.22 596.51 433.25 624.31 480.56 598.13"/></svg>