<?xml version="1.0" encoding="utf-8"?>
<!-- Generator: Adobe Illustrator 27.1.1, SVG Export Plug-In . SVG Version: 6.00 Build 0)  -->
<svg version="1.1" id="Camada_1" xmlns="http://www.w3.org/2000/svg" xmlns:xlink="http://www.w3.org/1999/xlink" x="0px" y="0px"
	 viewBox="0 0 800 577.8" style="enable-background:new 0 0 800 577.8;" xml:space="preserve">
<style type="text/css">
	.st0{fill:#CF142B;}
	.st1{fill:#00247D;}
	.st2{fill:#FFCC00;}
	.st3{fill:#FFFFFF;}
</style>
<path class="st0" d="M0,488.9c0,49.1,39.8,88.9,88.9,88.9h622.2c49.1,0,88.9-39.8,88.9-88.9V400H0V488.9z"/>
<path class="st1" d="M0,400h800V177.8H0V400z M562.6,321.1l6,16.4L586,337l-13.8,10.8l6,16.4l-14.5-9.8L550,365.2l4.8-16.8
	l-14.5-9.8l17.5-0.6L562.6,321.1L562.6,321.1z M535.6,284.1l16.2-6.6l-9.3,14.8l11.2,13.4l-17-4.2l-9.3,14.8l-1.2-17.4l-17-4.2
	l16.2-6.6l-1.2-17.4L535.6,284.1z M471.1,236.4l15.2,8.8l13-11.7l-3.6,17.1l15.2,8.8l-17.4,1.8l-3.6,17.1l-7.1-16l-17.4,1.8l13-11.7
	L471.1,236.4z M426.6,225.5l8.2-15.4l2.4,17.3l17.2,3l-15.7,7.7l2.4,17.3l-12.2-12.6l-15.8,7.7l8.2-15.4l-12.2-12.6L426.6,225.5
	L426.6,225.5z M362.7,227.4l2.4-17.3l8.2,15.4l17.2-3L378.5,235l8.2,15.4l-15.7-7.7l-12.2,12.6l2.4-17.3l-15.7-7.7L362.7,227.4
	L362.7,227.4z M300.8,233.5l13,11.7l15.1-8.8l-7.1,16l13,11.7l-17.4-1.8l-7.1,16l-3.6-17.1l-17.4-1.8l15.2-8.8L300.8,233.5
	L300.8,233.5z M248.2,277.6l16.2,6.6l11.2-13.4l-1.2,17.4l16.2,6.6l-17,4.2l-1.2,17.4l-9.3-14.8l-17,4.2l11.2-13.4L248.2,277.6
	L248.2,277.6z M231.4,337.5l6-16.4l4.8,16.8l17.5,0.6l-14.5,9.8l4.8,16.8l-13.8-10.8l-14.5,9.8l6-16.4l-13.8-10.8L231.4,337.5z"/>
<path class="st2" d="M711.1,0H88.9C39.8,0,0,39.8,0,88.9v88.9h800V88.9C800,39.8,760.2,0,711.1,0z"/>
<path class="st3" d="M413.3,250.5l15.7-7.7l12.2,12.6l-2.4-17.3l15.7-7.7l-17.2-3l-2.4-17.3l-8.2,15.4l-17.2-3l12.2,12.6
	L413.3,250.5z M482.6,262.3l7.1,16l3.6-17.1l17.4-1.8l-15.1-8.7l3.6-17.1l-13,11.7l-15.1-8.7l7.1,16l-13,11.7L482.6,262.3z
	 M509.3,294.7l17,4.2l1.2,17.4l9.3-14.8l17,4.2l-11.2-13.4l9.3-14.8l-16.2,6.6l-11.2-13.4l1.2,17.4L509.3,294.7z M554.8,348.3
	l-4.8,16.8l13.8-10.8l14.5,9.8l-6-16.4l13.8-10.8l-17.5,0.6l-6-16.4l-4.8,16.8l-17.5,0.6L554.8,348.3z M358.8,255.4l12.2-12.6
	l15.7,7.7l-8.2-15.4l12.2-12.6l-17.2,3l-8.2-15.4l-2.4,17.3l-17.2,3l15.7,7.7L358.8,255.4z M306.6,261.2l3.6,17.1l7.1-16l17.4,1.8
	l-13-11.7l7.1-16l-15.1,8.7l-13-11.7l3.6,17.1l-15.1,8.7L306.6,261.2z M263.2,301.6l9.3,14.8l1.2-17.4l17-4.2l-16.2-6.6l1.2-17.4
	l-11.2,13.4l-16.2-6.6l9.3,14.8l-11.2,13.4L263.2,301.6z M221.8,364.1l14.5-9.8l13.8,10.8l-4.8-16.8l14.5-9.8l-17.5-0.6l-4.8-16.8
	l-6,16.4l-17.5-0.6l13.8,10.8L221.8,364.1z"/>
</svg>
